<svg width="24" height="24" viewBox="0 0 24 24" fill="none" xmlns="http://www.w3.org/2000/svg">
<path fill-rule="evenodd" clip-rule="evenodd" d="M15.5303 7.46967C15.8232 7.76256 15.8232 8.23744 15.5303 8.53033L12.0303 12.0303C11.7374 12.3232 11.2626 12.3232 10.9697 12.0303L8.96966 10.0303C8.67677 9.73744 8.67677 9.26256 8.96966 8.96967C9.26256 8.67678 9.73743 8.67678 10.0303 8.96967L11.5 10.4393L14.4697 7.46967C14.7626 7.17678 15.2374 7.17678 15.5303 7.46967Z" fill="black"/>
<path fill-rule="evenodd" clip-rule="evenodd" d="M3.52436 8.85685C3.87869 4.55824 7.47084 1.25 11.784 1.25H12.216C16.5292 1.25 20.1213 4.55824 20.4756 8.85685C20.666 11.166 19.9527 13.4589 18.486 15.2526L13.693 21.1144C12.818 22.1845 11.182 22.1845 10.307 21.1144L5.51396 15.2526C4.0473 13.4589 3.33402 11.166 3.52436 8.85685ZM11.784 2.75C8.25149 2.75 5.30948 5.45948 5.01929 8.98008C4.86087 10.9019 5.45452 12.8102 6.67518 14.3031L11.4682 20.1649C11.7431 20.501 12.2569 20.501 12.5318 20.1649L17.3248 14.3031C18.5455 12.8102 19.1391 10.9019 18.9807 8.98008C18.6905 5.45948 15.7485 2.75 12.216 2.75H11.784Z" fill="black"/>
</svg>
