<svg width="24" height="24" viewBox="0 0 24 24" fill="none" xmlns="http://www.w3.org/2000/svg">
<path fill-rule="evenodd" clip-rule="evenodd" d="M11.7622 3.25012C12.2215 3.25577 12.752 3.47285 13.0382 3.98432L13.2124 4.29566C15.8706 9.04585 18.0375 13.9835 19.6862 19.049C19.904 19.7181 19.5451 20.2858 19.0969 20.5487C18.6585 20.806 18.0554 20.8404 17.5447 20.512L12.8172 17.4719C12.2948 17.1359 11.5857 17.135 11.0963 17.4441L6.46481 20.3691C5.94279 20.6988 5.33704 20.6351 4.91178 20.3799C4.48466 20.1236 4.10332 19.5712 4.30269 18.8969C5.78974 13.8676 7.7997 8.97844 10.3077 4.28868L10.472 3.9815C10.7562 3.44999 11.3042 3.24449 11.7622 3.25012ZM11.7551 4.76305L11.6304 4.99606C9.22518 9.49368 7.28787 14.1762 5.84037 18.9894L10.2953 16.1759C11.2941 15.5451 12.6321 15.5694 13.6286 16.2103L18.1246 19.1016C16.5242 14.2751 14.4428 9.56597 11.9034 5.02816L11.7551 4.76305Z" fill="black"/>
</svg>
