<svg xmlns="http://www.w3.org/2000/svg" x="0px" y="0px"
width="35" height="35"
viewBox="0 0 172 172"
style=" fill:#000000;"><g fill="none" fill-rule="nonzero" stroke="none" stroke-width="1" stroke-linecap="butt" stroke-linejoin="miter" stroke-miterlimit="10" stroke-dasharray="" stroke-dashoffset="0" font-family="none" font-weight="none" font-size="none" text-anchor="none" style="mix-blend-mode: normal"><path d="M0,172v-172h172v172z" fill="none"></path><g fill="#ffffff"><path d="M6.88,6.88v130.6125l99.76,0.1075v-90.8375l-39.8825,-39.775zM65.36,13.76l34.4,34.4h-34.4zM113.52,34.4v63.9625l4.4075,-4.515l4.945,4.945l-9.3525,9.245v2.0425h30.96v6.88h-30.96v2.0425l9.3525,9.245l-4.945,4.945l-4.4075,-4.515v15.8025h-48.16v20.5325l99.76,0.1075v-90.8375l-39.8825,-39.775zM123.84,41.28l34.4,34.4h-34.4zM60.9525,69.7675l19.565,19.6725l-19.565,19.6725l-4.945,-4.945l11.395,-11.2875h-33.0025v-6.88h33.0025l-11.395,-11.2875z"></path></g></g></svg>