<svg width="24" height="24" viewBox="0 0 24 24" fill="none" xmlns="http://www.w3.org/2000/svg">
<path fill-rule="evenodd" clip-rule="evenodd" d="M3.25 12C3.25 7.16751 7.16751 3.25 12 3.25C16.8325 3.25 20.75 7.16751 20.75 12C20.75 16.8325 16.8325 20.75 12 20.75C7.16751 20.75 3.25 16.8325 3.25 12ZM10.8498 9.30875C9.91625 10.0768 9.29256 11.1571 9.0942 12.3496L8.43749 16.2977C8.28588 17.2091 9.3457 17.821 10.0593 17.234L13.15 14.6912C14.0836 13.9232 14.7073 12.8429 14.9057 11.6504L15.5624 7.70231C15.714 6.79083 14.6542 6.17894 13.9406 6.76598L10.8498 9.30875Z" fill="black"/>
<path d="M10.5 12C10.5 11.1716 11.1716 10.5 12 10.5C12.8284 10.5 13.5 11.1716 13.5 12C13.5 12.8284 12.8284 13.5 12 13.5C11.1716 13.5 10.5 12.8284 10.5 12Z" fill="black"/>
</svg>
