<svg width="24" height="24" viewBox="0 0 24 24" fill="none" xmlns="http://www.w3.org/2000/svg">
<path d="M18.955 3.10571C19.2478 2.81282 19.2478 2.33794 18.955 2.04505C18.6621 1.75216 18.1872 1.75216 17.8943 2.04505L17.1872 2.75216C16.6917 3.24759 16.7171 4.01746 17.1493 4.49977C20.0518 7.73853 19.9465 12.7207 16.8336 15.8336C15.2236 17.4437 13.1135 18.2491 11.0032 18.25L11 18.25L10.997 18.25C9.02922 18.2493 7.06174 17.5491 5.49977 16.1493C5.01746 15.7171 4.24759 15.6917 3.75216 16.1872L3.04505 16.8943C2.75216 17.1872 2.75216 17.6621 3.04505 17.955C3.33794 18.2478 3.81282 18.2478 4.10571 17.955L4.65616 17.4045C6.27594 18.7951 8.24373 19.5674 10.25 19.7213V21.25H8.5C8.08579 21.25 7.75 21.5858 7.75 22C7.75 22.4142 8.08579 22.75 8.5 22.75H13.5C13.9142 22.75 14.25 22.4142 14.25 22C14.25 21.5858 13.9142 21.25 13.5 21.25H11.75V19.7213C13.9897 19.5496 16.1813 18.6073 17.8943 16.8943C21.5235 13.2651 21.6935 7.48724 18.4045 3.65616L18.955 3.10571Z" fill="black"/>
<path fill-rule="evenodd" clip-rule="evenodd" d="M4.5 10C4.5 6.41015 7.41015 3.5 11 3.5C14.5899 3.5 17.5 6.41015 17.5 10C17.5 13.5899 14.5899 16.5 11 16.5C7.41015 16.5 4.5 13.5899 4.5 10ZM13 6.25C11.4812 6.25 10.25 7.48122 10.25 9C10.25 10.5188 11.4812 11.75 13 11.75C14.5188 11.75 15.75 10.5188 15.75 9C15.75 7.48122 14.5188 6.25 13 6.25ZM6.25 12.5C6.25 11.8096 6.80964 11.25 7.5 11.25C8.19036 11.25 8.75 11.8096 8.75 12.5C8.75 13.1904 8.19036 13.75 7.5 13.75C6.80964 13.75 6.25 13.1904 6.25 12.5Z" fill="black"/>
</svg>
