<svg width="24" height="24" viewBox="0 0 24 24" fill="none" xmlns="http://www.w3.org/2000/svg">
<path fill-rule="evenodd" clip-rule="evenodd" d="M3.77354 8.87739C4.11718 4.70845 7.60097 1.5 11.7841 1.5H12.216C16.3991 1.5 19.8829 4.70845 20.2265 8.87739C20.4115 11.122 19.7182 13.3508 18.2925 15.0943L13.4995 20.9561C12.7245 21.9039 11.2756 21.9039 10.5006 20.9561L5.70752 15.0943C4.28187 13.3508 3.58852 11.122 3.77354 8.87739ZM10.25 9.57143C10.25 8.54542 11.0533 7.75 12 7.75C12.9467 7.75 13.75 8.54542 13.75 9.57143C13.75 10.3747 13.2531 11.0438 12.5816 11.29C11.9935 11.5057 11.25 12.0764 11.25 13C11.25 13.4142 11.5858 13.75 12 13.75C12.4142 13.75 12.75 13.4142 12.75 13C12.75 12.9844 12.754 12.9455 12.8112 12.8818C12.8723 12.8138 12.9736 12.744 13.098 12.6983C14.3618 12.2348 15.25 11.0024 15.25 9.57143C15.25 7.75711 13.8147 6.25 12 6.25C10.1853 6.25 8.75 7.75711 8.75 9.57143C8.75 9.98564 9.08579 10.3214 9.5 10.3214C9.91421 10.3214 10.25 9.98564 10.25 9.57143ZM12 17C12.5523 17 13 16.5523 13 16C13 15.4477 12.5523 15 12 15C11.4477 15 11 15.4477 11 16C11 16.5523 11.4477 17 12 17Z" fill="black"/>
</svg>
