<svg width="24" height="24" viewBox="0 0 24 24" fill="none" xmlns="http://www.w3.org/2000/svg">
<path fill-rule="evenodd" clip-rule="evenodd" d="M3.77354 8.87739C4.11718 4.70845 7.60097 1.5 11.7841 1.5H12.216C16.3991 1.5 19.8829 4.70845 20.2265 8.87739C20.4115 11.122 19.7182 13.3508 18.2925 15.0943L13.4995 20.9561C12.7245 21.9039 11.2756 21.9039 10.5006 20.9561L5.70752 15.0943C4.28187 13.3508 3.58852 11.122 3.77354 8.87739ZM12 6.25C12.4142 6.25 12.75 6.58579 12.75 7V9.00003H14.75C15.1642 9.00003 15.5 9.33582 15.5 9.75003C15.5 10.1642 15.1642 10.5 14.75 10.5H12.75V12.5C12.75 12.9142 12.4142 13.25 12 13.25C11.5858 13.25 11.25 12.9142 11.25 12.5L11.25 10.5H9.25C8.83579 10.5 8.5 10.1642 8.5 9.75003C8.5 9.33582 8.83579 9.00003 9.25 9.00003H11.25V7C11.25 6.58579 11.5858 6.25 12 6.25Z" fill="black"/>
</svg>
