<svg width="24" height="24" viewBox="0 0 24 24" fill="none" xmlns="http://www.w3.org/2000/svg">
<path d="M10.4697 8.46966C10.7626 8.17677 11.2374 8.17677 11.5303 8.46966L14 10.9393L16.4697 8.46967C16.7626 8.17678 17.2374 8.17678 17.5303 8.46967C17.8232 8.76256 17.8232 9.23744 17.5303 9.53033L15.0607 12L17.5303 14.4697C17.8232 14.7626 17.8232 15.2374 17.5303 15.5303C17.2374 15.8232 16.7626 15.8232 16.4697 15.5303L14 13.0607L11.5303 15.5303C11.2374 15.8232 10.7626 15.8232 10.4697 15.5303C10.1768 15.2374 10.1768 14.7626 10.4697 14.4697L12.9393 12L10.4697 9.53032C10.1768 9.23743 10.1768 8.76255 10.4697 8.46966Z" fill="black"/>
<path fill-rule="evenodd" clip-rule="evenodd" d="M8.40595 4.95001C7.25488 4.95001 6.16757 5.47865 5.45665 6.38394L1.89515 10.9192C1.39693 11.5536 1.39693 12.4464 1.89515 13.0808L5.45665 17.6161C6.16758 18.5214 7.25488 19.05 8.40595 19.05H19.0526C20.5714 19.05 21.8026 17.8188 21.8026 16.3V7.70001C21.8026 6.18123 20.5714 4.95001 19.0526 4.95001H8.40595ZM6.63637 7.31037C7.06292 6.7672 7.71531 6.45001 8.40595 6.45001H19.0526C19.743 6.45001 20.3026 7.00966 20.3026 7.70001V16.3C20.3026 16.9904 19.743 17.55 19.0526 17.55H8.40595C7.71531 17.55 7.06292 17.2328 6.63637 16.6897L3.07486 12.1544C3.00369 12.0638 3.00369 11.9362 3.07486 11.8456L6.63637 7.31037Z" fill="black"/>
</svg>
