<svg width="24" height="24" viewBox="0 0 24 24" fill="none" xmlns="http://www.w3.org/2000/svg">
<path fill-rule="evenodd" clip-rule="evenodd" d="M13.6642 6.34312C13.6642 6.75734 14 7.09312 14.4142 7.09312L16.9068 7.09312V9.58577C16.9068 9.99998 17.2426 10.3358 17.6568 10.3358C18.0711 10.3358 18.4068 9.99998 18.4068 9.58577V6.34313C18.4068 5.92891 18.0711 5.59313 17.6568 5.59313L14.4142 5.59312C14 5.59312 13.6642 5.92891 13.6642 6.34312Z" fill="black"/>
<path fill-rule="evenodd" clip-rule="evenodd" d="M17.6568 13.6642C17.2426 13.6642 16.9068 14 16.9068 14.4142L16.9068 16.9068L14.4142 16.9068C14 16.9068 13.6642 17.2426 13.6642 17.6568C13.6642 18.0711 14 18.4068 14.4142 18.4068L17.6568 18.4068C18.071 18.4068 18.4068 18.0711 18.4068 17.6568L18.4068 14.4142C18.4068 14 18.071 13.6642 17.6568 13.6642Z" fill="black"/>
<path fill-rule="evenodd" clip-rule="evenodd" d="M6.34312 13.6642C6.75733 13.6642 7.09312 14 7.09312 14.4142L7.09312 16.9068L9.58576 16.9068C9.99998 16.9068 10.3358 17.2426 10.3358 17.6568C10.3358 18.0711 9.99997 18.4068 9.58576 18.4068L6.34312 18.4068C5.92891 18.4068 5.59312 18.0711 5.59312 17.6568L5.59312 14.4142C5.59312 14 5.92891 13.6642 6.34312 13.6642Z" fill="black"/>
<path fill-rule="evenodd" clip-rule="evenodd" d="M10.3357 6.34312C10.3357 6.75734 9.99995 7.09312 9.58574 7.09312L7.09309 7.09312L7.09309 9.58577C7.09309 9.99998 6.75731 10.3358 6.34309 10.3358C5.92888 10.3358 5.59309 9.99998 5.59309 9.58577L5.59309 6.34312C5.59309 5.92891 5.92888 5.59312 6.34309 5.59312L9.58574 5.59312C9.99995 5.59312 10.3357 5.92891 10.3357 6.34312Z" fill="black"/>
</svg>
