<svg width="24" height="24" viewBox="0 0 24 24" fill="none" xmlns="http://www.w3.org/2000/svg">
<path d="M8.25 8C8.25 7.58579 8.58579 7.25 9 7.25H16C16.4142 7.25 16.75 7.58579 16.75 8C16.75 8.41421 16.4142 8.75 16 8.75H9C8.58579 8.75 8.25 8.41421 8.25 8Z" fill="black"/>
<path d="M9 10.25C8.58579 10.25 8.25 10.5858 8.25 11C8.25 11.4142 8.58579 11.75 9 11.75H14C14.4142 11.75 14.75 11.4142 14.75 11C14.75 10.5858 14.4142 10.25 14 10.25H9Z" fill="black"/>
<path fill-rule="evenodd" clip-rule="evenodd" d="M8.5 3.25C5.87665 3.25 3.75 5.37665 3.75 8V18C3.75 20.0711 5.42893 21.75 7.5 21.75H18.5C19.4665 21.75 20.25 20.9665 20.25 20V5C20.25 4.0335 19.4665 3.25 18.5 3.25H8.5ZM18.75 14.25V5C18.75 4.86193 18.6381 4.75 18.5 4.75H8.5C6.70507 4.75 5.25 6.20507 5.25 8V14.9997C5.87675 14.529 6.6558 14.25 7.5 14.25H18.75ZM18.75 15.75H7.5C6.25736 15.75 5.25 16.7574 5.25 18C5.25 19.2426 6.25736 20.25 7.5 20.25H18.5C18.6381 20.25 18.75 20.1381 18.75 20V15.75Z" fill="black"/>
</svg>
