<svg width="24" height="24" viewBox="0 0 24 24" fill="none" xmlns="http://www.w3.org/2000/svg">
<path fill-rule="evenodd" clip-rule="evenodd" d="M3.75 8C3.75 5.37665 5.87665 3.25 8.5 3.25H18.5C19.4665 3.25 20.25 4.0335 20.25 5V20C20.25 20.9665 19.4665 21.75 18.5 21.75H7.5C5.42893 21.75 3.75 20.0711 3.75 18V8ZM18.75 5V14.25H7.5C6.6558 14.25 5.87675 14.529 5.25 14.9997V8C5.25 6.20507 6.70507 4.75 8.5 4.75H11.7079C11.4446 6.73154 11.4683 8.74229 11.7794 10.72L11.8418 11.1166C11.8865 11.4006 12.0896 11.6341 12.3648 11.7176C12.6399 11.8012 12.9385 11.7201 13.1336 11.5089L14.5 10.0297L15.8664 11.5089C16.0615 11.7201 16.3601 11.8012 16.6353 11.7176C16.9104 11.6341 17.1135 11.4006 17.1582 11.1166L17.2206 10.72C17.5318 8.74228 17.5554 6.73154 17.2921 4.75H18.5C18.6381 4.75 18.75 4.86193 18.75 5ZM15.7779 4.75H13.2221C13.005 6.26418 12.9688 7.79819 13.1139 9.31967L13.7654 8.61431C14.1614 8.1857 14.8386 8.1857 15.2346 8.61431L15.8861 9.31967C16.0312 7.79819 15.995 6.26418 15.7779 4.75ZM7.5 15.75H18.75V20C18.75 20.1381 18.6381 20.25 18.5 20.25H7.5C6.25736 20.25 5.25 19.2426 5.25 18C5.25 16.7574 6.25736 15.75 7.5 15.75Z" fill="black"/>
</svg>
