<svg width="24" height="24" viewBox="0 0 24 24" fill="none" xmlns="http://www.w3.org/2000/svg">
<path d="M15.541 7.4806C15.8279 7.77941 15.8182 8.25419 15.5194 8.54104L12.3944 11.541C12.1042 11.8197 11.6458 11.8197 11.3556 11.541L9.4806 9.74104C9.18179 9.45419 9.1721 8.97941 9.45896 8.6806C9.74582 8.38179 10.2206 8.3721 10.5194 8.65896L11.875 9.96034L14.4806 7.45896C14.7794 7.1721 15.2542 7.18179 15.541 7.4806Z" fill="black"/>
<path fill-rule="evenodd" clip-rule="evenodd" d="M3.75 8C3.75 5.37665 5.87665 3.25 8.5 3.25H18.5C19.4665 3.25 20.25 4.0335 20.25 5V20C20.25 20.9665 19.4665 21.75 18.5 21.75H7.5C5.42893 21.75 3.75 20.0711 3.75 18V8ZM5.25 14.9997C5.87675 14.529 6.6558 14.25 7.5 14.25H18.75V5C18.75 4.86193 18.6381 4.75 18.5 4.75H8.5C6.70507 4.75 5.25 6.20507 5.25 8V14.9997ZM5.25 18C5.25 19.2426 6.25736 20.25 7.5 20.25H18.5C18.6381 20.25 18.75 20.1381 18.75 20V15.75H7.5C6.25736 15.75 5.25 16.7574 5.25 18Z" fill="black"/>
</svg>
