<svg width="24" height="24" viewBox="0 0 24 24" fill="none" xmlns="http://www.w3.org/2000/svg">
<path d="M15.0856 12.5315C14.8269 12.208 14.3549 12.1556 14.0315 12.4143L12.75 13.4395V10C12.75 9.58579 12.4142 9.25 12 9.25C11.5858 9.25 11.25 9.58579 11.25 10V13.4396L9.96849 12.4143C9.64505 12.1556 9.17308 12.208 8.91432 12.5315C8.65556 12.8549 8.708 13.3269 9.03145 13.5857L11.5287 15.5835C11.6575 15.6876 11.8215 15.75 12 15.75C12.1801 15.75 12.3453 15.6866 12.4746 15.5808L14.9685 13.5857C15.2919 13.3269 15.3444 12.8549 15.0856 12.5315Z" fill="black"/>
<path fill-rule="evenodd" clip-rule="evenodd" d="M8.46038 7.28387C9.40301 5.82734 11.0427 4.86176 12.9091 4.86176C15.7228 4.86176 18.024 7.05626 18.1944 9.82707C18.2506 9.82494 18.307 9.82386 18.3636 9.82386C20.7862 9.82386 22.75 11.7877 22.75 14.2102C22.75 16.6327 20.7862 18.5966 18.3636 18.5966L7 18.5966C3.82436 18.5966 1.25 16.0222 1.25 12.8466C1.25 9.67095 3.82436 7.09659 7 7.09659C7.50391 7.09659 7.99348 7.16158 8.46038 7.28387ZM12.9091 6.36176C11.404 6.36176 10.1021 7.23773 9.48806 8.51102C9.31801 8.86363 8.90536 9.02614 8.54054 8.88418C8.0639 8.69871 7.54477 8.59659 7 8.59659C4.65279 8.59659 2.75 10.4994 2.75 12.8466C2.75 15.1938 4.65279 17.0966 7 17.0966L18.3627 17.0966C19.9568 17.0966 21.25 15.8043 21.25 14.2102C21.25 12.6161 19.9577 11.3239 18.3636 11.3239C18.1042 11.3239 17.8539 11.3579 17.6164 11.4213C17.3762 11.4855 17.1198 11.4264 16.9319 11.2637C16.7439 11.1009 16.6489 10.8556 16.6781 10.6086C16.6955 10.4609 16.7045 10.3103 16.7045 10.1572C16.7045 8.06104 15.0053 6.36176 12.9091 6.36176Z" fill="black"/>
</svg>
