<svg width="24" height="24" viewBox="0 0 24 24" fill="none" xmlns="http://www.w3.org/2000/svg">
<path fill-rule="evenodd" clip-rule="evenodd" d="M21.0303 4.83032C21.3232 4.53742 21.3232 4.06255 21.0303 3.76966C20.7374 3.47676 20.2626 3.47676 19.9697 3.76966L3.96967 19.7697C3.67678 20.0626 3.67678 20.5374 3.96967 20.8303C4.26256 21.1232 4.73744 21.1232 5.03033 20.8303L7.11065 18.75H18.5233C20.9961 18.75 23.0008 16.7453 23.0008 14.2724C23.0008 11.7995 20.9961 9.79487 18.5233 9.79487C18.4592 9.79487 18.3955 9.79622 18.3321 9.79889C18.2944 9.15021 18.1424 8.5322 17.8959 7.96472L21.0303 4.83032ZM16.7186 9.14203L8.61065 17.25H18.5233C20.1677 17.25 21.5008 15.9169 21.5008 14.2724C21.5008 12.628 20.1677 11.2949 18.5233 11.2949C18.2557 11.2949 17.9975 11.33 17.7524 11.3954C17.5122 11.4596 17.2558 11.4005 17.0679 11.2378C16.8799 11.075 16.7849 10.8296 16.8141 10.5827C16.8321 10.4305 16.8414 10.2754 16.8414 10.1178C16.8414 9.78087 16.7987 9.45393 16.7186 9.14203Z" fill="black"/>
<path d="M12.9319 4.70831C14.0388 4.70831 15.068 5.04077 15.9252 5.61127C16.0521 5.69573 16.0649 5.87445 15.9571 5.98224L15.2295 6.70985C15.1455 6.79386 15.0144 6.80637 14.912 6.74611C14.3313 6.40434 13.6545 6.20831 12.9319 6.20831C11.3816 6.20831 10.0406 7.11064 9.40813 8.42212C9.23808 8.77473 8.82543 8.93724 8.46061 8.79528C7.96987 8.60433 7.43541 8.49919 6.87461 8.49919C4.45814 8.49919 2.49921 10.4581 2.49921 12.8746C2.49921 14.5209 3.40846 15.9549 4.75218 16.7017C4.90497 16.7866 4.94313 16.9962 4.81953 17.1198L4.09641 17.8429C4.01666 17.9227 3.89307 17.9396 3.79705 17.8805C2.1183 16.8462 0.999207 14.9911 0.999207 12.8746C0.999207 9.6297 3.62971 6.99919 6.87461 6.99919C7.39427 6.99919 7.89899 7.06684 8.38002 7.19402C9.34177 5.69973 11.0205 4.70831 12.9319 4.70831Z" fill="black"/>
</svg>
