<svg width="24" height="24" viewBox="0 0 24 24" fill="none" xmlns="http://www.w3.org/2000/svg">
<path d="M15.0856 12.4685C14.8269 12.792 14.3549 12.8444 14.0315 12.5857L12.75 11.5605V15C12.75 15.4142 12.4142 15.75 12 15.75C11.5858 15.75 11.25 15.4142 11.25 15V11.5604L9.96849 12.5857C9.64505 12.8444 9.17308 12.792 8.91432 12.4685C8.65556 12.1451 8.708 11.6731 9.03145 11.4143L11.5288 9.41648C11.656 9.31359 11.8176 9.25148 11.9937 9.25003C11.9958 9.25001 11.9979 9.25 12 9.25L12.0024 9.25C12.1815 9.25057 12.3459 9.31392 12.4745 9.41919L14.9685 11.4143C15.2919 11.6731 15.3444 12.1451 15.0856 12.4685Z" fill="black"/>
<path fill-rule="evenodd" clip-rule="evenodd" d="M8.38002 7.19402C9.34177 5.69973 11.0205 4.70831 12.9319 4.70831C15.8124 4.70831 18.1671 6.95976 18.3321 9.79889C18.3955 9.79622 18.4592 9.79487 18.5233 9.79487C20.9961 9.79487 23.0008 11.7995 23.0008 14.2724C23.0008 16.7453 20.9961 18.75 18.5233 18.75H6.87461C3.62971 18.75 0.999207 16.1195 0.999207 12.8746C0.999207 9.6297 3.62971 6.99919 6.87461 6.99919C7.39427 6.99919 7.89899 7.06684 8.38002 7.19402ZM12.9319 6.20831C11.3816 6.20831 10.0406 7.11064 9.40813 8.42212C9.23808 8.77473 8.82543 8.93724 8.46061 8.79528C7.96987 8.60433 7.43541 8.49919 6.87461 8.49919C4.45814 8.49919 2.49921 10.4581 2.49921 12.8746C2.49921 15.2911 4.45814 17.25 6.87461 17.25H18.5233C20.1677 17.25 21.5008 15.9169 21.5008 14.2724C21.5008 12.628 20.1677 11.2949 18.5233 11.2949C18.2557 11.2949 17.9975 11.33 17.7524 11.3954C17.5122 11.4596 17.2558 11.4005 17.0679 11.2378C16.8799 11.075 16.7849 10.8296 16.8141 10.5827C16.8321 10.4305 16.8414 10.2754 16.8414 10.1178C16.8414 7.95864 15.091 6.20831 12.9319 6.20831Z" fill="black"/>
</svg>
