<svg width="24" height="24" viewBox="0 0 24 24" fill="none" xmlns="http://www.w3.org/2000/svg">
<path d="M14.0315 13.1643C14.355 12.9056 14.8269 12.958 15.0857 13.2815C15.3444 13.6049 15.292 14.0769 14.9685 14.3357L12.4746 16.3308C12.3459 16.4361 12.1816 16.4994 12.0025 16.5L12.0001 16.5L11.9937 16.5C11.8177 16.4985 11.6561 16.4364 11.5288 16.3335L9.03151 14.3357C8.70806 14.0769 8.65562 13.6049 8.91438 13.2815C9.17313 12.958 9.6451 12.9056 9.96855 13.1643L11.2501 14.1896V10.75C11.2501 10.3358 11.5858 10 12.0001 10C12.4143 10 12.7501 10.3358 12.7501 10.75V14.1895L14.0315 13.1643Z" fill="black"/>
<path fill-rule="evenodd" clip-rule="evenodd" d="M7 2.25C5.48122 2.25 4.25 3.48122 4.25 5V19C4.25 20.5188 5.48122 21.75 7 21.75H17C18.5188 21.75 19.75 20.5188 19.75 19V8.1979C19.75 7.83178 19.6352 7.47488 19.4217 7.17745L16.4085 2.97955C16.0798 2.52157 15.5506 2.25 14.9868 2.25H7ZM5.75 5C5.75 4.30964 6.30964 3.75 7 3.75H14.25V8.14705C14.25 8.56126 14.5858 8.89705 15 8.89705H18.25V19C18.25 19.6904 17.6904 20.25 17 20.25H7C6.30964 20.25 5.75 19.6904 5.75 19V5Z" fill="black"/>
</svg>
