<svg width="24" height="24" viewBox="0 0 24 24" fill="none" xmlns="http://www.w3.org/2000/svg">
<path d="M18.68 9.98322C18.7196 10.231 18.7546 10.4792 18.7851 10.7279C18.8028 10.8722 18.8961 10.9956 19.0278 11.0569C19.3826 11.2219 19.7185 11.4206 20.0315 11.6488C20.174 11.7528 20.3819 11.6471 20.3678 11.4712C20.3215 10.8947 20.2527 10.3194 20.1613 9.74679L20.0972 9.34535C19.8913 8.05533 18.7786 7.10612 17.4722 7.10612L9.15777 7.10612C8.95226 6.04846 8.02099 5.25 6.90323 5.25H4.61167C3.25538 5.25 2.11298 6.26343 1.95127 7.61004L1.67879 9.87915C1.38913 12.2913 1.46388 14.7333 1.90055 17.1232C2.11607 18.3027 3.10258 19.1869 4.2986 19.2725L5.81261 19.3808C7.53657 19.5041 9.26382 19.5659 10.9911 19.5661C11.1458 19.5661 11.2421 19.3969 11.1709 19.2596C11.0216 18.9719 10.8949 18.6706 10.7932 18.358C10.7375 18.1866 10.5813 18.0651 10.4011 18.0636C8.90627 18.051 7.4117 17.9914 5.91965 17.8846L4.40565 17.7763C3.89217 17.7396 3.46865 17.36 3.37612 16.8536C2.96649 14.6116 2.89636 12.3208 3.16809 10.058L3.44057 7.78888C3.51176 7.19611 4.01464 6.75 4.61167 6.75H6.90323C7.34328 6.75 7.7 7.10672 7.7 7.54677C7.7 8.13183 8.17429 8.60612 8.75936 8.60612H17.4722C18.0414 8.60612 18.5262 9.0197 18.6159 9.58178L18.68 9.98322Z" fill="black"/>
<path fill-rule="evenodd" clip-rule="evenodd" d="M12 16.5C12 17.4719 12.3081 18.3718 12.8319 19.1074C13.1238 19.5173 13.4827 19.8762 13.8926 20.1681C14.6282 20.6919 15.5281 21 16.5 21C18.9853 21 21 18.9853 21 16.5C21 15.5281 20.6919 14.6282 20.1681 13.8926C19.8762 13.4827 19.5173 13.1238 19.1074 12.8319C18.3718 12.3081 17.4719 12 16.5 12C14.0147 12 12 14.0147 12 16.5ZM16.5 19.5C15.9436 19.5 15.4227 19.3486 14.976 19.0846L19.0846 14.976C19.3486 15.4227 19.5 15.9436 19.5 16.5C19.5 18.1569 18.1569 19.5 16.5 19.5ZM13.9154 18.024L18.024 13.9154C17.5773 13.6514 17.0564 13.5 16.5 13.5C14.8431 13.5 13.5 14.8431 13.5 16.5C13.5 17.0564 13.6514 17.5773 13.9154 18.024Z" fill="black"/>
</svg>
