<svg width="24" height="24" viewBox="0 0 24 24" fill="none" xmlns="http://www.w3.org/2000/svg">
<path fill-rule="evenodd" clip-rule="evenodd" d="M20.3613 18.5795C19.9557 18.97 19.4179 19.2212 18.8253 19.2636L17.1874 19.3808C13.7335 19.6279 10.2665 19.6279 6.81261 19.3808L5.2986 19.2725C4.10258 19.1869 3.11607 18.3027 2.90055 17.1232C2.46388 14.7333 2.38913 12.2913 2.67879 9.87915L2.95127 7.61004C3.11298 6.26343 4.25538 5.25 5.61167 5.25H7.90323C9.02099 5.25 9.95226 6.04846 10.1578 7.10612L18.4722 7.10612C19.7786 7.10612 20.8913 8.05533 21.0972 9.34535L21.1613 9.74679C21.1747 9.83114 21.1877 9.91554 21.2002 10H21.5362C23.0086 10 24.0209 11.4798 23.4872 12.8521L22.2378 16.065C21.8498 17.0626 21.1989 17.9301 20.3613 18.5795ZM19.6159 9.58178L19.68 9.98322C19.6809 9.98881 19.6818 9.99441 19.6827 10H10.3704C9.23472 10 8.21584 10.6981 7.80586 11.7573L5.47402 17.7812L5.40565 17.7763C4.89217 17.7396 4.46865 17.36 4.37612 16.8536C3.96649 14.6116 3.89636 12.3208 4.16809 10.058L4.44057 7.78888C4.51176 7.19611 5.01464 6.75 5.61167 6.75H7.90323C8.34328 6.75 8.7 7.10672 8.7 7.54677C8.7 8.13183 9.17429 8.60612 9.75936 8.60612H18.4722C19.0414 8.60612 19.5262 9.0197 19.6159 9.58178ZM7.03918 17.8931C10.3822 18.1266 13.7376 18.1238 17.0804 17.8846L18.7182 17.7674L18.9128 17.7492L18.9114 17.7468C19.792 17.25 20.4733 16.4636 20.8398 15.5213L22.0892 12.3084C22.2405 11.9195 21.9536 11.5 21.5362 11.5H10.3704C9.8542 11.5 9.39107 11.8173 9.20471 12.2988L7.03918 17.8931Z" fill="black"/>
</svg>
