<svg width="14" height="17" viewBox="0 0 14 17" fill="none" xmlns="http://www.w3.org/2000/svg">
<path fill-rule="evenodd" clip-rule="evenodd" d="M0.125 4.66659C0.125 2.48046 1.89721 0.708252 4.08333 0.708252H12.4167C13.2221 0.708252 13.875 1.36117 13.875 2.16659V14.6666C13.875 15.472 13.2221 16.1249 12.4167 16.1249H3.25C1.52411 16.1249 0.125 14.7258 0.125 12.9999V4.66659ZM12.625 2.16659V9.87492H3.25C2.5465 9.87492 1.89729 10.1074 1.375 10.4997V4.66659C1.375 3.17081 2.58756 1.95825 4.08333 1.95825H6.75658C6.53717 3.60954 6.55688 5.28516 6.8162 6.93326L6.86819 7.26372C6.90543 7.50041 7.07471 7.69498 7.30397 7.76461C7.53323 7.83424 7.78212 7.76667 7.9447 7.59067L9.08334 6.35802L10.222 7.59067C10.3846 7.76667 10.6334 7.83424 10.8627 7.76461C11.092 7.69498 11.2612 7.50041 11.2985 7.26372L11.3505 6.93326C11.6098 5.28516 11.6295 3.60954 11.4101 1.95825H12.4167C12.5317 1.95825 12.625 2.05153 12.625 2.16659ZM10.1482 1.95825H8.01844C7.83748 3.22007 7.80733 4.49841 7.92823 5.76631L8.4712 5.17851C8.80114 4.82133 9.36554 4.82133 9.69547 5.17851L10.2385 5.76631C10.3594 4.49841 10.3292 3.22007 10.1482 1.95825ZM3.25 11.1249H12.625V14.6666C12.625 14.7816 12.5317 14.8749 12.4167 14.8749H3.25C2.21447 14.8749 1.375 14.0355 1.375 12.9999C1.375 11.9644 2.21447 11.1249 3.25 11.1249Z" fill="#151515"/>
</svg>
