<svg width="16" height="13" viewBox="0 0 16 13" fill="none" xmlns="http://www.w3.org/2000/svg">
<path d="M4.66658 4.91658C4.09129 4.91658 3.62492 5.38295 3.62492 5.95824C3.62492 6.53354 4.09129 6.99991 4.66658 6.99991C5.24188 6.99991 5.70825 6.53354 5.70825 5.95824C5.70825 5.38295 5.24188 4.91658 4.66658 4.91658Z" fill="#151515"/>
<path d="M7.99992 4.91658C7.42462 4.91658 6.95825 5.38295 6.95825 5.95824C6.95825 6.53354 7.42462 6.99991 7.99992 6.99991C8.57521 6.99991 9.04158 6.53354 9.04158 5.95824C9.04158 5.38295 8.57521 4.91658 7.99992 4.91658Z" fill="#151515"/>
<path d="M10.2916 5.95824C10.2916 5.38295 10.758 4.91658 11.3333 4.91658C11.9085 4.91658 12.3749 5.38295 12.3749 5.95824C12.3749 6.53354 11.9085 6.99991 11.3333 6.99991C10.758 6.99991 10.2916 6.53354 10.2916 5.95824Z" fill="#151515"/>
<path fill-rule="evenodd" clip-rule="evenodd" d="M11.4172 0.827236C9.17203 0.635769 6.91514 0.624658 4.6682 0.794008L4.50718 0.806145C2.36442 0.967643 0.708252 2.75333 0.708252 4.90217V11.9999C0.708252 12.2198 0.823807 12.4235 1.01254 12.5364C1.20128 12.6492 1.43542 12.6545 1.62912 12.5504L4.88811 10.799C5.0397 10.7176 5.20912 10.6749 5.38122 10.6749H12.8616C13.805 10.6749 14.6135 10.0004 14.7826 9.07229C15.1253 7.19126 15.1524 5.26629 14.8627 3.37637L14.7773 2.81943C14.6219 1.80547 13.7924 1.02979 12.7703 0.942629L11.4172 0.827236ZM4.76215 2.04047C6.94244 1.87614 9.1324 1.88693 11.311 2.07271L12.6641 2.18811C13.111 2.22622 13.4738 2.56542 13.5417 3.00882L13.6271 3.56576C13.8958 5.3185 13.8707 7.10374 13.5528 8.84823C13.492 9.1822 13.201 9.42491 12.8616 9.42491H5.38122C5.0026 9.42491 4.62988 9.51872 4.29638 9.69795L1.95825 10.9545V4.90217C1.95825 3.40725 3.11043 2.16496 4.60112 2.05261L4.76215 2.04047Z" fill="#151515"/>
</svg>
