<svg viewBox="0 0 61 56" fill="none" xmlns="http://www.w3.org/2000/svg">
  <path d="M2.09928 56C2.78547 56 3.34174 55.4437 3.34174 54.7575C3.34174 54.0713 2.78547 53.5151 2.09928 53.5151C1.41308 53.5151 0.856812 54.0713 0.856812 54.7575C0.856812 55.4437 1.41308 56 2.09928 56Z" fill="#FF4A4A" />
  <path d="M2.09928 45.2621C2.78547 45.2621 3.34174 44.7058 3.34174 44.0196C3.34174 43.3334 2.78547 42.7771 2.09928 42.7771C1.41308 42.7771 0.856812 43.3334 0.856812 44.0196C0.856812 44.7058 1.41308 45.2621 2.09928 45.2621Z" fill="#FF4A4A" />
  <path d="M2.09928 34.5229C2.78547 34.5229 3.34174 33.9666 3.34174 33.2804C3.34174 32.5942 2.78547 32.0379 2.09928 32.0379C1.41308 32.0379 0.856812 32.5942 0.856812 33.2804C0.856812 33.9666 1.41308 34.5229 2.09928 34.5229Z" fill="#FF4A4A" />
  <path d="M2.09928 23.8731C2.78547 23.8731 3.34174 23.3169 3.34174 22.6307C3.34174 21.9445 2.78547 21.3882 2.09928 21.3882C1.41308 21.3882 0.856812 21.9445 0.856812 22.6307C0.856812 23.3169 1.41308 23.8731 2.09928 23.8731Z" fill="#FF4A4A" />
  <path d="M2.09928 13.1352C2.78547 13.1352 3.34174 12.579 3.34174 11.8928C3.34174 11.2066 2.78547 10.6503 2.09928 10.6503C1.41308 10.6503 0.856812 11.2066 0.856812 11.8928C0.856812 12.579 1.41308 13.1352 2.09928 13.1352Z" fill="#FF4A4A" />
  <path d="M2.10062 2.48575C2.78681 2.48575 3.34308 1.92948 3.34308 1.24329C3.34308 0.557094 2.78681 0.000823975 2.10062 0.000823975C1.41442 0.000823975 0.858154 0.557094 0.858154 1.24329C0.858154 1.92948 1.41442 2.48575 2.10062 2.48575Z" fill="#FF4A4A" />
  <path d="M59.6095 55.9992C60.2957 55.9992 60.852 55.4429 60.852 54.7567C60.852 54.0706 60.2957 53.5143 59.6095 53.5143C58.9233 53.5143 58.3671 54.0706 58.3671 54.7567C58.3671 55.4429 58.9233 55.9992 59.6095 55.9992Z" fill="#FF4A4A" />
  <path d="M59.6095 45.2613C60.2957 45.2613 60.852 44.705 60.852 44.0188C60.852 43.3326 60.2957 42.7763 59.6095 42.7763C58.9233 42.7763 58.3671 43.3326 58.3671 44.0188C58.3671 44.705 58.9233 45.2613 59.6095 45.2613Z" fill="#FF4A4A" />
  <path d="M59.6095 34.5221C60.2957 34.5221 60.852 33.9658 60.852 33.2796C60.852 32.5934 60.2957 32.0371 59.6095 32.0371C58.9233 32.0371 58.3671 32.5934 58.3671 33.2796C58.3671 33.9658 58.9233 34.5221 59.6095 34.5221Z" fill="#FF4A4A" />
  <path d="M59.6095 23.8724C60.2957 23.8724 60.852 23.3161 60.852 22.6299C60.852 21.9437 60.2957 21.3874 59.6095 21.3874C58.9233 21.3874 58.3671 21.9437 58.3671 22.6299C58.3671 23.3161 58.9233 23.8724 59.6095 23.8724Z" fill="#FF4A4A" />
  <path d="M59.6095 13.1344C60.2957 13.1344 60.852 12.5781 60.852 11.892C60.852 11.2058 60.2957 10.6495 59.6095 10.6495C58.9233 10.6495 58.3671 11.2058 58.3671 11.892C58.3671 12.5781 58.9233 13.1344 59.6095 13.1344Z" fill="#FF4A4A" />
  <path d="M59.6098 2.48493C60.296 2.48493 60.8522 1.92866 60.8522 1.24246C60.8522 0.55627 60.296 0 59.6098 0C58.9236 0 58.3673 0.55627 58.3673 1.24246C58.3673 1.92866 58.9236 2.48493 59.6098 2.48493Z" fill="#FF4A4A" />
  <path d="M48.161 55.9992C48.8472 55.9992 49.4035 55.4429 49.4035 54.7567C49.4035 54.0706 48.8472 53.5143 48.161 53.5143C47.4748 53.5143 46.9186 54.0706 46.9186 54.7567C46.9186 55.4429 47.4748 55.9992 48.161 55.9992Z" fill="#FF4A4A" />
  <path d="M48.161 45.2613C48.8472 45.2613 49.4035 44.705 49.4035 44.0188C49.4035 43.3326 48.8472 42.7763 48.161 42.7763C47.4748 42.7763 46.9186 43.3326 46.9186 44.0188C46.9186 44.705 47.4748 45.2613 48.161 45.2613Z" fill="#FF4A4A" />
  <path d="M48.161 34.5221C48.8472 34.5221 49.4035 33.9658 49.4035 33.2796C49.4035 32.5934 48.8472 32.0371 48.161 32.0371C47.4748 32.0371 46.9186 32.5934 46.9186 33.2796C46.9186 33.9658 47.4748 34.5221 48.161 34.5221Z" fill="#FF4A4A" />
  <path d="M48.161 23.8724C48.8472 23.8724 49.4035 23.3161 49.4035 22.6299C49.4035 21.9437 48.8472 21.3874 48.161 21.3874C47.4748 21.3874 46.9186 21.9437 46.9186 22.6299C46.9186 23.3161 47.4748 23.8724 48.161 23.8724Z" fill="#FF4A4A" />
  <path d="M48.161 13.1344C48.8472 13.1344 49.4035 12.5781 49.4035 11.892C49.4035 11.2058 48.8472 10.6495 48.161 10.6495C47.4748 10.6495 46.9186 11.2058 46.9186 11.892C46.9186 12.5781 47.4748 13.1344 48.161 13.1344Z" fill="#FF4A4A" />
  <path d="M48.1606 2.48493C48.8467 2.48493 49.403 1.92866 49.403 1.24246C49.403 0.55627 48.8467 0 48.1606 0C47.4744 0 46.9181 0.55627 46.9181 1.24246C46.9181 1.92866 47.4744 2.48493 48.1606 2.48493Z" fill="#FF4A4A" />
  <path d="M36.6239 55.9992C37.3101 55.9992 37.8664 55.4429 37.8664 54.7567C37.8664 54.0706 37.3101 53.5143 36.6239 53.5143C35.9377 53.5143 35.3815 54.0706 35.3815 54.7567C35.3815 55.4429 35.9377 55.9992 36.6239 55.9992Z" fill="#FF4A4A" />
  <path d="M36.6239 45.2613C37.3101 45.2613 37.8664 44.705 37.8664 44.0188C37.8664 43.3326 37.3101 42.7763 36.6239 42.7763C35.9377 42.7763 35.3815 43.3326 35.3815 44.0188C35.3815 44.705 35.9377 45.2613 36.6239 45.2613Z" fill="#FF4A4A" />
  <path d="M36.6239 34.5221C37.3101 34.5221 37.8664 33.9658 37.8664 33.2796C37.8664 32.5934 37.3101 32.0371 36.6239 32.0371C35.9377 32.0371 35.3815 32.5934 35.3815 33.2796C35.3815 33.9658 35.9377 34.5221 36.6239 34.5221Z" fill="#FF4A4A" />
  <path d="M36.6239 23.8724C37.3101 23.8724 37.8664 23.3161 37.8664 22.6299C37.8664 21.9437 37.3101 21.3874 36.6239 21.3874C35.9377 21.3874 35.3815 21.9437 35.3815 22.6299C35.3815 23.3161 35.9377 23.8724 36.6239 23.8724Z" fill="#FF4A4A" />
  <path d="M36.6239 13.1344C37.3101 13.1344 37.8664 12.5781 37.8664 11.892C37.8664 11.2058 37.3101 10.6495 36.6239 10.6495C35.9377 10.6495 35.3815 11.2058 35.3815 11.892C35.3815 12.5781 35.9377 13.1344 36.6239 13.1344Z" fill="#FF4A4A" />
  <path d="M36.6234 2.48493C37.3096 2.48493 37.8659 1.92866 37.8659 1.24246C37.8659 0.55627 37.3096 0 36.6234 0C35.9372 0 35.381 0.55627 35.381 1.24246C35.381 1.92866 35.9372 2.48493 36.6234 2.48493Z" fill="#FF4A4A" />
  <path d="M25.0868 55.9992C25.773 55.9992 26.3293 55.4429 26.3293 54.7567C26.3293 54.0706 25.773 53.5143 25.0868 53.5143C24.4006 53.5143 23.8444 54.0706 23.8444 54.7567C23.8444 55.4429 24.4006 55.9992 25.0868 55.9992Z" fill="#FF4A4A" />
  <path d="M25.0868 45.2613C25.773 45.2613 26.3293 44.705 26.3293 44.0188C26.3293 43.3326 25.773 42.7763 25.0868 42.7763C24.4006 42.7763 23.8444 43.3326 23.8444 44.0188C23.8444 44.705 24.4006 45.2613 25.0868 45.2613Z" fill="#FF4A4A" />
  <path d="M25.0868 34.5221C25.773 34.5221 26.3293 33.9658 26.3293 33.2796C26.3293 32.5934 25.773 32.0371 25.0868 32.0371C24.4006 32.0371 23.8444 32.5934 23.8444 33.2796C23.8444 33.9658 24.4006 34.5221 25.0868 34.5221Z" fill="#FF4A4A" />
  <path d="M25.0868 23.8724C25.773 23.8724 26.3293 23.3161 26.3293 22.6299C26.3293 21.9437 25.773 21.3874 25.0868 21.3874C24.4006 21.3874 23.8444 21.9437 23.8444 22.6299C23.8444 23.3161 24.4006 23.8724 25.0868 23.8724Z" fill="#FF4A4A" />
  <path d="M25.0868 13.1344C25.773 13.1344 26.3293 12.5781 26.3293 11.892C26.3293 11.2058 25.773 10.6495 25.0868 10.6495C24.4006 10.6495 23.8444 11.2058 23.8444 11.892C23.8444 12.5781 24.4006 13.1344 25.0868 13.1344Z" fill="#FF4A4A" />
  <path d="M25.0862 2.48493C25.7724 2.48493 26.3287 1.92866 26.3287 1.24246C26.3287 0.55627 25.7724 0 25.0862 0C24.4 0 23.8438 0.55627 23.8438 1.24246C23.8438 1.92866 24.4 2.48493 25.0862 2.48493Z" fill="#FF4A4A" />
  <path d="M13.5497 55.9992C14.2359 55.9992 14.7922 55.4429 14.7922 54.7567C14.7922 54.0706 14.2359 53.5143 13.5497 53.5143C12.8635 53.5143 12.3073 54.0706 12.3073 54.7567C12.3073 55.4429 12.8635 55.9992 13.5497 55.9992Z" fill="#FF4A4A" />
  <path d="M13.5497 45.2613C14.2359 45.2613 14.7922 44.705 14.7922 44.0188C14.7922 43.3326 14.2359 42.7763 13.5497 42.7763C12.8635 42.7763 12.3073 43.3326 12.3073 44.0188C12.3073 44.705 12.8635 45.2613 13.5497 45.2613Z" fill="#FF4A4A" />
  <path d="M13.5497 34.5221C14.2359 34.5221 14.7922 33.9658 14.7922 33.2796C14.7922 32.5934 14.2359 32.0371 13.5497 32.0371C12.8635 32.0371 12.3073 32.5934 12.3073 33.2796C12.3073 33.9658 12.8635 34.5221 13.5497 34.5221Z" fill="#FF4A4A" />
  <path d="M13.5497 23.8724C14.2359 23.8724 14.7922 23.3161 14.7922 22.6299C14.7922 21.9437 14.2359 21.3874 13.5497 21.3874C12.8635 21.3874 12.3073 21.9437 12.3073 22.6299C12.3073 23.3161 12.8635 23.8724 13.5497 23.8724Z" fill="#FF4A4A" />
  <path d="M13.5497 13.1344C14.2359 13.1344 14.7922 12.5781 14.7922 11.892C14.7922 11.2058 14.2359 10.6495 13.5497 10.6495C12.8635 10.6495 12.3073 11.2058 12.3073 11.892C12.3073 12.5781 12.8635 13.1344 13.5497 13.1344Z" fill="#FF4A4A" />
  <path d="M13.5491 2.48493C14.2353 2.48493 14.7916 1.92866 14.7916 1.24246C14.7916 0.55627 14.2353 0 13.5491 0C12.8629 0 12.3066 0.55627 12.3066 1.24246C12.3066 1.92866 12.8629 2.48493 13.5491 2.48493Z" fill="#FF4A4A" />
</svg>