<svg width="16" height="18" viewBox="0 0 16 18" fill="none" xmlns="http://www.w3.org/2000/svg">
<path fill-rule="evenodd" clip-rule="evenodd" d="M4.04177 7.33342C4.04177 5.14729 5.81397 3.37508 8.0001 3.37508C10.1862 3.37508 11.9584 5.14729 11.9584 7.33342C11.9584 9.51954 10.1862 11.2917 8.0001 11.2917C5.81397 11.2917 4.04177 9.51954 4.04177 7.33342ZM8.0001 4.62508C6.50433 4.62508 5.29177 5.83764 5.29177 7.33342C5.29177 8.82919 6.50433 10.0417 8.0001 10.0417C9.49587 10.0417 10.7084 8.82919 10.7084 7.33342C10.7084 5.83764 9.49587 4.62508 8.0001 4.62508Z" fill="black"/>
<path fill-rule="evenodd" clip-rule="evenodd" d="M0.937072 6.38079C1.23234 2.79862 4.2258 0.041748 7.82013 0.041748H8.18008C11.7744 0.041748 14.7679 2.79862 15.0631 6.38079C15.2217 8.30508 14.6273 10.2158 13.4051 11.7106L9.41092 16.5954C8.68175 17.4871 7.31846 17.4871 6.58929 16.5954L2.59507 11.7106C1.37286 10.2158 0.778456 8.30508 0.937072 6.38079ZM7.82013 1.29175C4.87635 1.29175 2.42468 3.54965 2.18285 6.48348C2.05083 8.08501 2.54554 9.67528 3.56276 10.9193L7.55697 15.8041C7.786 16.0842 8.2142 16.0842 8.44323 15.8041L12.4374 10.9193C13.4547 9.67528 13.9494 8.08501 13.8174 6.48348C13.5755 3.54965 11.1239 1.29175 8.18008 1.29175H7.82013Z" fill="black"/>
</svg>
