<svg width="24" height="24" viewBox="0 0 24 24" fill="none" xmlns="http://www.w3.org/2000/svg">
<circle cx="12" cy="12" r="12" fill="#4F4F4F"/>
<path d="M12.0068 11.7588C13.014 11.7588 13.8115 12.0254 14.3994 12.5586C14.9873 13.0918 15.2812 13.8187 15.2812 14.7393C15.2812 15.8057 14.9463 16.6396 14.2764 17.2412C13.611 17.8382 12.6631 18.1367 11.4326 18.1367C10.3161 18.1367 9.4388 17.9567 8.80078 17.5967V16.1406C9.16992 16.3503 9.59375 16.512 10.0723 16.626C10.5508 16.7399 10.9951 16.7969 11.4053 16.7969C12.1299 16.7969 12.6813 16.6351 13.0596 16.3115C13.4378 15.988 13.627 15.514 13.627 14.8896C13.627 13.6956 12.8659 13.0986 11.3438 13.0986C11.1296 13.0986 10.8652 13.1214 10.5508 13.167C10.2363 13.208 9.96061 13.2559 9.72363 13.3105L9.00586 12.8867L9.38867 8.00586H14.584V9.43457H10.8037L10.5781 11.9092C10.7376 11.8818 10.9313 11.8499 11.1592 11.8135C11.3916 11.777 11.6742 11.7588 12.0068 11.7588Z" fill="white"/>
</svg>
