<svg width="24" height="24" viewBox="0 0 24 24" fill="none" xmlns="http://www.w3.org/2000/svg">
<circle cx="12" cy="12" r="12" fill="#4F4F4F"/>
<path d="M15.3906 18H8.61621V16.7832L11.1934 14.1924C11.9544 13.4131 12.458 12.8617 12.7041 12.5381C12.9548 12.21 13.137 11.9023 13.251 11.6152C13.3649 11.3281 13.4219 11.0205 13.4219 10.6924C13.4219 10.2412 13.2852 9.88574 13.0117 9.62598C12.7428 9.36621 12.3691 9.23633 11.8906 9.23633C11.5078 9.23633 11.1364 9.30697 10.7764 9.44824C10.4209 9.58952 10.0085 9.84473 9.53906 10.2139L8.6709 9.1543C9.22689 8.6849 9.76693 8.35221 10.291 8.15625C10.8151 7.96029 11.3734 7.8623 11.9658 7.8623C12.8955 7.8623 13.6406 8.10612 14.2012 8.59375C14.7617 9.07682 15.042 9.72852 15.042 10.5488C15.042 11 14.96 11.4284 14.7959 11.834C14.6364 12.2396 14.388 12.6589 14.0508 13.0918C13.7181 13.5202 13.1621 14.1012 12.3828 14.835L10.6465 16.5166V16.585H15.3906V18Z" fill="white"/>
</svg>
