<svg width="24" height="24" viewBox="0 0 24 24" fill="none" xmlns="http://www.w3.org/2000/svg">
<path d="M6.20552 2.63162C5.41056 2.54278 4.58943 2.54278 3.79447 2.63162C3.1958 2.69853 2.71065 3.16974 2.63977 3.77582C2.54464 4.58917 2.54464 5.41083 2.63977 6.22418C2.71065 6.83027 3.19581 7.30147 3.79447 7.36838C4.58943 7.45723 5.41056 7.45723 6.20552 7.36838C6.80419 7.30147 7.28934 6.83027 7.36022 6.22418C7.45535 5.41083 7.45535 4.58917 7.36022 3.77582C7.28934 3.16974 6.80419 2.69853 6.20552 2.63162Z" fill="black"/>
<path d="M13.2055 2.63162C12.4106 2.54278 11.5894 2.54278 10.7945 2.63162C10.1958 2.69853 9.71065 3.16974 9.63976 3.77582C9.54463 4.58917 9.54463 5.41083 9.63976 6.22418C9.71065 6.83027 10.1958 7.30147 10.7945 7.36838C11.5894 7.45723 12.4106 7.45723 13.2055 7.36838C13.8042 7.30147 14.2893 6.83027 14.3602 6.22418C14.4553 5.41083 14.4553 4.58917 14.3602 3.77582C14.2893 3.16974 13.8042 2.69853 13.2055 2.63162Z" fill="black"/>
<path d="M20.2055 2.63162C19.4106 2.54278 18.5894 2.54278 17.7945 2.63162C17.1958 2.69853 16.7106 3.16974 16.6398 3.77582C16.5446 4.58917 16.5446 5.41083 16.6398 6.22418C16.7106 6.83027 17.1958 7.30147 17.7945 7.36838C18.5894 7.45723 19.4106 7.45723 20.2055 7.36838C20.8042 7.30147 21.2893 6.83027 21.3602 6.22418C21.4553 5.41083 21.4553 4.58917 21.3602 3.77582C21.2893 3.16974 20.8042 2.69853 20.2055 2.63162Z" fill="black"/>
<path d="M6.20552 9.63162C5.41056 9.54278 4.58943 9.54278 3.79447 9.63162C3.1958 9.69853 2.71065 10.1697 2.63977 10.7758C2.54464 11.5892 2.54464 12.4108 2.63977 13.2242C2.71065 13.8303 3.19581 14.3015 3.79447 14.3684C4.58943 14.4572 5.41056 14.4572 6.20552 14.3684C6.80419 14.3015 7.28934 13.8303 7.36022 13.2242C7.45535 12.4108 7.45535 11.5892 7.36022 10.7758C7.28934 10.1697 6.80419 9.69853 6.20552 9.63162Z" fill="black"/>
<path d="M13.2055 9.63162C12.4106 9.54278 11.5894 9.54278 10.7945 9.63162C10.1958 9.69853 9.71065 10.1697 9.63976 10.7758C9.54463 11.5892 9.54463 12.4108 9.63976 13.2242C9.71065 13.8303 10.1958 14.3015 10.7945 14.3684C11.5894 14.4572 12.4106 14.4572 13.2055 14.3684C13.8042 14.3015 14.2893 13.8303 14.3602 13.2242C14.4553 12.4108 14.4553 11.5892 14.3602 10.7758C14.2893 10.1697 13.8042 9.69853 13.2055 9.63162Z" fill="black"/>
<path d="M20.2055 9.63162C19.4106 9.54278 18.5894 9.54278 17.7945 9.63162C17.1958 9.69853 16.7106 10.1697 16.6398 10.7758C16.5446 11.5892 16.5446 12.4108 16.6398 13.2242C16.7106 13.8303 17.1958 14.3015 17.7945 14.3684C18.5894 14.4572 19.4106 14.4572 20.2055 14.3684C20.8042 14.3015 21.2893 13.8303 21.3602 13.2242C21.4553 12.4108 21.4553 11.5892 21.3602 10.7758C21.2893 10.1697 20.8042 9.69853 20.2055 9.63162Z" fill="black"/>
<path d="M6.20552 16.6316C5.41056 16.5428 4.58943 16.5428 3.79447 16.6316C3.1958 16.6985 2.71065 17.1697 2.63977 17.7758C2.54464 18.5892 2.54464 19.4108 2.63977 20.2242C2.71065 20.8303 3.19581 21.3015 3.79447 21.3684C4.58943 21.4572 5.41056 21.4572 6.20552 21.3684C6.80419 21.3015 7.28934 20.8303 7.36022 20.2242C7.45535 19.4108 7.45535 18.5892 7.36022 17.7758C7.28934 17.1697 6.80419 16.6985 6.20552 16.6316Z" fill="black"/>
<path d="M13.2055 16.6316C12.4106 16.5428 11.5894 16.5428 10.7945 16.6316C10.1958 16.6985 9.71065 17.1697 9.63976 17.7758C9.54463 18.5892 9.54463 19.4108 9.63976 20.2242C9.71065 20.8303 10.1958 21.3015 10.7945 21.3684C11.5894 21.4572 12.4106 21.4572 13.2055 21.3684C13.8042 21.3015 14.2893 20.8303 14.3602 20.2242C14.4553 19.4108 14.4553 18.5892 14.3602 17.7758C14.2893 17.1697 13.8042 16.6985 13.2055 16.6316Z" fill="black"/>
<path d="M20.2055 16.6316C19.4106 16.5428 18.5894 16.5428 17.7945 16.6316C17.1958 16.6985 16.7106 17.1697 16.6398 17.7758C16.5446 18.5892 16.5446 19.4108 16.6398 20.2242C16.7106 20.8303 17.1958 21.3015 17.7945 21.3684C18.5894 21.4572 19.4106 21.4572 20.2055 21.3684C20.8042 21.3015 21.2893 20.8303 21.3602 20.2242C21.4553 19.4108 21.4553 18.5892 21.3602 17.7758C21.2893 17.1697 20.8042 16.6985 20.2055 16.6316Z" fill="black"/>
</svg>
