<svg width="24" height="24" viewBox="0 0 24 24" fill="none" xmlns="http://www.w3.org/2000/svg">
<path fill-rule="evenodd" clip-rule="evenodd" d="M8.40595 5.20001C7.33162 5.20001 6.3168 5.69341 5.65327 6.53835L2.09177 11.0736C1.66472 11.6174 1.66472 12.3826 2.09177 12.9264L5.65327 17.4617C6.3168 18.3066 7.33162 18.8 8.40595 18.8H19.0526C20.4333 18.8 21.5526 17.6807 21.5526 16.3V7.70001C21.5526 6.3193 20.4333 5.20001 19.0526 5.20001H8.40595ZM10.4697 8.46966C10.7626 8.17677 11.2374 8.17677 11.5303 8.46966L14 10.9393L16.4697 8.46967C16.7626 8.17678 17.2374 8.17678 17.5303 8.46967C17.8232 8.76256 17.8232 9.23744 17.5303 9.53033L15.0607 12L17.5303 14.4697C17.8232 14.7626 17.8232 15.2374 17.5303 15.5303C17.2374 15.8232 16.7626 15.8232 16.4697 15.5303L14 13.0607L11.5303 15.5303C11.2374 15.8232 10.7626 15.8232 10.4697 15.5303C10.1768 15.2374 10.1768 14.7626 10.4697 14.4697L12.9393 12L10.4697 9.53032C10.1768 9.23743 10.1768 8.76255 10.4697 8.46966Z" fill="black"/>
</svg>
