<svg width="24" height="24" viewBox="0 0 24 24" fill="none" xmlns="http://www.w3.org/2000/svg">
<path fill-rule="evenodd" clip-rule="evenodd" d="M18.0281 9.96443C18.0281 9.55021 17.6923 9.21443 17.2781 9.21443L14.7855 9.21443V6.72179C14.7855 6.30757 14.4497 5.97179 14.0355 5.97179C13.6213 5.97179 13.2855 6.30757 13.2855 6.72179V9.96443C13.2855 10.3786 13.6213 10.7144 14.0355 10.7144L17.2781 10.7144C17.6923 10.7144 18.0281 10.3786 18.0281 9.96443Z" fill="black"/>
<path fill-rule="evenodd" clip-rule="evenodd" d="M14.0355 18.0281C14.4497 18.0281 14.7855 17.6923 14.7855 17.2781L14.7855 14.7855L17.2782 14.7855C17.6924 14.7855 18.0282 14.4497 18.0282 14.0355C18.0282 13.6213 17.6924 13.2855 17.2782 13.2855L14.0355 13.2855C13.6213 13.2855 13.2855 13.6213 13.2855 14.0355L13.2855 17.2781C13.2855 17.6923 13.6213 18.0281 14.0355 18.0281Z" fill="black"/>
<path fill-rule="evenodd" clip-rule="evenodd" d="M9.96444 18.0281C9.55023 18.0281 9.21444 17.6923 9.21444 17.2781V14.7855H6.7218C6.30759 14.7855 5.9718 14.4497 5.9718 14.0355C5.9718 13.6213 6.30759 13.2855 6.7218 13.2855L9.96444 13.2855C10.3787 13.2855 10.7144 13.6213 10.7144 14.0355L10.7144 17.2781C10.7144 17.6923 10.3787 18.0281 9.96444 18.0281Z" fill="black"/>
<path fill-rule="evenodd" clip-rule="evenodd" d="M5.97183 9.96443C5.97183 9.55021 6.30761 9.21443 6.72183 9.21443H9.21447L9.21447 6.72179C9.21447 6.30757 9.55026 5.97179 9.96447 5.97179C10.3787 5.97179 10.7145 6.30757 10.7145 6.72179L10.7145 9.96443C10.7145 10.3786 10.3787 10.7144 9.96447 10.7144L6.72183 10.7144C6.30761 10.7144 5.97183 10.3786 5.97183 9.96443Z" fill="black"/>
</svg>
