<svg width="24" height="24" viewBox="0 0 24 24" fill="none" xmlns="http://www.w3.org/2000/svg">
<path fill-rule="evenodd" clip-rule="evenodd" d="M13.6642 6.34312C13.6642 6.75734 14 7.09312 14.4142 7.09312L16.9069 7.09312V9.58577C16.9069 9.99998 17.2426 10.3358 17.6569 10.3358C18.0711 10.3358 18.4069 9.99998 18.4069 9.58577V6.34313C18.4069 5.92891 18.0711 5.59313 17.6569 5.59313L14.4142 5.59312C14 5.59312 13.6642 5.92891 13.6642 6.34312Z" fill="black"/>
<path fill-rule="evenodd" clip-rule="evenodd" d="M17.6568 13.6642C17.2426 13.6642 16.9068 14 16.9068 14.4142L16.9068 16.9068L14.4142 16.9068C14 16.9068 13.6642 17.2426 13.6642 17.6568C13.6642 18.0711 14 18.4068 14.4142 18.4068L17.6568 18.4068C18.071 18.4068 18.4068 18.0711 18.4068 17.6568L18.4068 14.4142C18.4068 14 18.071 13.6642 17.6568 13.6642Z" fill="black"/>
<path fill-rule="evenodd" clip-rule="evenodd" d="M6.34314 13.6642C6.75735 13.6642 7.09314 14 7.09314 14.4142L7.09314 16.9068L9.58578 16.9068C9.99999 16.9068 10.3358 17.2426 10.3358 17.6568C10.3358 18.0711 9.99999 18.4068 9.58578 18.4068L6.34314 18.4068C5.92892 18.4068 5.59314 18.0711 5.59314 17.6568L5.59314 14.4142C5.59314 14 5.92892 13.6642 6.34314 13.6642Z" fill="black"/>
<path fill-rule="evenodd" clip-rule="evenodd" d="M10.3358 6.34312C10.3358 6.75734 9.99996 7.09312 9.58575 7.09312L7.09311 7.09312L7.09311 9.58577C7.09311 9.99998 6.75732 10.3358 6.34311 10.3358C5.9289 10.3358 5.59311 9.99998 5.59311 9.58577L5.59311 6.34312C5.59311 5.92891 5.9289 5.59312 6.34311 5.59312L9.58575 5.59312C9.99996 5.59312 10.3358 5.92891 10.3358 6.34312Z" fill="black"/>
</svg>
