<svg width="24" height="24" viewBox="0 0 24 24" fill="none" xmlns="http://www.w3.org/2000/svg">
<path d="M11.25 19C11.25 18.5858 11.5858 18.25 12 18.25H18C18.1381 18.25 18.25 18.1381 18.25 18L18.25 6C18.25 5.86193 18.1381 5.75 18 5.75L12 5.75C11.5858 5.75 11.25 5.41421 11.25 5C11.25 4.58579 11.5858 4.25 12 4.25H18C18.9665 4.25 19.75 5.0335 19.75 6V18C19.75 18.9665 18.9665 19.75 18 19.75H12C11.5858 19.75 11.25 19.4142 11.25 19Z" fill="black"/>
<path d="M3.5 13.1152C3.5 13.6675 3.94771 14.1152 4.5 14.1152H9.35599C9.37892 14.4706 9.40762 14.8258 9.4421 15.1805L9.47176 15.4857C9.51999 15.982 10.047 16.2791 10.4966 16.0637C12.3245 15.1876 13.9793 13.9889 15.3813 12.525L15.4113 12.4937C15.6784 12.2148 15.6784 11.7751 15.4113 11.4962L15.3813 11.4649C13.9793 10.001 12.3245 8.80226 10.4966 7.92625C10.047 7.71077 9.51999 8.00796 9.47176 8.5042L9.4421 8.8094C9.40762 9.16413 9.37892 9.51928 9.35599 9.8747L4.5 9.87471C3.94772 9.87471 3.5 10.3224 3.5 10.8747V13.1152Z" fill="black"/>
</svg>
