<svg width="24" height="24" viewBox="0 0 24 24" fill="none" xmlns="http://www.w3.org/2000/svg">
<path d="M7.25 7.59998C7.25 8.56647 8.0335 9.34998 9 9.34998H15C15.9665 9.34998 16.75 8.56647 16.75 7.59998V4.27627C16.75 4.12369 16.8737 4 17.0263 4C17.1722 4 17.3108 4.06373 17.4058 4.17448L20.3685 7.62867C20.7791 8.1074 20.9936 8.72364 20.9689 9.35387L20.6273 18.0976C20.5749 19.4393 19.4719 20.5 18.1292 20.5H17.75C17.4739 20.5 17.25 20.2761 17.25 20V15C17.25 14.0335 16.4665 13.25 15.5 13.25H8.5C7.5335 13.25 6.75 14.0335 6.75 15V20C6.75 20.2761 6.52614 20.5 6.25 20.5H6.11291C4.90908 20.5 3.89276 19.6055 3.73989 18.4114C3.24597 14.5534 3.2247 10.6495 3.67653 6.78632L3.73742 6.26575C3.8885 4.97395 4.983 4 6.28361 4H6.75C7.02614 4 7.25 4.22386 7.25 4.5V7.59998Z" fill="black"/>
<path d="M8.25 20C8.25 20.2761 8.47386 20.5 8.75 20.5H15.25C15.5261 20.5 15.75 20.2761 15.75 20V15C15.75 14.8619 15.6381 14.75 15.5 14.75H8.5C8.36193 14.75 8.25 14.8619 8.25 15V20Z" fill="black"/>
<path d="M15.25 4.5C15.25 4.22386 15.0261 4 14.75 4H9.25C8.97386 4 8.75 4.22386 8.75 4.5V7.59998C8.75 7.73805 8.86193 7.84998 9 7.84998H15C15.1381 7.84998 15.25 7.73805 15.25 7.59998V4.5Z" fill="black"/>
</svg>
