<svg width="24" height="24" viewBox="0 0 24 24" fill="none" xmlns="http://www.w3.org/2000/svg">
<path d="M13.878 8.75H4C3.58579 8.75 3.25 8.41421 3.25 8C3.25 7.58579 3.58579 7.25 4 7.25H13.878C14.1869 6.37611 15.0203 5.75 16 5.75C16.9797 5.75 17.8131 6.37611 18.122 7.25H20C20.4142 7.25 20.75 7.58579 20.75 8C20.75 8.41421 20.4142 8.75 20 8.75H18.122C17.8131 9.62389 16.9797 10.25 16 10.25C15.0203 10.25 14.1869 9.62389 13.878 8.75Z" fill="black"/>
<path d="M20 16.75C20.4142 16.75 20.75 16.4142 20.75 16C20.75 15.5858 20.4142 15.25 20 15.25H10.122C9.81309 14.3761 8.97966 13.75 8 13.75C7.02034 13.75 6.18691 14.3761 5.87803 15.25H4C3.58579 15.25 3.25 15.5858 3.25 16C3.25 16.4142 3.58579 16.75 4 16.75H5.87803C6.18691 17.6239 7.02034 18.25 8 18.25C8.97966 18.25 9.81309 17.6239 10.122 16.75H20Z" fill="black"/>
</svg>
