<svg width="24" height="24" viewBox="0 0 24 24" fill="none" xmlns="http://www.w3.org/2000/svg">
<path d="M11.5343 4.13112C11.6319 3.98765 11.5242 3.78849 11.3519 3.80875C5.95675 4.4432 2.4734 10.1043 4.59188 15.3042L5.52422 17.5927C5.56593 17.6951 5.53544 17.8127 5.44924 17.8819L3.47775 19.4652C3.2296 19.6645 3.13425 19.9987 3.23988 20.2989C3.34551 20.5991 3.62911 20.8 3.94737 20.8H11.7676C16.5662 20.8 20.4859 16.9605 20.7372 12.2196C20.7466 12.0415 20.5306 11.9486 20.395 12.0644C20.0778 12.3352 19.7319 12.5736 19.3628 12.7743C19.2471 12.8372 19.1661 12.9498 19.144 13.0795C18.5443 16.611 15.47 19.3 11.7676 19.3H6.07904L6.38848 19.0515C6.9919 18.5669 7.20536 17.7435 6.91336 17.0268L5.98102 14.7383C4.35824 10.7551 6.73816 6.44236 10.6613 5.45784C10.7935 5.42466 10.9027 5.33023 10.9549 5.20432C11.1119 4.82545 11.3066 4.46615 11.5343 4.13112Z" fill="black"/>
<path fill-rule="evenodd" clip-rule="evenodd" d="M12.8319 10.1074C12.3081 9.37179 12 8.47187 12 7.5C12 5.01472 14.0147 3 16.5 3C17.4719 3 18.3718 3.30809 19.1074 3.83194C19.5173 4.12383 19.8762 4.48271 20.1681 4.8926C20.6919 5.62821 21 6.52813 21 7.5C21 9.98528 18.9853 12 16.5 12C15.5281 12 14.6282 11.6919 13.8926 11.1681C13.4827 10.8762 13.1238 10.5173 12.8319 10.1074ZM14.976 10.0846C15.4227 10.3486 15.9436 10.5 16.5 10.5C18.1569 10.5 19.5 9.15685 19.5 7.5C19.5 6.94364 19.3486 6.42266 19.0846 5.97602L14.976 10.0846ZM18.024 4.91536L13.9154 9.02398C13.6514 8.57734 13.5 8.05636 13.5 7.5C13.5 5.84315 14.8431 4.5 16.5 4.5C17.0564 4.5 17.5773 4.65145 18.024 4.91536Z" fill="black"/>
</svg>
