<svg width="24" height="24" viewBox="0 0 24 24" fill="none" xmlns="http://www.w3.org/2000/svg">
<path fill-rule="evenodd" clip-rule="evenodd" d="M19.8065 5.37072C20.4739 5.85234 20.9451 6.59094 21.0742 7.44945C21.1194 7.7503 21.1601 8.05166 21.1963 8.35342C21.4765 10.9563 21.464 13.9581 21.0742 16.5505C20.8585 17.9849 19.6878 19.0845 18.2427 19.2101L16.7325 19.3414C13.5834 19.6151 10.4166 19.6151 7.26753 19.3414L5.7573 19.2101C4.31223 19.0845 3.14156 17.9849 2.92586 16.5505C2.53604 13.9581 2.52355 10.9562 2.80369 8.35326C2.83991 8.05155 2.88063 7.75025 2.92586 7.44945C3.05478 6.59213 3.52486 5.85438 4.19077 5.37272L4.19 5.36599L4.23726 5.33973C4.40977 5.21966 4.59485 5.11653 4.79008 5.03261L9.20602 2.57931C10.9427 1.61451 13.0543 1.61451 14.7909 2.57931L19.1967 5.02695C19.4013 5.11377 19.5948 5.22167 19.7746 5.34802L19.807 5.36602L19.8065 5.37072ZM18.9655 6.61448L14.0625 3.89054C12.7789 3.17744 11.2181 3.17744 9.93449 3.89054L5.04282 6.60814C4.70934 6.85975 4.47475 7.23651 4.40918 7.67251C4.39749 7.75028 4.38611 7.82808 4.37505 7.90592L9.93599 10.9953C11.2196 11.7084 12.7804 11.7084 14.064 10.9953L19.625 7.90589C19.6139 7.82806 19.6025 7.75027 19.5908 7.67251C19.5258 7.24016 19.2946 6.86606 18.9655 6.61448ZM19.7055 15.4805C19.9439 13.5015 19.9782 11.5042 19.8085 9.51987L14.7924 12.3066C13.0558 13.2714 10.9442 13.2714 9.20752 12.3066L4.1915 9.5199C4.02178 11.5042 4.05612 13.5015 4.29452 15.4805C4.32858 15.7632 4.3668 16.0456 4.40918 16.3274C4.43318 16.487 4.47982 16.6386 4.54566 16.7791C4.78876 17.2977 5.29364 17.6642 5.8872 17.7158L7.39743 17.847C10.46 18.1133 13.54 18.1133 16.6026 17.8471L18.1128 17.7158C18.5843 17.6748 18.9998 17.4352 19.2726 17.0785C19.4363 16.8644 19.5486 16.6082 19.5908 16.3274C19.6332 16.0456 19.6714 15.7632 19.7055 15.4805Z" fill="black"/>
</svg>
