<svg width="24" height="24" viewBox="0 0 24 24" fill="none" xmlns="http://www.w3.org/2000/svg">
<path fill-rule="evenodd" clip-rule="evenodd" d="M10.7024 5.25C10.5362 5.25 10.3827 5.33919 10.3004 5.48362L6.95445 11.3569C6.51092 12.1354 6.32479 13.0342 6.42266 13.9249L6.7758 17.1385C6.83864 17.7103 7.28751 18.1632 7.8587 18.2312L9.97575 18.483C11.3733 18.6493 12.7903 18.5051 14.1258 18.0609C14.7854 17.8416 15.3136 17.341 15.5682 16.6942L17.2722 12.3636C17.3139 12.2578 17.3427 12.1473 17.358 12.0345C17.4872 11.0824 16.6538 10.2792 15.7071 10.4437L12.2913 11.0369C11.2123 11.2243 10.2804 10.2722 10.491 9.19744L11.1564 5.80158C11.2124 5.51581 10.9936 5.25 10.7024 5.25ZM8.99709 4.74111C9.34617 4.12836 9.99717 3.75001 10.7024 3.75C11.9378 3.74999 12.8659 4.87768 12.6284 6.09001L11.963 9.48587C11.9601 9.50042 11.9617 9.50931 11.9637 9.51569C11.9661 9.52355 11.9712 9.53276 11.9796 9.5413C11.9879 9.54984 11.997 9.5551 12.0048 9.55774C12.0111 9.55988 12.02 9.5616 12.0346 9.55906L15.4504 8.96579C17.3966 8.62777 19.1101 10.2789 18.8444 12.2363C18.8129 12.4681 18.7537 12.6952 18.6681 12.9129L16.964 17.2435C16.5467 18.3039 15.6806 19.1246 14.5992 19.4843C13.0544 19.9981 11.4152 20.1648 9.79857 19.9725L7.68152 19.7207C6.41731 19.5703 5.42384 18.5679 5.28478 17.3024L4.93164 14.0887C4.79922 12.8837 5.05104 11.6677 5.65112 10.6143L8.99709 4.74111Z" fill="black"/>
</svg>
