<svg width="24" height="24" viewBox="0 0 24 24" fill="none" xmlns="http://www.w3.org/2000/svg">
<path fill-rule="evenodd" clip-rule="evenodd" d="M6.66421 4.41425C6.66421 4.00003 7 3.66425 7.41421 3.66425H10.2426C10.6569 3.66425 10.9926 4.00003 10.9926 4.41425C10.9926 4.82846 10.6569 5.16425 10.2426 5.16425H9.22487L11.8232 7.76259C11.9209 7.86023 12.0791 7.86023 12.1768 7.7626L16.0555 3.88392C16.3483 3.59102 16.8232 3.59102 17.1161 3.88392C17.409 4.17681 17.409 4.65168 17.1161 4.94458L13.2374 8.82326C12.554 9.50667 11.446 9.50667 10.7626 8.82325L8.16421 6.22491V7.24267C8.16421 7.65689 7.82843 7.99267 7.41421 7.99267C7 7.99267 6.66421 7.65689 6.66421 7.24267V4.41425Z" fill="black"/>
<path fill-rule="evenodd" clip-rule="evenodd" d="M17.9718 13.5722C13.956 12.084 9.51918 12.1451 5.53792 13.7553L5.52535 13.7603L4.74452 14.0597C3.75034 14.441 3.15959 15.467 3.32893 16.5183L3.67497 18.6666C3.69611 18.7978 3.81622 18.8895 3.94838 18.8754L6.79062 18.5714C6.93191 18.5563 7.03221 18.4266 7.01131 18.286L6.79739 16.8476C6.74544 16.4983 6.94425 16.16 7.27473 16.0355C10.3113 14.891 13.671 14.891 16.7076 16.0355C17.0381 16.16 17.2369 16.4983 17.1849 16.8476L16.971 18.286C16.9501 18.4266 17.0504 18.5563 17.1917 18.5714L20.0343 18.8754C20.1665 18.8896 20.2866 18.7979 20.3077 18.6667L20.6564 16.5076C20.8273 15.4498 20.2284 14.4182 19.2251 14.0421L17.9732 13.5727L17.9718 13.5722ZM4.98186 12.3621C9.30908 10.6138 14.1304 10.5485 18.4945 12.1662L18.4972 12.1672L19.7517 12.6375C21.4239 13.2645 22.422 14.9837 22.1373 16.7467L21.7886 18.9059C21.6403 19.8241 20.7996 20.4658 19.8748 20.3669L17.0322 20.0629C16.0431 19.9571 15.341 19.0492 15.4873 18.0654L15.6099 17.2411C13.2586 16.4891 10.7238 16.4891 8.37241 17.2411L8.49499 18.0654C8.6413 19.0492 7.9392 19.9571 6.95015 20.0629L4.10791 20.3669C3.18282 20.4658 2.34201 19.8236 2.19406 18.9051L1.84801 16.7568C1.56579 15.0048 2.55038 13.2947 4.20733 12.6592L4.98186 12.3621Z" fill="black"/>
</svg>
