<svg width="24" height="24" viewBox="0 0 24 24" fill="none" xmlns="http://www.w3.org/2000/svg">
<path fill-rule="evenodd" clip-rule="evenodd" d="M12 5.75C7.99594 5.75 4.75 8.99594 4.75 13C4.75 17.0041 7.99594 20.25 12 20.25C16.0041 20.25 19.25 17.0041 19.25 13C19.25 8.99594 16.0041 5.75 12 5.75ZM3.25 13C3.25 8.16751 7.16751 4.25 12 4.25C16.8325 4.25 20.75 8.16751 20.75 13C20.75 17.8325 16.8325 21.75 12 21.75C7.16751 21.75 3.25 17.8325 3.25 13Z" fill="black"/>
<path fill-rule="evenodd" clip-rule="evenodd" d="M12 7.25C12.4142 7.25 12.75 7.58579 12.75 8V12.5843L15.3975 14.239C15.7488 14.4585 15.8555 14.9212 15.636 15.2725C15.4165 15.6238 14.9538 15.7305 14.6025 15.511L11.6025 13.636C11.3832 13.4989 11.25 13.2586 11.25 13V8C11.25 7.58579 11.5858 7.25 12 7.25Z" fill="black"/>
<path fill-rule="evenodd" clip-rule="evenodd" d="M6.53033 3.46967C6.82322 3.76256 6.82322 4.23744 6.53033 4.53033L4.03033 7.03033C3.73744 7.32322 3.26256 7.32322 2.96967 7.03033C2.67678 6.73744 2.67678 6.26256 2.96967 5.96967L5.46967 3.46967C5.76256 3.17678 6.23744 3.17678 6.53033 3.46967Z" fill="black"/>
<path fill-rule="evenodd" clip-rule="evenodd" d="M17.4697 3.46967C17.1768 3.76256 17.1768 4.23744 17.4697 4.53033L19.9697 7.03033C20.2626 7.32322 20.7374 7.32322 21.0303 7.03033C21.3232 6.73744 21.3232 6.26256 21.0303 5.96967L18.5303 3.46967C18.2374 3.17678 17.7626 3.17678 17.4697 3.46967Z" fill="black"/>
</svg>
