<svg width="24" height="24" viewBox="0 0 24 24" fill="none" xmlns="http://www.w3.org/2000/svg">
<path d="M13 15C12.4477 15 12 15.4477 12 16C12 16.5523 12.4477 17 13 17C13.5523 17 14 16.5523 14 16C14 15.4477 13.5523 15 13 15Z" fill="black"/>
<path d="M10 17C9.44771 17 9 17.4477 9 18C9 18.5523 9.44771 19 10 19C10.5523 19 11 18.5523 11 18C11 17.4477 10.5523 17 10 17Z" fill="black"/>
<path fill-rule="evenodd" clip-rule="evenodd" d="M14.4932 3.25001L14.4902 3.25H9.5098L9.50684 3.25001H8.5C8.08579 3.25001 7.75 3.58579 7.75 4.00001C7.75 4.41422 8.08579 4.75001 8.5 4.75001H8.7598V9.83701C8.7598 11.2914 8.32239 12.7121 7.5044 13.9147L4.41061 18.4629C3.62496 19.6179 4.34919 21.194 5.7373 21.3502C9.8993 21.8184 14.1007 21.8184 18.2627 21.3502C19.6508 21.194 20.375 19.6179 19.5894 18.4629L16.4956 13.9147C15.6776 12.7121 15.2402 11.2914 15.2402 9.83701V4.75001H15.5C15.9142 4.75001 16.25 4.41422 16.25 4.00001C16.25 3.58579 15.9142 3.25001 15.5 3.25001H14.4932ZM5.90499 19.8596C9.95555 20.3153 14.0444 20.3153 18.095 19.8596C18.3609 19.8297 18.4996 19.5278 18.3491 19.3065L15.2553 14.7583C15.0351 14.4345 14.8377 14.0976 14.6639 13.75H9.33611C9.16233 14.0976 8.96493 14.4345 8.74466 14.7583L5.65087 19.3065C5.50038 19.5278 5.6391 19.8297 5.90499 19.8596ZM9.92051 12.25H14.0795C13.8556 11.4697 13.7402 10.6578 13.7402 9.83701V4.75L10.2598 4.75001V9.83701C10.2598 10.6578 10.1444 11.4697 9.92051 12.25Z" fill="black"/>
</svg>
