<svg width="24" height="24" viewBox="0 0 24 24" fill="none" xmlns="http://www.w3.org/2000/svg">
<path d="M9.5 15.25C9.08579 15.25 8.75 15.5858 8.75 16C8.75 16.4142 9.08579 16.75 9.5 16.75H11.25V18.5C11.25 18.9142 11.5858 19.25 12 19.25C12.4142 19.25 12.75 18.9142 12.75 18.5V16.75H14.5C14.9142 16.75 15.25 16.4142 15.25 16C15.25 15.5858 14.9142 15.25 14.5 15.25H12.75V13.5C12.75 13.0858 12.4142 12.75 12 12.75C11.5858 12.75 11.25 13.0858 11.25 13.5V15.25H9.5Z" fill="black"/>
<path fill-rule="evenodd" clip-rule="evenodd" d="M7.25 5.4612V6.69898C6.88071 6.72683 6.5116 6.75794 6.14272 6.79229C4.47364 6.94775 3.19736 8.34842 3.19736 10.0247V17.9753C3.19736 19.6516 4.47364 21.0523 6.14272 21.2077C10.0391 21.5706 13.9608 21.5706 17.8573 21.2077C19.5263 21.0523 20.8026 19.6516 20.8026 17.9753V10.0247C20.8026 8.34842 19.5263 6.94775 17.8573 6.79229C17.4884 6.75794 17.1193 6.72684 16.75 6.69898V5.4612C16.75 4.59495 16.1163 3.85906 15.2596 3.73056L14.0397 3.54757C12.6875 3.34474 11.3125 3.34474 9.96032 3.54757L8.7404 3.73056C7.88374 3.85906 7.25 4.59495 7.25 5.4612ZM13.8172 5.03098C12.6125 4.85027 11.3875 4.85027 10.1828 5.03098L8.96291 5.21396C8.84053 5.23232 8.75 5.33745 8.75 5.4612V6.60379C10.9152 6.49223 13.0848 6.49223 15.25 6.60379V5.4612C15.25 5.33745 15.1595 5.23232 15.0371 5.21396L13.8172 5.03098ZM17.7181 8.28583C13.9143 7.93155 10.0857 7.93155 6.28183 8.28583C5.38394 8.36946 4.69736 9.12295 4.69736 10.0247V10.25H19.3026V10.0247C19.3026 9.12295 18.616 8.36946 17.7181 8.28583ZM19.3026 11.75H4.69736V17.9753C4.69736 18.8771 5.38394 19.6306 6.28183 19.7142C10.0857 20.0685 13.9143 20.0685 17.7181 19.7142C18.616 19.6306 19.3026 18.8771 19.3026 17.9753V11.75Z" fill="black"/>
</svg>
