<svg width="24" height="24" viewBox="0 0 24 24" fill="none" xmlns="http://www.w3.org/2000/svg">
<path d="M9.99999 3.01776C9.58578 3.01776 9.24999 2.68197 9.24999 2.26776C9.24999 1.85355 9.58578 1.51776 9.99999 1.51776H13.5355C13.9497 1.51776 14.2855 1.85355 14.2855 2.26776C14.2855 2.68197 13.9497 3.01776 13.5355 3.01776H9.99999Z" fill="black"/>
<path d="M6.53033 3.46967C6.82322 3.76256 6.82322 4.23743 6.53033 4.53033L4.03033 7.03033C3.73744 7.32322 3.26256 7.32322 2.96967 7.03033C2.67678 6.73743 2.67678 6.26256 2.96967 5.96967L5.46967 3.46967C5.76256 3.17677 6.23744 3.17677 6.53033 3.46967Z" fill="black"/>
<path d="M12 5.75C7.99594 5.75 4.75 8.99593 4.75 13C4.75 17.0041 7.99594 20.25 12 20.25C16.0041 20.25 19.25 17.0041 19.25 13C19.25 12.5858 19.5858 12.25 20 12.25C20.4142 12.25 20.75 12.5858 20.75 13C20.75 17.8325 16.8325 21.75 12 21.75C7.16751 21.75 3.25 17.8325 3.25 13C3.25 8.1675 7.16751 4.25 12 4.25C12.4142 4.25 12.75 4.58578 12.75 5C12.75 5.41421 12.4142 5.75 12 5.75Z" fill="black"/>
<path d="M17.1882 8.36425C17.4204 8.06569 17.394 7.64093 17.1265 7.37347C16.8591 7.10601 16.4343 7.07957 16.1357 7.31178L12.9658 9.77726L10.8944 11.2569C10.4519 11.5729 10.1893 12.0832 10.1893 12.6269C10.1893 13.5568 10.9432 14.3107 11.873 14.3107C12.4168 14.3107 12.9271 14.0481 13.2431 13.6056L14.7227 11.5342L17.1882 8.36425Z" fill="black"/>
</svg>
