<svg width="24" height="24" viewBox="0 0 24 24" fill="none" xmlns="http://www.w3.org/2000/svg">
<path fill-rule="evenodd" clip-rule="evenodd" d="M7.25 5.4612V6.88179L5.55607 7.01852C4.35839 7.1152 3.38142 8.01697 3.18933 9.20309C3.14759 9.46088 3.10962 9.71911 3.07544 9.97772C3.05848 10.1061 3.12691 10.2303 3.24391 10.2857L3.32096 10.3222C8.74967 12.8926 15.2503 12.8926 20.679 10.3222L20.7561 10.2857C20.8731 10.2303 20.9415 10.1061 20.9245 9.97773C20.8904 9.71912 20.8524 9.46088 20.8107 9.20309C20.6186 8.01697 19.6416 7.1152 18.4439 7.01852L16.75 6.88179V5.4612C16.75 4.59495 16.1163 3.85906 15.2596 3.73056L14.0397 3.54757C12.6875 3.34474 11.3125 3.34474 9.96032 3.54757L8.7404 3.73056C7.88374 3.85906 7.25 4.59495 7.25 5.4612ZM13.8172 5.03098C12.6125 4.85027 11.3875 4.85027 10.1828 5.03098L8.96291 5.21396C8.84053 5.23232 8.75 5.33745 8.75 5.4612V6.77621C10.9149 6.65219 13.0851 6.65219 15.25 6.77621V5.4612C15.25 5.33745 15.1595 5.23232 15.0371 5.21396L13.8172 5.03098Z" fill="black"/>
<path d="M21.1183 12.0709C21.1108 11.9308 20.9642 11.8432 20.8359 11.9C15.2649 14.3667 8.73504 14.3667 3.16412 11.9C3.03582 11.8432 2.88914 11.9308 2.88168 12.0709C2.7799 13.9823 2.88246 15.9019 3.18933 17.7969C3.38142 18.983 4.35839 19.8848 5.55607 19.9815L7.42799 20.1326C10.471 20.3782 13.5289 20.3782 16.572 20.1326L18.4439 19.9815C19.6416 19.8848 20.6186 18.983 20.8107 17.7969C21.1175 15.9019 21.2201 13.9823 21.1183 12.0709Z" fill="black"/>
</svg>
