<svg width="24" height="24" viewBox="0 0 24 24" fill="none" xmlns="http://www.w3.org/2000/svg">
<path fill-rule="evenodd" clip-rule="evenodd" d="M19.1841 4.66612L12 4.49982L4.81592 4.66612C3.36417 4.69563 2.13342 5.74215 1.87094 7.17028C1.28407 10.3634 1.28407 13.6367 1.87094 16.8298C2.13342 18.2579 3.36416 19.3044 4.81592 19.3339L12 19.5002L19.1841 19.3339C20.6359 19.3044 21.8666 18.2579 22.1291 16.8298C22.716 13.6367 22.716 10.3634 22.1291 7.17028C21.8666 5.74215 20.6359 4.69563 19.1841 4.66612ZM21 11C21 11.5523 20.5523 12 20 12H4C3.44772 12 3 11.5523 3 11C3 10.4477 3.44772 10 4 10H20C20.5523 10 21 10.4477 21 11Z" fill="black"/>
</svg>
