<svg width="24" height="24" viewBox="0 0 24 24" fill="none" xmlns="http://www.w3.org/2000/svg">
<path d="M11.25 2.7454C11.25 2.6288 11.1501 2.53678 11.0341 2.5485C6.24107 3.03249 2.5 7.07936 2.5 12C2.5 17.2467 6.75329 21.5 12 21.5C14.6367 21.5 17.0227 20.4254 18.7434 18.6915C18.8256 18.6087 18.8165 18.4734 18.7258 18.4L11.5286 12.5833C11.3524 12.4409 11.25 12.2265 11.25 12V2.7454Z" fill="black"/>
<path d="M19.6695 17.2341C19.7601 17.3074 19.8942 17.2879 19.958 17.1903C20.7671 15.9522 21.2952 14.5134 21.4515 12.9654C21.4632 12.8494 21.3712 12.75 21.2546 12.75H14.6868C14.4983 12.75 14.4145 12.987 14.5611 13.1055L19.6695 17.2341Z" fill="black"/>
<path d="M21.2546 11.25C21.3712 11.25 21.4632 11.1502 21.4515 11.0342C20.9996 6.55868 17.4413 3.00039 12.9658 2.54849C12.8498 2.53678 12.75 2.6288 12.75 2.7454V10.95C12.75 11.1157 12.8843 11.25 13.05 11.25H21.2546Z" fill="black"/>
</svg>
