<svg width="24" height="24" viewBox="0 0 24 24" fill="none" xmlns="http://www.w3.org/2000/svg">
<path d="M21.9384 10.0019C21.4878 6.38163 18.6183 3.51214 14.998 3.06161C14.45 2.99341 14 3.44768 14 3.99996V10.5C14 10.7761 14.2239 11 14.5 11H21C21.5523 11 22.0066 10.55 21.9384 10.0019Z" fill="black"/>
<path d="M12 4.49997C7.30558 4.49997 3.5 8.30555 3.5 13C3.5 17.6944 7.30558 21.5 12 21.5C16.6944 21.5 20.5 17.6944 20.5 13C20.5 12.7238 20.2761 12.5 20 12.5H13C12.7239 12.5 12.5 12.2761 12.5 12V4.99997C12.5 4.72383 12.2761 4.49997 12 4.49997Z" fill="black"/>
</svg>
