<svg width="24" height="24" viewBox="0 0 24 24" fill="none" xmlns="http://www.w3.org/2000/svg">
<path fill-rule="evenodd" clip-rule="evenodd" d="M14.4947 3.25001L14.4902 3.25H9.5098L9.50528 3.25001H8.5C8.08579 3.25001 7.75 3.5858 7.75 4.00001C7.75 4.41423 8.08579 4.75001 8.5 4.75001H8.7598V9.83701C8.7598 11.2914 8.32239 12.7121 7.5044 13.9147L4.41061 18.4629C3.62496 19.6179 4.34919 21.194 5.7373 21.3502L5.82366 21.3598L5.84062 21.3618C9.93397 21.8223 14.0661 21.8223 18.1594 21.3618L18.1766 21.3598L18.2627 21.3502C19.6508 21.194 20.375 19.6179 19.5894 18.4629L16.4956 13.9147C15.6776 12.7121 15.2402 11.2914 15.2402 9.83701V4.75001H15.5C15.9142 4.75001 16.25 4.41423 16.25 4.00001C16.25 3.5858 15.9142 3.25001 15.5 3.25001H14.4947ZM9.82859 12.55H14.1714C13.8873 11.6788 13.7402 10.7636 13.7402 9.83701V4.75001H10.2598V9.83701C10.2598 10.7636 10.1127 11.6788 9.82859 12.55ZM10 17C9.44771 17 9 17.4477 9 18C9 18.5523 9.44771 19 10 19C10.5523 19 11 18.5523 11 18C11 17.4477 10.5523 17 10 17ZM12 16C12 15.4477 12.4477 15 13 15C13.5523 15 14 15.4477 14 16C14 16.5523 13.5523 17 13 17C12.4477 17 12 16.5523 12 16Z" fill="black"/>
</svg>
