<svg width="24" height="24" viewBox="0 0 24 24" fill="none" xmlns="http://www.w3.org/2000/svg">
<path fill-rule="evenodd" clip-rule="evenodd" d="M14.4947 3.25001L14.4902 3.25H9.50979L9.50526 3.25001H8.5C8.08579 3.25001 7.75 3.5858 7.75 4.00001C7.75 4.41423 8.08579 4.75001 8.5 4.75001H8.75978V9.81112C4.30808 11.9155 3.66496 18.052 7.66619 21.0195L7.96119 21.2383C10.3599 23.0173 13.6401 23.0173 16.0388 21.2383L16.3338 21.0195C20.335 18.052 19.6919 11.9155 15.2402 9.81112V4.75001H15.5C15.9142 4.75001 16.25 4.41423 16.25 4.00001C16.25 3.5858 15.9142 3.25001 15.5 3.25001H14.4947ZM7.89685 12.25H16.1031C15.6509 11.7748 15.0909 11.3757 14.4276 11.0897C14.0104 10.9099 13.7402 10.4991 13.7402 10.0448V4.75001H10.2598V10.0448C10.2598 10.4991 9.98957 10.9099 9.5724 11.0897C8.90903 11.3757 8.34909 11.7748 7.89685 12.25ZM10 17C9.44771 17 9 17.4477 9 18C9 18.5523 9.44771 19 10 19C10.5523 19 11 18.5523 11 18C11 17.4477 10.5523 17 10 17ZM12 16C12 15.4477 12.4477 15 13 15C13.5523 15 14 15.4477 14 16C14 16.5523 13.5523 17 13 17C12.4477 17 12 16.5523 12 16Z" fill="black"/>
</svg>
