<svg width="24" height="24" viewBox="0 0 24 24" fill="none" xmlns="http://www.w3.org/2000/svg">
<path fill-rule="evenodd" clip-rule="evenodd" d="M7.25 5.4612V6.9497C6.88844 6.97707 6.52707 7.00758 6.16591 7.04122C4.72502 7.17542 3.60129 8.51212 3.46193 9.95045C3.44595 10.1154 3.58167 10.25 3.74736 10.25H20.2526C20.4183 10.25 20.554 10.1154 20.538 9.95045C20.3987 8.51212 19.275 7.17542 17.8341 7.04122C17.4729 7.00758 17.1115 6.97707 16.75 6.9497V5.4612C16.75 4.59495 16.1163 3.85906 15.2596 3.73056L14.0397 3.54757C12.6875 3.34474 11.3125 3.34474 9.96032 3.54757L8.7404 3.73056C7.88374 3.85906 7.25 4.59495 7.25 5.4612ZM13.8172 5.03098C12.6125 4.85027 11.3875 4.85027 10.1828 5.03098L8.96291 5.21396C8.84053 5.23232 8.75 5.33745 8.75 5.4612V6.85412C10.9152 6.74212 13.0848 6.74212 15.25 6.85412V5.4612C15.25 5.33745 15.1595 5.23232 15.0371 5.21396L13.8172 5.03098Z" fill="black"/>
<path fill-rule="evenodd" clip-rule="evenodd" d="M20.5526 12.05C20.5526 11.8843 20.4183 11.75 20.2526 11.75H3.74736C3.58167 11.75 3.44736 11.8843 3.44736 12.05V17.9753C3.44736 19.5225 4.62535 20.8153 6.16591 20.9588C10.0469 21.3203 13.9531 21.3203 17.8341 20.9588C19.3746 20.8153 20.5526 19.5225 20.5526 17.9753V12.05ZM9.5 15.25C9.08579 15.25 8.75 15.5858 8.75 16C8.75 16.4142 9.08579 16.75 9.5 16.75H11.25V18.5C11.25 18.9142 11.5858 19.25 12 19.25C12.4142 19.25 12.75 18.9142 12.75 18.5V16.75H14.5C14.9142 16.75 15.25 16.4142 15.25 16C15.25 15.5858 14.9142 15.25 14.5 15.25H12.75V13.5C12.75 13.0858 12.4142 12.75 12 12.75C11.5858 12.75 11.25 13.0858 11.25 13.5V15.25H9.5Z" fill="black"/>
</svg>
