<svg width="24" height="24" viewBox="0 0 24 24" fill="none" xmlns="http://www.w3.org/2000/svg">
<path fill-rule="evenodd" clip-rule="evenodd" d="M7.25002 7.13012V7.5H5.74889C5.30168 7.5 4.92213 7.82799 4.8573 8.27047L4.63863 9.76292C4.2116 12.6773 4.2116 15.6384 4.63863 18.5529C4.82996 19.8588 5.88301 20.8683 7.1958 21.0045L7.82467 21.0697C10.6008 21.3576 13.3992 21.3576 16.1754 21.0697L16.8042 21.0045C18.117 20.8683 19.1701 19.8588 19.3614 18.5529C19.7884 15.6384 19.7884 12.6773 19.3614 9.76292L19.1427 8.27047C19.0779 7.82799 18.6983 7.5 18.2511 7.5H16.75V7.13013C16.75 4.96238 15.2824 3.06964 13.183 2.52979C12.407 2.33024 11.5931 2.33024 10.8171 2.52979C8.71763 3.06964 7.25002 4.96238 7.25002 7.13012ZM12.8094 3.98252C12.2784 3.84599 11.7216 3.84599 11.1906 3.98252C9.75417 4.3519 8.75002 5.64693 8.75002 7.13012V7.5H15.25V7.13013C15.25 5.64693 14.2459 4.3519 12.8094 3.98252ZM8.75002 9C8.75002 8.58579 8.41423 8.25 8.00002 8.25C7.5858 8.25 7.25002 8.58579 7.25002 9V11C7.25002 11.4142 7.5858 11.75 8.00002 11.75C8.41423 11.75 8.75002 11.4142 8.75002 11V9ZM16.75 9C16.75 8.58579 16.4142 8.25 16 8.25C15.5858 8.25 15.25 8.58579 15.25 9V11C15.25 11.4142 15.5858 11.75 16 11.75C16.4142 11.75 16.75 11.4142 16.75 11V9Z" fill="black"/>
</svg>
