<svg width="24" height="24" viewBox="0 0 24 24" fill="none" xmlns="http://www.w3.org/2000/svg">
<path d="M9.99999 3.57843C9.58578 3.57843 9.24999 3.24264 9.24999 2.82843C9.24999 2.41422 9.58578 2.07843 9.99999 2.07843H13.5355C13.9497 2.07843 14.2855 2.41422 14.2855 2.82843C14.2855 3.24264 13.9497 3.57843 13.5355 3.57843H9.99999Z" fill="black"/>
<path d="M6.53033 4.03033C6.82322 4.32323 6.82322 4.7981 6.53033 5.09099L4.03033 7.59099C3.73744 7.88389 3.26256 7.88389 2.96967 7.59099C2.67678 7.2981 2.67678 6.82323 2.96967 6.53033L5.46967 4.03033C5.76256 3.73744 6.23744 3.73744 6.53033 4.03033Z" fill="black"/>
<path fill-rule="evenodd" clip-rule="evenodd" d="M12 5.06066C7.30558 5.06066 3.5 8.86624 3.5 13.5607C3.5 18.2551 7.30558 22.0607 12 22.0607C16.6944 22.0607 20.5 18.2551 20.5 13.5607C20.5 8.86624 16.6944 5.06066 12 5.06066ZM16.9909 8.77144C17.1457 8.5724 17.128 8.28922 16.9497 8.11092C16.7714 7.93261 16.4883 7.91498 16.2892 8.06979L13.1153 10.5384L11.0397 12.021C10.6629 12.2901 10.4393 12.7246 10.4393 13.1876C10.4393 13.9794 11.0812 14.6213 11.873 14.6213C12.3361 14.6213 12.7706 14.3977 13.0397 14.0209L14.5223 11.9454L16.9909 8.77144Z" fill="black"/>
</svg>
