<svg width="24" height="24" viewBox="0 0 24 24" fill="none" xmlns="http://www.w3.org/2000/svg">
<path d="M15.9325 10.143V15.5H14.5685V10.143H15.9325Z" fill="black"/>
<path d="M14.4915 8.647C14.4915 8.229 14.7995 7.91 15.2505 7.91C15.7125 7.91 15.9985 8.229 16.0095 8.647C16.0095 9.054 15.7125 9.373 15.2395 9.373C14.7885 9.373 14.4915 9.054 14.4915 8.647Z" fill="black"/>
<path fill-rule="evenodd" clip-rule="evenodd" d="M12.634 15.5L11.963 13.399H9.60904L8.97104 15.5H7.57404L9.95004 8.086H11.677L14.086 15.5H12.634ZM10.401 10.55L9.82904 12.376H11.732L11.149 10.55C11.0333 10.185 10.932 9.78393 10.8392 9.41684C10.8174 9.33037 10.796 9.24579 10.775 9.164H10.753C10.7154 9.31094 10.6777 9.46819 10.6391 9.62914C10.5651 9.93806 10.4878 10.2608 10.401 10.55Z" fill="black"/>
<path fill-rule="evenodd" clip-rule="evenodd" d="M17.2583 2.83303C13.7917 2.44559 10.2083 2.44559 6.74177 2.83303C4.72971 3.05791 3.10538 4.64292 2.86883 6.66545C2.45429 10.2097 2.45429 13.7903 2.86883 17.3346C3.10538 19.3571 4.72971 20.9421 6.74177 21.167C10.2083 21.5544 13.7917 21.5544 17.2583 21.167C19.2703 20.9421 20.8946 19.3571 21.1312 17.3346C21.5457 13.7903 21.5457 10.2097 21.1312 6.66545C20.8946 4.64292 19.2703 3.05791 17.2583 2.83303ZM6.90838 4.32375C10.2642 3.94868 13.7358 3.94868 17.0916 4.32375C18.4218 4.47241 19.4872 5.52202 19.6414 6.8397C20.0424 10.2682 20.0424 13.7318 19.6414 17.1603C19.4872 18.478 18.4218 19.5276 17.0916 19.6763C13.7358 20.0513 10.2642 20.0513 6.90838 19.6763C5.57827 19.5276 4.51278 18.478 4.35867 17.1603C3.95767 13.7318 3.95767 10.2682 4.35867 6.8397C4.51278 5.52202 5.57827 4.47241 6.90838 4.32375Z" fill="black"/>
</svg>
