<svg width="24" height="24" viewBox="0 0 24 24" fill="none" xmlns="http://www.w3.org/2000/svg">
<path fill-rule="evenodd" clip-rule="evenodd" d="M16.0759 10.726V7.69H17.4289V13.993C17.4289 14.543 17.4509 15.137 17.4729 15.5H16.2629L16.2079 14.653H16.1859C15.8669 15.247 15.2179 15.621 14.4369 15.621C13.1609 15.621 12.1489 14.532 12.1489 12.882C12.1379 11.089 13.2599 10.022 14.5469 10.022C15.2839 10.022 15.8119 10.33 16.0539 10.726H16.0759ZM16.0319 13.575C16.0649 13.454 16.0759 13.322 16.0759 13.179V12.376C16.0759 12.266 16.0649 12.134 16.0429 12.024C15.9219 11.496 15.4929 11.067 14.8769 11.067C14.0079 11.067 13.5239 11.837 13.5239 12.838C13.5239 13.817 14.0079 14.532 14.8659 14.532C15.4159 14.532 15.8999 14.158 16.0319 13.575Z" fill="black"/>
<path d="M9.90351 11.705L12.1585 15.5H10.5965L9.79351 14.026C9.47451 13.454 9.26551 13.058 9.05651 12.629H9.02351C8.84751 13.058 8.64951 13.454 8.35251 14.026L7.61551 15.5H6.06451L8.26451 11.749L6.15251 8.086H7.70351L8.50651 9.615C8.74851 10.077 8.92451 10.44 9.12251 10.858H9.14451C9.34251 10.396 9.49651 10.066 9.72751 9.615L10.5195 8.086H12.0705L9.90351 11.705Z" fill="black"/>
<path fill-rule="evenodd" clip-rule="evenodd" d="M17.2583 2.83303C13.7917 2.44559 10.2083 2.44559 6.74177 2.83303C4.72971 3.05791 3.10538 4.64292 2.86883 6.66545C2.45429 10.2097 2.45429 13.7903 2.86883 17.3346C3.10538 19.3571 4.72971 20.9421 6.74177 21.167C10.2083 21.5544 13.7917 21.5544 17.2583 21.167C19.2703 20.9421 20.8946 19.3571 21.1312 17.3346C21.5457 13.7903 21.5457 10.2097 21.1312 6.66545C20.8946 4.64292 19.2703 3.05791 17.2583 2.83303ZM6.90838 4.32375C10.2642 3.94868 13.7358 3.94868 17.0916 4.32375C18.4218 4.47241 19.4872 5.52202 19.6414 6.8397C20.0424 10.2682 20.0424 13.7318 19.6414 17.1603C19.4872 18.478 18.4218 19.5276 17.0916 19.6763C13.7358 20.0513 10.2642 20.0513 6.90838 19.6763C5.57827 19.5276 4.51278 18.478 4.35867 17.1603C3.95767 13.7318 3.95767 10.2682 4.35867 6.8397C4.51278 5.52202 5.57827 4.47241 6.90838 4.32375Z" fill="black"/>
</svg>
