<svg width="24" height="24" viewBox="0 0 24 24" fill="none" xmlns="http://www.w3.org/2000/svg">
<path fill-rule="evenodd" clip-rule="evenodd" d="M14.3464 10.726V7.69H15.6994V13.993C15.6994 14.543 15.7214 15.137 15.7434 15.5H14.5334L14.4784 14.653H14.4564C14.1374 15.247 13.4884 15.621 12.7074 15.621C11.4314 15.621 10.4194 14.532 10.4194 12.882C10.4084 11.089 11.5304 10.022 12.8174 10.022C13.5544 10.022 14.0824 10.33 14.3244 10.726H14.3464ZM14.3024 13.575C14.3354 13.454 14.3464 13.322 14.3464 13.179V12.376C14.3464 12.266 14.3354 12.134 14.3134 12.024C14.1924 11.496 13.7634 11.067 13.1474 11.067C12.2784 11.067 11.7944 11.837 11.7944 12.838C11.7944 13.817 12.2784 14.532 13.1364 14.532C13.6864 14.532 14.1704 14.158 14.3024 13.575Z" fill="black"/>
<path d="M8.35498 15.5V8.086H9.70798V15.5H8.35498Z" fill="black"/>
<path fill-rule="evenodd" clip-rule="evenodd" d="M17.2583 2.83303C13.7917 2.44559 10.2083 2.44559 6.74177 2.83303C4.72971 3.05791 3.10538 4.64292 2.86883 6.66545C2.45429 10.2097 2.45429 13.7903 2.86883 17.3346C3.10538 19.3571 4.72971 20.9421 6.74177 21.167C10.2083 21.5544 13.7917 21.5544 17.2583 21.167C19.2703 20.9421 20.8946 19.3571 21.1312 17.3346C21.5457 13.7903 21.5457 10.2097 21.1312 6.66545C20.8946 4.64292 19.2703 3.05791 17.2583 2.83303ZM6.90838 4.32375C10.2642 3.94868 13.7358 3.94868 17.0916 4.32375C18.4218 4.47241 19.4872 5.52202 19.6414 6.8397C20.0424 10.2682 20.0424 13.7318 19.6414 17.1603C19.4872 18.478 18.4218 19.5276 17.0916 19.6763C13.7358 20.0513 10.2642 20.0513 6.90838 19.6763C5.57827 19.5276 4.51278 18.478 4.35867 17.1603C3.95767 13.7318 3.95767 10.2682 4.35867 6.8397C4.51278 5.52202 5.57827 4.47241 6.90838 4.32375Z" fill="black"/>
</svg>
