<svg width="24" height="24" viewBox="0 0 24 24" fill="none" xmlns="http://www.w3.org/2000/svg">
<path fill-rule="evenodd" clip-rule="evenodd" d="M11.2483 15.5L10.5773 13.399H8.22329L7.58529 15.5H6.18829L8.56429 8.086H10.2913L12.7003 15.5H11.2483ZM9.01529 10.55L8.44329 12.376H10.3463L9.76329 10.55C9.64755 10.185 9.54623 9.78393 9.45348 9.41683C9.43164 9.33037 9.41026 9.24578 9.38929 9.164H9.36729C9.3296 9.31099 9.29191 9.46831 9.25334 9.62933C9.17933 9.93825 9.10207 10.2608 9.01529 10.55Z" fill="black"/>
<path fill-rule="evenodd" clip-rule="evenodd" d="M17.6838 12.629C17.6838 12.882 17.6618 13.08 17.6398 13.201H14.0538C14.0868 14.169 14.8458 14.587 15.7038 14.587C16.3308 14.587 16.7818 14.499 17.1888 14.345L17.3868 15.28C16.9248 15.467 16.2868 15.621 15.5168 15.621C13.7788 15.621 12.7558 14.543 12.7558 12.904C12.7558 11.419 13.6578 10.022 15.3738 10.022C17.1228 10.022 17.6838 11.452 17.6838 12.629ZM15.2968 10.946C14.4608 10.946 14.1088 11.705 14.0538 12.255H16.4078C16.4188 11.76 16.1988 10.946 15.2968 10.946Z" fill="black"/>
<path fill-rule="evenodd" clip-rule="evenodd" d="M17.2583 2.83303C13.7917 2.44559 10.2083 2.44559 6.74177 2.83303C4.72971 3.05791 3.10538 4.64292 2.86883 6.66545C2.45429 10.2097 2.45429 13.7903 2.86883 17.3346C3.10538 19.3571 4.72971 20.9421 6.74177 21.167C10.2083 21.5544 13.7917 21.5544 17.2583 21.167C19.2703 20.9421 20.8946 19.3571 21.1312 17.3346C21.5457 13.7903 21.5457 10.2097 21.1312 6.66545C20.8946 4.64292 19.2703 3.05791 17.2583 2.83303ZM6.90838 4.32375C10.2642 3.94868 13.7358 3.94868 17.0916 4.32375C18.4218 4.47241 19.4872 5.52202 19.6414 6.8397C20.0424 10.2682 20.0424 13.7318 19.6414 17.1603C19.4872 18.478 18.4218 19.5276 17.0916 19.6763C13.7358 20.0513 10.2642 20.0513 6.90838 19.6763C5.57827 19.5276 4.51278 18.478 4.35867 17.1603C3.95767 13.7318 3.95767 10.2682 4.35867 6.8397C4.51278 5.52202 5.57827 4.47241 6.90838 4.32375Z" fill="black"/>
</svg>
