<svg width="24" height="24" viewBox="0 0 24 24" fill="none" xmlns="http://www.w3.org/2000/svg">
<path d="M12.7281 15.5H8.32812V8.086H9.68113V14.367H12.7281V15.5Z" fill="black"/>
<path d="M14.6109 15.5H13.2579V11.87C13.2579 11.144 13.2469 10.627 13.2139 10.143H14.3909L14.4349 11.166H14.4789C14.7429 10.407 15.3699 10.022 15.9419 10.022C16.0739 10.022 16.1509 10.033 16.2609 10.055V11.331C16.1509 11.309 16.0299 11.287 15.8649 11.287C15.2159 11.287 14.7759 11.705 14.6549 12.31C14.6329 12.431 14.6109 12.574 14.6109 12.728V15.5Z" fill="black"/>
<path fill-rule="evenodd" clip-rule="evenodd" d="M17.2583 2.83303C13.7917 2.44559 10.2083 2.44559 6.74177 2.83303C4.72971 3.05791 3.10538 4.64292 2.86883 6.66545C2.45429 10.2097 2.45429 13.7903 2.86883 17.3346C3.10538 19.3571 4.72971 20.9421 6.74177 21.167C10.2083 21.5544 13.7917 21.5544 17.2583 21.167C19.2703 20.9421 20.8946 19.3571 21.1312 17.3346C21.5457 13.7903 21.5457 10.2097 21.1312 6.66545C20.8946 4.64292 19.2703 3.05791 17.2583 2.83303ZM6.90838 4.32375C10.2642 3.94868 13.7358 3.94868 17.0916 4.32375C18.4218 4.47241 19.4872 5.52202 19.6414 6.8397C20.0424 10.2682 20.0424 13.7318 19.6414 17.1603C19.4872 18.478 18.4218 19.5276 17.0916 19.6763C13.7358 20.0513 10.2642 20.0513 6.90838 19.6763C5.57827 19.5276 4.51278 18.478 4.35867 17.1603C3.95767 13.7318 3.95767 10.2682 4.35867 6.8397C4.51278 5.52202 5.57827 4.47241 6.90838 4.32375Z" fill="black"/>
</svg>
