<svg width="24" height="24" viewBox="0 0 24 24" fill="none" xmlns="http://www.w3.org/2000/svg">
<path fill-rule="evenodd" clip-rule="evenodd" d="M9.09542 15.5H7.75342V8.18501C8.23742 8.09701 8.90842 8.03101 9.82142 8.03101C10.8114 8.03101 11.5374 8.24001 12.0104 8.63601C12.4504 8.99901 12.7364 9.58201 12.7364 10.275C12.7364 10.979 12.5164 11.562 12.0984 11.958C11.5594 12.497 10.7124 12.75 9.75542 12.75C9.50242 12.75 9.27142 12.739 9.09542 12.706V15.5ZM9.87642 9.06501C9.50242 9.06501 9.23842 9.09801 9.09542 9.13101V11.639C9.26042 11.683 9.48042 11.694 9.75542 11.694C10.7674 11.694 11.3834 11.199 11.3834 10.33C11.3834 9.50501 10.8114 9.06501 9.87642 9.06501Z" fill="black"/>
<path d="M14.4646 15.621C13.8156 15.621 13.2326 15.456 12.8366 15.236L13.1006 14.257C13.4086 14.444 13.9916 14.642 14.4756 14.642C15.0696 14.642 15.3336 14.4 15.3336 14.048C15.3336 13.685 15.1136 13.498 14.4536 13.267C13.4086 12.904 12.9686 12.332 12.9796 11.705C12.9796 10.759 13.7606 10.022 15.0036 10.022C15.5976 10.022 16.1146 10.176 16.4226 10.341L16.1586 11.298C15.9276 11.166 15.4986 10.99 15.0256 10.99C14.5416 10.99 14.2776 11.221 14.2776 11.551C14.2776 11.892 14.5306 12.057 15.2126 12.299C16.1806 12.651 16.6316 13.146 16.6426 13.938C16.6426 14.906 15.8836 15.621 14.4646 15.621Z" fill="black"/>
<path fill-rule="evenodd" clip-rule="evenodd" d="M17.2583 2.83303C13.7917 2.44559 10.2083 2.44559 6.74177 2.83303C4.72971 3.05791 3.10538 4.64292 2.86883 6.66545C2.45429 10.2097 2.45429 13.7903 2.86883 17.3346C3.10538 19.3571 4.72971 20.9421 6.74177 21.167C10.2083 21.5544 13.7917 21.5544 17.2583 21.167C19.2703 20.9421 20.8946 19.3571 21.1312 17.3346C21.5457 13.7903 21.5457 10.2097 21.1312 6.66545C20.8946 4.64292 19.2703 3.05791 17.2583 2.83303ZM6.90838 4.32375C10.2642 3.94868 13.7358 3.94868 17.0916 4.32375C18.4218 4.47241 19.4872 5.52202 19.6414 6.8397C20.0424 10.2682 20.0424 13.7318 19.6414 17.1603C19.4872 18.478 18.4218 19.5276 17.0916 19.6763C13.7358 20.0513 10.2642 20.0513 6.90838 19.6763C5.57827 19.5276 4.51278 18.478 4.35867 17.1603C3.95767 13.7318 3.95767 10.2682 4.35867 6.8397C4.51278 5.52202 5.57827 4.47241 6.90838 4.32375Z" fill="black"/>
</svg>
