<svg width="24" height="24" viewBox="0 0 24 24" fill="none" xmlns="http://www.w3.org/2000/svg">
<path d="M11.1154 4.66668C11.1154 5.134 10.7366 5.51283 10.2692 5.51283C9.80193 5.51283 9.4231 5.134 9.4231 4.66668C9.4231 4.19936 9.80193 3.82053 10.2692 3.82053C10.7366 3.82053 11.1154 4.19936 11.1154 4.66668Z" fill="black"/>
<path d="M13.6539 5.51283C14.1212 5.51283 14.5 5.134 14.5 4.66668C14.5 4.19936 14.1212 3.82053 13.6539 3.82053C13.1866 3.82053 12.8077 4.19936 12.8077 4.66668C12.8077 5.134 13.1866 5.51283 13.6539 5.51283Z" fill="black"/>
<path fill-rule="evenodd" clip-rule="evenodd" d="M6.35431 0.46967C6.64721 0.176777 7.12208 0.176777 7.41497 0.46967L8.64273 1.69742C9.5836 1.13641 10.6833 0.814117 11.8583 0.814117H12.0647C13.2397 0.814117 14.3395 1.13642 15.2803 1.69744L16.5081 0.46967C16.801 0.176777 17.2759 0.176777 17.5688 0.46967C17.8617 0.762563 17.8617 1.23744 17.5688 1.53033L16.477 2.62213C17.5154 3.645 18.1999 5.02619 18.33 6.56528C18.5446 6.49383 18.7742 6.45514 19.0128 6.45514C20.2059 6.45514 21.1731 7.42232 21.1731 8.61539V13.6923C21.1731 14.8854 20.2059 15.8526 19.0128 15.8526C18.7825 15.8526 18.5607 15.8165 18.3525 15.7498V17.6154C18.3525 18.5277 17.9083 19.3362 17.2243 19.8365V21.3077C17.2243 22.6565 16.1309 23.75 14.782 23.75C13.4332 23.75 12.3397 22.6565 12.3397 21.3077V20.3654H11.5833V21.3077C11.5833 22.6565 10.4899 23.75 9.14104 23.75C7.79219 23.75 6.69873 22.6565 6.69873 21.3077V19.8365C6.01475 19.3363 5.5705 18.5277 5.5705 17.6154V15.7498C5.36238 15.8165 5.14053 15.8526 4.91026 15.8526C3.71718 15.8526 2.75 14.8854 2.75 13.6923V8.6154C2.75 7.42232 3.71718 6.45514 4.91026 6.45514C5.14888 6.45514 5.37846 6.49383 5.59308 6.56528C5.72317 5.02617 6.40765 3.64497 7.44609 2.62211L6.35431 1.53033C6.06142 1.23744 6.06142 0.762563 6.35431 0.46967ZM7.3191 7.95514C7.18167 7.95589 7.0705 8.06753 7.0705 8.20514V8.60669L7.07051 8.61539V13.6923L7.0705 13.701V17.6154C7.0705 18.3043 7.62776 18.863 8.31608 18.8654H15.607C16.2953 18.863 16.8525 18.3043 16.8525 17.6154V13.6981L16.8525 13.6923V8.6154L16.8525 8.60959V8.20514C16.8525 8.06753 16.7414 7.95589 16.6039 7.95514H7.3191ZM16.6062 6.45514H16.8092C16.4934 4.1168 14.4896 2.31412 12.0647 2.31412H11.8583C9.43344 2.31412 7.4296 4.1168 7.11381 6.45514H7.3168L7.3205 6.45514H16.6025L16.6062 6.45514ZM13.8397 21.3077V20.3654L15.6025 20.3654L15.6091 20.3654H15.7243V21.3077C15.7243 21.8281 15.3025 22.25 14.782 22.25C14.2616 22.25 13.8397 21.8281 13.8397 21.3077ZM8.31395 20.3654L8.3205 20.3654L10.0833 20.3654V21.3077C10.0833 21.8281 9.66146 22.25 9.14104 22.25C8.62062 22.25 8.19873 21.8281 8.19873 21.3077V20.3654H8.31395ZM19.0128 14.3526C18.6492 14.3526 18.3543 14.0587 18.3525 13.6955V8.61219C18.3543 8.24901 18.6492 7.95514 19.0128 7.95514C19.3774 7.95514 19.6731 8.25075 19.6731 8.61539V13.6923C19.6731 14.057 19.3774 14.3526 19.0128 14.3526ZM5.5705 8.61058C5.56791 8.24815 5.2733 7.95514 4.91026 7.95514C4.54561 7.95514 4.25 8.25075 4.25 8.6154V13.6923C4.25 14.057 4.54561 14.3526 4.91026 14.3526C5.2733 14.3526 5.56791 14.0596 5.5705 13.6971V8.61058Z" fill="black"/>
</svg>
