<svg width="24" height="24" viewBox="0 0 24 24" fill="none" xmlns="http://www.w3.org/2000/svg">
<path d="M4.76226 8.38953C4.6518 8.38953 4.56226 8.47907 4.56226 8.58953V10.9653C4.56226 11.0758 4.6518 11.1653 4.76226 11.1653H7.51599C8.28251 11.1653 8.90389 10.5439 8.90389 9.77743C8.90389 9.01091 8.28251 8.38953 7.51599 8.38953H4.76226Z" fill="black"/>
<path d="M4.76226 12.9447C4.6518 12.9447 4.56226 13.0342 4.56226 13.1447V16.0187C4.56226 16.1292 4.6518 16.2187 4.76226 16.2187H7.69393C8.59802 16.2187 9.33094 15.4858 9.33094 14.5817C9.33094 13.6776 8.59802 12.9447 7.69393 12.9447H4.76226Z" fill="black"/>
<path d="M16.1369 13.087C16.0882 13.087 16.0488 13.0476 16.0488 12.9989C16.0488 12.0256 16.8378 11.2365 17.8112 11.2365H18.2009C19.1743 11.2365 19.9634 12.0256 19.9634 12.9989C19.9634 13.0476 19.9239 13.087 19.8752 13.087H16.1369Z" fill="black"/>
<path fill-rule="evenodd" clip-rule="evenodd" d="M12.5704 11.9933C12.5065 11.9127 12.4398 11.8345 12.3707 11.759C12.8031 11.0757 13.0228 10.2796 13.0023 9.47161C13.0203 8.77696 12.8812 8.087 12.5952 7.45324C12.3164 6.82314 11.8706 6.28121 11.3062 5.88596L11.2949 5.87812C10.7624 5.51255 10.1588 5.26371 9.52366 5.14778C8.91381 5.0216 8.29211 4.96145 7.66934 4.96837H2C1.17157 4.96837 0.5 5.63994 0.5 6.46837V18.4251C0.5 19.2536 1.17157 19.9251 2 19.9251H7.80064C8.45751 19.9256 9.11176 19.8424 9.74759 19.6775C10.4012 19.5084 11.0205 19.227 11.5778 18.8459L11.5852 18.8409C12.1414 18.4556 12.6024 17.9498 12.9343 17.3619C13.1477 17.7708 13.4102 18.1535 13.7168 18.5011C13.7254 18.5108 13.7341 18.5205 13.743 18.53C14.2815 19.1094 14.943 19.5608 15.6787 19.8516L15.6975 19.8588C16.4532 20.1458 17.2561 20.2883 18.0643 20.2791C19.2269 20.3082 20.3738 20.0017 21.3666 19.3957C21.3957 19.3779 21.4242 19.3592 21.452 19.3395C22.4989 18.598 23.2537 17.5141 23.5843 16.2749C23.6497 16.0296 23.651 15.7753 23.5928 15.5349C23.7051 15.3424 23.776 15.1222 23.7928 14.8861C23.8493 14.0935 23.7814 13.2971 23.5915 12.5255L23.5901 12.5198C23.3965 11.7462 23.0578 11.0163 22.5921 10.3686L22.5765 10.3473C22.0834 9.68656 21.4469 9.14614 20.715 8.76627C20.7053 8.7612 20.6955 8.75624 20.6856 8.75139C19.8867 8.3588 19.0063 8.16008 18.1163 8.17109C17.3027 8.16738 16.4964 8.32499 15.7442 8.63491L15.7345 8.63892C15.0271 8.93617 14.3857 9.37095 13.8479 9.91814L13.8361 9.93031C13.2964 10.4921 12.8781 11.1589 12.6077 11.8893L12.6067 11.892C12.5943 11.9257 12.5822 11.9595 12.5704 11.9933ZM9.82757 11.924C10.4027 12.0626 10.918 12.3758 11.3046 12.8169C11.371 12.8926 11.4336 12.972 11.492 13.055C11.52 13.0976 11.547 13.1408 11.573 13.1844C11.8903 13.7187 12.0508 14.3328 12.0341 14.956C12.0504 15.4999 11.9294 16.0393 11.6822 16.5242C11.4589 16.9578 11.1322 17.3299 10.7311 17.6077C10.317 17.8909 9.85681 18.0999 9.37104 18.2255C9.14132 18.2851 8.90861 18.3314 8.67407 18.3644C8.38536 18.405 8.09386 18.4253 7.80172 18.4251H2V6.46837H7.67808C8.20201 6.46196 8.72507 6.51296 9.23789 6.62044C9.67122 6.69711 10.0831 6.86564 10.4458 7.11468C10.7879 7.35422 11.0576 7.68298 11.2257 8.06514C11.4257 8.50626 11.5202 8.98788 11.5015 9.47182C11.5207 9.94999 11.4066 10.423 11.1736 10.8387C11.148 10.8844 11.121 10.9293 11.0925 10.9735C10.7798 11.3942 10.3116 11.7226 9.82757 11.924ZM16.0018 14.9936C15.9985 14.9225 15.9985 14.851 16.0018 14.7794H22.2966C22.3057 14.6525 22.3108 14.5256 22.3119 14.3987C22.3133 14.2356 22.3082 14.0725 22.2966 13.91C22.2816 13.6987 22.2555 13.4882 22.2185 13.2794C22.1951 13.1468 22.1672 13.0149 22.135 12.8839C21.9875 12.2945 21.7294 11.7382 21.3743 11.2444C21.0169 10.7654 20.5552 10.3733 20.024 10.0976C19.433 9.80719 18.7811 9.66101 18.1223 9.67115C17.5026 9.66663 16.8883 9.78586 16.3156 10.0218C15.7912 10.2421 15.316 10.5643 14.9178 10.9695C14.5207 11.3828 14.2132 11.8732 14.0144 12.4101C13.8012 12.9897 13.6948 13.6029 13.7006 14.2202C13.6909 14.8463 13.7939 15.469 14.0049 16.0588C14.1842 16.5929 14.4687 17.0859 14.8417 17.5088C15.2277 17.9241 15.702 18.2479 16.23 18.4566C16.8187 18.6801 17.4448 18.7895 18.0747 18.7788C18.9585 18.8062 19.831 18.5756 20.585 18.1154C20.8788 17.9073 21.1408 17.6623 21.3656 17.3882C21.6376 17.0566 21.8551 16.6824 22.0087 16.2794C22.0573 16.1517 22.0995 16.0212 22.135 15.8882H20.0335C19.9799 16.0302 19.9047 16.162 19.8115 16.2794C19.7093 16.4082 19.5852 16.5197 19.444 16.6085C19.0783 16.85 18.6464 16.9725 18.2078 16.9591C17.9176 16.9893 17.6242 16.9594 17.346 16.8714C17.0679 16.7833 16.8109 16.639 16.5913 16.4474C16.5434 16.3932 16.4982 16.3372 16.4558 16.2794C16.1809 15.9047 16.0229 15.4573 16.0018 14.9936Z" fill="black"/>
<path d="M20.4466 6.39593C20.4443 6.17662 20.2659 6 20.0466 6H16.0217C15.8008 6 15.6217 6.17909 15.6217 6.4V7.47128C15.6217 7.6922 15.8008 7.87128 16.0217 7.87128H20.0575C20.28 7.87128 20.4597 7.68971 20.4575 7.46722L20.4466 6.39593Z" fill="black"/>
</svg>
