<svg width="24" height="24" viewBox="0 0 24 24" fill="none" xmlns="http://www.w3.org/2000/svg">
<path fill-rule="evenodd" clip-rule="evenodd" d="M9.96083 4.00376C11.1784 5.53217 12.2698 7.16581 13.2191 8.88887C14.9359 8.24754 16.5529 7.40165 18.0406 6.38083C16.5335 4.76136 14.385 3.75 12 3.75C11.2956 3.75 10.6125 3.83812 9.96083 4.00376ZM18.9603 7.56873C17.4038 8.64497 15.7133 9.54135 13.9191 10.2278C14.2046 10.8042 14.4745 11.3896 14.7284 11.9836C15.3901 11.886 16.0672 11.8354 16.7561 11.8354C17.9608 11.8354 19.1303 11.9902 20.2453 12.2813C20.2484 12.188 20.25 12.0942 20.25 12C20.25 10.3683 19.777 8.84858 18.9603 7.56873ZM20.0567 13.784C19.0072 13.4918 17.9005 13.3354 16.7561 13.3354C16.265 13.3354 15.7806 13.3642 15.3046 13.4203C15.9424 15.1202 16.4508 16.8834 16.8176 18.6981C18.4357 17.5321 19.6135 15.795 20.0567 13.784ZM15.445 19.4987C15.0722 17.4943 14.5192 15.5532 13.8035 13.6928C10.9486 14.3976 8.48705 16.1016 6.81091 18.4141C8.22864 19.5627 10.0334 20.25 12 20.25C13.2309 20.25 14.3973 19.9809 15.445 19.4987ZM5.72621 17.3577C7.55878 14.9121 10.1869 13.0952 13.2272 12.2916C12.9947 11.7614 12.7488 11.2384 12.4899 10.723C10.2431 11.4221 7.8543 11.7988 5.37805 11.7988C4.83229 11.7988 4.29071 11.7805 3.75388 11.7445C3.7513 11.8293 3.75 11.9145 3.75 12C3.75 14.0452 4.49345 15.9158 5.72621 17.3577ZM3.93518 10.2531C4.41215 10.2834 4.89325 10.2988 5.37805 10.2988C7.6001 10.2988 9.74622 9.97553 11.7722 9.37347C10.8119 7.66386 9.70448 6.04778 8.46714 4.54237C6.18532 5.62535 4.48019 7.72469 3.93518 10.2531ZM8.40626 2.93389C9.51932 2.49233 10.7323 2.25 12 2.25C15.1506 2.25 17.9523 3.74521 19.7335 6.06165C20.9979 7.70598 21.75 9.76622 21.75 12C21.75 12.4635 21.7176 12.9198 21.6549 13.3668C21.2164 16.49 19.3001 19.1359 16.6384 20.5779C15.2583 21.3257 13.6776 21.75 12 21.75C9.40587 21.75 7.04698 20.7359 5.30076 19.084C3.42304 17.3077 2.25 14.7902 2.25 12C2.25 11.61 2.27293 11.2251 2.31758 10.8466C2.74374 7.23368 5.14306 4.22841 8.40626 2.93389Z" fill="black"/>
</svg>
