<svg width="24" height="24" viewBox="0 0 24 24" fill="none" xmlns="http://www.w3.org/2000/svg">
<path fill-rule="evenodd" clip-rule="evenodd" d="M12.75 15.3725C13.0439 15.6078 13.3701 15.8009 13.7193 15.9455C14.2046 16.1465 14.7247 16.25 15.25 16.25C15.7753 16.25 16.2954 16.1465 16.7807 15.9455C17.266 15.7445 17.707 15.4499 18.0784 15.0784C18.4499 14.707 18.7445 14.266 18.9455 13.7807C19.1465 13.2954 19.25 12.7753 19.25 12.25C19.25 11.7247 19.1465 11.2046 18.9455 10.7193C18.7445 10.234 18.4499 9.79301 18.0784 9.42157C17.9243 9.26742 17.7581 9.1265 17.5818 9C17.7581 8.87351 17.9243 8.73258 18.0784 8.57843C18.4499 8.20699 18.7445 7.76604 18.9455 7.28073C19.1465 6.79543 19.25 6.27529 19.25 5.75C19.25 5.22471 19.1465 4.70457 18.9455 4.21927C18.7445 3.73396 18.4499 3.29301 18.0784 2.92157C17.707 2.55014 17.266 2.2555 16.7807 2.05448C16.2954 1.85346 15.7753 1.75 15.25 1.75H8.75C7.68913 1.75 6.67172 2.17143 5.92157 2.92157C5.17143 3.67172 4.75 4.68913 4.75 5.75C4.75 6.81087 5.17143 7.82828 5.92157 8.57843C6.07637 8.73322 6.24254 8.87402 6.41813 9C6.24254 9.12599 6.07637 9.26678 5.92157 9.42157C5.17143 10.1717 4.75 11.1891 4.75 12.25C4.75 13.3109 5.17143 14.3283 5.92157 15.0784C6.07637 15.2332 6.24254 15.374 6.41813 15.5C6.24254 15.626 6.07637 15.7668 5.92157 15.9216C5.17143 16.6717 4.75 17.6891 4.75 18.75C4.75 19.8109 5.17143 20.8283 5.92157 21.5784C6.67172 22.3286 7.68913 22.75 8.75 22.75C9.81087 22.75 10.8283 22.3286 11.5784 21.5784C12.3286 20.8283 12.75 19.8109 12.75 18.75V15.3725ZM8.75 3.25C8.08696 3.25 7.45107 3.51339 6.98223 3.98223C6.51339 4.45107 6.25 5.08696 6.25 5.75C6.25 6.41304 6.51339 7.04893 6.98223 7.51777C7.45107 7.98661 8.08696 8.25 8.75 8.25H11.25V3.25H8.75ZM11.25 16.25H8.75C8.08696 16.25 7.45107 16.5134 6.98223 16.9822C6.51339 17.4511 6.25 18.087 6.25 18.75C6.25 19.413 6.51339 20.0489 6.98223 20.5178C7.45107 20.9866 8.08696 21.25 8.75 21.25C9.41304 21.25 10.0489 20.9866 10.5178 20.5178C10.9866 20.0489 11.25 19.413 11.25 18.75V16.25ZM8.75 9.75C8.08696 9.75 7.45107 10.0134 6.98223 10.4822C6.51339 10.9511 6.25 11.587 6.25 12.25C6.25 12.913 6.51339 13.5489 6.98223 14.0178C7.45107 14.4866 8.08696 14.75 8.75 14.75H11.25V9.75H8.75ZM12.75 12.25C12.75 12.5783 12.8147 12.9034 12.9403 13.2067C13.0659 13.51 13.2501 13.7856 13.4822 14.0178C13.7144 14.2499 13.99 14.4341 14.2933 14.5597C14.5966 14.6853 14.9217 14.75 15.25 14.75C15.5783 14.75 15.9034 14.6853 16.2067 14.5597C16.51 14.4341 16.7856 14.2499 17.0178 14.0178C17.2499 13.7856 17.4341 13.51 17.5597 13.2067C17.6853 12.9034 17.75 12.5783 17.75 12.25C17.75 11.9217 17.6853 11.5966 17.5597 11.2933C17.4341 10.99 17.2499 10.7144 17.0178 10.4822C16.7856 10.2501 16.51 10.0659 16.2067 9.9403C15.9034 9.81466 15.5783 9.75 15.25 9.75C14.9217 9.75 14.5966 9.81466 14.2933 9.9403C13.99 10.0659 13.7144 10.2501 13.4822 10.4822C13.2501 10.7144 13.0659 10.99 12.9403 11.2933C12.8147 11.5966 12.75 11.9217 12.75 12.25ZM15.25 8.25C15.5783 8.25 15.9034 8.18534 16.2067 8.0597C16.51 7.93406 16.7856 7.74991 17.0178 7.51777C17.2499 7.28562 17.4341 7.01002 17.5597 6.70671C17.6853 6.40339 17.75 6.0783 17.75 5.75C17.75 5.4217 17.6853 5.09661 17.5597 4.79329C17.4341 4.48998 17.2499 4.21438 17.0178 3.98223C16.7856 3.75009 16.51 3.56594 16.2067 3.4403C15.9034 3.31466 15.5783 3.25 15.25 3.25H12.75V8.25H15.25Z" fill="black"/>
</svg>
