<svg width="24" height="24" viewBox="0 0 24 24" fill="none" xmlns="http://www.w3.org/2000/svg">
<path fill-rule="evenodd" clip-rule="evenodd" d="M12 2.25C6.61554 2.25 2.25 6.61554 2.25 12C2.25 17.3845 6.61554 21.75 12 21.75C17.3845 21.75 21.75 17.3845 21.75 12C21.75 11.348 21.6832 10.6728 21.5607 10.0543C21.4911 9.70305 21.183 9.45 20.8249 9.45H12C11.5858 9.45 11.25 9.78579 11.25 10.2V13.8C11.25 14.2142 11.5858 14.55 12 14.55H15.8828C15.6018 14.978 15.2524 15.3568 14.8502 15.6706C14.8443 15.6743 14.8386 15.678 14.8328 15.6819L14.8315 15.6828L14.8325 15.6843C14.0486 16.2899 13.0665 16.65 12 16.65C9.43206 16.65 7.35 14.5679 7.35 12C7.35 9.43206 9.43206 7.35 12 7.35C13.1837 7.35 14.2608 7.79565 15.084 8.52792C15.3807 8.79193 15.8319 8.77876 16.1128 8.49788L18.6584 5.95223C18.8023 5.80834 18.8816 5.61216 18.878 5.4087C18.8744 5.20524 18.7883 5.01197 18.6394 4.87324C16.9004 3.25246 14.5699 2.25 12 2.25ZM15.202 17.2492C14.2705 17.8203 13.1746 18.15 12 18.15C9.69196 18.15 7.68074 16.8784 6.62878 14.9975L4.95169 16.2897C6.40019 18.6644 9.01508 20.25 12 20.25C13.8212 20.25 15.5046 19.6598 16.8695 18.6602L15.202 17.2492ZM18.0054 17.6564C19.3971 16.1795 20.25 14.1893 20.25 12C20.25 11.6525 20.2275 11.2961 20.1853 10.95H12.75V13.05H17.0864C17.3299 13.05 17.5583 13.1683 17.6988 13.3671C17.8394 13.566 17.8746 13.8208 17.7933 14.0503C17.4929 14.8989 17.0119 15.6627 16.3961 16.2946L18.0054 17.6564ZM5.01958 7.60094C6.48099 5.287 9.06115 3.75 12 3.75C13.8918 3.75 15.6306 4.39163 17.0229 5.46644L15.5236 6.96571C14.5272 6.26519 13.3133 5.85 12 5.85C9.75612 5.85 7.79278 7.05193 6.71872 8.84704L5.01958 7.60094ZM4.33007 8.95541C3.95577 9.89743 3.75 10.9247 3.75 12C3.75 13.0258 3.93727 14.0079 4.27947 14.914L6.04748 13.5518C5.91859 13.0561 5.85 12.5361 5.85 12C5.85 11.3936 5.93777 10.8078 6.1013 10.2544L4.33007 8.95541Z" fill="black"/>
</svg>
