<svg width="24" height="24" viewBox="0 0 24 24" fill="none" xmlns="http://www.w3.org/2000/svg">
<path fill-rule="evenodd" clip-rule="evenodd" d="M7.99432 3.12438C8.12838 2.89268 8.37578 2.75 8.64348 2.75H15.3565C15.6242 2.75 15.8716 2.89268 16.0057 3.12438L22.6492 14.6061C22.7875 14.8451 22.7832 15.1408 22.6381 15.3758L19.2294 20.8941C19.0928 21.1153 18.8513 21.25 18.5913 21.25H5.4087C5.1487 21.25 4.90725 21.1153 4.77061 20.8941L1.36192 15.3758C1.21677 15.1408 1.21252 14.8451 1.35084 14.6061L7.99432 3.12438ZM8.64517 4.99461L2.87378 14.9691L5.39187 19.0456L7.99517 14.6046L7.99645 14.6024L11.115 9.24084L8.64517 4.99461ZM11.9826 10.7325L9.94735 14.2317H14.0179L11.9826 10.7325ZM15.7531 14.2317H20.6995L14.924 4.25H9.94735L15.7531 14.2317ZM20.6552 15.7317H9.0732L6.7177 19.75H18.173L20.6552 15.7317Z" fill="black"/>
</svg>
