<svg width="24" height="24" viewBox="0 0 24 24" fill="none" xmlns="http://www.w3.org/2000/svg">
<path fill-rule="evenodd" clip-rule="evenodd" d="M12 2.25C6.61522 2.25 2.25 6.61522 2.25 12C2.25 17.3848 6.61522 21.75 12 21.75C17.3848 21.75 21.75 17.3848 21.75 12C21.75 6.61522 17.3848 2.25 12 2.25ZM3.75 12C3.75 7.44365 7.44365 3.75 12 3.75C16.5563 3.75 20.25 7.44365 20.25 12C20.25 16.5563 16.5563 20.25 12 20.25C11.1427 20.25 10.316 20.1192 9.53865 19.8766C9.96125 19.213 10.2973 18.498 10.5387 17.7491L11.0553 15.7719C11.2687 16.0765 11.5548 16.3229 11.8877 16.4888C12.2205 16.6547 12.5895 16.7348 12.9612 16.7219C15.4965 16.7219 17.2778 14.4181 17.2778 11.5563C17.2778 8.80719 15.0334 6.75282 12.1537 6.75282C8.56746 6.75282 6.66152 9.16344 6.66152 11.7819C6.66152 13.005 7.30871 14.5191 8.34777 15.0059C8.50214 15.0772 8.60308 15.0059 8.62683 14.8931C8.65057 14.7804 8.79292 14.211 8.85828 13.9495C8.86853 13.9081 8.8686 13.8643 8.85825 13.8229C8.8479 13.7815 8.82756 13.7433 8.79902 13.7116C8.40647 13.1585 8.19867 12.4957 8.20527 11.8175C8.20321 11.3307 8.29996 10.8486 8.48964 10.4003C8.67932 9.95195 8.958 9.54679 9.30881 9.2093C9.65962 8.87181 10.0753 8.60902 10.5306 8.43682C10.9859 8.26463 11.4714 8.18662 11.9578 8.20751C12.4133 8.18086 12.8694 8.24946 13.2969 8.40892C13.7245 8.56838 14.1141 8.8152 14.4409 9.13365C14.7677 9.45209 15.0246 9.83516 15.1951 10.2584C15.3656 10.6817 15.446 11.1358 15.4312 11.5919C15.4312 13.8363 14.2912 15.3978 12.8187 15.3978C12.6285 15.4124 12.4375 15.381 12.262 15.3062C12.0865 15.2313 11.9317 15.1153 11.8105 14.9679C11.6893 14.8206 11.6055 14.6462 11.566 14.4595C11.5265 14.2729 11.5326 14.0794 11.5837 13.8956C11.6681 13.5454 11.7795 13.1847 11.888 12.8332C12.0849 12.1955 12.2725 11.5881 12.2725 11.1288C12.293 10.9796 12.2811 10.8277 12.2375 10.6835C12.1939 10.5394 12.1196 10.4064 12.0198 10.2936C11.92 10.1808 11.797 10.0909 11.6592 10.0301C11.5214 9.9693 11.3721 9.93899 11.2215 9.94126C10.3903 9.94126 9.71933 10.8081 9.71933 11.96C9.71315 12.3671 9.78992 12.7711 9.94496 13.1475L8.96527 17.3038C8.84525 18.0891 8.84499 18.8882 8.96449 19.6736C8.31392 19.4161 7.70391 19.0782 7.14671 18.6722C6.16962 17.9584 5.35317 17.0348 4.76292 15.9593C4.53071 15.5362 4.33712 15.0962 4.18299 14.6446C3.90223 13.8144 3.75 12.925 3.75 12Z" fill="black"/>
</svg>
