<svg width="24" height="24" viewBox="0 0 24 24" fill="none" xmlns="http://www.w3.org/2000/svg">
<path fill-rule="evenodd" clip-rule="evenodd" d="M12.01 22.5972C11.273 22.673 9.82655 22.748 8.51039 22.7501C7.82303 22.7511 7.14833 22.7324 6.6174 22.6797C6.35515 22.6536 6.10102 22.6168 5.88881 22.561C5.78356 22.5333 5.6633 22.4946 5.54867 22.4367C5.4489 22.3863 5.2642 22.2779 5.13904 22.0668C5.0186 21.8636 4.96011 21.6284 4.98708 21.3826C5.01282 21.148 5.11026 20.9568 5.21252 20.8146C5.40549 20.5463 5.68865 20.3517 5.9205 20.2175C6.02247 20.1584 6.12966 20.1026 6.23855 20.0503C5.77067 19.4778 5.42159 18.8544 5.18766 18.2319C5.06372 18.3862 4.93508 18.5355 4.80898 18.6636C4.70213 18.7722 4.57505 18.8885 4.43637 18.9801C4.3283 19.0515 4.06702 19.2088 3.73436 19.1682C3.3859 19.1255 3.19462 18.8857 3.12268 18.7781C3.03608 18.6486 2.98456 18.5082 2.95156 18.3883C2.88395 18.1428 2.85449 17.8358 2.86082 17.4797C2.87363 16.7595 3.03546 15.7193 3.47423 14.3069C3.81326 13.2152 4.19262 12.2755 4.70284 11.0116L4.70975 10.9945C4.8035 10.7623 4.9018 10.5188 5.00551 10.2604C4.96711 7.942 5.42674 5.73421 6.53499 4.07085C7.69064 2.33635 9.51467 1.2556 12.0014 1.25063C12.0042 1.25063 12.0071 1.25061 12.01 1.25061C12.0129 1.25061 12.0157 1.25061 12.0186 1.25061C14.5053 1.25558 16.3293 2.33635 17.485 4.07085C18.5932 5.73421 19.0529 7.942 19.0145 10.2604C19.1182 10.5188 19.2165 10.7623 19.3102 10.9945L19.3171 11.0116C19.8273 12.2755 20.2067 13.2152 20.5457 14.3069C20.9845 15.7193 21.1463 16.7595 21.1591 17.4797C21.1655 17.8358 21.136 18.1428 21.0684 18.3883C21.0354 18.5082 20.9839 18.6486 20.8973 18.7781C20.8253 18.8857 20.6341 19.1255 20.2856 19.1682C19.9529 19.2088 19.6917 19.0515 19.5836 18.9801C19.4449 18.8885 19.3178 18.7722 19.211 18.6636C19.0849 18.5355 18.9562 18.3862 18.8323 18.2319C18.5984 18.8544 18.2493 19.4778 17.7814 20.0503C17.8903 20.1026 17.9975 20.1584 18.0995 20.2175C18.3313 20.3517 18.6145 20.5463 18.8074 20.8146C18.9097 20.9568 19.0071 21.148 19.0329 21.3826C19.0598 21.6284 19.0014 21.8636 18.8809 22.0668C18.7558 22.2779 18.5711 22.3863 18.4713 22.4367C18.3567 22.4946 18.2364 22.5333 18.1312 22.561C17.9189 22.6168 17.6648 22.6536 17.4026 22.6797C16.8716 22.7324 16.1969 22.7511 15.5096 22.7501C14.1934 22.748 12.7469 22.673 12.01 22.5972ZM6.50834 10.3779C6.45107 8.18709 6.87976 6.25865 7.78329 4.90256C8.66043 3.58609 10.0177 2.75301 12.01 2.75062C14.0023 2.75301 15.3595 3.58609 16.2367 4.90256C17.1402 6.25865 17.5689 8.18709 17.5116 10.3779C17.5089 10.48 17.5272 10.5816 17.5651 10.6764C17.6907 10.9898 17.8084 11.2813 17.9189 11.5552C18.4366 12.8375 18.7941 13.7243 19.1132 14.7518C19.3688 15.5745 19.514 16.2314 19.5895 16.7396C19.3159 16.3504 19.1007 16.0062 19.0805 15.9738C18.9241 15.7227 18.6347 15.5869 18.3416 15.6272L18.3404 15.6274C17.9697 15.6784 17.6933 15.9947 17.6926 16.3689C17.6906 17.3654 17.1617 18.7537 15.966 19.7667C15.8319 19.8804 15.7419 20.0375 15.7119 20.2107L15.7117 20.212C15.6719 20.4412 15.7407 20.6758 15.8979 20.8472L15.8988 20.8482C15.9888 20.9463 16.1031 21.0186 16.2302 21.0579C16.371 21.1014 16.5414 21.1585 16.7165 21.2254C16.3564 21.2431 15.9452 21.2507 15.5119 21.2501C14.1868 21.248 12.6526 21.1635 12.01 21.0929C11.3673 21.1635 9.83315 21.248 8.50805 21.2501C8.07472 21.2507 7.66352 21.2431 7.30348 21.2254C7.47854 21.1585 7.64897 21.1014 7.78974 21.0579C7.91683 21.0186 8.0312 20.9463 8.12111 20.8482L8.12208 20.8472C8.27927 20.6758 8.34805 20.4412 8.30829 20.212L8.30807 20.2107C8.27801 20.0375 8.18806 19.8804 8.05393 19.7667C6.85823 18.7537 6.32938 17.3654 6.32737 16.3689C6.32662 15.9947 6.05023 15.6784 5.67958 15.6274L5.67832 15.6272C5.38522 15.5869 5.09582 15.7227 4.93944 15.9738C4.91929 16.0062 4.70407 16.3504 4.43041 16.7396C4.50597 16.2314 4.65115 15.5745 4.90672 14.7518C5.22582 13.7243 5.58309 12.8382 6.10076 11.5558C6.2113 11.282 6.32929 10.9897 6.45482 10.6764C6.4928 10.5816 6.51101 10.48 6.50834 10.3779Z" fill="black"/>
</svg>
