<svg width="24" height="24" viewBox="0 0 24 24" fill="none" xmlns="http://www.w3.org/2000/svg">
<path fill-rule="evenodd" clip-rule="evenodd" d="M14.5 1.25C13.2558 1.25 12.25 2.25579 12.25 3.5V8.5C12.25 9.74421 13.2558 10.75 14.5 10.75C15.7442 10.75 16.75 9.74421 16.75 8.5V3.5C16.75 2.25579 15.7442 1.25 14.5 1.25ZM13.75 3.5C13.75 3.08421 14.0842 2.75 14.5 2.75C14.9158 2.75 15.25 3.08421 15.25 3.5V8.5C15.25 8.91579 14.9158 9.25 14.5 9.25C14.0842 9.25 13.75 8.91579 13.75 8.5V3.5Z" fill="black"/>
<path fill-rule="evenodd" clip-rule="evenodd" d="M20.5 6.25C19.2558 6.25 18.25 7.25579 18.25 8.5V10C18.25 10.4142 18.5858 10.75 19 10.75H20.5C21.7442 10.75 22.75 9.74421 22.75 8.5C22.75 7.25579 21.7442 6.25 20.5 6.25ZM19.75 8.5C19.75 8.08421 20.0842 7.75 20.5 7.75C20.9158 7.75 21.25 8.08421 21.25 8.5C21.25 8.91579 20.9158 9.25 20.5 9.25H19.75V8.5Z" fill="black"/>
<path fill-rule="evenodd" clip-rule="evenodd" d="M7.25 15.5C7.25 14.2558 8.25579 13.25 9.5 13.25C10.7442 13.25 11.75 14.2558 11.75 15.5V20.5C11.75 21.7442 10.7442 22.75 9.5 22.75C8.25579 22.75 7.25 21.7442 7.25 20.5V15.5ZM9.5 14.75C9.08421 14.75 8.75 15.0842 8.75 15.5V20.5C8.75 20.9158 9.08421 21.25 9.5 21.25C9.91579 21.25 10.25 20.9158 10.25 20.5V15.5C10.25 15.0842 9.91579 14.75 9.5 14.75Z" fill="black"/>
<path fill-rule="evenodd" clip-rule="evenodd" d="M3.5 13.25C2.25579 13.25 1.25 14.2558 1.25 15.5C1.25 16.7442 2.25579 17.75 3.5 17.75C4.74421 17.75 5.75 16.7442 5.75 15.5V14C5.75 13.5858 5.41421 13.25 5 13.25H3.5ZM2.75 15.5C2.75 15.0842 3.08421 14.75 3.5 14.75H4.25V15.5C4.25 15.9158 3.91579 16.25 3.5 16.25C3.08421 16.25 2.75 15.9158 2.75 15.5Z" fill="black"/>
<path fill-rule="evenodd" clip-rule="evenodd" d="M13.25 14.5C13.25 13.2558 14.2558 12.25 15.5 12.25H20.5C21.7442 12.25 22.75 13.2558 22.75 14.5C22.75 15.7442 21.7442 16.75 20.5 16.75H15.5C14.2558 16.75 13.25 15.7442 13.25 14.5ZM15.5 13.75C15.0842 13.75 14.75 14.0842 14.75 14.5C14.75 14.9158 15.0842 15.25 15.5 15.25H20.5C20.9158 15.25 21.25 14.9158 21.25 14.5C21.25 14.0842 20.9158 13.75 20.5 13.75H15.5Z" fill="black"/>
<path fill-rule="evenodd" clip-rule="evenodd" d="M14 18.25C13.5858 18.25 13.25 18.5858 13.25 19V20.5C13.25 21.7442 14.2558 22.75 15.5 22.75C16.7442 22.75 17.75 21.7442 17.75 20.5C17.75 19.2558 16.7442 18.25 15.5 18.25H14ZM14.75 20.5V19.75H15.5C15.9158 19.75 16.25 20.0842 16.25 20.5C16.25 20.9158 15.9158 21.25 15.5 21.25C15.0842 21.25 14.75 20.9158 14.75 20.5Z" fill="black"/>
<path fill-rule="evenodd" clip-rule="evenodd" d="M1.25 9.5C1.25 8.25579 2.25579 7.25 3.5 7.25H8.5C9.74421 7.25 10.75 8.25579 10.75 9.5C10.75 10.7442 9.74421 11.75 8.5 11.75H3.5C2.25579 11.75 1.25 10.7442 1.25 9.5ZM3.5 8.75C3.08421 8.75 2.75 9.08421 2.75 9.5C2.75 9.91579 3.08421 10.25 3.5 10.25H8.5C8.91579 10.25 9.25 9.91579 9.25 9.5C9.25 9.08421 8.91579 8.75 8.5 8.75H3.5Z" fill="black"/>
<path fill-rule="evenodd" clip-rule="evenodd" d="M8.5 1.25C7.25579 1.25 6.25 2.25579 6.25 3.5C6.25 4.74421 7.25579 5.75 8.5 5.75H10C10.4142 5.75 10.75 5.41421 10.75 5V3.5C10.75 2.25579 9.74421 1.25 8.5 1.25ZM7.75 3.5C7.75 3.08421 8.08421 2.75 8.5 2.75C8.91579 2.75 9.25 3.08421 9.25 3.5V4.25H8.5C8.08421 4.25 7.75 3.91579 7.75 3.5Z" fill="black"/>
</svg>
