<svg width="24" height="24" viewBox="0 0 24 24" fill="none" xmlns="http://www.w3.org/2000/svg">
<path d="M10.873 16.4069C10.9219 16.2903 10.947 16.1652 10.9469 16.039V6.9585C10.9469 6.4295 10.5115 6 9.9728 6H6.97153C6.43534 6 6 6.43 6 6.9585V16.039C6.00027 16.2934 6.10263 16.5373 6.2847 16.7174C6.46677 16.8974 6.71372 16.9991 6.97153 17H9.9728C10.1008 17.0001 10.2275 16.9754 10.3457 16.9271C10.464 16.8789 10.5714 16.8081 10.6619 16.7188C10.7523 16.6296 10.8241 16.5236 10.873 16.4069Z" fill="black"/>
<path d="M17.7155 12.7175C17.8975 12.5374 17.9999 12.2934 18 12.039V6.9585C18 6.4295 17.5642 6 17.0285 6H14.0272C13.4915 6 13.0531 6.43 13.0531 6.9585V12.039C13.0534 12.2938 13.1561 12.5381 13.3387 12.7182C13.5213 12.8984 13.7689 12.9997 14.0272 13H17.0285C17.2863 12.9992 17.5334 12.8976 17.7155 12.7175Z" fill="black"/>
<path fill-rule="evenodd" clip-rule="evenodd" d="M17.2583 2.83303C13.7917 2.44559 10.2083 2.44559 6.74177 2.83303C4.72971 3.05791 3.10538 4.64292 2.86883 6.66545C2.45429 10.2097 2.45429 13.7903 2.86883 17.3346C3.10538 19.3571 4.72971 20.9421 6.74177 21.167C10.2083 21.5544 13.7917 21.5544 17.2583 21.167C19.2703 20.9421 20.8946 19.3571 21.1312 17.3346C21.5457 13.7903 21.5457 10.2097 21.1312 6.66545C20.8946 4.64292 19.2703 3.05791 17.2583 2.83303ZM6.90838 4.32375C10.2642 3.94868 13.7358 3.94868 17.0916 4.32375C18.4218 4.47241 19.4872 5.52202 19.6414 6.8397C20.0424 10.2682 20.0424 13.7318 19.6414 17.1603C19.4872 18.478 18.4218 19.5276 17.0916 19.6763C13.7358 20.0513 10.2642 20.0513 6.90838 19.6763C5.57827 19.5276 4.51278 18.478 4.35867 17.1603C3.95767 13.7318 3.95767 10.2682 4.35867 6.8397C4.51278 5.52202 5.57827 4.47241 6.90838 4.32375Z" fill="black"/>
</svg>
