<svg width="24" height="24" viewBox="0 0 24 24" fill="none" xmlns="http://www.w3.org/2000/svg">
<path fill-rule="evenodd" clip-rule="evenodd" d="M10.5071 2.25167C10.5238 2.25056 10.5404 2.25 10.5571 2.25H13.1029C13.5171 2.25 13.8529 2.58579 13.8529 3V6.71382H16.5902C17.0044 6.71382 17.3402 7.04961 17.3402 7.46382V10.0793C17.3402 10.4936 17.0044 10.8293 16.5902 10.8293H13.8529V15.5109C13.8529 15.5482 13.8501 15.5855 13.8445 15.6225C13.8269 15.7399 13.8364 15.8597 13.8724 15.9729C13.9083 16.086 13.9698 16.1894 14.052 16.275C14.1343 16.3607 14.235 16.4263 14.3466 16.4669C14.4582 16.5074 14.5776 16.5218 14.6956 16.509C14.7142 16.507 14.7329 16.5056 14.7516 16.505C15.1471 16.4917 15.537 16.4075 15.9027 16.2563C16.0955 16.1766 16.3127 16.1808 16.5023 16.2679C16.6919 16.355 16.8366 16.5171 16.9017 16.7153L17.7125 19.1826C17.7851 19.4036 17.7511 19.6457 17.6204 19.8382C17.4495 20.0898 17.1888 20.2794 16.9571 20.4165C16.7082 20.5638 16.4139 20.6961 16.1007 20.807C15.4792 21.0271 14.7188 21.1859 13.9808 21.1868C11.8845 21.219 10.3659 20.4612 9.37895 19.362C8.41035 18.2833 7.99368 16.9206 7.99368 15.7812V10.8293H7C6.58579 10.8293 6.25 10.4936 6.25 10.0793V7.82999C6.25 7.51813 6.44299 7.2388 6.73469 7.12848C7.56531 6.81435 8.2866 6.26537 8.81065 5.54846C9.33255 4.83449 9.63637 3.98469 9.68551 3.10183C9.69243 2.88909 9.77622 2.68563 9.92193 2.52952C10.0746 2.36593 10.2838 2.26659 10.5071 2.25167ZM11.1252 3.75C10.9799 4.71769 10.6025 5.63904 10.0216 6.43365C9.42988 7.24316 8.64874 7.8914 7.75 8.32373V9.32934H8.74368C9.15789 9.32934 9.49368 9.66512 9.49368 10.0793V15.7812C9.49368 16.586 9.79628 17.5816 10.4951 18.3599C11.1746 19.1167 12.2695 19.7141 13.9626 19.6869L13.9747 19.6867C14.5164 19.6867 15.1093 19.5669 15.5999 19.3931C15.809 19.319 15.9875 19.2394 16.1272 19.1631L15.7078 17.8868C15.4194 17.9525 15.1251 17.9916 14.8285 18.0032C14.4919 18.0354 14.1522 17.9922 13.8341 17.8766C13.5068 17.7576 13.2112 17.5651 12.97 17.3138C12.7287 17.0626 12.5484 16.7593 12.4429 16.4274C12.3436 16.1151 12.313 15.7852 12.3529 15.4604V10.0793C12.3529 9.66512 12.6887 9.32934 13.1029 9.32934H15.8402V8.21382H13.1029C12.6887 8.21382 12.3529 7.87803 12.3529 7.46382V3.75H11.1252Z" fill="black"/>
</svg>
