<svg width="24" height="24" viewBox="0 0 24 24" fill="none" xmlns="http://www.w3.org/2000/svg">
<path fill-rule="evenodd" clip-rule="evenodd" d="M15.0215 3.34348C15.5298 3.2564 16.0991 3.22732 16.6349 3.31796C17.5918 3.47984 18.4756 3.92457 19.1743 4.59133C19.631 4.60166 20.0798 4.51169 20.4769 4.38343C20.813 4.27488 21.097 4.1438 21.2959 4.04017C21.3948 3.98864 21.4712 3.94468 21.5209 3.91492C21.5457 3.90006 21.5638 3.88882 21.5745 3.88203L21.584 3.87596C21.8808 3.67824 22.276 3.71672 22.5289 3.96823C22.7818 4.21979 22.8226 4.61471 22.6263 4.91261C22.4186 5.22791 22.1302 5.78998 21.8072 6.41974C21.7564 6.51876 21.7047 6.61945 21.6524 6.72112C21.4671 7.08108 21.2771 7.4449 21.1 7.75703C20.9888 7.95301 20.8699 8.15199 20.75 8.32393V8.59771C20.7576 9.60334 20.6423 10.6037 20.4082 11.5769C20.2609 12.1893 20.0666 12.7909 19.8264 13.3763C19.204 14.8929 18.2856 16.2704 17.1249 17.4281C15.9641 18.5859 14.5843 19.5007 13.0661 20.1193C11.5492 20.7372 9.92443 21.047 8.28658 21.0306C5.91227 21.0327 3.5879 20.3486 1.59318 19.0607C1.29938 18.871 1.17568 18.5034 1.29502 18.1747C1.41435 17.8459 1.74505 17.6433 2.09212 17.6863C2.39248 17.7235 2.69489 17.7416 2.99754 17.7406C4.08499 17.7376 5.15173 17.4973 6.12559 17.0446C5.81604 16.9037 5.52051 16.73 5.24435 16.5252C4.43264 15.9233 3.82873 15.0833 3.51666 14.1222C3.43556 13.8725 3.491 13.5985 3.66282 13.3999C3.66589 13.3963 3.669 13.3928 3.67214 13.3893C3.48861 13.2257 3.31688 13.0475 3.15878 12.8559C2.44747 11.9937 2.05579 10.9122 2.05001 9.79448L2.04999 9.7906L2.05 9.7406C2.05 9.47474 2.19075 9.22874 2.41995 9.09402C2.47806 9.05987 2.53964 9.03416 2.60299 9.01692C2.26466 8.34184 2.08871 7.5964 2.09 6.84014C2.0896 5.98337 2.3134 5.1414 2.73916 4.3979C2.86207 4.18327 3.0829 4.04303 3.32943 4.02305C3.57595 4.00308 3.81648 4.10593 3.97234 4.29798C4.9349 5.48399 6.13619 6.45424 7.49817 7.14571C8.19831 7.50117 8.93286 7.77886 9.68866 7.9753C10.1124 8.08543 10.5428 8.17001 10.9776 8.22844C10.9584 7.50518 11.1012 6.78231 11.401 6.11438C11.8407 5.13456 12.5931 4.32838 13.5404 3.82229C13.9415 3.60796 14.474 3.43725 15.0215 3.34348ZM3.74327 10.891C3.87292 11.2559 4.06579 11.5982 4.31584 11.9013C4.80717 12.4968 5.48911 12.9044 6.24633 13.055C6.58362 13.1221 6.83205 13.41 6.84908 13.7535C6.8661 14.0969 6.64735 14.408 6.31836 14.5081C6.04586 14.591 5.76668 14.6488 5.48433 14.6809C5.67091 14.9214 5.89039 15.1369 6.1378 15.3203C6.69898 15.7364 7.37593 15.9673 8.07444 15.9807C8.39135 15.9868 8.67022 16.1915 8.77105 16.492C8.87187 16.7926 8.77289 17.124 8.52378 17.32C7.47461 18.1456 6.26141 18.7212 4.97586 19.0151C6.04135 19.3563 7.15879 19.532 8.28908 19.5306L8.29779 19.5306C9.73785 19.5455 11.1664 19.2735 12.5001 18.7301C13.8339 18.1868 15.0459 17.3831 16.0656 16.3661C17.0852 15.3491 17.8919 14.1391 18.4387 12.8068C18.6497 12.2925 18.8204 11.7641 18.9498 11.2262C19.1556 10.3704 19.2569 9.49073 19.25 8.60647L19.25 8.6006V8.0706C19.25 7.88875 19.3161 7.71309 19.4359 7.57632C19.5052 7.49727 19.6264 7.31472 19.7954 7.01682C19.956 6.73369 20.1338 6.39379 20.3187 6.0346C20.3299 6.01288 20.3411 5.99104 20.3524 5.96911C19.8728 6.07325 19.3292 6.12784 18.7594 6.06626C18.579 6.04676 18.4117 5.96247 18.2886 5.82903C17.7858 5.28369 17.1161 4.92069 16.3847 4.79694C16.0602 4.74204 15.6678 4.75461 15.2747 4.82194C14.8476 4.89511 14.4759 5.02312 14.2472 5.14529C13.5929 5.49486 13.0732 6.05171 12.7695 6.72849C12.4658 7.40528 12.3953 8.16373 12.5691 8.88488C12.6245 9.11479 12.5683 9.35737 12.4173 9.5394C12.2663 9.72143 12.0383 9.82159 11.8021 9.80964C10.9587 9.76698 10.1242 9.63833 9.31134 9.42707C8.45144 9.20358 7.61571 8.88763 6.81913 8.48321C5.64635 7.8878 4.5783 7.11071 3.65346 6.18302C3.61127 6.39863 3.58985 6.61866 3.59 6.84011L3.59 6.84202C3.58895 7.39274 3.7241 7.93517 3.98341 8.42102C4.24272 8.90687 4.61814 9.32106 5.07626 9.62672C5.35428 9.81222 5.47601 10.1593 5.37475 10.4778C5.2735 10.7963 4.9737 11.0094 4.6396 11.0003C4.33701 10.9921 4.03694 10.9553 3.74327 10.891Z" fill="black"/>
</svg>
