<svg width="24" height="24" viewBox="0 0 24 24" fill="none" xmlns="http://www.w3.org/2000/svg">
<path fill-rule="evenodd" clip-rule="evenodd" d="M21.0938 12.7559C21.0737 12.749 21.0521 12.7453 21.0296 12.7453H12.4765C12.4541 12.7453 12.4325 12.749 12.4123 12.7559C12.3334 12.7826 12.2765 12.8573 12.2765 12.9453V19.3675C12.2765 19.4655 12.3476 19.5491 12.4444 19.5649L20.9975 20.9576C21.1192 20.9774 21.2296 20.8834 21.2296 20.7602V12.9453C21.2296 12.8573 21.1728 12.7826 21.0938 12.7559ZM19.7296 19.2314V14.2453H13.7765V18.262L19.7296 19.2314ZM12.4123 11.2465C12.4325 11.2534 12.4541 11.2571 12.4765 11.2571H21.0296C21.0521 11.2571 21.0737 11.2534 21.0938 11.2465C21.1728 11.2198 21.2296 11.1451 21.2296 11.0571V3.23823C21.2296 3.11471 21.1188 3.02073 20.997 3.04092L12.4438 4.45823C12.3473 4.47422 12.2765 4.5577 12.2765 4.65554V11.0571C12.2765 11.1451 12.3334 11.2198 12.4123 11.2465ZM19.7296 4.77137L13.7765 5.75785V9.75706H19.7296V4.77137ZM10.2404 11.2463C10.3228 11.2216 10.3828 11.1452 10.3828 11.0547V4.96791C10.3828 4.8444 10.2719 4.75041 10.1501 4.7706L2.98214 5.95824C2.88562 5.97423 2.81483 6.05771 2.81483 6.15555V11.0547C2.81483 11.1452 2.87486 11.2216 2.95725 11.2463C2.97548 11.2518 2.99482 11.2547 3.01483 11.2547H10.1828C10.2028 11.2547 10.2221 11.2518 10.2404 11.2463ZM8.88279 6.50103L4.31483 7.25788V9.75472H8.88279V6.50103ZM10.2404 12.7538C10.2221 12.7483 10.2028 12.7453 10.1828 12.7453H3.01483C2.99481 12.7453 2.97548 12.7483 2.95725 12.7538C2.87486 12.7785 2.81483 12.8549 2.81483 12.9453V17.8909C2.81483 17.989 2.88591 18.0726 2.98268 18.0883L10.1506 19.256C10.2723 19.2758 10.3828 19.1819 10.3828 19.0586V12.9453C10.3828 12.8549 10.3228 12.7785 10.2404 12.7538ZM8.88279 17.5297V14.2453H4.31483V16.7856L8.88279 17.5297Z" fill="black"/>
</svg>
