<svg width="24" height="24" viewBox="0 0 24 24" fill="none" xmlns="http://www.w3.org/2000/svg">
<path d="M16.0319 13.575C16.0649 13.454 16.0759 13.322 16.0759 13.179V12.376C16.0759 12.266 16.0649 12.134 16.0429 12.024C15.9219 11.496 15.4929 11.067 14.8769 11.067C14.0079 11.067 13.5239 11.837 13.5239 12.838C13.5239 13.817 14.0079 14.532 14.8659 14.532C15.4159 14.532 15.8999 14.158 16.0319 13.575Z" fill="black"/>
<path fill-rule="evenodd" clip-rule="evenodd" d="M6.76954 3.08148C10.2177 2.69611 13.7824 2.69611 17.2305 3.08148C19.1289 3.29366 20.6601 4.78944 20.8829 6.69449C21.2952 10.2195 21.2952 13.7805 20.8829 17.3055C20.6601 19.2106 19.1289 20.7064 17.2305 20.9185C13.7824 21.3039 10.2177 21.3039 6.76954 20.9185C4.87114 20.7064 3.33995 19.2106 3.11713 17.3055C2.70485 13.7805 2.70485 10.2195 3.11713 6.69449C3.33995 4.78944 4.87114 3.29366 6.76954 3.08148ZM16.0759 10.726V7.69H17.4289V13.993C17.4289 14.543 17.4509 15.137 17.4729 15.5H16.2629L16.2079 14.653H16.1859C15.8669 15.247 15.2179 15.621 14.4369 15.621C13.1609 15.621 12.1489 14.532 12.1489 12.882C12.1379 11.089 13.2599 10.022 14.5469 10.022C15.2839 10.022 15.8119 10.33 16.0539 10.726H16.0759ZM9.90351 11.705L12.1585 15.5H10.5965L9.79351 14.026C9.47451 13.454 9.26551 13.058 9.05651 12.629H9.02351C8.84751 13.058 8.64951 13.454 8.35251 14.026L7.61551 15.5H6.06451L8.26451 11.749L6.15251 8.086H7.70351L8.50651 9.615C8.74851 10.077 8.92451 10.44 9.12251 10.858H9.14451C9.34251 10.396 9.49651 10.066 9.72751 9.615L10.5195 8.086H12.0705L9.90351 11.705Z" fill="black"/>
</svg>
