<svg width="24" height="24" viewBox="0 0 24 24" fill="none" xmlns="http://www.w3.org/2000/svg">
<path fill-rule="evenodd" clip-rule="evenodd" d="M6.76954 3.08148C10.2177 2.69611 13.7824 2.69611 17.2305 3.08148C19.1289 3.29366 20.6601 4.78944 20.8829 6.69449C21.2952 10.2195 21.2952 13.7805 20.8829 17.3055C20.6601 19.2106 19.1289 20.7064 17.2305 20.9185C13.7824 21.3039 10.2177 21.3039 6.76954 20.9185C4.87114 20.7064 3.33995 19.2106 3.11713 17.3055C2.70485 13.7805 2.70485 10.2195 3.11713 6.69449C3.33995 4.78944 4.87114 3.29366 6.76954 3.08148ZM12.7281 15.5H8.32812V8.086H9.68113V14.367H12.7281V15.5ZM14.6109 15.5H13.2579V11.87C13.2579 11.144 13.2469 10.627 13.2139 10.143H14.3909L14.4349 11.166H14.4789C14.7429 10.407 15.3699 10.022 15.9419 10.022C16.0739 10.022 16.1509 10.033 16.2609 10.055V11.331C16.1509 11.309 16.0299 11.287 15.8649 11.287C15.2159 11.287 14.7759 11.705 14.6549 12.31C14.6329 12.431 14.6109 12.574 14.6109 12.728V15.5Z" fill="black"/>
</svg>
