<svg width="24" height="24" viewBox="0 0 24 24" fill="none" xmlns="http://www.w3.org/2000/svg">
<path fill-rule="evenodd" clip-rule="evenodd" d="M6.76954 3.08148C10.2177 2.69611 13.7824 2.69611 17.2305 3.08148C19.1289 3.29366 20.6601 4.78944 20.8829 6.69449C21.2952 10.2195 21.2952 13.7805 20.8829 17.3055C20.6601 19.2106 19.1289 20.7064 17.2305 20.9185C13.7824 21.3039 10.2177 21.3039 6.76954 20.9185C4.87114 20.7064 3.33995 19.2106 3.11713 17.3055C2.70485 13.7805 2.70485 10.2195 3.11713 6.69449C3.33995 4.78944 4.87114 3.29366 6.76954 3.08148ZM8.37109 15.5V8.086H9.72409V15.5H8.37109ZM12.2049 15.5H10.8409V11.738C10.8409 11.122 10.8299 10.605 10.7969 10.143H11.9849L12.0509 10.946H12.0839C12.3149 10.528 12.8979 10.022 13.7889 10.022C14.7239 10.022 15.6919 10.627 15.6919 12.321V15.5H14.3389V12.475C14.3389 11.705 14.0529 11.122 13.3159 11.122C12.7769 11.122 12.4029 11.507 12.2599 11.914C12.2159 12.035 12.2049 12.2 12.2049 12.354V15.5Z" fill="black"/>
</svg>
