<svg width="24" height="24" viewBox="0 0 24 24" fill="none" xmlns="http://www.w3.org/2000/svg">
<path d="M10.1557 9.06501C9.78171 9.06501 9.51771 9.09801 9.37471 9.13101V11.639C9.53971 11.683 9.75972 11.694 10.0347 11.694C11.0467 11.694 11.6627 11.199 11.6627 10.33C11.6627 9.50501 11.0907 9.06501 10.1557 9.06501Z" fill="black"/>
<path fill-rule="evenodd" clip-rule="evenodd" d="M6.76954 3.08148C10.2177 2.69611 13.7824 2.69611 17.2305 3.08148C19.1289 3.29366 20.6601 4.78944 20.8829 6.69449C21.2952 10.2195 21.2952 13.7805 20.8829 17.3055C20.6601 19.2106 19.1289 20.7064 17.2305 20.9185C13.7824 21.3039 10.2177 21.3039 6.76954 20.9185C4.87114 20.7064 3.33995 19.2106 3.11713 17.3055C2.70485 13.7805 2.70485 10.2195 3.11713 6.69449C3.33995 4.78944 4.87114 3.29366 6.76954 3.08148ZM9.37471 15.5H8.03271V8.18501C8.51672 8.09701 9.18771 8.03101 10.1007 8.03101C11.0907 8.03101 11.8167 8.24001 12.2897 8.63601C12.7297 8.99901 13.0157 9.58201 13.0157 10.275C13.0157 10.979 12.7957 11.562 12.3777 11.958C11.8387 12.497 10.9917 12.75 10.0347 12.75C9.78171 12.75 9.55071 12.739 9.37471 12.706V15.5ZM14.9063 15.5H13.5533V11.87C13.5533 11.144 13.5423 10.627 13.5093 10.143H14.6863L14.7303 11.166H14.7743C15.0383 10.407 15.6653 10.022 16.2373 10.022C16.3693 10.022 16.4463 10.033 16.5563 10.055V11.331C16.4463 11.309 16.3253 11.287 16.1603 11.287C15.5113 11.287 15.0713 11.705 14.9503 12.31C14.9283 12.431 14.9063 12.574 14.9063 12.728V15.5Z" fill="black"/>
</svg>
