<svg width="24" height="24" viewBox="0 0 24 24" fill="none" xmlns="http://www.w3.org/2000/svg">
<path d="M10.401 10.55L9.82904 12.376H11.732L11.149 10.55C11.0333 10.185 10.932 9.78393 10.8392 9.41684C10.8174 9.33037 10.796 9.24579 10.775 9.164H10.753C10.7153 9.31099 10.6777 9.46831 10.6391 9.62933C10.5651 9.93825 10.4878 10.2608 10.401 10.55Z" fill="black"/>
<path fill-rule="evenodd" clip-rule="evenodd" d="M6.76954 3.08148C10.2177 2.69611 13.7824 2.69611 17.2305 3.08148C19.1289 3.29366 20.6601 4.78944 20.8829 6.69449C21.2952 10.2195 21.2952 13.7805 20.8829 17.3055C20.6601 19.2106 19.1289 20.7064 17.2305 20.9185C13.7824 21.3039 10.2177 21.3039 6.76954 20.9185C4.87114 20.7064 3.33995 19.2106 3.11713 17.3055C2.70485 13.7805 2.70485 10.2195 3.11713 6.69449C3.33995 4.78944 4.87114 3.29366 6.76954 3.08148ZM15.9325 10.143V15.5H14.5685V10.143H15.9325ZM14.4915 8.647C14.4915 8.229 14.7995 7.91 15.2505 7.91C15.7125 7.91 15.9985 8.229 16.0095 8.647C16.0095 9.054 15.7125 9.373 15.2395 9.373C14.7885 9.373 14.4915 9.054 14.4915 8.647ZM12.634 15.5L11.963 13.399H9.60904L8.97104 15.5H7.57404L9.95004 8.086H11.677L14.086 15.5H12.634Z" fill="black"/>
</svg>
