<svg width="24" height="24" viewBox="0 0 24 24" fill="none" xmlns="http://www.w3.org/2000/svg">
<path d="M5.47437 20.299L4.87209 21.2408C4.44899 21.9668 3.51194 22.2155 2.7791 21.7964C2.04638 21.3772 1.79517 20.4489 2.21827 19.7229L2.60045 19.1652C2.74679 18.9569 3.10791 18.5972 3.8303 18.6649C3.8303 18.6649 5.53025 18.8476 5.65328 19.7229C5.65328 19.7229 5.66996 20.0109 5.47437 20.299ZM22.4678 14.1712H18.8534C18.6072 14.1548 18.4998 14.0677 18.4574 14.017L18.4548 14.0124L15 8.41176C14.6197 7.83558 14.0158 9.30911 14.0158 9.30911C13.2947 10.9511 14.1182 12.8178 14.4051 13.3821L19.1279 21.2388C19.5509 21.9647 20.4879 22.2136 21.2209 21.7943C21.9536 21.3751 22.2048 20.4468 21.7816 19.7208L20.4379 17.415C20.4118 17.3591 20.3665 17.2075 20.6421 17.2068H22.4678C23.314 17.2068 24 16.5272 24 15.6889C24 14.8506 23.314 14.1712 22.4678 14.1712ZM13.7639 16.2347C13.7639 16.2347 13.9568 17.2069 13.2103 17.2069L1.53217 17.2068C0.685968 17.2068 0 16.5272 0 15.6889C0 14.8506 0.685968 14.1711 1.53217 14.1711H4.96731C5.52191 14.1393 5.65328 13.8221 5.65328 13.8221L5.65645 13.8237L10.1404 6.12959L10.1391 6.12933C10.2208 5.98069 10.1527 5.84019 10.1409 5.81802L8.66001 3.27698C8.23691 2.55111 8.48799 1.62267 9.22084 1.20365C9.95369 0.784493 10.8907 1.0331 11.3138 1.75911L12.0006 2.93759L12.6862 1.76121C13.1093 1.03533 14.0463 0.786461 14.7792 1.20575C15.512 1.6249 15.7631 2.55307 15.34 3.27908L9.10033 13.9856C9.07305 14.0508 9.06471 14.1531 9.26772 14.1711L11.3138 14.1712C11.3138 14.1712 13.4703 14.2405 13.7639 16.2347Z" fill="black"/>
</svg>
