<svg width="24" height="24" viewBox="0 0 24 24" fill="none" xmlns="http://www.w3.org/2000/svg">
<path d="M12 3.5C11.5075 3.5 11.0199 3.597 10.5649 3.78545C10.11 3.97391 9.69657 4.25013 9.34835 4.59835C9.00013 4.94657 8.72391 5.35997 8.53545 5.81494C8.347 6.26991 8.25 6.75754 8.25 7.25C8.25 7.74246 8.347 8.23009 8.53545 8.68506C8.72391 9.14003 9.00013 9.55343 9.34835 9.90165C9.69657 10.2499 10.11 10.5261 10.5649 10.7145C11.0199 10.903 11.5075 11 12 11C12.4925 11 12.9801 10.903 13.4351 10.7145C13.89 10.5261 14.3034 10.2499 14.6517 9.90165C14.9999 9.55343 15.2761 9.14003 15.4645 8.68506C15.653 8.23009 15.75 7.74246 15.75 7.25C15.75 6.75754 15.653 6.26991 15.4645 5.81494C15.2761 5.35997 14.9999 4.94657 14.6517 4.59835C14.3034 4.25013 13.89 3.97391 13.4351 3.78545C12.9801 3.597 12.4925 3.5 12 3.5Z" fill="black"/>
<path d="M7 12.5C6.50754 12.5 6.01991 12.597 5.56494 12.7855C5.10997 12.9739 4.69657 13.2501 4.34835 13.5983C4.00013 13.9466 3.72391 14.36 3.53545 14.8149C3.347 15.2699 3.25 15.7575 3.25 16.25C3.25 16.7425 3.347 17.2301 3.53545 17.6851C3.72391 18.14 4.00013 18.5534 4.34835 18.9016C4.69657 19.2499 5.10997 19.5261 5.56494 19.7145C6.01991 19.903 6.50754 20 7 20C7.49246 20 7.98009 19.903 8.43506 19.7145C8.89003 19.5261 9.30343 19.2499 9.65165 18.9016C9.99987 18.5534 10.2761 18.14 10.4645 17.6851C10.653 17.2301 10.75 16.7425 10.75 16.25C10.75 15.7575 10.653 15.2699 10.4645 14.8149C10.2761 14.36 9.99987 13.9466 9.65165 13.5983C9.30343 13.2501 8.89003 12.9739 8.43506 12.7855C7.98009 12.597 7.49246 12.5 7 12.5Z" fill="black"/>
<path d="M17 12.5C16.5075 12.5 16.0199 12.597 15.5649 12.7855C15.11 12.9739 14.6966 13.2501 14.3483 13.5983C14.0001 13.9466 13.7239 14.36 13.5355 14.8149C13.347 15.2699 13.25 15.7575 13.25 16.25C13.25 16.7425 13.347 17.2301 13.5355 17.6851C13.7239 18.14 14.0001 18.5534 14.3483 18.9016C14.6966 19.2499 15.11 19.5261 15.5649 19.7145C16.0199 19.903 16.5075 20 17 20C17.4925 20 17.9801 19.903 18.4351 19.7145C18.89 19.5261 19.3034 19.2499 19.6517 18.9016C19.9999 18.5534 20.2761 18.14 20.4645 17.6851C20.653 17.2301 20.75 16.7425 20.75 16.25C20.75 15.7575 20.653 15.2699 20.4645 14.8149C20.2761 14.36 19.9999 13.9466 19.6517 13.5983C19.3034 13.2501 18.89 12.9739 18.4351 12.7855C17.9801 12.597 17.4925 12.5 17 12.5Z" fill="black"/>
</svg>
