<svg width="24" height="24" viewBox="0 0 24 24" fill="none" xmlns="http://www.w3.org/2000/svg">
<path fill-rule="evenodd" clip-rule="evenodd" d="M10.1869 11.3618C10.7209 11.1269 11.1849 10.744 11.5298 10.2536C11.8469 9.73273 12.0044 9.12135 11.981 8.5026C12.0015 7.93833 11.8974 7.37677 11.6767 6.86243C11.4913 6.41684 11.1938 6.03351 10.8164 5.75421C10.4163 5.46383 9.962 5.26733 9.484 5.17794C8.91832 5.05262 8.34135 4.99316 7.7634 5.00063H1.8C1.63431 5.00063 1.5 5.13494 1.5 5.30063V18.642C1.5 18.8077 1.63431 18.942 1.8 18.942H7.89979C8.48384 18.9425 9.06556 18.8643 9.63088 18.7093C10.1667 18.5629 10.6744 18.3191 11.1312 17.989C11.5736 17.665 11.9339 17.2312 12.1803 16.7256C12.453 16.1602 12.5865 15.5313 12.5685 14.897C12.5884 14.111 12.3796 13.3374 11.9705 12.6806C11.5305 12.02 10.8778 11.5512 10.1345 11.3618H10.1869ZM4.54998 7.25C4.43952 7.25 4.34998 7.33954 4.34998 7.45V10.55C4.34998 10.6605 4.43952 10.75 4.54998 10.75H7.34998C8.31647 10.75 9.09998 9.9665 9.09998 9C9.09998 8.0335 8.31647 7.25 7.34998 7.25H4.54998ZM4.34998 12.7C4.34998 12.5895 4.43952 12.5 4.54998 12.5H7.47498C8.64858 12.5 9.59998 13.4514 9.59998 14.625C9.59998 15.7986 8.64858 16.75 7.47498 16.75H4.54998C4.43952 16.75 4.34998 16.6605 4.34998 16.55V12.7Z" fill="black"/>
<path d="M15.4389 5.70989H20.1621C20.3262 5.70989 20.4598 5.84176 20.462 6.00586L20.475 6.96845C20.4772 7.13569 20.3423 7.27247 20.175 7.27247H15.4389C15.2732 7.27247 15.1389 7.13816 15.1389 6.97247V6.00989C15.1389 5.8442 15.2732 5.70989 15.4389 5.70989Z" fill="black"/>
<path fill-rule="evenodd" clip-rule="evenodd" d="M17.9716 16.8697C18.4554 16.8853 18.932 16.742 19.3355 16.4596C19.5953 16.2866 19.8023 16.0395 19.9333 15.7482C19.968 15.671 20.0424 15.6174 20.127 15.6174H22.048C22.1782 15.6174 22.2738 15.74 22.2354 15.8645C21.9426 16.8135 21.3683 17.6408 20.5945 18.2217C19.7625 18.7599 18.7998 19.0295 17.8247 18.9974C17.1297 19.0099 16.4389 18.882 15.7894 18.6206C15.2069 18.3767 14.6835 17.998 14.2576 17.5124C13.846 17.0178 13.5321 16.4414 13.3344 15.8168C13.1016 15.1272 12.9878 14.399 12.9986 13.6669C12.9922 12.945 13.1095 12.2279 13.3449 11.5502C13.5641 10.9224 13.9034 10.349 14.3415 9.86571C14.7809 9.39187 15.3052 9.01514 15.8838 8.75749C16.5157 8.48158 17.1935 8.34216 17.8772 8.34745C18.6041 8.33558 19.3234 8.50652 19.9755 8.84615C20.5616 9.16855 21.0709 9.627 21.4653 10.1871C21.857 10.7645 22.1418 11.415 22.3046 12.1043C22.4728 12.8288 22.533 13.5766 22.4829 14.3207H15.5376C15.5069 15.0354 15.7401 15.7347 16.188 16.2712C16.4303 16.4952 16.7138 16.664 17.0207 16.767C17.3276 16.87 17.6513 16.9049 17.9716 16.8697ZM15.6 12.3988C15.6 12.4547 15.6453 12.5 15.7012 12.5H19.7488C19.8047 12.5 19.85 12.4547 19.85 12.3988C19.85 11.2811 18.9439 10.375 17.8262 10.375H17.6238C16.5061 10.375 15.6 11.2811 15.6 12.3988Z" fill="black"/>
</svg>
