<svg width="24" height="24" viewBox="0 0 24 24" fill="none" xmlns="http://www.w3.org/2000/svg">
<path d="M4.13897 7.19662C4.06262 7.06866 3.87854 7.0664 3.80307 7.19488C2.9749 8.60459 2.5 10.2468 2.5 12C2.5 16.4621 5.57637 20.2058 9.72384 21.2256C9.80817 21.2463 9.896 21.2088 9.94043 21.1341L12.4059 16.9938L12.6037 16.6509C12.6893 16.5026 12.56 16.3177 12.3895 16.3328C12.2612 16.3442 12.1313 16.35 12 16.35C10.3238 16.35 8.86905 15.4019 8.14269 14.0128L6.17377 10.6068L4.13897 7.19662Z" fill="black"/>
<path d="M9.56568 13.4828C9.55649 13.4632 9.54637 13.4438 9.53531 13.4246L9.46198 13.2978C9.26254 12.9085 9.15002 12.4674 9.15002 12C9.15002 10.426 10.426 9.14999 12 9.14999C13.574 9.14999 14.85 10.426 14.85 12C14.85 12.4958 14.7234 12.962 14.5008 13.368C14.4879 13.3864 14.4757 13.4055 14.4643 13.4253L14.3948 13.5458C13.8872 14.3306 13.0043 14.85 12 14.85C10.9692 14.85 10.0662 14.3027 9.56568 13.4828Z" fill="black"/>
<path d="M15.6748 14.3288L13.6975 17.7568L11.646 21.2017C11.5691 21.3309 11.6569 21.4951 11.8073 21.4981C11.8714 21.4994 11.9356 21.5 12 21.5C17.2467 21.5 21.5 17.2467 21.5 12C21.5 11.0585 21.3631 10.1491 21.108 9.29039C21.0831 9.20664 21.0056 9.14999 20.9183 9.14999H15.7249C15.5534 9.14999 15.4579 9.35485 15.5568 9.49494C16.0565 10.2032 16.35 11.0673 16.35 12C16.35 12.8567 16.1024 13.6555 15.6748 14.3288Z" fill="black"/>
<path d="M12 7.64999H20.1195C20.2693 7.64999 20.3655 7.49159 20.2922 7.36094C18.666 4.46031 15.5619 2.5 12 2.5C9.25698 2.5 6.78548 3.66255 5.05135 5.52181C4.99142 5.58606 4.98208 5.68221 5.0271 5.75766L7.46987 9.8516L7.66955 10.197C7.75529 10.3454 7.98027 10.3257 8.0524 10.1703C8.74337 8.68202 10.2512 7.64999 12 7.64999Z" fill="black"/>
</svg>
