<svg width="24" height="24" viewBox="0 0 24 24" fill="none" xmlns="http://www.w3.org/2000/svg">
<path d="M6.66073 3.25287C6.5624 3.19024 6.43669 3.19025 6.33836 3.25289L1.39711 6.40095C1.21203 6.51886 1.21203 6.78906 1.3971 6.90697L6.33836 10.0551C6.43669 10.1178 6.56241 10.1178 6.66074 10.0551L11.6028 6.9069C11.7879 6.78899 11.7879 6.51876 11.6028 6.40085L6.66073 3.25287Z" fill="black"/>
<path d="M17.6612 3.2529C17.5628 3.19025 17.4371 3.19025 17.3388 3.2529L12.3971 6.40129C12.212 6.5192 12.212 6.78941 12.3971 6.90732L17.3388 10.0557C17.4371 10.1184 17.5628 10.1184 17.6612 10.0557L22.6028 6.90732C22.7879 6.78941 22.7879 6.5192 22.6028 6.40129L17.6612 3.2529Z" fill="black"/>
<path d="M1.3971 13.9152C1.21203 13.7973 1.21203 13.5271 1.39711 13.4092L6.33836 10.2611C6.43669 10.1985 6.5624 10.1984 6.66073 10.2611L11.6028 13.4091C11.7879 13.527 11.7879 13.7972 11.6028 13.9151L6.66074 17.0633C6.56241 17.126 6.43669 17.126 6.33836 17.0633L1.3971 13.9152Z" fill="black"/>
<path d="M17.6612 10.2611C17.5628 10.1985 17.4371 10.1985 17.3388 10.2611L12.3971 13.4095C12.212 13.5274 12.212 13.7976 12.3971 13.9155L17.3388 17.0638C17.4371 17.1265 17.5628 17.1265 17.6612 17.0638L22.6028 13.9155C22.7879 13.7976 22.7879 13.5274 22.6028 13.4095L17.6612 10.2611Z" fill="black"/>
<path d="M6.89718 18.5945C6.71209 18.4766 6.71209 18.2063 6.89719 18.0884L11.8392 14.9404C11.9375 14.8777 12.0633 14.8777 12.1616 14.9404L17.1028 18.0884C17.2879 18.2063 17.2879 18.4765 17.1028 18.5944L12.1616 21.7426C12.0633 21.8053 11.9375 21.8053 11.8392 21.7426L6.89718 18.5945Z" fill="black"/>
</svg>
