<svg width="24" height="24" viewBox="0 0 24 24" fill="none" xmlns="http://www.w3.org/2000/svg">
<path d="M6.55546 3.30546C7.07118 2.78973 7.77065 2.5 8.5 2.5H11.25V7.99999H8.5C7.77065 7.99999 7.07118 7.71026 6.55546 7.19454C6.03973 6.67881 5.75 5.97934 5.75 5.25C5.75 4.52065 6.03973 3.82118 6.55546 3.30546Z" fill="black"/>
<path d="M15.5 7.99999H12.75V2.5H15.5C15.8611 2.5 16.2187 2.57113 16.5524 2.70933C16.886 2.84753 17.1892 3.0501 17.4445 3.30546C17.6999 3.56082 17.9025 3.86397 18.0407 4.19762C18.1789 4.53126 18.25 4.88886 18.25 5.25C18.25 5.61113 18.1789 5.96873 18.0407 6.30238C17.9025 6.63602 17.6999 6.93918 17.4445 7.19454C17.1892 7.4499 16.886 7.65246 16.5524 7.79066C16.2187 7.92886 15.8611 7.99999 15.5 7.99999Z" fill="black"/>
<path d="M15.5 9.5C15.1389 9.5 14.7813 9.57113 14.4476 9.70933C14.114 9.84753 13.8108 10.0501 13.5555 10.3055C13.3001 10.5608 13.0975 10.864 12.9593 11.1976C12.8211 11.5313 12.75 11.8889 12.75 12.25C12.75 12.6111 12.8211 12.9687 12.9593 13.3024C13.0975 13.636 13.3001 13.9392 13.5555 14.1945C13.8108 14.4499 14.114 14.6525 14.4476 14.7907C14.7813 14.9289 15.1389 15 15.5 15C15.8611 15 16.2187 14.9289 16.5524 14.7907C16.886 14.6525 17.1892 14.4499 17.4445 14.1945C17.6999 13.9392 17.9025 13.636 18.0407 13.3024C18.1789 12.9687 18.25 12.6111 18.25 12.25C18.25 11.8889 18.1789 11.5313 18.0407 11.1976C17.9025 10.864 17.6999 10.5608 17.4445 10.3055C17.1892 10.0501 16.886 9.84753 16.5524 9.70933C16.2187 9.57113 15.8611 9.5 15.5 9.5Z" fill="black"/>
<path d="M6.55546 17.3055C7.07118 16.7897 7.77065 16.5 8.5 16.5H11.25V19.25C11.25 19.9793 10.9603 20.6788 10.4445 21.1945C9.92881 21.7103 9.22934 22 8.5 22C7.77065 22 7.07118 21.7103 6.55546 21.1945C6.03973 20.6788 5.75 19.9793 5.75 19.25C5.75 18.5207 6.03973 17.8212 6.55546 17.3055Z" fill="black"/>
<path d="M8.5 9.5C7.77065 9.5 7.07118 9.78973 6.55546 10.3055C6.03973 10.8212 5.75 11.5207 5.75 12.25C5.75 12.9793 6.03973 13.6788 6.55546 14.1945C7.07118 14.7103 7.77065 15 8.5 15H11.25V9.5H8.5Z" fill="black"/>
</svg>
