<svg width="24" height="24" viewBox="0 0 24 24" fill="none" xmlns="http://www.w3.org/2000/svg">
<path fill-rule="evenodd" clip-rule="evenodd" d="M6.71169 3.97084C10.2302 3.65624 13.7698 3.65624 17.2883 3.97084L18.8057 4.10651C20.318 4.24173 21.54 5.39711 21.7596 6.89954C22.2541 10.2819 22.2541 13.7181 21.7596 17.1005C21.54 18.6029 20.318 19.7583 18.8057 19.8935L17.2883 20.0292C13.7698 20.3438 10.2302 20.3438 6.71169 20.0292L5.19435 19.8935C3.68198 19.7583 2.46003 18.6029 2.24038 17.1005C1.74588 13.7181 1.74588 10.2819 2.24038 6.89954C2.46003 5.39711 3.68198 4.24173 5.19435 4.10651L6.71169 3.97084ZM5.85557 6.83965C5.62315 6.71449 5.34204 6.72075 5.11541 6.85611C4.88878 6.99148 4.75 7.23602 4.75 7.5V17C4.75 17.4142 5.08579 17.75 5.5 17.75C5.91421 17.75 6.25 17.4142 6.25 17V8.75566L11.6444 11.6604C11.8664 11.7799 12.1336 11.7799 12.3556 11.6604L17.75 8.75566V17C17.75 17.4142 18.0858 17.75 18.5 17.75C18.9142 17.75 19.25 17.4142 19.25 17V7.5C19.25 7.23602 19.1112 6.99148 18.8846 6.85611C18.658 6.72075 18.3769 6.71449 18.1444 6.83965L12 10.1482L5.85557 6.83965Z" fill="black"/>
</svg>
