<svg width="24" height="24" viewBox="0 0 24 24" fill="none" xmlns="http://www.w3.org/2000/svg">
<path d="M6.97395 19.9738C6.89234 20.0553 6.99001 20.1878 7.09146 20.1329C9.67967 18.7329 13.174 16.8415 16.1272 15.2376C16.1862 15.2055 16.1971 15.1258 16.1492 15.0787L14.0683 13.0298C14.0292 12.9913 13.9663 12.9915 13.9275 13.0303L6.97395 19.9738Z" fill="black"/>
<path d="M13.921 10.776C13.9601 10.8147 14.0232 10.8146 14.0621 10.7757L16.1439 8.69588C16.1912 8.64856 16.1796 8.56895 16.1207 8.53714L15.1007 7.98654C13.8742 7.32458 12.2308 6.43766 10.563 5.53785C9.31392 4.86399 8.05241 4.18359 6.94227 3.58514C6.84062 3.53035 6.74247 3.66291 6.8245 3.7442L13.921 10.776Z" fill="black"/>
<path d="M3 3.1962C3 2.96389 3.03514 2.7694 3.09628 2.60919C3.15947 2.44363 3.36802 2.43094 3.4939 2.55567L12.8585 11.8349C12.8979 11.8739 12.898 11.9376 12.8587 11.9767L3.46006 21.3475C3.3216 21.4856 3.09274 21.4522 3.04845 21.2617C3.01631 21.1235 3 20.9702 3 20.8055V3.1962Z" fill="black"/>
<path d="M17.6882 14.3886C17.6495 14.4096 17.6016 14.4029 17.5703 14.372L15.1324 11.9723C15.0927 11.9333 15.0926 11.8694 15.132 11.8301L17.5831 9.39337C17.6145 9.36217 17.6629 9.35548 17.7018 9.37667C19.7881 10.5145 21.4155 11.398 21.9117 11.6604C21.9302 11.6703 21.9447 11.6851 21.953 11.7044C21.9983 11.8088 22.0087 11.9126 21.9933 12.0125C21.9889 12.0414 21.9701 12.0651 21.9443 12.0787C21.6589 12.2291 20.7033 12.7489 19.3724 13.4728L19.3642 13.4773C18.8548 13.7543 18.2906 14.0612 17.6882 14.3886Z" fill="black"/>
</svg>
