<svg width="24" height="24" viewBox="0 0 24 24" fill="none" xmlns="http://www.w3.org/2000/svg">
<path d="M20.6607 10.2C20.7562 10.2 20.8386 10.2674 20.8553 10.3614C20.949 10.8872 21 11.453 21 12C21 14.3056 20.1329 16.4088 18.707 18.0013C18.6358 18.0807 18.5145 18.0877 18.4331 18.0188L15.9875 15.9488C15.8983 15.8734 15.8928 15.7382 15.9717 15.6522C16.4586 15.1215 16.8409 14.4931 17.0864 13.8H12.2C12.0895 13.8 12 13.7105 12 13.6V10.4C12 10.2895 12.0895 10.2 12.2 10.2H20.6607Z" fill="black"/>
<path d="M14.4727 16.8001C14.5463 16.7619 14.6359 16.7706 14.6992 16.8241L17.2668 18.9969C17.3643 19.0794 17.3606 19.231 17.257 19.3057C15.778 20.3719 13.9623 21 12 21C8.83808 21 6.05679 19.3691 4.4515 16.9027C4.39545 16.8166 4.41626 16.7022 4.49766 16.6395L7.04295 14.6784C7.14098 14.6029 7.28322 14.6338 7.34612 14.7404C8.28547 16.3321 10.0181 17.4 12 17.4C12.8919 17.4 13.7324 17.1834 14.4727 16.8001Z" fill="black"/>
<path d="M6.67912 12.9261C6.69204 13.0009 6.66363 13.0771 6.60355 13.1234L3.86891 15.2304C3.76421 15.311 3.61142 15.2698 3.56521 15.1459C3.19977 14.1666 3 13.1066 3 12C3 10.8475 3.21668 9.74551 3.61153 8.73264C3.65843 8.61235 3.8066 8.57154 3.91071 8.6479L6.6428 10.6515C6.70782 10.6992 6.73751 10.7812 6.72057 10.8601C6.64158 11.2275 6.6 11.6089 6.6 12C6.6 12.3158 6.62711 12.6252 6.67912 12.9261Z" fill="black"/>
<path d="M7.14714 9.16127C7.24301 9.23158 7.37846 9.20301 7.44233 9.10274C8.40086 7.59812 10.084 6.6 12 6.6C13.3087 6.6 14.5052 7.0694 15.4394 7.84461C15.5209 7.91225 15.6409 7.90905 15.7158 7.83415L17.9816 5.56839C18.0617 5.48833 18.0595 5.35768 17.975 5.28238C16.3853 3.8667 14.2961 3 12 3C8.88013 3 6.13083 4.5878 4.51617 6.99933C4.45746 7.08702 4.47961 7.20497 4.5647 7.26737L7.14714 9.16127Z" fill="black"/>
</svg>
