<svg width="24" height="24" viewBox="0 0 24 24" fill="none" xmlns="http://www.w3.org/2000/svg">
<path d="M20.8553 10.3614C20.8386 10.2674 20.7562 10.2 20.6607 10.2H12.2C12.0895 10.2 12 10.2895 12 10.4V13.6C12 13.7105 12.0895 13.8 12.2 13.8H17.0864C16.3443 15.8956 14.3503 17.4 12 17.4C9.01785 17.4 6.6 14.9821 6.6 12C6.6 9.01785 9.01785 6.6 12 6.6C13.3087 6.6 14.5052 7.0694 15.4394 7.84461C15.5209 7.91225 15.6409 7.90905 15.7158 7.83415L17.9816 5.56839C18.0617 5.48833 18.0595 5.35768 17.975 5.28238C16.3853 3.8667 14.2961 3 12 3C7.02975 3 3 7.02975 3 12C3 16.9703 7.02975 21 12 21C16.9703 21 21 16.9703 21 12C21 11.453 20.949 10.8872 20.8553 10.3614Z" fill="black"/>
</svg>
