<svg width="24" height="24" viewBox="0 0 24 24" fill="none" xmlns="http://www.w3.org/2000/svg">
<path fill-rule="evenodd" clip-rule="evenodd" d="M6.76954 3.08148C10.2177 2.69611 13.7824 2.69611 17.2305 3.08148C19.1289 3.29366 20.6601 4.78944 20.8829 6.69449C21.2952 10.2195 21.2952 13.7805 20.8829 17.3055C20.6601 19.2106 19.1289 20.7064 17.2305 20.9185C13.7824 21.3039 10.2177 21.3039 6.76954 20.9185C4.87114 20.7064 3.33995 19.2106 3.11713 17.3055C2.70485 13.7805 2.70485 10.2195 3.11713 6.69449C3.33995 4.78944 4.87114 3.29366 6.76954 3.08148ZM16.5749 7.25C16.6367 7.5947 16.5568 7.93083 16.2367 7.96106L15.7054 8.05695L15.4846 16.374C15.0168 16.6242 14.5911 16.7615 14.2397 16.7492C13.673 16.7295 13.5363 16.5344 13.1293 15.9534L9.82408 10.0074L9.6745 15.643L10.7624 15.9474C10.7624 15.9474 10.7444 16.6282 9.8619 16.5975L7.42244 16.6647C7.35563 16.5103 7.43656 16.1328 7.68674 16.0685L8.32658 15.9003L8.52431 8.45078L7.64386 8.34408C7.5821 7.99938 7.77252 7.515 8.26605 7.49445L10.8834 7.39509L14.328 13.4217L14.4666 8.20063L13.5514 8.0544C13.4916 7.63736 13.7802 7.34318 14.1354 7.32025L16.5749 7.25Z" fill="black"/>
</svg>
