<svg width="24" height="24" viewBox="0 0 24 24" fill="none" xmlns="http://www.w3.org/2000/svg">
<path d="M11.9345 2.375C9.70302 2.3902 7.54618 3.18028 5.83292 4.61009C4.11966 6.0399 2.95644 8.02058 2.54226 10.2133C2.12808 12.406 2.48867 14.6746 3.56234 16.6308C4.63602 18.587 6.35606 20.1094 8.42822 20.9375C8.28895 20.0261 8.28895 19.0989 8.42822 18.1875L9.5626 13.375C9.38307 12.9392 9.29419 12.4713 9.30135 12C9.30135 10.6663 10.0782 9.6625 11.0407 9.6625C11.2151 9.65988 11.388 9.69497 11.5475 9.76539C11.707 9.8358 11.8495 9.93987 11.965 10.0705C12.0806 10.201 12.1666 10.3551 12.2171 10.522C12.2676 10.6889 12.2814 10.8647 12.2576 11.0375C12.2576 11.5694 12.0404 12.2727 11.8124 13.0111C11.6868 13.4181 11.5578 13.8357 11.4601 14.2413C11.4009 14.4541 11.3939 14.678 11.4396 14.8942C11.4853 15.1103 11.5824 15.3122 11.7227 15.4829C11.863 15.6535 12.0423 15.7878 12.2455 15.8745C12.4487 15.9611 12.6698 15.9975 12.8901 15.9806C14.5951 15.9806 15.9151 14.1725 15.9151 11.5738C15.9322 11.0457 15.8391 10.5198 15.6417 10.0297C15.4443 9.53965 15.1468 9.0961 14.7684 8.72737C14.39 8.35865 13.9389 8.07285 13.4438 7.88821C12.9488 7.70358 12.4207 7.62415 11.8932 7.655C11.3301 7.63081 10.7679 7.72114 10.2407 7.92053C9.71348 8.11991 9.23221 8.4242 8.82601 8.81497C8.41981 9.20575 8.09713 9.67488 7.87749 10.194C7.65786 10.7131 7.54584 11.2714 7.54822 11.835C7.54058 12.6202 7.78119 13.3878 8.23572 14.0281C8.26877 14.0649 8.29232 14.1091 8.3043 14.1571C8.31629 14.205 8.31634 14.2552 8.30447 14.3031C8.22881 14.6058 8.06384 15.2657 8.03635 15.3963C8.00885 15.5269 7.89197 15.6094 7.71322 15.5269C6.5101 14.9631 5.76072 13.21 5.76072 11.7937C5.76072 8.76188 7.9676 5.97062 12.1201 5.97062C15.4545 5.97062 18.0532 8.34937 18.0532 11.5325C18.0532 14.8462 15.9907 17.5138 13.0551 17.5138C12.6247 17.5287 12.1974 17.4359 11.812 17.2438C11.4266 17.0517 11.0953 16.7664 10.8482 16.4137L10.2501 18.7031C9.96337 19.5928 9.56119 20.4411 9.05385 21.2262C9.9887 21.5025 10.9597 21.637 11.9345 21.625C14.4872 21.625 16.9353 20.6109 18.7404 18.8059C20.5454 17.0009 21.5595 14.5527 21.5595 12C21.5595 9.44729 20.5454 6.99913 18.7404 5.1941C16.9353 3.38906 14.4872 2.375 11.9345 2.375Z" fill="black"/>
</svg>
