<svg width="24" height="24" viewBox="0 0 24 24" fill="none" xmlns="http://www.w3.org/2000/svg">
<path d="M20.1937 18.4238C19.775 18.4744 18.6178 16.6466 18.4593 16.3928C18.454 16.3843 18.4412 16.3887 18.4411 16.3988C18.4292 17.6143 17.802 19.1857 16.4608 20.3281C16.4548 20.3333 16.4563 20.3429 16.4638 20.3453C17.1295 20.5524 18.5864 21.0938 18.2362 21.6844C17.9506 22.1669 13.3337 21.9925 12.0006 21.8419C10.6675 21.9919 6.05062 22.1663 5.76499 21.6844C5.41227 21.0894 6.891 20.5444 7.55087 20.3407C7.55123 20.3406 7.55147 20.3403 7.55154 20.3399L7.55162 20.3394C7.55168 20.339 7.55155 20.3387 7.55128 20.3384C6.19018 19.186 5.56002 17.5908 5.55875 16.3675C5.55874 16.3673 5.55871 16.3672 5.55865 16.3671L5.5586 16.3669C5.55826 16.3662 5.55767 16.3655 5.55725 16.3662C5.50792 16.446 4.24802 18.4777 3.80624 18.4238C3.59687 18.3981 3.32124 17.2656 4.17124 14.5294C4.57187 13.2394 5.03062 12.1669 5.73937 10.3975C5.61999 5.83125 7.50687 2.00063 11.9994 2.00063C16.4425 2.00125 18.3725 5.75562 18.26 10.3975C18.9675 12.1638 19.4281 13.2431 19.8281 14.5294C20.6787 17.2663 20.4037 18.3988 20.1937 18.4238Z" fill="black"/>
</svg>
