<svg width="24" height="24" viewBox="0 0 24 24" fill="none" xmlns="http://www.w3.org/2000/svg">
<path d="M9.87735 3.15289C9.95823 3.04844 9.87435 2.898 9.74298 2.91189L6.24047 3.28222C6.15789 3.29095 6.09811 3.36511 6.10712 3.44766L6.50442 7.08775C6.51906 7.22188 6.68954 7.26999 6.77214 7.16331L9.87735 3.15289Z" fill="black"/>
<path d="M17.2239 7.16331C17.3065 7.27 17.4769 7.22189 17.4916 7.08776L17.8889 3.44765C17.8979 3.3651 17.8382 3.29093 17.7556 3.2822L14.253 2.91188C14.1216 2.89799 14.0378 3.04842 14.1186 3.15288L17.2239 7.16331Z" fill="black"/>
<path d="M7.83577 8.63476C7.7111 8.63476 7.64084 8.4915 7.71716 8.39292L11.8794 3.01733C11.9395 2.93977 12.0566 2.93977 12.1166 3.01733L16.2788 8.39292C16.3551 8.4915 16.2848 8.63476 16.1601 8.63476H7.83577Z" fill="black"/>
<path d="M8.99339 18.261C9.06109 18.4187 8.8536 18.5481 8.74175 18.4178L1.84148 10.3826C1.75795 10.2853 1.82706 10.1349 1.95528 10.1349H5.4075C5.46748 10.1349 5.5217 10.1706 5.54535 10.2257L8.99339 18.261Z" fill="black"/>
<path d="M18.5885 10.1349C18.5285 10.1349 18.4743 10.1706 18.4507 10.2257L15.0025 18.2611C14.9348 18.4189 15.1423 18.5482 15.2542 18.418L22.1546 10.3826C22.2381 10.2853 22.169 10.1349 22.0408 10.1349H18.5885Z" fill="black"/>
<path d="M18.8498 8.46858C18.8401 8.55734 18.9097 8.63486 18.9989 8.63486L21.7785 8.63485C21.9019 8.63485 21.9725 8.49419 21.8988 8.39525L19.4745 5.14078C19.3931 5.03149 19.2199 5.07864 19.2051 5.21412L18.8498 8.46858Z" fill="black"/>
<path d="M4.79099 5.21427C4.7762 5.07878 4.603 5.03163 4.52158 5.14093L2.09734 8.39524C2.02363 8.49419 2.09425 8.63485 2.21763 8.63485H4.99702C5.08631 8.63485 5.15582 8.55734 5.14614 8.46858L4.79099 5.21427Z" fill="black"/>
<path d="M7.22842 10.344C7.18594 10.245 7.25855 10.1349 7.36626 10.1349H16.6297C16.7374 10.1349 16.81 10.245 16.7675 10.344L12.1359 21.1377C12.0839 21.2589 11.9121 21.2589 11.8602 21.1377L7.22842 10.344Z" fill="black"/>
</svg>
