<svg width="24" height="24" viewBox="0 0 24 24" fill="none" xmlns="http://www.w3.org/2000/svg">
<path fill-rule="evenodd" clip-rule="evenodd" d="M9.9767 3.74228C10.6252 3.58395 11.3028 3.5 12 3.5C16.6944 3.5 20.5 7.30558 20.5 12C20.5 12.6972 20.4161 13.3748 20.2577 14.0233C20.7269 14.7337 21 15.585 21 16.5C21 18.9853 18.9853 21 16.5 21C15.585 21 14.7337 20.7269 14.0233 20.2577C13.3748 20.4161 12.6972 20.5 12 20.5C7.30558 20.5 3.5 16.6944 3.5 12C3.5 11.3028 3.58395 10.6252 3.74228 9.9767C3.27312 9.26631 3 8.41505 3 7.5C3 5.01472 5.01472 3 7.5 3C8.41505 3 9.26631 3.27312 9.9767 3.74228ZM13.5042 11.2725C13.8776 11.3839 14.2335 11.5472 14.5614 11.7577C14.8964 11.9779 15.1756 12.2737 15.3772 12.6202C15.5859 13.004 15.6917 13.4353 15.6841 13.8722C15.7016 14.4356 15.5338 14.9893 15.2062 15.4481C14.8616 15.9191 14.3886 16.2808 13.8438 16.4898C13.2577 16.7237 12.6303 16.8365 11.9994 16.8212C11.257 16.8421 10.5206 16.6829 9.85307 16.3572C9.41437 16.1263 9.03772 15.7932 8.75495 15.386C8.47201 14.9945 8.31348 14.5268 8.29999 14.044C8.29999 13.827 8.3862 13.6188 8.53965 13.4654C8.69311 13.3119 8.90124 13.2257 9.11826 13.2257C9.33528 13.2257 9.54341 13.3119 9.69687 13.4654C9.85032 13.6188 9.93653 13.827 9.93653 14.044C9.95334 14.1936 10.0105 14.3359 10.1018 14.4556C10.232 14.6426 10.4047 14.7961 10.6059 14.9032C11.0413 15.1066 11.5191 15.2031 11.9994 15.1847C12.4147 15.1982 12.8285 15.1281 13.2162 14.9785C13.4762 14.885 13.704 14.7189 13.8724 14.4998C13.9971 14.3258 14.0589 14.1145 14.0475 13.9008C14.0561 13.7357 14.0229 13.571 13.951 13.4221C13.8766 13.3001 13.7749 13.197 13.6539 13.121C13.4599 12.9987 13.2498 12.9039 13.0296 12.8395C12.8504 12.7847 12.6548 12.7315 12.4519 12.6791L12.4372 12.6775C12.4281 12.6745 12.4154 12.6714 12.4042 12.6687C12.4002 12.6678 12.3964 12.6669 12.393 12.666C12.2604 12.6325 12.1279 12.5989 11.9863 12.5678C11.6246 12.4901 11.3742 12.4271 11.2171 12.3796C11.2136 12.3787 11.2105 12.3766 11.2074 12.3745C11.2048 12.3727 11.2021 12.3709 11.1991 12.3698C10.8358 12.2817 10.4786 12.1702 10.1296 12.036C9.66788 11.8507 9.26234 11.5484 8.95297 11.1588C8.63251 10.7382 8.4651 10.221 8.47837 9.69243C8.47848 9.16152 8.65203 8.64518 8.97261 8.22199C9.30731 7.79639 9.75424 7.47274 10.263 7.28752C10.8256 7.08534 11.4205 6.98827 12.0182 7.00113C12.4884 6.99593 12.9567 7.06102 13.4076 7.19424C13.7983 7.30815 14.1643 7.49379 14.4869 7.74167C14.7662 7.95362 14.9993 8.22037 15.1718 8.52557C15.2236 8.62025 15.2562 8.72423 15.2676 8.83154C15.279 8.93884 15.2691 9.04735 15.2384 9.15081C15.2077 9.25427 15.1569 9.35064 15.0888 9.43437C15.0208 9.51811 14.9368 9.58755 14.8418 9.6387C14.7468 9.68985 14.6426 9.7217 14.5352 9.73242C14.4278 9.74314 14.3194 9.73251 14.2161 9.70115C14.1129 9.66979 14.0168 9.61832 13.9335 9.54969C13.8503 9.48107 13.7814 9.39665 13.7309 9.30129C13.6611 9.19149 13.5708 9.09619 13.4649 9.02062C13.3012 8.90125 13.1175 8.81202 12.9224 8.75714C12.6283 8.67286 12.3233 8.6326 12.0174 8.63767C11.6221 8.62602 11.2279 8.68589 10.8538 8.81442C10.6314 8.89017 10.4336 9.02444 10.281 9.2031C10.172 9.34259 10.113 9.51459 10.1133 9.69161C10.0999 9.8567 10.1464 10.0211 10.2442 10.1547C10.3779 10.3181 10.5515 10.4441 10.7483 10.5205C11.13 10.6675 11.5229 10.7835 11.9233 10.8675C12.2588 10.9411 12.5305 11.0066 12.7596 11.0704C13.0214 11.135 13.2751 11.203 13.5042 11.2725Z" fill="black"/>
</svg>
