<svg width="24" height="24" viewBox="0 0 24 24" fill="none" xmlns="http://www.w3.org/2000/svg">
<path d="M14.5 1.5C13.3939 1.5 12.5 2.39386 12.5 3.5V8.5C12.5 9.60614 13.3939 10.5 14.5 10.5C15.6061 10.5 16.5 9.60614 16.5 8.5V3.5C16.5 2.39386 15.6061 1.5 14.5 1.5Z" fill="black"/>
<path d="M20.5 6.5C19.3939 6.5 18.5 7.39386 18.5 8.5V10C18.5 10.2761 18.7239 10.5 19 10.5H20.5C21.6061 10.5 22.5 9.60614 22.5 8.5C22.5 7.39386 21.6061 6.5 20.5 6.5Z" fill="black"/>
<path d="M9.5 13.5C8.39386 13.5 7.5 14.3939 7.5 15.5V20.5C7.5 21.6061 8.39386 22.5 9.5 22.5C10.6061 22.5 11.5 21.6061 11.5 20.5V15.5C11.5 14.3939 10.6061 13.5 9.5 13.5Z" fill="black"/>
<path d="M3.5 13.5C2.39386 13.5 1.5 14.3939 1.5 15.5C1.5 16.6061 2.39386 17.5 3.5 17.5C4.60614 17.5 5.5 16.6061 5.5 15.5V14C5.5 13.7239 5.27614 13.5 5 13.5H3.5Z" fill="black"/>
<path d="M15.5 12.5C14.3939 12.5 13.5 13.3939 13.5 14.5C13.5 15.6061 14.3939 16.5 15.5 16.5H20.5C21.6061 16.5 22.5 15.6061 22.5 14.5C22.5 13.3939 21.6061 12.5 20.5 12.5H15.5Z" fill="black"/>
<path d="M14 18.5C13.7239 18.5 13.5 18.7239 13.5 19V20.5C13.5 21.6061 14.3939 22.5 15.5 22.5C16.6061 22.5 17.5 21.6061 17.5 20.5C17.5 19.3939 16.6061 18.5 15.5 18.5H14Z" fill="black"/>
<path d="M3.5 7.5C2.39386 7.5 1.5 8.39386 1.5 9.5C1.5 10.6061 2.39386 11.5 3.5 11.5H8.5C9.60614 11.5 10.5 10.6061 10.5 9.5C10.5 8.39386 9.60614 7.5 8.5 7.5H3.5Z" fill="black"/>
<path d="M8.5 1.5C7.39386 1.5 6.5 2.39386 6.5 3.5C6.5 4.60614 7.39386 5.5 8.5 5.5H10C10.2761 5.5 10.5 5.27614 10.5 5V3.5C10.5 2.39386 9.60614 1.5 8.5 1.5Z" fill="black"/>
</svg>
