<svg width="24" height="24" viewBox="0 0 24 24" fill="none" xmlns="http://www.w3.org/2000/svg">
<path d="M22.9666 18.289C22.7728 18.7691 21.8023 19.1659 20.1588 19.4364C20.0056 19.462 19.9395 19.7276 19.8509 20.1628C19.8148 20.3421 19.7757 20.5181 19.7262 20.7021C19.711 20.7803 19.6695 20.8499 19.6094 20.8977C19.5493 20.9454 19.4749 20.9681 19.4002 20.9613H19.3746C19.2179 20.9548 19.0621 20.9334 18.9089 20.8973C18.5032 20.8073 18.09 20.7612 17.6756 20.7597C17.3766 20.7597 17.0807 20.7869 16.7862 20.8397C16.1658 21.0078 15.5904 21.3198 15.0992 21.7582C14.27 22.5117 13.2285 22.9487 12.1397 23C12.0766 23 12.0165 22.9984 11.9715 22.9952C11.935 22.9985 11.8984 23.0001 11.8618 23C10.7729 22.9492 9.7312 22.5121 8.90231 21.7582C8.4117 21.3213 7.83513 21.0073 7.21526 20.8397C6.92137 20.7872 6.62392 20.7605 6.32592 20.7597C5.91129 20.7645 5.49967 20.8141 5.09406 20.9085C4.94052 20.9463 4.7842 20.9698 4.62685 20.9789C4.54757 20.9888 4.46766 20.967 4.40269 20.9176C4.33771 20.8682 4.29231 20.7948 4.27532 20.7117C4.2275 20.5321 4.18591 20.3506 4.15063 20.1677C4.0605 19.7308 3.9959 19.4636 3.84267 19.438C2.19919 19.1691 1.22872 18.7707 1.03493 18.289C1.0151 18.2409 1.0034 18.1894 1.00037 18.137C0.996913 18.0678 1.01753 17.9997 1.05827 17.9456C1.09901 17.8916 1.15702 17.8555 1.22121 17.8442C2.58034 17.5822 3.80509 16.8066 4.67042 15.6599C5.14664 15.0726 5.54174 14.4181 5.8467 13.7125L5.8512 13.6997C5.94087 13.5435 5.99742 13.3683 6.01688 13.1865C6.03634 13.0046 6.01825 12.8204 5.96387 12.6467C5.75356 12.1155 5.052 11.8786 4.58779 11.7218C4.47212 11.6834 4.36245 11.6466 4.27682 11.6098C3.8652 11.437 3.18918 11.0705 3.27932 10.5665C3.34813 10.3765 3.47101 10.2141 3.63076 10.1022C3.7905 9.99031 3.97911 9.93443 4.17016 9.9424C4.26318 9.94013 4.35553 9.9598 4.44057 10C4.78609 10.1888 5.16767 10.296 5.55526 10.3136C5.78658 10.3312 6.01575 10.2565 6.19823 10.104C6.18572 9.87032 6.1722 9.63669 6.15767 9.40313C5.94735 7.82694 6.03748 6.21874 6.42357 4.68095C6.87773 3.57586 7.62745 2.63775 8.57911 1.98377C9.53078 1.32979 10.6422 0.988913 11.7747 1.0037L12.2178 1.0005C13.3515 0.985069 14.4644 1.32556 15.4176 1.97951C16.3708 2.63345 17.1222 3.57189 17.5779 4.67775C17.9641 6.21889 18.0541 7.82726 17.8423 9.40633L17.8378 9.48154L17.8033 10.104C17.9685 10.2432 18.1743 10.3168 18.3861 10.312C18.7525 10.2827 19.1099 10.1766 19.4377 10C19.5457 9.94983 19.6625 9.92474 19.7802 9.9264C19.9155 9.9264 20.0477 9.9536 20.1723 10.0064L20.1783 10.0096C20.3193 10.0454 20.447 10.125 20.5452 10.2385C20.6434 10.3519 20.7076 10.494 20.7297 10.6465C20.7342 10.8913 20.5644 11.2562 19.7247 11.6098C19.639 11.645 19.5294 11.6834 19.4137 11.7218C18.948 11.8786 18.2479 12.1155 18.0376 12.6467C17.9831 12.82 17.9649 13.0039 17.9841 13.1855C18.0033 13.3671 18.0595 13.542 18.1488 13.6981L18.1548 13.7125C18.5747 14.7343 19.2106 15.6389 20.013 16.3556C20.8154 17.0724 21.7625 17.5818 22.7803 17.8442C22.8442 17.8558 22.9018 17.8921 22.9423 17.9461C22.9827 18.0001 23.0031 18.068 22.9996 18.137C22.9967 18.19 22.985 18.242 22.9651 18.2906L22.9666 18.289Z" fill="black"/>
</svg>
