<svg width="24" height="24" viewBox="0 0 24 24" fill="none" xmlns="http://www.w3.org/2000/svg">
<path fill-rule="evenodd" clip-rule="evenodd" d="M6.76954 3.08148C10.2177 2.69611 13.7824 2.69611 17.2305 3.08148C19.1289 3.29366 20.6601 4.78944 20.8829 6.69449C21.2952 10.2195 21.2952 13.7805 20.8829 17.3055C20.6601 19.2106 19.1289 20.7064 17.2305 20.9185C13.7824 21.3039 10.2177 21.3039 6.76954 20.9185C4.87114 20.7064 3.33995 19.2106 3.11713 17.3055C2.70485 13.7805 2.70485 10.2195 3.11713 6.69449C3.33995 4.78944 4.87114 3.29366 6.76954 3.08148ZM10.873 16.4069C10.9219 16.2903 10.947 16.1652 10.9469 16.039V6.9585C10.9469 6.4295 10.5115 6 9.9728 6H6.97153C6.43534 6 6 6.43 6 6.9585V16.039C6.00027 16.2934 6.10263 16.5373 6.2847 16.7174C6.46677 16.8974 6.71372 16.9991 6.97153 17H9.9728C10.1008 17.0001 10.2275 16.9754 10.3457 16.9271C10.464 16.8789 10.5714 16.8081 10.6619 16.7188C10.7523 16.6296 10.8241 16.5236 10.873 16.4069ZM17.7155 12.7175C17.8975 12.5374 17.9999 12.2934 18 12.039V6.9585C18 6.4295 17.5642 6 17.0285 6H14.0272C13.4915 6 13.0531 6.43 13.0531 6.9585V12.039C13.0534 12.2938 13.1561 12.5381 13.3387 12.7182C13.5213 12.8984 13.7689 12.9997 14.0272 13H17.0285C17.2863 12.9992 17.5334 12.8976 17.7155 12.7175Z" fill="black"/>
</svg>
