<svg width="24" height="24" viewBox="0 0 24 24" fill="none" xmlns="http://www.w3.org/2000/svg">
<path d="M16.2565 17.1541C16.2201 17.0436 16.0977 16.9878 15.988 17.0264C15.5986 17.1636 15.1902 17.2407 14.7768 17.2546C14.5447 17.2799 14.3098 17.2515 14.0904 17.1717C13.8709 17.092 13.6727 16.9629 13.511 16.7944C13.3493 16.626 13.2284 16.4227 13.1576 16.2001C13.0884 15.9824 13.069 15.7519 13.1007 15.5257C13.1021 15.5158 13.1029 15.5059 13.1029 15.4959V10.0793H16.3902C16.5007 10.0793 16.5902 9.98979 16.5902 9.87934V7.66382C16.5902 7.55336 16.5007 7.46382 16.3902 7.46382H13.1029V3.2C13.1029 3.08954 13.0133 3 12.9029 3H10.5571C10.524 3.00221 10.4929 3.01696 10.4702 3.04125C10.4475 3.06554 10.435 3.09755 10.435 3.13078C10.3801 4.16286 10.0261 5.15666 9.41613 5.99106C8.83342 6.78822 8.04117 7.40698 7.12862 7.77943C7.05162 7.81086 7 7.88501 7 7.96818V9.87934C7 9.98979 7.08954 10.0793 7.2 10.0793H8.74368V15.7812C8.74368 17.7254 10.1822 20.4978 13.9747 20.4368C15.1864 20.4368 16.5305 19.9381 16.9388 19.4932C16.9808 19.4475 16.9887 19.3822 16.9693 19.3233L16.2565 17.1541Z" fill="black"/>
</svg>
