<svg width="24" height="24" viewBox="0 0 24 24" fill="none" xmlns="http://www.w3.org/2000/svg">
<path d="M21.5035 18.381H19.222C18.3588 18.381 18.0992 17.682 16.5511 16.1339C15.2 14.8313 14.6292 14.6686 14.2868 14.6686C13.8145 14.6686 13.6847 14.7984 13.6847 15.4505V17.5021C13.6847 18.0573 13.5049 18.3825 12.0553 18.3825C10.6485 18.288 9.28422 17.8606 8.07493 17.1355C6.86564 16.4104 5.84592 15.4084 5.09975 14.212C3.32828 12.0071 2.0957 9.41934 1.5 6.65442C1.5 6.31196 1.62979 6.00234 2.28187 6.00234H4.56182C5.14822 6.00234 5.35933 6.26349 5.5892 6.86553C6.69633 10.1244 8.58534 12.9579 9.35158 12.9579C9.64556 12.9579 9.77379 12.8281 9.77379 12.0947V8.7389C9.67684 7.20799 8.86369 7.0782 8.86369 6.52463C8.87413 6.37862 8.94104 6.24243 9.05022 6.14492C9.1594 6.04742 9.30227 5.99628 9.44853 6.00234H13.0326C13.5221 6.00234 13.6847 6.24629 13.6847 6.83269V11.3613C13.6847 11.8508 13.8958 12.0134 14.0428 12.0134C14.3368 12.0134 14.5635 11.8508 15.1015 11.3128C16.2569 9.90381 17.2009 8.33401 17.9037 6.65286C17.9756 6.45092 18.1115 6.27804 18.2908 6.16058C18.4701 6.04313 18.6829 5.98755 18.8967 6.00234H21.1782C21.8616 6.00234 22.007 6.3448 21.8616 6.83269C21.032 8.6911 20.0055 10.4552 18.7997 12.0947C18.5542 12.47 18.4557 12.6655 18.7997 13.1049C19.0265 13.4473 19.8256 14.1151 20.3635 14.7499C21.1452 15.5297 21.7944 16.4319 22.2853 17.4208C22.4808 18.0557 22.154 18.381 21.5035 18.381Z" fill="black"/>
</svg>
