<svg width="24" height="24" viewBox="0 0 24 24" fill="none" xmlns="http://www.w3.org/2000/svg">
<path fill-rule="evenodd" clip-rule="evenodd" d="M6.98888 4.89052C10.3246 4.62955 13.6755 4.62955 17.0112 4.89052L19.2519 5.06582C20.5 5.16346 21.521 6.09886 21.7273 7.33363C22.2435 10.4231 22.2435 13.5769 21.7273 16.6664C21.521 17.9011 20.5 18.8365 19.2519 18.9342L17.0112 19.1095C13.6755 19.3704 10.3246 19.3704 6.98888 19.1095L4.74818 18.9342C3.50011 18.8365 2.47909 17.9011 2.27278 16.6664C1.75657 13.5769 1.75657 10.4231 2.27278 7.33363C2.47909 6.09886 3.50011 5.16346 4.74818 5.06582L6.98888 4.89052ZM10 14.4701V9.52986C10 9.29667 10.2544 9.15263 10.4543 9.27261L14.5713 11.7428C14.7655 11.8593 14.7655 12.1407 14.5713 12.2572L10.4543 14.7274C10.2544 14.8474 10 14.7033 10 14.4701Z" fill="black"/>
</svg>
