<svg id="svg" version="1.1" xmlns="http://www.w3.org/2000/svg" xmlns:xlink="http://www.w3.org/1999/xlink" width="400" height="400" viewBox="0, 0, 400,400">
<g id="svgg">
<path id="path0" d="M72.800 0.600 C 72.800 1.095,72.072 1.200,68.650 1.200 C 62.846 1.200,62.000 1.410,62.000 2.850 L 62.000 4.000 58.260 4.000 C 54.142 4.000,52.153 4.489,51.805 5.586 C 51.565 6.342,50.031 6.800,47.740 6.800 C 46.549 6.800,46.350 6.949,46.140 8.000 C 45.927 9.067,45.739 9.201,44.450 9.205 C 42.006 9.215,41.180 9.601,40.930 10.852 C 40.742 11.790,40.494 12.000,39.573 12.000 C 38.744 12.000,38.257 12.318,37.736 13.200 C 37.163 14.171,36.757 14.401,35.614 14.406 C 33.828 14.414,33.332 14.735,32.988 16.104 C 32.768 16.983,32.484 17.200,31.557 17.200 C 30.538 17.200,30.400 17.343,30.400 18.400 C 30.400 19.316,30.219 19.600,29.633 19.600 C 28.177 19.600,27.600 20.066,27.600 21.243 C 27.600 22.262,27.457 22.400,26.400 22.400 C 25.670 22.400,25.200 22.608,25.200 22.930 C 25.200 23.574,23.534 25.200,22.874 25.200 C 22.613 25.200,22.400 25.729,22.400 26.375 C 22.400 27.408,22.243 27.564,21.100 27.675 C 19.957 27.785,19.785 27.957,19.675 29.100 C 19.564 30.243,19.408 30.400,18.375 30.400 C 17.355 30.400,17.200 30.548,17.200 31.517 C 17.200 32.433,16.965 32.704,15.900 33.017 C 14.897 33.313,14.571 33.651,14.473 34.500 C 14.404 35.105,14.102 35.600,13.802 35.600 C 12.694 35.600,12.000 36.833,12.000 38.803 C 12.000 40.706,11.971 40.752,10.700 40.875 C 9.402 41.000,9.400 41.003,9.282 43.475 C 9.169 45.833,9.112 45.956,8.082 46.075 C 7.079 46.191,6.976 46.380,6.669 48.672 C 6.368 50.919,6.232 51.180,5.169 51.551 L 4.000 51.958 4.000 55.529 L 4.000 59.100 2.856 59.329 C 1.409 59.618,1.210 60.649,1.204 67.900 C 1.201 72.342,1.103 73.200,0.600 73.200 C -0.455 73.200,-0.295 305.030,0.760 305.305 C 1.407 305.475,1.561 306.033,1.792 309.052 C 2.398 316.948,2.681 318.671,3.569 319.872 C 4.143 320.648,4.639 322.298,5.030 324.722 C 5.428 327.194,5.933 328.856,6.576 329.803 C 7.102 330.577,7.652 331.926,7.800 332.800 C 7.948 333.674,8.526 335.063,9.084 335.886 C 9.643 336.709,10.345 338.078,10.645 338.928 C 10.945 339.778,11.642 341.010,12.195 341.667 C 12.748 342.324,13.200 343.104,13.200 343.400 C 13.200 343.696,13.625 344.447,14.144 345.069 C 14.663 345.691,15.405 346.819,15.793 347.576 C 16.181 348.332,16.920 349.412,17.434 349.976 C 17.949 350.539,19.973 352.890,21.933 355.200 C 25.362 359.242,27.538 361.403,31.193 364.400 C 32.132 365.170,33.444 366.295,34.109 366.900 C 34.774 367.505,35.466 368.000,35.645 368.000 C 35.825 368.000,36.563 368.495,37.286 369.100 C 38.009 369.705,39.230 370.541,40.000 370.958 C 40.770 371.374,41.760 372.027,42.200 372.408 C 42.640 372.790,43.661 373.313,44.468 373.571 C 45.275 373.830,46.147 374.295,46.404 374.605 C 46.662 374.916,47.891 375.550,49.136 376.016 C 50.381 376.481,51.940 377.188,52.600 377.587 C 53.260 377.987,54.430 378.444,55.200 378.603 C 55.970 378.762,57.604 379.310,58.831 379.822 C 60.057 380.333,62.667 380.960,64.631 381.215 C 66.594 381.470,69.010 382.031,70.000 382.462 C 71.905 383.292,75.249 383.783,81.800 384.198 C 84.000 384.337,87.510 384.717,89.600 385.042 C 97.492 386.271,174.333 387.106,176.426 385.986 C 177.172 385.587,177.201 384.945,177.240 368.286 C 177.279 351.267,177.414 348.902,178.335 349.100 C 178.591 349.155,178.800 349.009,178.800 348.776 C 178.800 348.543,178.953 348.448,179.141 348.563 C 179.715 348.918,180.403 345.849,180.353 343.154 C 180.294 339.979,179.973 338.658,179.200 338.400 C 178.754 338.251,124.729 338.002,92.500 338.000 C 90.679 338.000,90.400 337.895,90.400 337.214 C 90.400 336.164,89.236 335.600,87.070 335.600 C 85.521 335.600,85.255 335.474,85.046 334.640 C 84.795 333.640,83.104 332.800,81.340 332.800 C 80.611 332.800,80.400 332.582,80.400 331.828 C 80.400 331.268,79.808 330.230,79.000 329.373 C 78.230 328.556,77.600 327.483,77.600 326.987 C 77.600 326.074,76.922 325.600,75.619 325.600 C 75.062 325.600,74.844 325.156,74.638 323.604 C 74.451 322.192,74.070 321.327,73.337 320.647 C 71.772 319.196,72.859 309.564,74.943 306.414 C 75.469 305.619,76.025 304.397,76.178 303.698 C 76.332 302.999,76.872 301.817,77.377 301.071 C 77.883 300.326,78.600 298.804,78.971 297.689 C 79.341 296.574,79.894 295.454,80.200 295.200 C 80.506 294.946,81.063 293.807,81.437 292.669 C 81.812 291.531,82.442 290.182,82.839 289.672 C 83.235 289.161,83.837 287.790,84.176 286.624 C 84.515 285.458,85.054 284.287,85.374 284.022 C 85.694 283.756,86.259 282.607,86.629 281.469 C 87.000 280.331,87.552 279.113,87.856 278.763 C 88.161 278.412,88.856 276.989,89.400 275.600 C 89.944 274.211,90.639 272.788,90.944 272.437 C 91.248 272.087,91.800 270.869,92.171 269.731 C 92.541 268.593,93.103 267.446,93.421 267.183 C 93.738 266.920,94.260 265.819,94.582 264.737 C 94.903 263.655,95.533 262.303,95.982 261.733 C 96.430 261.162,96.992 259.954,97.229 259.048 C 97.467 258.142,98.106 256.749,98.648 255.953 C 99.191 255.157,99.824 253.807,100.056 252.953 C 100.287 252.099,100.819 251.029,101.238 250.575 C 101.656 250.121,102.269 248.841,102.598 247.730 C 102.928 246.619,103.541 245.274,103.961 244.741 C 104.380 244.208,104.921 243.037,105.163 242.138 C 105.405 241.240,105.983 240.022,106.447 239.431 C 106.911 238.841,107.535 237.549,107.832 236.559 C 108.130 235.569,108.731 234.306,109.167 233.751 C 109.603 233.197,110.237 231.790,110.576 230.624 C 110.915 229.458,111.454 228.287,111.774 228.022 C 112.094 227.756,112.659 226.607,113.029 225.469 C 113.400 224.331,113.952 223.113,114.256 222.763 C 114.561 222.412,115.256 220.989,115.800 219.600 C 116.344 218.211,117.045 216.788,117.358 216.437 C 117.670 216.087,118.123 215.058,118.364 214.152 C 118.605 213.246,119.168 212.040,119.614 211.473 C 120.061 210.905,120.670 209.631,120.968 208.641 C 121.265 207.651,121.881 206.370,122.334 205.792 C 122.788 205.215,123.437 203.790,123.776 202.624 C 124.115 201.458,124.663 200.280,124.995 200.004 C 125.326 199.729,125.860 198.619,126.182 197.537 C 126.503 196.455,127.133 195.103,127.582 194.533 C 128.030 193.962,128.593 192.754,128.832 191.848 C 129.075 190.925,129.904 189.540,130.714 188.700 L 132.162 187.200 144.655 187.200 C 157.590 187.200,159.531 187.404,158.996 188.706 C 158.839 189.088,158.476 190.258,158.190 191.306 C 157.615 193.409,154.196 197.553,152.560 198.129 C 151.912 198.357,151.545 198.885,151.364 199.849 C 151.154 200.973,150.883 201.283,149.952 201.470 C 148.827 201.695,148.800 201.760,148.800 204.250 C 148.800 206.694,148.759 206.800,147.814 206.800 C 146.560 206.800,146.000 207.841,146.000 210.174 C 146.000 211.666,145.868 212.000,145.280 212.000 C 144.048 212.000,143.600 212.875,143.600 215.280 C 143.600 217.283,143.497 217.600,142.849 217.600 C 141.690 217.600,141.169 218.534,140.911 221.072 C 140.677 223.375,139.824 225.163,138.947 225.187 C 138.369 225.203,138.012 226.534,138.005 228.700 C 138.000 230.321,137.944 230.400,136.800 230.400 L 135.600 230.400 135.600 233.000 C 135.600 235.599,135.599 235.600,134.447 235.600 C 133.145 235.600,132.815 236.295,132.805 239.050 C 132.800 240.562,132.699 240.720,131.600 240.940 C 130.425 241.175,130.400 241.231,130.400 243.600 C 130.400 245.950,130.366 246.027,129.242 246.252 C 128.005 246.499,127.600 247.485,127.600 250.250 C 127.600 251.283,127.431 251.600,126.880 251.600 C 125.648 251.600,125.200 252.475,125.200 254.880 C 125.200 256.923,125.106 257.200,124.410 257.200 C 123.235 257.200,122.400 259.185,122.400 261.980 C 122.400 264.285,122.353 264.400,121.414 264.400 C 120.158 264.400,119.600 265.442,119.600 267.784 C 119.600 269.504,119.524 269.635,118.400 269.860 C 117.217 270.097,117.200 270.137,117.200 272.650 C 117.200 275.196,117.198 275.200,116.043 275.200 C 114.678 275.200,114.400 275.742,114.400 278.406 C 114.400 280.226,114.331 280.355,113.300 280.473 C 112.248 280.594,112.195 280.708,112.082 283.054 C 111.970 285.388,111.909 285.518,110.836 285.733 C 109.632 285.974,109.200 287.060,109.200 289.850 C 109.200 290.925,109.040 291.200,108.414 291.200 C 107.387 291.200,106.800 292.355,106.800 294.376 C 106.800 295.615,106.561 296.213,105.800 296.875 C 105.250 297.353,104.800 297.982,104.800 298.272 C 104.800 298.562,104.620 298.800,104.400 298.800 C 104.174 298.800,104.000 299.933,104.000 301.400 C 104.000 303.999,103.999 304.000,102.847 304.000 C 101.429 304.000,101.213 304.640,101.205 308.867 C 101.199 312.705,101.363 313.119,103.011 313.428 C 103.744 313.566,104.437 313.920,104.550 314.214 C 104.797 314.858,106.818 315.465,110.600 316.030 C 114.719 316.646,175.763 316.061,176.671 315.397 C 177.346 314.904,177.746 274.585,177.211 261.000 C 177.037 256.599,177.096 256.059,177.915 254.508 C 178.644 253.127,178.880 251.745,179.201 246.991 C 179.630 240.615,179.828 239.461,180.730 238.068 C 181.163 237.400,181.355 235.866,181.409 232.649 C 181.528 225.628,180.790 226.000,194.588 226.000 C 205.994 226.000,205.611 225.860,205.582 230.031 C 205.573 231.444,205.305 233.320,204.988 234.200 C 204.207 236.369,204.103 314.743,204.880 315.520 C 205.233 315.873,208.669 316.000,217.851 316.000 C 231.602 316.000,231.218 315.931,231.919 318.513 C 232.330 320.027,232.136 323.538,231.516 325.800 C 231.275 326.680,231.012 329.020,230.932 331.000 C 230.723 336.144,230.623 336.465,229.369 335.988 C 228.808 335.775,225.434 335.600,221.873 335.600 L 215.397 335.600 214.265 336.800 C 213.172 337.958,210.209 338.436,206.400 338.068 C 205.311 337.963,204.000 338.407,204.000 338.882 C 204.000 339.138,203.600 339.774,203.112 340.294 C 201.892 341.593,201.467 346.979,202.620 346.537 C 203.104 346.351,203.240 346.412,203.045 346.727 C 202.864 347.020,202.966 347.111,203.322 346.975 C 204.258 346.615,204.400 349.416,204.400 368.248 L 204.400 385.985 205.300 386.208 C 206.960 386.618,241.935 386.226,242.369 385.791 C 242.594 385.566,242.894 384.036,243.036 382.391 C 243.178 380.746,243.573 378.957,243.912 378.414 C 244.360 377.701,244.500 376.598,244.419 374.414 C 243.952 361.810,243.407 362.474,253.692 363.130 C 257.931 363.400,263.110 363.881,265.200 364.197 C 275.472 365.753,313.605 365.807,317.842 364.271 C 318.746 363.944,320.996 363.374,322.842 363.006 C 324.735 362.627,326.851 361.913,327.691 361.367 C 328.512 360.835,329.425 360.400,329.722 360.400 C 330.291 360.400,334.581 357.297,335.600 356.148 C 338.164 353.259,338.789 352.407,339.373 351.005 C 339.739 350.128,340.390 349.037,340.819 348.580 C 341.256 348.115,341.779 346.703,342.008 345.374 C 342.586 342.009,343.253 339.600,343.606 339.600 C 344.693 339.600,345.197 336.579,345.631 327.454 C 346.285 313.717,346.143 311.533,344.500 310.032 C 343.356 308.987,343.200 308.599,343.200 306.788 C 343.200 304.869,343.119 304.700,342.000 304.278 C 341.340 304.028,340.779 303.639,340.754 303.412 C 340.728 303.186,340.683 302.730,340.654 302.400 C 340.624 302.070,340.024 301.630,339.319 301.423 C 338.383 301.147,338.006 300.778,337.919 300.054 C 337.827 299.291,337.525 299.026,336.607 298.905 C 335.160 298.714,335.027 298.596,335.012 297.484 C 334.999 296.543,333.908 296.137,331.147 296.047 C 330.056 296.012,329.641 295.802,329.485 295.205 C 329.155 293.942,327.519 293.600,321.801 293.600 C 316.952 293.600,316.432 293.531,316.219 292.861 C 315.649 291.065,314.971 291.006,293.281 290.886 L 272.762 290.772 271.481 291.667 C 270.777 292.159,270.090 292.720,269.956 292.913 C 269.529 293.529,269.200 290.826,269.194 286.650 C 269.190 284.423,268.927 281.520,268.608 280.200 C 267.775 276.750,267.819 272.704,268.700 271.659 C 269.392 270.840,269.683 270.828,293.000 270.715 C 316.405 270.601,316.614 270.593,318.268 269.723 C 319.185 269.241,321.209 268.583,322.765 268.261 C 324.600 267.881,326.029 267.310,326.828 266.637 C 327.507 266.067,328.518 265.485,329.075 265.346 C 330.041 265.103,333.600 261.906,333.600 261.281 C 333.600 261.117,334.112 260.356,334.739 259.591 C 336.201 257.804,336.634 256.936,336.958 255.142 C 337.102 254.340,337.756 253.011,338.410 252.187 C 339.065 251.364,339.600 250.554,339.600 250.387 C 339.600 249.696,340.425 241.684,340.639 240.300 C 340.839 239.000,341.013 238.800,341.935 238.800 C 343.160 238.800,343.855 232.262,342.707 231.534 C 342.307 231.280,342.305 231.211,342.700 231.206 C 342.975 231.203,343.200 231.014,343.200 230.786 C 343.200 230.511,342.958 230.501,342.478 230.758 C 341.155 231.466,340.928 230.723,340.840 225.400 C 340.792 222.540,340.593 220.143,340.397 220.073 C 338.870 219.531,338.000 218.256,338.000 216.561 C 338.000 214.909,337.914 214.763,336.822 214.544 C 335.939 214.368,335.581 214.025,335.395 213.175 C 335.170 212.152,334.964 212.030,333.278 211.921 C 331.674 211.817,331.298 211.620,330.606 210.520 C 330.163 209.816,329.620 209.253,329.400 209.268 C 324.998 209.567,322.562 209.163,322.147 208.065 L 321.719 206.930 311.169 206.652 C 300.927 206.383,265.106 206.666,263.306 207.031 C 262.770 207.140,262.312 207.610,262.163 208.206 L 261.913 209.200 256.557 209.200 L 251.200 209.200 251.153 206.300 C 251.127 204.705,251.127 203.265,251.153 203.100 C 251.232 202.597,250.480 202.766,250.265 203.300 C 250.151 203.583,250.049 203.478,250.032 203.057 C 250.011 202.576,249.794 202.393,249.415 202.539 C 248.987 202.703,248.765 202.365,248.591 201.282 C 248.460 200.467,248.011 198.630,247.594 197.200 C 245.133 188.758,246.142 187.837,259.200 186.608 C 262.830 186.266,267.656 185.629,269.925 185.192 C 281.372 182.989,325.991 183.140,332.814 185.405 C 333.812 185.736,336.132 186.272,337.971 186.595 C 339.810 186.918,341.713 187.444,342.201 187.764 C 342.689 188.084,344.100 188.639,345.337 188.999 C 346.573 189.358,347.700 189.838,347.840 190.064 C 347.979 190.290,349.198 190.976,350.547 191.589 C 354.931 193.578,360.771 199.436,363.317 204.400 C 363.825 205.390,364.612 206.792,365.065 207.515 C 365.524 208.247,366.000 209.888,366.139 211.220 C 366.276 212.534,366.796 214.373,367.294 215.305 C 368.707 217.950,368.061 240.784,366.557 241.361 C 366.218 241.491,366.115 241.326,366.258 240.880 C 366.397 240.444,366.161 240.559,365.603 241.200 C 365.123 241.750,364.863 241.930,365.024 241.600 C 365.273 241.090,365.233 241.083,364.759 241.550 C 364.324 241.978,364.312 242.141,364.702 242.284 C 364.979 242.385,365.080 242.670,364.927 242.918 C 364.775 243.165,364.694 245.070,364.749 247.151 C 364.877 252.050,364.571 253.862,363.571 254.124 C 363.146 254.235,362.888 254.181,362.997 254.005 C 363.106 253.828,362.919 253.578,362.582 253.448 C 362.223 253.311,361.994 253.418,362.031 253.706 C 362.440 256.885,361.967 259.144,360.841 259.391 C 359.582 259.667,359.215 260.446,359.205 262.850 C 359.201 264.139,359.067 264.327,358.000 264.540 C 356.998 264.740,356.800 264.971,356.800 265.940 C 356.800 266.901,356.600 267.140,355.636 267.333 C 354.750 267.510,354.408 267.851,354.209 268.759 C 354.008 269.674,353.696 269.981,352.873 270.076 C 352.044 270.172,351.772 270.445,351.676 271.276 C 351.573 272.162,351.325 272.375,350.276 272.476 C 349.574 272.544,348.978 272.825,348.950 273.100 C 348.923 273.375,348.878 273.951,348.850 274.381 C 348.807 275.053,348.452 275.178,346.300 275.281 C 343.904 275.395,343.795 275.446,343.673 276.500 C 343.547 277.598,343.540 277.600,340.347 277.600 C 335.822 277.600,335.600 277.776,335.600 281.365 C 335.600 283.249,335.779 284.436,336.100 284.676 C 336.622 285.066,336.908 285.065,344.400 284.639 C 348.454 284.408,349.166 284.466,350.400 285.130 C 351.170 285.544,352.520 286.115,353.400 286.399 C 354.280 286.683,355.540 287.344,356.200 287.867 C 360.319 291.131,363.247 293.743,363.651 294.512 C 363.908 295.001,364.631 295.991,365.259 296.714 C 365.886 297.437,366.400 298.221,366.400 298.456 C 366.400 298.692,366.845 299.414,367.389 300.060 C 367.934 300.707,368.575 301.993,368.814 302.918 C 369.053 303.843,369.594 305.083,370.017 305.673 C 370.443 306.270,370.976 308.047,371.217 309.673 C 371.454 311.283,372.043 313.770,372.524 315.200 C 373.316 317.551,373.393 318.527,373.328 325.400 C 373.180 341.191,372.362 346.368,370.310 344.516 C 369.659 343.929,369.625 344.265,369.710 350.447 L 369.800 357.000 368.522 356.965 C 367.819 356.946,367.255 357.036,367.269 357.165 C 367.557 359.800,367.119 362.051,366.255 362.379 C 364.763 362.946,364.270 365.062,365.409 366.008 C 365.926 366.437,365.975 366.399,365.734 365.757 C 365.481 365.082,365.525 365.061,366.142 365.563 C 366.666 365.990,366.946 366.014,367.297 365.663 C 367.552 365.408,368.250 365.200,368.848 365.200 C 369.715 365.200,369.987 364.972,370.182 364.080 C 370.318 363.465,371.259 362.160,372.274 361.180 C 373.289 360.201,375.796 357.420,377.845 355.000 C 379.894 352.580,382.014 350.150,382.558 349.600 C 383.101 349.050,383.665 348.112,383.812 347.515 C 383.959 346.918,384.510 346.000,385.036 345.474 C 385.561 344.948,386.253 343.892,386.573 343.127 C 386.892 342.362,387.424 341.512,387.755 341.237 C 388.086 340.963,388.659 339.826,389.029 338.711 C 389.400 337.596,390.117 336.074,390.623 335.329 C 391.128 334.583,391.664 333.394,391.812 332.687 C 391.960 331.979,392.580 330.405,393.190 329.189 C 393.877 327.817,394.462 325.757,394.730 323.764 C 395.153 320.619,395.462 319.603,396.594 317.620 C 396.902 317.081,397.245 315.551,397.357 314.220 C 398.419 301.609,398.491 301.101,399.255 300.902 C 400.255 300.640,400.447 74.000,399.447 74.000 C 398.638 74.000,398.506 73.051,398.708 68.682 C 399.007 62.228,398.593 59.706,397.186 59.397 L 396.029 59.143 395.915 55.471 C 395.806 51.979,395.755 51.794,394.876 51.669 C 393.794 51.516,393.599 51.111,393.256 48.297 C 393.022 46.381,392.905 46.189,391.900 46.073 C 390.856 45.953,390.800 45.840,390.800 43.853 C 390.800 41.565,390.329 40.800,388.920 40.800 C 388.084 40.800,388.000 40.619,388.000 38.829 C 388.000 36.848,387.313 35.600,386.221 35.600 C 385.935 35.600,385.591 35.056,385.458 34.392 C 385.269 33.447,384.953 33.131,384.008 32.942 C 383.000 32.740,382.800 32.510,382.800 31.550 C 382.800 30.539,382.655 30.400,381.600 30.400 C 380.684 30.400,380.400 30.219,380.400 29.633 C 380.400 28.177,379.934 27.600,378.757 27.600 C 377.738 27.600,377.600 27.457,377.600 26.400 C 377.600 25.670,377.392 25.200,377.070 25.200 C 376.426 25.200,374.800 23.534,374.800 22.874 C 374.800 22.613,374.260 22.400,373.600 22.400 C 372.543 22.400,372.400 22.262,372.400 21.243 C 372.400 20.066,371.823 19.600,370.367 19.600 C 369.781 19.600,369.600 19.316,369.600 18.400 C 369.600 17.331,369.468 17.200,368.390 17.200 C 367.374 17.200,367.143 17.014,366.947 16.035 C 366.708 14.838,365.942 14.416,363.986 14.405 C 363.287 14.402,362.752 14.027,362.264 13.200 C 361.738 12.311,361.258 12.000,360.409 12.000 C 359.472 12.000,359.218 11.790,359.010 10.846 C 358.746 9.644,357.712 9.200,355.182 9.200 C 354.265 9.200,354.016 8.984,353.800 8.000 C 353.564 6.924,353.380 6.800,352.018 6.800 C 349.702 6.800,348.000 6.360,348.000 5.760 C 348.000 4.642,345.757 4.000,341.846 4.000 L 338.053 4.000 337.927 2.916 C 337.762 1.509,336.924 1.290,331.500 1.240 C 327.962 1.207,327.200 1.094,327.200 0.600 C 327.200 0.068,312.800 0.000,200.000 0.000 C 87.200 0.000,72.800 0.068,72.800 0.600 " stroke="none" fill="#a1ca00" fill-rule="evenodd"></path><path id="path1" d="M0.000 70.400 C 0.000 72.622,0.124 73.200,0.600 73.200 C 1.076 73.200,1.200 72.622,1.200 70.400 C 1.200 68.178,1.076 67.600,0.600 67.600 C 0.124 67.600,0.000 68.178,0.000 70.400 M398.737 68.900 C 398.703 69.615,398.639 70.731,398.596 71.381 C 398.485 73.036,398.798 74.000,399.447 74.000 C 399.872 74.000,400.000 73.258,400.000 70.800 C 400.000 67.467,398.887 65.792,398.737 68.900 M282.074 184.011 C 277.350 184.219,272.687 184.668,270.074 185.167 C 267.723 185.616,262.830 186.264,259.200 186.606 C 246.141 187.838,245.133 188.758,247.594 197.200 C 248.011 198.630,248.460 200.467,248.591 201.282 C 248.765 202.365,248.987 202.703,249.415 202.539 C 249.782 202.398,250.000 202.559,250.000 202.973 C 250.000 203.517,250.098 203.542,250.562 203.116 C 250.871 202.832,251.119 202.510,251.114 202.400 C 251.066 201.344,251.373 201.197,253.700 201.160 C 256.937 201.109,258.114 200.766,258.571 199.743 C 259.010 198.758,263.018 198.400,273.612 198.400 C 280.924 198.400,282.028 198.237,283.415 196.951 L 284.441 196.000 302.778 196.000 C 317.752 196.000,321.152 196.098,321.320 196.537 C 321.798 197.782,324.228 198.400,328.660 198.404 C 334.199 198.410,335.911 198.690,336.212 199.638 C 336.501 200.548,338.697 201.195,341.510 201.198 C 343.371 201.200,343.663 201.314,343.987 202.166 C 344.369 203.171,344.783 203.377,347.329 203.829 C 348.401 204.019,348.960 204.369,349.200 205.001 C 349.389 205.496,350.096 206.095,350.771 206.330 C 351.447 206.566,352.000 207.041,352.000 207.386 C 352.000 207.731,352.628 208.312,353.396 208.679 C 354.164 209.045,354.893 209.663,355.016 210.052 C 355.140 210.441,355.592 210.870,356.020 211.006 C 356.476 211.151,356.803 211.616,356.806 212.127 C 356.814 213.276,357.212 213.834,358.256 214.159 C 358.949 214.375,359.164 214.858,359.389 216.713 C 359.597 218.425,359.948 219.301,360.787 220.200 C 361.893 221.385,361.910 221.478,362.102 227.620 C 362.300 233.964,362.654 235.517,364.189 236.791 C 364.682 237.200,364.770 237.724,364.571 239.057 C 364.184 241.634,364.616 242.481,365.662 241.197 C 366.156 240.591,366.389 240.466,366.258 240.880 C 366.115 241.326,366.218 241.491,366.557 241.361 C 368.061 240.784,368.707 217.950,367.294 215.305 C 366.796 214.373,366.276 212.534,366.139 211.220 C 366.000 209.888,365.524 208.247,365.065 207.515 C 364.612 206.792,363.825 205.390,363.317 204.400 C 360.771 199.436,354.931 193.578,350.547 191.589 C 349.198 190.976,347.979 190.290,347.840 190.064 C 347.700 189.838,346.573 189.358,345.337 188.999 C 344.100 188.639,342.689 188.084,342.201 187.764 C 341.713 187.444,339.810 186.918,337.971 186.595 C 336.132 186.272,333.812 185.736,332.814 185.405 C 328.391 183.936,300.942 183.182,282.074 184.011 M130.714 188.700 C 129.904 189.540,129.075 190.925,128.832 191.848 C 128.593 192.754,128.030 193.962,127.582 194.533 C 127.133 195.103,126.503 196.455,126.182 197.537 C 125.860 198.619,125.326 199.729,124.995 200.004 C 124.663 200.280,124.115 201.458,123.776 202.624 C 123.437 203.790,122.788 205.215,122.334 205.792 C 121.881 206.370,121.265 207.651,120.968 208.641 C 120.670 209.631,120.061 210.905,119.614 211.473 C 119.168 212.040,118.605 213.246,118.364 214.152 C 118.123 215.058,117.670 216.087,117.358 216.437 C 117.045 216.788,116.344 218.211,115.800 219.600 C 115.256 220.989,114.561 222.412,114.256 222.763 C 113.952 223.113,113.400 224.331,113.029 225.469 C 112.659 226.607,112.094 227.756,111.774 228.022 C 111.454 228.287,110.915 229.458,110.576 230.624 C 110.237 231.790,109.603 233.197,109.167 233.751 C 108.731 234.306,108.130 235.569,107.832 236.559 C 107.535 237.549,106.911 238.841,106.447 239.431 C 105.983 240.022,105.405 241.240,105.163 242.138 C 104.921 243.037,104.380 244.208,103.961 244.741 C 103.541 245.274,102.928 246.619,102.598 247.730 C 102.269 248.841,101.656 250.121,101.238 250.575 C 100.819 251.029,100.287 252.099,100.056 252.953 C 99.824 253.807,99.191 255.157,98.648 255.953 C 98.106 256.749,97.467 258.142,97.229 259.048 C 96.992 259.954,96.430 261.162,95.982 261.733 C 95.533 262.303,94.903 263.655,94.582 264.737 C 94.260 265.819,93.738 266.920,93.421 267.183 C 93.103 267.446,92.541 268.593,92.171 269.731 C 91.800 270.869,91.248 272.087,90.944 272.437 C 90.639 272.788,89.944 274.211,89.400 275.600 C 88.856 276.989,88.161 278.412,87.856 278.763 C 87.552 279.113,87.000 280.331,86.629 281.469 C 86.259 282.607,85.694 283.756,85.374 284.022 C 85.054 284.287,84.515 285.458,84.176 286.624 C 83.837 287.790,83.235 289.161,82.839 289.672 C 82.442 290.182,81.812 291.531,81.437 292.669 C 81.063 293.807,80.506 294.946,80.200 295.200 C 79.894 295.454,79.341 296.574,78.971 297.689 C 78.600 298.804,77.883 300.326,77.377 301.071 C 76.872 301.817,76.332 302.999,76.178 303.698 C 76.025 304.397,75.469 305.619,74.943 306.414 C 72.859 309.564,71.772 319.196,73.337 320.647 C 74.070 321.327,74.451 322.192,74.638 323.604 C 74.844 325.156,75.062 325.600,75.619 325.600 C 76.012 325.600,76.619 325.709,76.967 325.843 C 77.514 326.053,77.600 325.618,77.600 322.643 C 77.600 319.487,77.666 319.200,78.386 319.200 C 79.414 319.200,80.000 318.045,80.000 316.022 C 80.000 314.861,80.239 314.192,80.832 313.696 C 82.027 312.696,82.800 311.045,82.800 309.496 C 82.800 308.552,83.146 307.798,83.960 306.965 C 84.849 306.056,85.187 305.245,85.406 303.489 C 85.591 302.011,85.878 301.200,86.218 301.200 C 87.304 301.200,88.000 299.955,88.000 298.011 C 88.000 296.232,88.093 296.046,89.177 295.668 C 90.256 295.292,90.377 295.055,90.629 292.829 C 90.854 290.839,91.036 290.400,91.638 290.400 C 92.638 290.400,93.200 289.203,93.200 287.070 C 93.200 285.521,93.326 285.255,94.160 285.046 C 95.239 284.775,96.000 283.076,96.000 280.940 C 96.000 280.039,96.189 279.600,96.577 279.600 C 97.486 279.600,98.400 277.963,98.400 276.334 C 98.400 275.275,98.643 274.675,99.239 274.257 C 100.434 273.421,101.200 271.753,101.200 269.990 C 101.200 268.807,101.455 268.256,102.354 267.500 C 103.107 266.866,103.600 265.986,103.772 264.964 C 103.919 264.098,104.565 262.793,105.218 262.045 C 106.212 260.907,106.400 260.350,106.400 258.546 C 106.400 256.713,106.510 256.400,107.151 256.400 C 108.265 256.400,108.800 255.522,109.068 253.252 C 109.258 251.649,109.488 251.163,110.155 250.956 C 111.345 250.584,111.587 250.068,111.594 247.879 C 111.599 246.124,111.699 245.924,112.755 245.556 C 113.947 245.140,114.400 244.038,114.400 241.550 C 114.400 240.820,114.609 240.400,114.971 240.400 C 116.018 240.400,116.800 239.180,116.800 237.549 C 116.800 236.275,117.050 235.726,118.045 234.818 C 118.994 233.951,119.339 233.239,119.499 231.817 C 119.649 230.486,120.032 229.630,120.834 228.827 C 121.643 228.018,122.034 227.136,122.227 225.681 C 122.425 224.190,122.798 223.368,123.648 222.554 C 124.659 221.586,124.800 221.165,124.800 219.125 C 124.800 216.906,124.846 216.800,125.810 216.800 C 126.999 216.800,127.600 215.582,127.600 213.174 C 127.600 211.925,127.749 211.600,128.320 211.600 C 129.524 211.600,130.000 210.740,130.000 208.563 C 130.000 206.674,130.092 206.464,131.014 206.232 C 132.148 205.948,132.800 204.633,132.800 202.630 C 132.800 200.970,133.794 200.809,144.068 200.803 L 151.136 200.800 151.395 199.625 C 151.554 198.898,152.005 198.325,152.574 198.125 C 154.198 197.552,157.618 193.401,158.190 191.306 C 158.476 190.258,158.839 189.088,158.996 188.706 C 159.531 187.404,157.590 187.200,144.655 187.200 L 132.162 187.200 130.714 188.700 M277.919 206.698 C 279.744 206.772,282.624 206.772,284.319 206.697 C 286.014 206.622,284.520 206.561,281.000 206.562 C 277.480 206.562,276.094 206.624,277.919 206.698 M310.100 206.694 C 311.145 206.776,312.855 206.776,313.900 206.694 C 314.945 206.612,314.090 206.544,312.000 206.544 C 309.910 206.544,309.055 206.612,310.100 206.694 M183.299 226.282 C 181.873 226.557,181.491 227.846,181.409 232.649 C 181.355 235.866,181.163 237.400,180.730 238.068 C 179.828 239.461,179.630 240.615,179.201 246.991 C 178.880 251.745,178.644 253.127,177.915 254.508 C 177.096 256.059,177.037 256.599,177.211 261.000 C 177.746 274.585,177.346 314.904,176.671 315.397 C 175.763 316.061,114.719 316.646,110.600 316.030 C 106.818 315.465,104.797 314.858,104.550 314.214 C 104.437 313.920,103.727 313.563,102.972 313.421 C 102.218 313.280,101.600 312.979,101.600 312.754 C 101.600 312.529,101.200 312.402,100.710 312.472 C 98.131 312.843,98.010 323.415,100.573 324.390 C 101.082 324.583,101.610 325.187,101.747 325.731 C 102.016 326.803,103.685 327.600,105.660 327.600 C 106.381 327.600,106.800 327.810,106.800 328.171 C 106.800 330.056,105.707 330.000,142.603 330.000 C 178.704 330.000,178.920 329.990,179.597 328.207 C 179.808 327.653,180.227 327.200,180.528 327.200 C 182.667 327.200,182.590 328.477,182.713 290.863 L 182.826 256.210 183.884 255.366 C 185.016 254.463,185.509 250.777,185.575 242.705 C 185.614 237.918,185.466 238.000,194.089 238.000 L 201.200 238.000 201.200 279.941 C 201.200 326.727,201.200 326.718,202.853 327.343 C 203.515 327.592,204.141 328.229,204.369 328.884 L 204.758 330.000 216.179 330.000 L 227.600 330.000 227.600 332.733 L 227.600 335.466 229.002 335.896 C 230.691 336.414,230.715 336.354,230.932 331.000 C 231.012 329.020,231.275 326.680,231.516 325.800 C 232.136 323.538,232.330 320.027,231.919 318.513 C 231.218 315.931,231.602 316.000,217.851 316.000 C 208.669 316.000,205.233 315.873,204.880 315.520 C 204.103 314.743,204.207 236.369,204.988 234.200 C 205.854 231.797,205.786 227.492,204.869 226.662 C 204.165 226.026,186.268 225.711,183.299 226.282 M340.925 229.149 C 340.948 230.818,341.439 231.314,342.502 230.745 C 343.637 230.138,343.278 228.327,341.953 227.975 C 340.963 227.713,340.907 227.776,340.925 229.149 M342.988 237.300 C 343.228 238.751,343.198 238.800,342.053 238.800 C 340.994 238.800,340.846 238.957,340.639 240.300 C 340.425 241.684,339.600 249.696,339.600 250.387 C 339.600 250.554,339.065 251.364,338.410 252.187 C 337.756 253.011,337.102 254.340,336.958 255.142 C 336.634 256.936,336.201 257.804,334.739 259.591 C 334.112 260.356,333.600 261.117,333.600 261.281 C 333.600 261.906,330.041 265.103,329.075 265.346 C 328.518 265.485,327.507 266.067,326.828 266.637 C 326.029 267.310,324.600 267.881,322.765 268.261 C 321.209 268.583,319.185 269.241,318.268 269.723 C 316.614 270.593,316.405 270.601,293.000 270.715 C 269.683 270.828,269.392 270.840,268.700 271.659 C 267.819 272.704,267.775 276.750,268.608 280.200 C 268.927 281.520,269.208 284.580,269.234 287.000 C 269.271 290.524,269.787 294.781,269.960 292.986 C 269.982 292.759,270.540 292.254,271.200 291.864 C 272.362 291.177,272.400 291.061,272.400 288.177 L 272.400 285.200 290.974 285.200 C 309.980 285.200,310.959 285.128,312.600 283.604 C 313.278 282.974,314.204 282.841,318.675 282.730 C 323.822 282.603,323.978 282.573,325.112 281.485 C 325.801 280.824,326.912 280.274,327.838 280.134 C 328.732 279.998,329.913 279.427,330.600 278.796 C 331.260 278.190,332.475 277.480,333.300 277.216 C 334.329 276.888,334.875 276.442,335.037 275.795 C 335.175 275.244,335.733 274.693,336.379 274.467 C 337.155 274.197,337.556 273.722,337.725 272.873 C 337.872 272.138,338.290 271.562,338.790 271.403 C 339.633 271.136,340.800 268.898,340.800 267.551 C 340.800 267.138,340.980 266.800,341.200 266.800 C 342.801 266.800,343.200 265.323,343.200 259.400 C 343.200 255.800,343.352 253.600,343.600 253.600 C 345.876 253.600,346.668 243.275,344.600 240.564 C 344.050 239.843,343.597 238.746,343.594 238.127 C 343.591 237.507,343.397 236.730,343.164 236.400 C 342.849 235.954,342.804 236.184,342.988 237.300 M363.295 243.196 C 362.134 245.056,361.589 253.067,362.598 253.454 C 362.926 253.581,363.106 253.828,362.997 254.005 C 362.888 254.181,363.146 254.235,363.571 254.124 C 364.571 253.862,364.877 252.050,364.749 247.151 C 364.694 245.070,364.784 243.149,364.948 242.883 C 365.140 242.573,364.987 242.400,364.520 242.400 C 364.120 242.400,363.569 242.758,363.295 243.196 M335.939 284.300 C 335.906 284.465,335.836 284.780,335.785 285.000 C 335.734 285.220,335.672 285.625,335.646 285.900 C 335.621 286.175,335.336 286.400,335.014 286.400 C 333.549 286.400,333.247 290.077,334.618 291.215 C 334.946 291.487,335.508 292.329,335.867 293.085 C 336.907 295.276,338.019 295.756,342.465 295.935 C 345.389 296.052,346.400 296.229,346.400 296.624 C 346.400 297.494,348.073 298.400,349.679 298.400 C 350.928 298.400,351.279 298.593,351.776 299.553 C 352.192 300.358,352.780 300.782,353.728 300.960 C 354.551 301.114,355.584 301.763,356.352 302.607 C 357.049 303.373,357.975 304.000,358.410 304.000 C 358.911 304.000,359.200 304.270,359.200 304.739 C 359.200 305.928,360.447 308.087,361.255 308.299 C 361.762 308.431,362.000 308.858,362.000 309.633 C 362.000 310.359,362.434 311.217,363.198 311.998 C 364.141 312.963,364.450 313.710,364.653 315.512 C 364.967 318.314,365.391 319.200,366.414 319.200 C 367.151 319.200,367.202 319.504,367.225 324.100 C 367.261 331.348,367.663 334.547,368.714 335.969 C 369.463 336.982,369.600 337.687,369.600 340.522 C 369.600 344.312,370.292 345.658,371.707 344.620 C 373.349 343.416,374.010 319.612,372.524 315.200 C 372.043 313.770,371.454 311.283,371.217 309.673 C 370.976 308.047,370.443 306.270,370.017 305.673 C 369.594 305.083,369.053 303.843,368.814 302.918 C 368.575 301.993,367.934 300.707,367.389 300.060 C 366.845 299.414,366.400 298.692,366.400 298.456 C 366.400 298.221,365.886 297.437,365.259 296.714 C 364.631 295.991,363.908 295.001,363.651 294.512 C 363.247 293.743,360.319 291.131,356.200 287.867 C 355.540 287.344,354.280 286.683,353.400 286.399 C 352.520 286.115,351.170 285.544,350.400 285.130 C 349.166 284.466,348.455 284.408,344.400 284.639 C 337.176 285.051,336.188 285.032,336.300 284.487 C 336.355 284.219,336.310 284.000,336.200 284.000 C 336.090 284.000,335.973 284.135,335.939 284.300 M398.667 301.100 C 398.510 301.362,398.011 306.348,397.355 314.220 C 397.244 315.551,396.902 317.081,396.594 317.620 C 395.462 319.603,395.153 320.619,394.730 323.764 C 394.462 325.757,393.877 327.817,393.190 329.189 C 392.580 330.405,391.960 331.979,391.812 332.687 C 391.664 333.394,391.128 334.583,390.623 335.329 C 390.117 336.074,389.400 337.596,389.029 338.711 C 388.659 339.826,388.086 340.963,387.755 341.237 C 387.424 341.512,386.892 342.362,386.573 343.127 C 386.253 343.892,385.561 344.948,385.036 345.474 C 384.510 346.000,383.959 346.918,383.812 347.515 C 383.665 348.112,383.101 349.050,382.558 349.600 C 382.014 350.150,379.894 352.580,377.845 355.000 C 375.796 357.420,373.289 360.201,372.274 361.180 C 371.259 362.160,370.318 363.465,370.182 364.080 C 369.987 364.972,369.715 365.200,368.848 365.200 C 368.250 365.200,367.552 365.408,367.297 365.663 C 366.946 366.014,366.666 365.990,366.142 365.563 C 365.525 365.061,365.481 365.082,365.734 365.757 C 365.964 366.368,365.912 366.425,365.467 366.055 C 364.787 365.491,364.305 369.918,364.733 372.796 C 364.971 374.398,365.130 374.615,366.195 374.799 C 366.976 374.934,367.443 375.283,367.541 375.803 C 367.940 377.904,372.000 377.669,372.000 375.545 C 372.000 375.054,372.380 374.814,373.300 374.725 C 374.383 374.621,374.621 374.417,374.727 373.500 C 374.814 372.742,375.083 372.400,375.594 372.400 C 376.615 372.400,377.600 371.986,377.600 371.557 C 377.600 371.084,379.098 369.600,379.575 369.600 C 379.781 369.600,380.006 369.016,380.075 368.302 C 380.180 367.209,380.390 366.971,381.400 366.800 C 382.334 366.641,382.627 366.363,382.722 365.544 C 382.815 364.747,383.124 364.435,383.994 364.261 C 384.882 364.084,385.173 363.779,385.272 362.925 C 385.353 362.226,385.764 361.638,386.388 361.329 C 387.553 360.751,387.934 359.934,387.972 357.927 C 387.997 356.625,388.128 356.438,389.100 356.327 C 389.949 356.229,390.287 355.903,390.583 354.900 C 390.793 354.185,391.188 353.600,391.460 353.600 C 392.329 353.600,393.200 351.875,393.200 350.154 C 393.200 348.717,393.336 348.453,394.182 348.240 C 395.216 347.981,395.993 346.122,395.998 343.900 C 395.999 343.209,396.215 342.800,396.577 342.800 C 397.628 342.800,398.400 341.116,398.405 338.811 C 398.412 336.044,398.735 334.800,399.447 334.800 C 399.909 334.800,400.000 332.007,400.000 317.800 C 400.000 300.854,399.861 299.111,398.667 301.100 M0.000 319.971 C 0.000 332.330,0.092 334.800,0.553 334.800 C 1.265 334.800,1.588 336.044,1.595 338.811 C 1.600 341.070,2.369 342.800,3.367 342.800 C 3.705 342.800,3.969 343.581,4.118 345.028 C 4.370 347.472,4.902 348.400,6.049 348.400 C 6.667 348.400,6.800 348.704,6.800 350.111 C 6.800 351.895,7.666 353.600,8.573 353.600 C 8.863 353.600,9.210 354.149,9.344 354.821 C 9.478 355.492,10.111 356.481,10.749 357.019 C 11.433 357.594,12.017 358.566,12.170 359.383 C 12.353 360.356,12.755 360.926,13.515 361.289 C 14.241 361.634,14.642 362.175,14.728 362.919 C 14.827 363.780,15.116 364.083,16.006 364.261 C 16.868 364.434,17.186 364.749,17.278 365.522 C 17.370 366.303,17.710 366.634,18.674 366.882 C 19.664 367.136,19.976 367.453,20.074 368.305 C 20.172 369.157,20.439 369.428,21.276 369.524 C 22.107 369.620,22.380 369.893,22.476 370.724 C 22.570 371.543,22.907 371.890,23.881 372.177 C 24.833 372.458,25.192 372.817,25.281 373.577 C 25.371 374.352,25.660 374.630,26.473 374.724 C 27.296 374.819,27.608 375.126,27.809 376.041 C 28.003 376.925,28.354 377.291,29.161 377.452 C 29.893 377.599,30.395 378.053,30.691 378.835 C 31.022 379.712,31.389 380.000,32.175 380.000 C 32.923 380.000,33.328 380.286,33.603 381.007 C 34.019 382.103,35.408 382.800,37.176 382.800 C 38.094 382.800,38.342 383.011,38.530 383.952 C 38.730 384.952,38.989 385.137,40.494 385.363 C 41.739 385.550,42.505 385.958,43.210 386.812 C 43.924 387.676,44.539 388.000,45.469 388.000 C 46.360 388.000,46.817 388.224,46.981 388.739 C 47.299 389.743,48.822 390.373,51.648 390.668 C 53.681 390.881,54.081 391.061,54.510 391.958 C 54.988 392.957,55.162 393.005,58.767 393.116 C 62.313 393.225,62.616 393.304,64.146 394.516 C 65.738 395.777,65.855 395.803,70.584 395.938 C 75.238 396.071,75.429 396.111,76.262 397.138 L 77.124 398.200 92.462 398.509 C 100.898 398.678,123.747 398.768,143.239 398.709 C 181.023 398.593,179.790 398.660,180.076 396.687 C 180.152 396.165,180.580 395.744,181.178 395.604 C 182.764 395.232,182.838 394.014,182.716 370.151 C 182.604 348.296,182.574 347.516,181.824 346.968 C 180.644 346.105,180.090 346.279,179.799 347.603 C 179.654 348.265,179.370 348.705,179.167 348.580 C 178.965 348.455,178.800 348.543,178.800 348.776 C 178.800 349.009,178.591 349.155,178.335 349.100 C 177.414 348.902,177.279 351.267,177.240 368.286 C 177.201 384.945,177.172 385.587,176.426 385.986 C 174.333 387.106,97.492 386.271,89.600 385.042 C 87.510 384.717,84.000 384.337,81.800 384.198 C 75.249 383.783,71.905 383.292,70.000 382.462 C 69.010 382.031,66.594 381.470,64.631 381.215 C 62.667 380.960,60.057 380.333,58.831 379.822 C 57.604 379.310,55.970 378.762,55.200 378.603 C 54.430 378.444,53.260 377.987,52.600 377.587 C 51.940 377.188,50.381 376.481,49.136 376.016 C 47.891 375.550,46.662 374.916,46.404 374.605 C 46.147 374.295,45.275 373.830,44.468 373.571 C 43.661 373.313,42.640 372.790,42.200 372.408 C 41.760 372.027,40.770 371.374,40.000 370.958 C 39.230 370.541,38.009 369.705,37.286 369.100 C 36.563 368.495,35.825 368.000,35.645 368.000 C 35.466 368.000,34.774 367.505,34.109 366.900 C 33.444 366.295,32.132 365.170,31.193 364.400 C 27.538 361.403,25.362 359.242,21.933 355.200 C 19.973 352.890,17.949 350.539,17.434 349.976 C 16.920 349.412,16.181 348.332,15.793 347.576 C 15.405 346.819,14.663 345.691,14.144 345.069 C 13.625 344.447,13.200 343.696,13.200 343.400 C 13.200 343.104,12.748 342.324,12.195 341.667 C 11.642 341.010,10.945 339.778,10.645 338.928 C 10.345 338.078,9.643 336.709,9.084 335.886 C 8.526 335.063,7.948 333.674,7.800 332.800 C 7.652 331.926,7.102 330.577,6.576 329.803 C 5.933 328.856,5.428 327.194,5.030 324.722 C 4.636 322.277,4.144 320.650,3.558 319.858 C 2.882 318.943,2.596 317.779,2.324 314.833 C 1.478 305.662,1.436 305.416,0.700 305.275 C 0.044 305.150,0.000 306.063,0.000 319.971 M345.848 323.700 C 345.723 325.735,345.511 329.560,345.378 332.200 C 345.152 336.671,344.451 339.600,343.606 339.600 C 343.253 339.600,342.586 342.009,342.008 345.374 C 341.779 346.703,341.256 348.115,340.819 348.580 C 340.390 349.037,339.739 350.128,339.373 351.005 C 338.789 352.407,338.164 353.259,335.600 356.148 C 334.581 357.297,330.291 360.400,329.722 360.400 C 329.425 360.400,328.512 360.835,327.691 361.367 C 326.851 361.913,324.735 362.627,322.842 363.006 C 320.996 363.374,318.746 363.944,317.842 364.271 C 313.605 365.807,275.472 365.753,265.200 364.197 C 263.110 363.881,257.931 363.400,253.692 363.130 C 243.407 362.474,243.952 361.810,244.419 374.414 C 244.500 376.598,244.360 377.701,243.912 378.414 C 243.573 378.957,243.178 380.746,243.036 382.391 C 242.894 384.036,242.594 385.566,242.369 385.791 C 241.935 386.226,206.960 386.618,205.300 386.208 L 204.400 385.985 204.400 368.248 C 204.400 349.416,204.258 346.615,203.322 346.975 C 202.966 347.111,202.864 347.020,203.045 346.727 C 203.234 346.421,203.113 346.348,202.687 346.511 C 202.162 346.713,202.011 346.408,201.878 344.879 C 201.746 343.376,201.711 343.520,201.702 345.600 C 201.696 347.030,201.574 348.483,201.430 348.829 C 200.748 350.472,201.379 395.404,202.100 396.504 C 203.472 398.597,203.416 398.591,221.200 398.732 C 242.449 398.902,245.126 398.733,245.664 397.189 C 245.909 396.486,246.501 395.904,247.229 395.650 L 248.400 395.242 248.402 389.521 C 248.404 386.374,248.517 382.360,248.654 380.600 L 248.903 377.400 267.751 377.536 C 282.501 377.642,286.730 377.785,287.200 378.193 C 288.066 378.944,290.548 379.238,297.894 379.459 L 304.388 379.654 305.340 378.627 L 306.292 377.600 313.896 377.600 C 323.097 377.600,323.970 377.464,324.546 375.938 C 324.957 374.848,325.086 374.800,327.588 374.795 C 331.005 374.787,331.960 374.499,332.238 373.390 C 332.399 372.751,332.857 372.403,333.762 372.234 C 334.551 372.085,335.401 371.524,335.940 370.795 C 336.426 370.138,337.083 369.600,337.399 369.600 C 338.145 369.600,340.800 366.945,340.800 366.199 C 340.800 365.883,341.340 365.225,342.000 364.737 C 342.835 364.119,343.200 363.510,343.200 362.732 C 343.200 361.877,343.432 361.557,344.193 361.366 C 345.282 361.093,345.994 359.301,345.998 356.819 C 345.999 355.810,346.344 355.083,347.278 354.120 L 348.555 352.802 348.561 337.042 C 348.567 320.468,348.518 320.000,346.788 320.000 C 346.171 320.000,346.044 320.501,345.848 323.700 M78.456 328.766 C 78.975 329.187,79.490 329.442,79.599 329.333 C 79.834 329.100,78.415 328.000,77.879 328.000 C 77.677 328.000,77.936 328.345,78.456 328.766 M369.684 348.900 C 369.638 349.285,369.424 349.600,369.209 349.600 C 368.316 349.600,367.583 351.612,367.406 354.554 C 367.263 356.922,367.333 357.564,367.710 357.327 C 367.979 357.158,368.516 357.072,368.903 357.136 C 369.911 357.301,370.047 356.626,369.899 352.172 C 369.827 349.987,369.730 348.515,369.684 348.900 " stroke="none" fill="#141314" fill-rule="evenodd">
</path>
</g>
</svg>