<svg width="24" height="24" viewBox="0 0 24 24" fill="none" xmlns="http://www.w3.org/2000/svg">
<path fill-rule="evenodd" clip-rule="evenodd" d="M6.50914 8.82899C6.66268 8.97095 6.74999 9.17057 6.74999 9.37969L6.74999 14.6045C6.74999 14.814 6.66236 15.0139 6.50831 15.1559C6.35426 15.2979 6.14784 15.369 5.93903 15.352L5.70349 15.3326C5.2657 15.2964 4.90238 14.98 4.8062 14.5516C4.42775 12.8662 4.42761 11.1172 4.80608 9.43168C4.90255 9.00205 5.26764 8.68537 5.70659 8.65057M6.50914 8.82899C6.35559 8.68703 5.91506 8.6342 5.70659 8.65057Z" fill="black"/>
<path fill-rule="evenodd" clip-rule="evenodd" d="M20.75 14V10C20.75 9.86193 20.6381 9.75 20.5 9.75H19.1C18.6858 9.75 18.35 9.41421 18.35 9V8.18967C18.35 7.70183 17.9747 7.29611 17.4883 7.25819L16.2198 7.15928C12.7452 6.88835 9.25478 6.88835 5.78017 7.15928L4.43257 7.26435C3.90973 7.30512 3.48188 7.69677 3.39518 8.21398C2.97496 10.7205 2.97496 13.2795 3.39518 15.786C3.48188 16.3032 3.90973 16.6949 4.43257 16.7356L5.78017 16.8407C9.25478 17.1116 12.7452 17.1116 16.2198 16.8407L17.4883 16.7418C17.9747 16.7039 18.35 16.2982 18.35 15.8103V15C18.35 14.5858 18.6858 14.25 19.1 14.25H20.5C20.6381 14.25 20.75 14.1381 20.75 14ZM22.25 10V14C22.25 14.9665 21.4665 15.75 20.5 15.75H19.85V15.8103C19.85 17.0814 18.8721 18.1385 17.6049 18.2373L16.3364 18.3362C12.7842 18.6132 9.2158 18.6132 5.66357 18.3362L4.31596 18.2311C3.10632 18.1368 2.11643 17.2306 1.91582 16.034C1.46808 13.3633 1.46808 10.6367 1.91582 7.96597C2.11643 6.76935 3.10632 5.86321 4.31597 5.76889L5.66357 5.66382C9.21579 5.38684 12.7842 5.38684 16.3364 5.66382L17.6049 5.76273C18.8721 5.86153 19.85 6.91863 19.85 8.18967V8.25H20.5C21.4665 8.25 22.25 9.0335 22.25 10Z" fill="black"/>
</svg>
