<svg width="24" height="24" viewBox="0 0 24 24" fill="none" xmlns="http://www.w3.org/2000/svg">
<path fill-rule="evenodd" clip-rule="evenodd" d="M20.75 14L20.75 10C20.75 9.86193 20.6381 9.75 20.5 9.75L19.1 9.75C18.6858 9.75 18.35 9.41421 18.35 9L18.35 8.18967C18.35 7.70183 17.9747 7.29611 17.4883 7.25819L16.2198 7.15928C12.7452 6.88835 9.25478 6.88835 5.78018 7.15928L4.43258 7.26435C3.90974 7.30512 3.48189 7.69677 3.39518 8.21398C2.97497 10.7205 2.97497 13.2795 3.39518 15.786C3.48189 16.3032 3.90974 16.6949 4.43257 16.7356L5.78018 16.8407C9.25479 17.1116 12.7452 17.1116 16.2198 16.8407L17.4883 16.7418C17.9747 16.7039 18.35 16.2982 18.35 15.8103L18.35 15C18.35 14.5858 18.6858 14.25 19.1 14.25L20.5 14.25C20.6381 14.25 20.75 14.1381 20.75 14ZM22.25 10L22.25 14C22.25 14.9665 21.4665 15.75 20.5 15.75L19.85 15.75L19.85 15.8103C19.85 17.0814 18.8721 18.1385 17.6049 18.2373L16.3364 18.3362C12.7842 18.6132 9.2158 18.6132 5.66357 18.3362L4.31597 18.2311C3.10632 18.1368 2.11644 17.2306 1.91583 16.034C1.46809 13.3633 1.46809 10.6367 1.91583 7.96597C2.11644 6.76935 3.10633 5.86321 4.31597 5.76889L5.66357 5.66382C9.2158 5.38684 12.7842 5.38684 16.3364 5.66382L17.6049 5.76273C18.8721 5.86153 19.85 6.91863 19.85 8.18967L19.85 8.25L20.5 8.25C21.4665 8.25 22.25 9.0335 22.25 10Z" fill="black"/>
</svg>
