<svg width="24" height="24" viewBox="0 0 24 24" fill="none" xmlns="http://www.w3.org/2000/svg">
<path d="M11.25 10C11.25 10.4142 11.5858 10.75 12 10.75C12.4142 10.75 12.75 10.4142 12.75 10V7C12.75 6.58579 12.4142 6.25 12 6.25C11.5858 6.25 11.25 6.58579 11.25 7V10Z" fill="black"/>
<path fill-rule="evenodd" clip-rule="evenodd" d="M18.75 9.07433C18.75 5.75284 16.3336 2.92496 13.0527 2.40693C12.3552 2.2968 11.6448 2.2968 10.9473 2.40693C7.6664 2.92496 5.25 5.75284 5.25 9.07433V14.9257C5.25 18.2472 7.6664 21.075 10.9473 21.5931C11.6448 21.7032 12.3552 21.7032 13.0527 21.5931C16.3336 21.075 18.75 18.2472 18.75 14.9257L18.75 9.07433ZM12.8188 3.88858C15.3706 4.29149 17.25 6.49095 17.25 9.07433L17.25 14.9257C17.25 17.5091 15.3706 19.7085 12.8188 20.1114C12.2763 20.1971 11.7237 20.1971 11.1812 20.1114C8.62942 19.7085 6.75 17.5091 6.75 14.9257L6.75 9.07433C6.75 6.49095 8.62943 4.29149 11.1812 3.88858C11.7237 3.80292 12.2763 3.80292 12.8188 3.88858Z" fill="black"/>
</svg>
