<svg width="24" height="24" viewBox="0 0 24 24" fill="none" xmlns="http://www.w3.org/2000/svg">
<path fill-rule="evenodd" clip-rule="evenodd" d="M13.0527 2.40693C16.3336 2.92495 18.75 5.75283 18.75 9.07432L18.75 14.9257C18.75 18.2472 16.3336 21.075 13.0527 21.5931C12.3552 21.7032 11.6448 21.7032 10.9473 21.5931C7.6664 21.075 5.25 18.2472 5.25 14.9257V9.07433C5.25 5.75283 7.6664 2.92495 10.9473 2.40693C11.6448 2.29679 12.3552 2.29679 13.0527 2.40693ZM17.25 9.07432C17.25 6.49094 15.3706 4.29148 12.8188 3.88857C12.7959 3.88495 12.773 3.88149 12.75 3.87817L12.75 9.25H17.25V9.07432ZM11.25 9.25H6.75V9.07433C6.75 6.49094 8.62943 4.29148 11.1812 3.88857C11.2041 3.88495 11.227 3.88149 11.25 3.87817L11.25 9.25ZM6.75 14.9257L6.75 10.75H17.25L17.25 14.9257C17.25 17.509 15.3706 19.7085 12.8188 20.1114C12.2763 20.1971 11.7237 20.1971 11.1812 20.1114C8.62942 19.7085 6.75 17.509 6.75 14.9257Z" fill="black"/>
</svg>
