<svg width="24" height="24" viewBox="0 0 24 24" fill="none" xmlns="http://www.w3.org/2000/svg">
<path d="M6 7.5C6 6.94772 6.44772 6.5 7 6.5C7.55229 6.5 8 6.94772 8 7.5C8 8.05228 7.55229 8.5 7 8.5C6.44772 8.5 6 8.05228 6 7.5Z" fill="black"/>
<path d="M9 7.5C9 6.94772 9.44771 6.5 10 6.5C10.5523 6.5 11 6.94772 11 7.5C11 8.05228 10.5523 8.5 10 8.5C9.44771 8.5 9 8.05228 9 7.5Z" fill="black"/>
<path d="M7 13.5C6.44772 13.5 6 13.9477 6 14.5C6 15.0523 6.44772 15.5 7 15.5C7.55229 15.5 8 15.0523 8 14.5C8 13.9477 7.55229 13.5 7 13.5Z" fill="black"/>
<path d="M10 13.5C9.44771 13.5 9 13.9477 9 14.5C9 15.0523 9.44771 15.5 10 15.5C10.5523 15.5 11 15.0523 11 14.5C11 13.9477 10.5523 13.5 10 13.5Z" fill="black"/>
<path fill-rule="evenodd" clip-rule="evenodd" d="M5.94736 3.25C4.42857 3.25 3.19736 4.48122 3.19736 6V9C3.19736 9.78801 3.5288 10.4986 4.05989 11C3.5288 11.5014 3.19736 12.212 3.19736 13V16C3.19736 17.5188 4.42857 18.75 5.94736 18.75H11.25V20.25H5C4.58579 20.25 4.25 20.5858 4.25 21C4.25 21.4142 4.58579 21.75 5 21.75H19C19.4142 21.75 19.75 21.4142 19.75 21C19.75 20.5858 19.4142 20.25 19 20.25H12.75V18.75H17.9474C19.4661 18.75 20.6974 17.5188 20.6974 16V13C20.6974 12.212 20.3659 11.5014 19.8348 11C20.3659 10.4986 20.6974 9.78802 20.6974 9V6C20.6974 4.48122 19.4661 3.25 17.9474 3.25H5.94736ZM5.94736 10.25H17.9474C18.6377 10.25 19.1974 9.69036 19.1974 9V6C19.1974 5.30964 18.6377 4.75 17.9474 4.75H5.94736C5.257 4.75 4.69736 5.30964 4.69736 6V9C4.69736 9.69036 5.257 10.25 5.94736 10.25ZM5.94736 11.75C5.257 11.75 4.69736 12.3096 4.69736 13V16C4.69736 16.6904 5.257 17.25 5.94736 17.25H17.9474C18.6377 17.25 19.1974 16.6904 19.1974 16V13C19.1974 12.3096 18.6377 11.75 17.9474 11.75H5.94736Z" fill="black"/>
</svg>
