<svg width="24" height="24" viewBox="0 0 24 24" fill="none" xmlns="http://www.w3.org/2000/svg">
<path fill-rule="evenodd" clip-rule="evenodd" d="M14.0622 5.62015C11.6968 5.37162 9.313 5.35314 6.94412 5.56494L5.36233 5.70637C4.05519 5.82325 2.99904 6.82185 2.8092 8.1204C2.43307 10.6931 2.43307 13.3069 2.8092 15.8796C2.99904 17.1782 4.05519 18.1768 5.36233 18.2936L6.94412 18.4351C9.313 18.6469 11.6968 18.6284 14.0622 18.3799L14.6699 18.316C15.914 18.1853 16.9206 17.2592 17.1629 16.0436L20.2098 17.6623C20.432 17.7804 20.6985 17.7791 20.9196 17.6591C21.1407 17.539 21.2868 17.3161 21.3088 17.0655L21.3337 16.7817C21.6126 13.6 21.6126 10.4 21.3337 7.21834L21.3088 6.9345C21.2868 6.68388 21.1407 6.46097 20.9196 6.34091C20.6985 6.22085 20.432 6.21964 20.2098 6.33767L17.1629 7.95643C16.9206 6.74079 15.914 5.81472 14.6699 5.684L14.0622 5.62015ZM7.0777 7.05898C9.34996 6.85582 11.6366 6.87355 13.9054 7.11193L14.5131 7.17579C15.1247 7.24005 15.6149 7.71079 15.7039 8.31928C16.0607 10.7601 16.0607 13.2399 15.7039 15.6807C15.6149 16.2892 15.1247 16.76 14.5131 16.8242L13.9054 16.8881C11.6366 17.1264 9.34997 17.1442 7.0777 16.941L5.49592 16.7996C4.88027 16.7445 4.38283 16.2742 4.29342 15.6626C3.93833 13.2338 3.93833 10.7662 4.29342 8.3374C4.38283 7.72579 4.88027 7.25546 5.49592 7.20041L7.0777 7.05898ZM17.3599 9.55033C17.5087 11.18 17.5087 12.82 17.3599 14.4497L19.9069 15.8029C20.0882 13.2709 20.0882 10.7291 19.9069 8.19714L17.3599 9.55033Z" fill="black"/>
</svg>
