<svg width="24" height="24" viewBox="0 0 24 24" fill="none" xmlns="http://www.w3.org/2000/svg">
<path fill-rule="evenodd" clip-rule="evenodd" d="M7.56615 6.55229C7.56283 6.66183 7.58317 6.7666 7.62256 6.86169C6.17068 8.09977 5.25 9.94236 5.25 12C5.25 14.0576 6.17068 15.9002 7.62256 17.1383C7.58317 17.2334 7.56283 17.3382 7.56615 17.4477L7.65361 20.335C7.67397 21.0073 8.11985 21.592 8.76272 21.7896C10.8722 22.438 13.1278 22.438 15.2373 21.7896C15.8802 21.592 16.3261 21.0073 16.3464 20.335L16.4339 17.4477C16.4372 17.3382 16.4169 17.2334 16.3775 17.1383C17.3363 16.3206 18.0635 15.2393 18.4468 14.0064C18.5839 14.1561 18.781 14.25 19 14.25C19.4142 14.25 19.75 13.9142 19.75 13.5V10.5C19.75 10.0858 19.4142 9.75 19 9.75C18.781 9.75 18.5839 9.84388 18.4468 9.99358C18.0635 8.76074 17.3363 7.67938 16.3775 6.8617C16.4169 6.76661 16.4372 6.66184 16.4339 6.55229L16.3464 3.66496C16.3261 2.99272 15.8802 2.40795 15.2373 2.21036C13.1278 1.562 10.8722 1.562 8.76272 2.21036C8.11985 2.40795 7.67397 2.99272 7.65361 3.66496L7.56615 6.55229ZM14.7966 3.64417C12.9743 3.08406 11.0257 3.08406 9.2034 3.64417C9.17414 3.65316 9.15385 3.67978 9.15292 3.71037L9.08631 5.90952C9.96837 5.48677 10.9565 5.25 12 5.25C13.0435 5.25 14.0316 5.48677 14.9137 5.90953L14.8471 3.71037C14.8462 3.67978 14.8259 3.65316 14.7966 3.64417ZM9.15292 20.2896L9.08631 18.0905C9.96837 18.5132 10.9565 18.75 12 18.75C13.0435 18.75 14.0316 18.5132 14.9137 18.0905L14.8471 20.2896C14.8462 20.3202 14.8259 20.3468 14.7966 20.3558C12.9743 20.9159 11.0257 20.9159 9.2034 20.3558C9.17414 20.3468 9.15385 20.3202 9.15292 20.2896ZM12 6.75C9.10051 6.75 6.75 9.1005 6.75 12C6.75 14.8995 9.10051 17.25 12 17.25C14.8995 17.25 17.25 14.8995 17.25 12C17.25 9.1005 14.8995 6.75 12 6.75Z" fill="black"/>
</svg>
