<svg width="24" height="24" viewBox="0 0 24 24" fill="none" xmlns="http://www.w3.org/2000/svg">
<path fill-rule="evenodd" clip-rule="evenodd" d="M12.0198 3.5C12.1417 3.5 12.2352 3.60805 12.219 3.72883C11.9431 5.79611 11.9772 7.89429 12.3215 9.9538L12.3361 10.0412C12.3531 10.1429 12.4308 10.2238 12.5318 10.2448C12.6328 10.2658 12.7363 10.2226 12.7924 10.1361L14.4161 7.63486C14.4556 7.57413 14.5445 7.57413 14.5839 7.63486L16.2076 10.1361C16.2638 10.2226 16.3672 10.2658 16.4682 10.2448C16.5692 10.2238 16.6469 10.1429 16.6639 10.0412L16.6785 9.9538C17.0228 7.89429 17.057 5.79611 16.781 3.72883C16.7648 3.60805 16.8583 3.5 16.9802 3.5L18.5 3.5C19.3284 3.5 20 4.17157 20 5V20C20 20.5523 19.5523 21 19 21H7.5C5.73676 21 4.27806 19.6961 4.03544 18H4V8C4 5.51472 6.01472 3.5 8.5 3.5L12.0198 3.5ZM7.5 15.5H18.5V19.5H7.5C6.39543 19.5 5.5 18.6046 5.5 17.5C5.5 16.3954 6.39543 15.5 7.5 15.5Z" fill="black"/>
</svg>
