<svg width="24" height="24" viewBox="0 0 24 24" fill="none" xmlns="http://www.w3.org/2000/svg">
<path fill-rule="evenodd" clip-rule="evenodd" d="M11 2.25C9.48122 2.25 8.25 3.48122 8.25 5V7C8.25 7.41421 8.58579 7.75 9 7.75H15C15.4142 7.75 15.75 7.41421 15.75 7V5C15.75 3.48122 14.5188 2.25 13 2.25H11ZM9.75 5C9.75 4.30964 10.3096 3.75 11 3.75H13C13.6904 3.75 14.25 4.30964 14.25 5V6.25H9.75V5Z" fill="black"/>
<path d="M6.75346 5.10483C6.75371 4.96463 6.61335 4.86816 6.48693 4.92877C5.30161 5.49701 4.5 6.70697 4.5 8.08545V18.5749C4.5 20.2857 5.77431 21.7285 7.47197 21.9399C10.479 22.3144 13.521 22.3144 16.528 21.9399C18.2257 21.7285 19.5 20.2857 19.5 18.5749V8.08546C19.5 6.70679 18.7016 5.49669 17.5165 4.92855C17.3903 4.868 17.25 4.96422 17.25 5.10426V7.00001C17.25 8.24265 16.2426 9.25001 15 9.25001H9C7.75736 9.25001 6.75 8.24265 6.75 7.00001L6.75346 5.10483Z" fill="black"/>
</svg>
