<svg width="24" height="24" viewBox="0 0 24 24" fill="none" xmlns="http://www.w3.org/2000/svg">
<path fill-rule="evenodd" clip-rule="evenodd" d="M8.38002 7.19402C9.34177 5.69973 11.0205 4.70831 12.9319 4.70831C15.8124 4.70831 18.1671 6.95976 18.3321 9.79889C18.3955 9.79622 18.4592 9.79487 18.5233 9.79487C20.9961 9.79487 23.0008 11.7995 23.0008 14.2724C23.0008 16.7453 20.9961 18.75 18.5233 18.75H6.87461C3.62971 18.75 0.999207 16.1195 0.999207 12.8746C0.999207 9.6297 3.62971 6.99919 6.87461 6.99919C7.39427 6.99919 7.89899 7.06684 8.38002 7.19402ZM15.0303 11.5303C15.3232 11.2374 15.3232 10.7626 15.0303 10.4697C14.7374 10.1768 14.2626 10.1768 13.9697 10.4697L11 13.4393L9.53033 11.9697C9.23744 11.6768 8.76256 11.6768 8.46967 11.9697C8.17678 12.2626 8.17678 12.7374 8.46967 13.0303L10.4697 15.0303C10.7626 15.3232 11.2374 15.3232 11.5303 15.0303L15.0303 11.5303Z" fill="black"/>
</svg>
