<svg width="24" height="24" viewBox="0 0 24 24" fill="none" xmlns="http://www.w3.org/2000/svg">
<path fill-rule="evenodd" clip-rule="evenodd" d="M14.25 2.5C14.25 2.36193 14.1381 2.25 14 2.25H7C5.48122 2.25 4.25 3.48122 4.25 5V19C4.25 20.5188 5.48122 21.75 7 21.75H17C18.5188 21.75 19.75 20.5188 19.75 19V9.14706C19.75 9.00899 19.6381 8.89706 19.5 8.89706H15C14.5858 8.89706 14.25 8.56127 14.25 8.14706V2.5ZM14.0315 13.3357C14.355 13.5944 14.8269 13.542 15.0857 13.2185C15.3444 12.8951 15.292 12.4231 14.9685 12.1643L12.4746 10.1692C12.3459 10.0639 12.1816 10.0006 12.0025 10L12.0001 10L11.9937 10C11.8177 10.0015 11.6561 10.0636 11.5288 10.1665L9.03151 12.1643C8.70806 12.4231 8.65562 12.8951 8.91438 13.2185C9.17313 13.542 9.6451 13.5944 9.96855 13.3357L11.2501 12.3104V15.75C11.2501 16.1642 11.5858 16.5 12.0001 16.5C12.4143 16.5 12.7501 16.1642 12.7501 15.75V12.3105L14.0315 13.3357Z" fill="black"/>
<path d="M15.75 2.82414C15.75 2.63964 15.9426 2.5225 16.0862 2.63839C16.2071 2.736 16.3158 2.85036 16.4085 2.97955L19.4217 7.17745C19.4903 7.27302 19.416 7.39706 19.2983 7.39706H16C15.8619 7.39706 15.75 7.28513 15.75 7.14706V2.82414Z" fill="black"/>
</svg>
