<svg width="24" height="24" viewBox="0 0 24 24" fill="none" xmlns="http://www.w3.org/2000/svg">
<path fill-rule="evenodd" clip-rule="evenodd" d="M14.25 2.5C14.25 2.36193 14.1381 2.25 14 2.25H7C5.48122 2.25 4.25 3.48122 4.25 5V19C4.25 20.5188 5.48122 21.75 7 21.75H17C18.5188 21.75 19.75 20.5188 19.75 19V9.14706C19.75 9.00899 19.6381 8.89706 19.5 8.89706H15C14.5858 8.89706 14.25 8.56127 14.25 8.14706V2.5ZM14.0315 13.1643C14.355 12.9056 14.8269 12.958 15.0857 13.2815C15.3444 13.6049 15.292 14.0769 14.9685 14.3357L12.4746 16.3308C12.3459 16.4361 12.1816 16.4994 12.0025 16.5L12.0001 16.5L11.9937 16.5C11.8177 16.4985 11.6561 16.4364 11.5288 16.3335L9.03151 14.3357C8.70806 14.0769 8.65562 13.6049 8.91438 13.2815C9.17313 12.958 9.6451 12.9056 9.96855 13.1643L11.2501 14.1896V10.75C11.2501 10.3358 11.5858 10 12.0001 10C12.4143 10 12.7501 10.3358 12.7501 10.75V14.1895L14.0315 13.1643Z" fill="black"/>
<path d="M15.75 2.82414C15.75 2.63964 15.9426 2.5225 16.0862 2.63839C16.2071 2.736 16.3158 2.85036 16.4085 2.97955L19.4217 7.17745C19.4903 7.27302 19.416 7.39706 19.2983 7.39706H16C15.8619 7.39706 15.75 7.28513 15.75 7.14706V2.82414Z" fill="black"/>
</svg>
