<svg width="24" height="24" viewBox="0 0 24 24" fill="none" xmlns="http://www.w3.org/2000/svg">
<path d="M10.5 16.5C10.5 17.3061 10.659 18.0751 10.9473 18.7773C11.003 18.9131 10.9059 19.0662 10.7591 19.0657C9.12109 19.0603 7.48318 18.999 5.84826 18.8821L4.33425 18.7738C3.36574 18.7045 2.5669 17.9885 2.39238 17.0333C1.96472 14.6927 1.89151 12.3011 2.17519 9.93877L2.44768 7.66965C2.57921 6.57432 3.50844 5.75 4.61164 5.75H6.9032C7.89553 5.75 8.69997 6.55444 8.69997 7.54677C8.69997 7.57955 8.72654 7.60612 8.75932 7.60612L17.4722 7.60612C18.5328 7.60612 19.4362 8.37679 19.6034 9.42416L19.6675 9.8256C19.7362 10.256 19.7918 10.6878 19.8345 11.1206C19.8509 11.2877 19.6637 11.3981 19.5187 11.3136C18.632 10.7963 17.6006 10.5 16.5 10.5C13.1863 10.5 10.5 13.1863 10.5 16.5Z" fill="black"/>
<path fill-rule="evenodd" clip-rule="evenodd" d="M12 16.5C12 17.4719 12.3081 18.3718 12.8319 19.1074C13.1238 19.5173 13.4827 19.8762 13.8926 20.1681C14.6282 20.6919 15.5281 21 16.5 21C18.9853 21 21 18.9853 21 16.5C21 15.5281 20.6919 14.6282 20.1681 13.8926C19.8762 13.4827 19.5173 13.1238 19.1074 12.8319C18.3718 12.3081 17.4719 12 16.5 12C14.0147 12 12 14.0147 12 16.5ZM16.5 19.5C15.9436 19.5 15.4227 19.3486 14.976 19.0846L19.0846 14.976C19.3486 15.4227 19.5 15.9436 19.5 16.5C19.5 18.1569 18.1569 19.5 16.5 19.5ZM13.9154 18.024L18.024 13.9154C17.5773 13.6514 17.0564 13.5 16.5 13.5C14.8431 13.5 13.5 14.8431 13.5 16.5C13.5 17.0564 13.6514 17.5773 13.9154 18.024Z" fill="black"/>
</svg>
