<svg width="24" height="24" viewBox="0 0 24 24" fill="none" xmlns="http://www.w3.org/2000/svg">
<path fill-rule="evenodd" clip-rule="evenodd" d="M18.5 11.25C17.2275 11.25 16.1285 12.14 15.864 13.3847L15.8418 13.4891C15.7739 13.8088 15.7619 14.1379 15.8064 14.4617L15.9594 15.5744C15.9023 15.5813 15.8451 15.5885 15.788 15.5959C14.9083 15.7102 14.25 16.4595 14.25 17.3466V19.6534C14.25 20.5405 14.9083 21.2899 15.788 21.4041C17.5884 21.6379 19.4116 21.6379 21.212 21.4041C22.0917 21.2899 22.75 20.5405 22.75 19.6534V17.3466C22.75 16.4595 22.0917 15.7102 21.212 15.5959C21.1549 15.5885 21.0977 15.5813 21.0406 15.5744L21.1936 14.4617C21.2381 14.1379 21.2261 13.8088 21.1582 13.4891L21.136 13.3847C20.8715 12.14 19.7724 11.25 18.5 11.25ZM19.5441 15.4464L19.7076 14.2574C19.7284 14.1054 19.7228 13.951 19.6909 13.8009L19.6688 13.6965C19.5515 13.1446 19.0642 12.75 18.5 12.75C17.9358 12.75 17.4485 13.1446 17.3312 13.6965L17.3091 13.8009C17.2772 13.951 17.2715 14.1054 17.2924 14.2574L17.4559 15.4464C18.1515 15.4119 18.8484 15.4119 19.5441 15.4464Z" fill="black"/>
<path d="M20.6917 9.98094C20.7173 10.1489 20.5309 10.2703 20.3791 10.1941C19.8103 9.90882 19.1706 9.75 18.5 9.75C16.5193 9.75 14.8085 11.1355 14.3968 13.0729L14.3746 13.1773C14.2954 13.5497 14.2659 13.9304 14.2863 14.3096C14.2947 14.4645 14.2217 14.6131 14.0962 14.7044C13.275 15.3016 12.75 16.2692 12.75 17.3466V18.7653C12.75 18.9298 12.6176 19.0637 12.4531 19.0647C10.5838 19.0764 8.71406 19.0156 6.84826 18.8821L5.33425 18.7738C4.36574 18.7045 3.5669 17.9885 3.39238 17.0333C2.96472 14.6927 2.89151 12.3011 3.17519 9.93877L3.44768 7.66965C3.57921 6.57432 4.50844 5.75 5.61164 5.75H7.9032C8.89553 5.75 9.69997 6.55444 9.69997 7.54677C9.69997 7.57955 9.72654 7.60612 9.75932 7.60612L18.4722 7.60612C19.5328 7.60612 20.4362 8.37679 20.6034 9.42416L20.6675 9.8256C20.6758 9.87736 20.6838 9.92914 20.6917 9.98094Z" fill="black"/>
</svg>
