<svg width="24" height="24" viewBox="0 0 24 24" fill="none" xmlns="http://www.w3.org/2000/svg">
<path d="M15.1875 16.0836C15.2702 16.195 15.2301 16.3591 15.1043 16.4176C14.0831 16.8926 13.2699 17.7395 12.8387 18.7842C12.7747 18.9391 12.6291 19.0479 12.4616 19.0513C10.2564 19.096 8.0496 19.0396 5.84826 18.8821L4.33425 18.7738C3.36574 18.7045 2.5669 17.9885 2.39238 17.0333C1.96472 14.6927 1.89151 12.3011 2.17519 9.93877L2.44768 7.66965C2.57921 6.57432 3.50844 5.75 4.61164 5.75H6.9032C7.89553 5.75 8.69997 6.55444 8.69997 7.54677C8.69997 7.57955 8.72654 7.60612 8.75932 7.60612L17.4722 7.60612C18.5328 7.60612 19.4362 8.37679 19.6034 9.42416L19.6675 9.8256C19.7092 10.0866 19.746 10.3482 19.7781 10.6102C19.7982 10.7746 19.6174 10.8909 19.4671 10.8214C19.0209 10.6151 18.5239 10.5 18 10.5C16.067 10.5 14.5 12.067 14.5 14C14.5 14.7806 14.7555 15.5015 15.1875 16.0836Z" fill="black"/>
<path d="M18 12C16.8954 12 16 12.8954 16 14C16 15.1046 16.8954 16 18 16C19.1046 16 20 15.1046 20 14C20 12.8954 19.1046 12 18 12Z" fill="black"/>
<path d="M14 20.5C14 18.8431 15.3431 17.5 17 17.5H19C20.6569 17.5 22 18.8431 22 20.5C22 21.0523 21.5523 21.5 21 21.5H15C14.4477 21.5 14 21.0523 14 20.5Z" fill="black"/>
</svg>
