<svg width="24" height="24" viewBox="0 0 24 24" fill="none" xmlns="http://www.w3.org/2000/svg">
<path fill-rule="evenodd" clip-rule="evenodd" d="M7.26753 4.65855C10.4166 4.38481 13.5834 4.38481 16.7325 4.65855L18.2427 4.78983C19.6878 4.91545 20.8585 6.0151 21.0742 7.44949C21.5278 10.4662 21.5278 13.5338 21.0742 16.5505C21.0345 16.8144 20.9625 17.067 20.8624 17.3042C20.796 17.4615 20.5912 17.4854 20.4764 17.3591L16.055 12.4955C15.8552 12.2757 15.5446 12.1946 15.2628 12.2885L12.732 13.1321L9.06055 9.00173C8.92332 8.84734 8.7285 8.75639 8.52203 8.75032C8.31556 8.74426 8.11572 8.82361 7.96967 8.96967L3.05554 13.8838C2.9043 14.035 2.64636 13.9388 2.6343 13.7252C2.51607 11.6313 2.61325 9.52834 2.92586 7.44949C3.14156 6.0151 4.31223 4.91545 5.7573 4.78983L7.26753 4.65855ZM14 9C14 8.17157 14.6716 7.5 15.5 7.5C16.3284 7.5 17 8.17157 17 9C17 9.82843 16.3284 10.5 15.5 10.5C14.6716 10.5 14 9.82843 14 9Z" fill="black"/>
<path d="M2.96133 16.0993C2.90598 16.1547 2.87969 16.2328 2.89071 16.3103C2.90211 16.3904 2.91383 16.4705 2.92586 16.5505C3.14156 17.9849 4.31223 19.0845 5.7573 19.2102L7.26753 19.3414C10.4166 19.6152 13.5834 19.6152 16.7325 19.3414L18.2427 19.2102C18.6674 19.1732 19.0683 19.0522 19.4283 18.8633C19.5647 18.7917 19.5876 18.6114 19.484 18.4974L15.3832 13.9865C15.3166 13.9133 15.2131 13.8862 15.1192 13.9175L12.7372 14.7115C12.4525 14.8064 12.1388 14.7225 11.9394 14.4983L8.64403 10.7909C8.54847 10.6834 8.38211 10.6785 8.2804 10.7803L2.96133 16.0993Z" fill="black"/>
</svg>
