<svg width="24" height="24" viewBox="0 0 24 24" fill="none" xmlns="http://www.w3.org/2000/svg">
<path fill-rule="evenodd" clip-rule="evenodd" d="M19 21.5H6C4.067 21.5 2.5 19.933 2.5 18V4.94321C2.5 3.87566 3.55584 3.19886 4.4849 3.52142C4.61762 3.56749 4.74776 3.63397 4.87186 3.72261L5.0469 3.84765C5.91493 4.46766 7.08891 4.46492 7.95938 3.84316C9.17632 2.97391 10.8237 2.97391 12.0406 3.84316C12.9111 4.46492 14.0851 4.46766 14.9531 3.84765L15.1281 3.72261C16.1209 3.01347 17.5 3.72315 17.5 4.94321V12.5H21C21.4142 12.5 21.75 12.8358 21.75 13.25V18.75C21.75 20.2688 20.5188 21.5 19 21.5ZM17.75 14V18.75C17.75 19.4404 18.3096 20 19 20C19.6904 20 20.25 19.4404 20.25 18.75V14H17.75ZM13.5 9.75002C13.5 9.3358 13.1642 9.00002 12.75 9.00002H6.75C6.33579 9.00002 6 9.3358 6 9.75002C6 10.1642 6.33579 10.5 6.75 10.5H12.75C13.1642 10.5 13.5 10.1642 13.5 9.75002ZM12.5 12.75C12.5 12.3358 12.1642 12 11.75 12H6.75C6.33579 12 6 12.3358 6 12.75C6 13.1642 6.33579 13.5 6.75 13.5H11.75C12.1642 13.5 12.5 13.1642 12.5 12.75ZM12.75 15C13.1642 15 13.5 15.3358 13.5 15.75C13.5 16.1642 13.1642 16.5 12.75 16.5H6.75C6.33579 16.5 6 16.1642 6 15.75C6 15.3358 6.33579 15 6.75 15H12.75Z" fill="black"/>
</svg>
