<svg width="24" height="24" viewBox="0 0 24 24" fill="none" xmlns="http://www.w3.org/2000/svg">
<path fill-rule="evenodd" clip-rule="evenodd" d="M14.25 2.5C14.25 2.36193 14.1381 2.25 14 2.25H7C5.48122 2.25 4.25 3.48122 4.25 5V19C4.25 20.5188 5.48122 21.75 7 21.75H17C18.5188 21.75 19.75 20.5188 19.75 19V9.14706C19.75 9.00899 19.6381 8.89706 19.5 8.89706H15C14.5858 8.89706 14.25 8.56127 14.25 8.14706V2.5ZM13 11.5C13 10.6716 13.6716 10 14.5 10C15.3284 10 16 10.6716 16 11.5C16 12.3284 15.3284 13 14.5 13C13.6716 13 13 12.3284 13 11.5ZM11.136 13.1025C10.9989 12.8832 10.7586 12.75 10.5 12.75C10.2414 12.75 10.0011 12.8832 9.864 13.1025L7.364 17.1025C7.2195 17.3337 7.21185 17.6251 7.34402 17.8636C7.47619 18.102 7.72736 18.25 8 18.25H16C16.2841 18.25 16.5438 18.0895 16.6708 17.8354C16.7979 17.5813 16.7704 17.2773 16.6 17.05L15.1 15.05C14.9584 14.8611 14.7361 14.75 14.5 14.75C14.2639 14.75 14.0416 14.8611 13.9 15.05L13.0563 16.175L11.136 13.1025Z" fill="black"/>
<path d="M15.75 2.82414C15.75 2.63964 15.9426 2.5225 16.0862 2.63839C16.2071 2.736 16.3158 2.85036 16.4085 2.97955L19.4217 7.17745C19.4903 7.27302 19.416 7.39706 19.2983 7.39706H16C15.8619 7.39706 15.75 7.28513 15.75 7.14706V2.82414Z" fill="black"/>
</svg>
