<svg width="24" height="24" viewBox="0 0 24 24" fill="none" xmlns="http://www.w3.org/2000/svg">
<path fill-rule="evenodd" clip-rule="evenodd" d="M12.5331 13.3093C10.3929 14.953 8.00762 16.2503 5.46438 17.1535L4.99833 17.319C3.9748 17.6826 2.89799 16.9901 2.76002 15.938C2.42033 13.3479 2.42033 10.6521 2.76002 8.06198C2.89799 7.0099 3.9748 6.31742 4.99832 6.68094L5.46438 6.84646C8.00761 7.74973 10.3929 9.04699 12.5331 10.6906C12.5707 9.80785 12.6463 8.92899 12.76 8.06198C12.898 7.0099 13.9748 6.31742 14.9983 6.68094L15.4644 6.84646C18.0369 7.76012 20.4478 9.0769 22.6069 10.7475C23.4262 11.3815 23.4262 12.6185 22.6069 13.2525C20.4478 14.9231 18.0369 16.2399 15.4644 17.1535L14.9983 17.319C13.9748 17.6826 12.898 16.9901 12.76 15.938C12.6463 15.071 12.5707 14.1921 12.5331 13.3093ZM11.6889 11.9338C11.7322 11.9673 11.7322 12.0327 11.6889 12.0661C9.65557 13.6395 7.38505 14.8796 4.96235 15.74L4.4963 15.9055C4.3961 15.9411 4.26437 15.8733 4.24728 15.743C3.92458 13.2824 3.92458 10.7176 4.24728 8.25703C4.26437 8.12673 4.3961 8.05885 4.4963 8.09443L4.96235 8.25996C7.38505 9.12041 9.65557 10.3605 11.6889 11.9338ZM21.6889 11.9338C21.7322 11.9673 21.7322 12.0327 21.6889 12.0661C19.6556 13.6395 17.3851 14.8796 14.9624 15.74L14.4963 15.9055C14.3961 15.9411 14.2644 15.8733 14.2473 15.743C13.9246 13.2824 13.9246 10.7176 14.2473 8.25703C14.2644 8.12673 14.3961 8.05885 14.4963 8.09443L14.9624 8.25996C17.3851 9.12041 19.6556 10.3605 21.6889 11.9338Z" fill="black"/>
</svg>
