<svg width="24" height="24" viewBox="0 0 24 24" fill="none" xmlns="http://www.w3.org/2000/svg">
<path fill-rule="evenodd" clip-rule="evenodd" d="M1.39314 13.2525C0.573788 12.6185 0.573787 11.3815 1.39314 10.7475C3.55221 9.0769 5.96312 7.76012 8.53562 6.84646L9.00167 6.68094C10.0252 6.31742 11.102 7.0099 11.24 8.06198C11.3537 8.92899 11.4293 9.80786 11.4669 10.6906C13.6071 9.047 15.9924 7.74973 18.5356 6.84646L19.0017 6.68094C20.0252 6.31742 21.102 7.0099 21.24 8.06198C21.5797 10.6521 21.5797 13.3479 21.24 15.938C21.102 16.9901 20.0252 17.6826 19.0017 17.319L18.5356 17.1535C15.9924 16.2503 13.6071 14.953 11.4669 13.3093C11.4293 14.1921 11.3537 15.071 11.24 15.938C11.102 16.9901 10.0252 17.6826 9.00167 17.319L8.53562 17.1535C5.96312 16.2399 3.55221 14.9231 1.39314 13.2525ZM2.31108 11.9338C2.26781 11.9673 2.26781 12.0327 2.31108 12.0661C4.34443 13.6395 6.61495 14.8796 9.03764 15.74L9.5037 15.9055C9.6039 15.9411 9.73563 15.8733 9.75272 15.743C10.0754 13.2824 10.0754 10.7176 9.75272 8.25703C9.73563 8.12673 9.6039 8.05885 9.5037 8.09443L9.03765 8.25996C6.61495 9.12041 4.34443 10.3605 2.31108 11.9338ZM12.3111 11.9338C12.2678 11.9673 12.2678 12.0327 12.3111 12.0661C14.3444 13.6395 16.6149 14.8796 19.0376 15.74L19.5037 15.9055C19.6039 15.9411 19.7356 15.8733 19.7527 15.743C20.0754 13.2824 20.0754 10.7176 19.7527 8.25703C19.7356 8.12673 19.6039 8.05885 19.5037 8.09443L19.0376 8.25996C16.6149 9.12041 14.3444 10.3605 12.3111 11.9338Z" fill="black"/>
</svg>
