<svg width="24" height="24" viewBox="0 0 24 24" fill="none" xmlns="http://www.w3.org/2000/svg">
<path d="M6.75 7C6.75 6.58579 6.41421 6.25 6 6.25C5.58579 6.25 5.25 6.58579 5.25 7V17C5.25 17.4142 5.58579 17.75 6 17.75C6.41421 17.75 6.75 17.4142 6.75 17V7Z" fill="black"/>
<path fill-rule="evenodd" clip-rule="evenodd" d="M9.39314 13.2525C8.57379 12.6185 8.57379 11.3815 9.39314 10.7475C11.5522 9.07691 13.9631 7.76013 16.5356 6.84648L17.0017 6.68095C18.0252 6.31743 19.102 7.00992 19.24 8.06199C19.5797 10.6521 19.5797 13.3479 19.24 15.938C19.102 16.9901 18.0252 17.6826 17.0017 17.3191L16.5356 17.1535C13.9631 16.2399 11.5522 14.9231 9.39314 13.2525ZM10.3111 11.9339C10.2678 11.9673 10.2678 12.0327 10.3111 12.0662C12.3444 13.6395 14.6149 14.8796 17.0376 15.74L17.5037 15.9056C17.6039 15.9412 17.7356 15.8733 17.7527 15.743C18.0754 13.2824 18.0754 10.7176 17.7527 8.25704C17.7356 8.12674 17.6039 8.05886 17.5037 8.09445L17.0376 8.25997C14.6149 9.12043 12.3444 10.3605 10.3111 11.9339Z" fill="black"/>
</svg>
