<svg width="24" height="24" viewBox="0 0 24 24" fill="none" xmlns="http://www.w3.org/2000/svg">
<path fill-rule="evenodd" clip-rule="evenodd" d="M12.1387 4.5748C13.1912 3.6977 14.7973 4.33147 14.9672 5.69095C15.4909 9.88069 15.4909 14.1193 14.9672 18.3091C14.7973 19.6686 13.1912 20.3023 12.1387 19.4252L7.798 15.808C7.75307 15.7705 7.69643 15.75 7.63795 15.75H4C3.0335 15.75 2.25 14.9665 2.25 14V10C2.25 9.03351 3.0335 8.25001 4 8.25001H7.63795C7.69643 8.25001 7.75307 8.22951 7.798 8.19207L12.1387 4.5748ZM13.4788 5.87701C13.456 5.69446 13.2403 5.60936 13.099 5.72713L8.75827 9.3444C8.44377 9.60648 8.04734 9.75001 7.63795 9.75001H4C3.86193 9.75001 3.75 9.86194 3.75 10V14C3.75 14.1381 3.86193 14.25 4 14.25H7.63795C8.04734 14.25 8.44377 14.3935 8.75827 14.6556L13.099 18.2729C13.2403 18.3907 13.456 18.3056 13.4788 18.123C13.9871 14.0568 13.9871 9.94319 13.4788 5.87701Z" fill="black"/>
<path d="M19.9082 5.94578C20.3014 5.81572 20.7257 6.02908 20.8557 6.42234C21.4362 8.17731 21.75 10.0528 21.75 12C21.75 13.9473 21.4362 15.8227 20.8557 17.5777C20.7257 17.971 20.3014 18.1843 19.9082 18.0543C19.5149 17.9242 19.3015 17.5 19.4316 17.1067C19.9624 15.5018 20.25 13.7852 20.25 12C20.25 10.2148 19.9624 8.49828 19.4316 6.89336C19.3015 6.50009 19.5149 6.07585 19.9082 5.94578Z" fill="black"/>
<path d="M18.0323 7.94771C17.8894 7.55891 17.4584 7.35953 17.0696 7.50238C16.6808 7.64524 16.4815 8.07623 16.6243 8.46503C17.0288 9.56596 17.25 10.7563 17.25 12C17.25 13.0316 17.0978 14.0264 16.8152 14.9637C16.7995 15.0159 16.7833 15.068 16.7668 15.1198C16.7222 15.2595 16.6747 15.398 16.6243 15.535C16.4815 15.9238 16.6808 16.3548 17.0696 16.4977C17.4584 16.6405 17.8894 16.4411 18.0323 16.0523C18.0901 15.8951 18.1446 15.7362 18.1958 15.5759C18.2148 15.5163 18.2333 15.4566 18.2514 15.3967C18.5758 14.3204 18.75 13.1799 18.75 12C18.75 10.5772 18.4968 9.21188 18.0323 7.94771Z" fill="black"/>
</svg>
