<svg width="24" height="24" viewBox="0 0 24 24" fill="none" xmlns="http://www.w3.org/2000/svg">
<path fill-rule="evenodd" clip-rule="evenodd" d="M15.9672 5.69095C15.7973 4.33147 14.1912 3.6977 13.1387 4.5748L8.798 8.19207C8.75307 8.22951 8.69643 8.25001 8.63795 8.25001H5C4.0335 8.25001 3.25 9.03351 3.25 10V14C3.25 14.9665 4.0335 15.75 5 15.75H8.63795C8.69643 15.75 8.75307 15.7705 8.798 15.808L13.1387 19.4252C14.1912 20.3023 15.7973 19.6686 15.9672 18.3091C16.4909 14.1193 16.4909 9.88069 15.9672 5.69095ZM14.099 5.72713C14.2403 5.60936 14.456 5.69446 14.4788 5.87701C14.9871 9.94319 14.9871 14.0568 14.4788 18.123C14.456 18.3056 14.2403 18.3907 14.099 18.2729L9.75827 14.6556C9.44377 14.3935 9.04734 14.25 8.63795 14.25H5C4.86193 14.25 4.75 14.1381 4.75 14V10C4.75 9.86194 4.86193 9.75001 5 9.75001H8.63795C9.04734 9.75001 9.44377 9.60648 9.75827 9.3444L14.099 5.72713Z" fill="black"/>
<path d="M19.0323 7.94771C18.8894 7.55891 18.4585 7.35953 18.0697 7.50238C17.6809 7.64524 17.4815 8.07623 17.6243 8.46503C18.0288 9.56596 18.25 10.7563 18.25 12C18.25 13.0316 18.0978 14.0264 17.8152 14.9637C17.7995 15.0159 17.7833 15.068 17.7668 15.1198C17.7222 15.2595 17.6747 15.398 17.6243 15.535C17.4815 15.9238 17.6809 16.3548 18.0697 16.4977C18.4585 16.6405 18.8894 16.4411 19.0323 16.0523C19.0901 15.8951 19.1446 15.7362 19.1958 15.5759C19.2148 15.5163 19.2333 15.4566 19.2514 15.3967C19.5759 14.3204 19.75 13.1799 19.75 12C19.75 10.5772 19.4968 9.21188 19.0323 7.94771Z" fill="black"/>
</svg>
