<svg width="23" height="26" viewBox="0 0 23 26" fill="none" version="1.1" id="Layer_1" xmlns="http://www.w3.org/2000/svg" xmlns:xlink="http://www.w3.org/1999/xlink" x="0px" y="0px" viewBox="0 0 122.88 118.1" style="enable-background:new 0 0 122.88 118.1" xml:space="preserve"><g><path d="M71.33,85.16H30.47L25.6,96.43c-1.6,3.76-2.39,6.84-2.39,9.29c0,3.26,1.31,5.65,3.93,7.16c1.51,0.93,5.3,1.6,11.33,2.07 v3.15H0v-3.15c4.14-0.64,7.57-2.36,10.22-5.18c2.68-2.79,6-8.62,9.9-17.44L61.51,0h1.63l41.71,94.89c3.99,9,7.25,14.65,9.82,16.98 c1.95,1.78,4.69,2.8,8.21,3.09v3.15H66.9v-3.15h2.3c4.48,0,7.66-0.64,9.47-1.89c1.25-0.9,1.89-2.21,1.89-3.93 c0-1.02-0.18-2.07-0.52-3.15c-0.12-0.52-0.96-2.65-2.56-6.41L71.33,85.16L71.33,85.16z M68.42,78.84L51.2,39L33.44,78.84H68.42 L68.42,78.84z"/></g></svg>