<svg viewBox="0 0 7 15" fill="none" xmlns="http://www.w3.org/2000/svg">
  <path d="M0.133789 6.90723C0.133789 6.43848 0.245117 6.01367 0.467773 5.63281C0.696289 5.24609 1.02441 4.92676 1.45215 4.6748C0.59668 4.18848 0.168945 3.5 0.168945 2.60938C0.168945 1.85352 0.488281 1.26172 1.12695 0.833984C1.77148 0.40625 2.63574 0.192383 3.71973 0.192383C4.25293 0.192383 4.7627 0.242188 5.24902 0.341797C5.73535 0.441406 6.26855 0.614258 6.84863 0.860352L6.25098 2.28418C5.57129 1.99121 5.05566 1.80664 4.7041 1.73047C4.35254 1.6543 3.99805 1.61621 3.64062 1.61621C2.50391 1.61621 1.93555 1.93555 1.93555 2.57422C1.93555 2.89062 2.09668 3.16602 2.41895 3.40039C2.74121 3.62891 3.30078 3.89258 4.09766 4.19141C5.12305 4.58984 5.85547 5.02051 6.29492 5.4834C6.73438 5.94043 6.9541 6.48828 6.9541 7.12695C6.9541 8.16406 6.54688 8.94336 5.73242 9.46484C6.54688 9.93359 6.9541 10.5869 6.9541 11.4248C6.9541 12.2568 6.6084 12.916 5.91699 13.4023C5.22559 13.8828 4.27051 14.123 3.05176 14.123C1.80957 14.123 0.795898 13.915 0.0107422 13.499V11.9258C0.461914 12.1602 0.96875 12.3535 1.53125 12.5059C2.09375 12.6523 2.6123 12.7256 3.08691 12.7256C4.46387 12.7256 5.15234 12.3418 5.15234 11.5742C5.15234 11.3223 5.09082 11.1172 4.96777 10.959C4.84473 10.8008 4.63672 10.6426 4.34375 10.4844C4.05078 10.3262 3.62012 10.1357 3.05176 9.91309C2.22559 9.59082 1.62207 9.29492 1.24121 9.02539C0.860352 8.75 0.579102 8.44238 0.397461 8.10254C0.22168 7.75684 0.133789 7.3584 0.133789 6.90723ZM1.75098 6.73145C1.75098 6.99512 1.82129 7.22949 1.96191 7.43457C2.10254 7.63965 2.33105 7.8418 2.64746 8.04102C2.96973 8.24023 3.54102 8.50391 4.36133 8.83203C5 8.45117 5.31934 7.95898 5.31934 7.35547C5.31934 6.91602 5.1377 6.54688 4.77441 6.24805C4.41113 5.94336 3.76367 5.63574 2.83203 5.3252C2.51562 5.41895 2.25488 5.60059 2.0498 5.87012C1.85059 6.13379 1.75098 6.4209 1.75098 6.73145Z" />
</svg>