<svg width="40" height="40" viewBox="0 0 40 40" fill="none"
    xmlns="http://www.w3.org/2000/svg">
    <path d="M6.66667 33.3333L23.3333 16.6667M23.3333 16.6667V8.33333L16.6667 15M23.3333 16.6667H31.6667M16.6667 15V23.3333H25M16.6667 15L10 21.6667V30H18.3333" stroke="#FF5500" stroke-width="1.66667" stroke-linecap="round" stroke-linejoin="round"/>
    <path d="M23.3333 8.33334C24.3933 7.27834 25.855 6.66667 27.4717 6.66667C28.2411 6.66623 29.0031 6.81739 29.7142 7.11149C30.4252 7.4056 31.0714 7.83691 31.6157 8.38077C32.16 8.92463 32.5919 9.5704 32.8866 10.2812C33.1813 10.992 33.3331 11.7539 33.3333 12.5233C33.3333 14.1417 32.73 15.6067 31.6667 16.6667L25 23.3333L18.3333 30" stroke="#FF5500" stroke-width="1.66667" stroke-linecap="round" stroke-linejoin="round"/>
</svg>
