<svg viewBox="0 0 23 26" fill="none" xmlns="http://www.w3.org/2000/svg">
  <path fill-rule="evenodd" clip-rule="evenodd" d="M14.7037 1.01529H6.01048C3.31967 1.01529 1 3.19643 1 5.88855V20.0666C1 22.9103 3.16677 25 6.01048 25H16.4496C19.1418 25 21.3242 22.7587 21.3242 20.0666V7.91026L14.7037 1.01529Z" stroke="currentColor" stroke-width="2" stroke-linecap="round" stroke-linejoin="round" />
  <path d="M14.3604 1V4.80164C14.3604 6.65738 15.8619 8.16287 17.7177 8.16679C19.4375 8.17071 21.1978 8.17202 21.3167 8.16418" stroke="currentColor" stroke-width="2" stroke-linecap="round" stroke-linejoin="round" />
  <path fill-rule="evenodd" clip-rule="evenodd" d="M11.9234 11.0814C11.9234 10.5291 11.4757 10.0814 10.9234 10.0814C10.3711 10.0814 9.92342 10.5291 9.92342 11.0814V13.2828H7.72131C7.16903 13.2828 6.72131 13.7305 6.72131 14.2828C6.72131 14.8351 7.16903 15.2828 7.72131 15.2828H9.92342V17.4863C9.92342 18.0386 10.3711 18.4863 10.9234 18.4863C11.4757 18.4863 11.9234 18.0386 11.9234 17.4863V15.2828H14.1262C14.6785 15.2828 15.1262 14.8351 15.1262 14.2828C15.1262 13.7305 14.6785 13.2828 14.1262 13.2828H11.9234V11.0814Z" fill="currentColor" fill-opacity="0.3" />
</svg>