<svg viewBox="0 0 23 25" fill="none" xmlns="http://www.w3.org/2000/svg">
  <path fill-rule="evenodd" clip-rule="evenodd" d="M20.5738 7.25204L19.8826 6.01765C19.2979 4.97317 18.0021 4.61285 16.9859 5.21216V5.21216C16.5022 5.50544 15.9249 5.58865 15.3815 5.44344C14.8381 5.29822 14.3732 4.9365 14.0892 4.43805C13.9065 4.12122 13.8083 3.76036 13.8046 3.39195V3.39195C13.8211 2.8013 13.6045 2.22894 13.2044 1.80525C12.8042 1.38155 12.2544 1.14261 11.6803 1.14285H10.2878C9.72538 1.14285 9.1861 1.37352 8.78934 1.78385C8.39257 2.19417 8.17103 2.7503 8.17374 3.32919V3.32919C8.15706 4.52439 7.21086 5.48426 6.04947 5.48414C5.69152 5.48032 5.3409 5.37927 5.03307 5.19124V5.19124C4.01685 4.59192 2.72106 4.95225 2.13634 5.99673L1.39438 7.25204C0.810369 8.29522 1.1557 9.62803 2.16684 10.2334V10.2334C2.82409 10.624 3.22898 11.3457 3.22898 12.1268C3.22898 12.9079 2.82409 13.6297 2.16684 14.0203V14.0203C1.15698 14.6216 0.811276 15.9511 1.39438 16.9912V16.9912L2.09569 18.236C2.36965 18.7448 2.82931 19.1202 3.37296 19.2793C3.91661 19.4383 4.49941 19.3678 4.99242 19.0834V19.0834C5.47707 18.7923 6.0546 18.7126 6.59665 18.8618C7.1387 19.0111 7.60035 19.3771 7.87898 19.8784C8.06168 20.1952 8.15985 20.5561 8.16357 20.9245V20.9245C8.16357 22.132 9.11464 23.1108 10.2878 23.1108H11.6803C12.8495 23.1108 13.799 22.1383 13.8046 20.9349V20.9349C13.8018 20.3542 14.0248 19.7965 14.4238 19.3859C14.8227 18.9753 15.3646 18.7458 15.9288 18.7486C16.2859 18.7584 16.6351 18.8591 16.9452 19.0415V19.0415C17.9588 19.6426 19.2538 19.2872 19.842 18.2465V18.2465L20.5738 16.9912C20.857 16.4908 20.9348 15.8948 20.7898 15.3352C20.6448 14.7756 20.289 14.2986 19.8013 14.0098V14.0098C19.3136 13.721 18.9578 13.244 18.8128 12.6844C18.6678 12.1248 18.7456 11.5288 19.0288 11.0284C19.213 10.6974 19.4797 10.423 19.8013 10.2334V10.2334C20.8064 9.62836 21.1509 8.30333 20.5738 7.2625V7.2625V7.25204Z" stroke="currentColor" stroke-width="2" stroke-linecap="round" stroke-linejoin="round" />
  <ellipse cx="10.9892" cy="12.1269" rx="2.92722" ry="3.01275" stroke="currentColor" stroke-opacity="0.3" stroke-width="2" stroke-linecap="round" stroke-linejoin="round" />
</svg>



