<svg viewBox="0 0 180 32" fill="none" xmlns="http://www.w3.org/2000/svg">
  <path d="M4.77637 11.4626V21.0149" stroke="currentColor" stroke-miterlimit="10" />
  <path d="M6.68652 9.55225V22.9254" stroke="currentColor" stroke-miterlimit="10" />
  <path d="M9.07471 6.68652V25.791" stroke="currentColor" stroke-miterlimit="10" />
  <path d="M10.9849 5.25366V26.7462" stroke="currentColor" stroke-miterlimit="10" />
  <path d="M12.8955 0.955322V31.0449" stroke="currentColor" stroke-miterlimit="10" />
  <path d="M15.2837 3.34326V28.6567" stroke="currentColor" stroke-miterlimit="10" />
  <path d="M17.1938 6.68652V25.791" stroke="currentColor" stroke-miterlimit="10" />
  <path d="M19.1045 9.07471V23.4031" stroke="currentColor" stroke-miterlimit="10" />
  <path d="M21.4927 0.955322V31.0449" stroke="currentColor" stroke-miterlimit="10" />
  <path d="M23.4028 4.77612V27.2239" stroke="currentColor" stroke-miterlimit="10" />
  <path d="M25.3135 7.64185V24.8359" stroke="currentColor" stroke-miterlimit="10" />
  <path d="M27.7017 8.11938V24.3582" stroke="currentColor" stroke-miterlimit="10" />
  <path d="M29.6118 10.0298V22.4477" stroke="currentColor" stroke-miterlimit="10" />
  <path d="M31.5225 8.59692V23.8805" stroke="currentColor" stroke-miterlimit="10" />
  <path d="M33.9106 9.55225V22.9254" stroke="currentColor" stroke-miterlimit="10" />
  <path d="M35.8208 9.55225V22.9254" stroke="currentColor" stroke-miterlimit="10" />
  <path d="M37.7314 5.73145V26.2688" stroke="currentColor" stroke-miterlimit="10" />
  <path d="M40.1191 7.16406V25.3133" stroke="currentColor" stroke-miterlimit="10" />
  <path d="M42.0298 2.86572V29.1344" stroke="currentColor" stroke-miterlimit="10" />
  <path d="M43.9404 0.477539V31.5223" stroke="currentColor" stroke-miterlimit="10" />
  <path d="M46.3281 3.34326V28.6567" stroke="currentColor" stroke-miterlimit="10" />
  <path d="M48.2388 0.955322V31.0449" stroke="currentColor" stroke-miterlimit="10" />
  <path d="M50.627 7.64185V24.8359" stroke="currentColor" stroke-miterlimit="10" />
  <path d="M52.5371 10.5076V21.9703" stroke="currentColor" stroke-miterlimit="10" />
  <path d="M54.4478 8.59692V23.8805" stroke="currentColor" stroke-miterlimit="10" />
  <path d="M56.8359 4.77612V27.2239" stroke="currentColor" stroke-miterlimit="10" />
  <path d="M58.7461 0V32" stroke="currentColor" stroke-miterlimit="10" />
  <path d="M60.6567 0V32" stroke="currentColor" stroke-miterlimit="10" />
  <path d="M63.0449 3.34326V28.6567" stroke="currentColor" stroke-miterlimit="10" />
  <path d="M64.9551 6.68652V25.791" stroke="currentColor" stroke-miterlimit="10" />
  <path d="M66.8657 10.9851V21.4926" stroke="currentColor" stroke-miterlimit="10" />
  <path d="M69.2539 11.4626V21.0149" stroke="currentColor" stroke-miterlimit="10" />
  <path d="M71.1641 9.55225V22.9254" stroke="currentColor" stroke-miterlimit="10" />
  <path d="M73.0747 6.68652V25.791" stroke="currentColor" stroke-miterlimit="10" />
  <path d="M75.4629 5.25366V26.7462" stroke="currentColor" stroke-miterlimit="10" />
  <path d="M77.373 0.955322V31.0449" stroke="currentColor" stroke-miterlimit="10" />
  <path d="M79.2837 3.34326V28.6567" stroke="currentColor" stroke-miterlimit="10" />
  <path d="M81.6719 6.68652V25.791" stroke="currentColor" stroke-miterlimit="10" />
  <path d="M83.582 9.07471V23.4031" stroke="currentColor" stroke-miterlimit="10" />
  <path d="M85.4927 0.955322V31.0449" stroke="currentColor" stroke-miterlimit="10" />
  <path d="M87.8809 4.77612V27.2239" stroke="currentColor" stroke-miterlimit="10" />
  <path d="M89.791 7.64185V24.8359" stroke="currentColor" stroke-miterlimit="10" />
  <path d="M91.7017 8.11938V24.3582" stroke="currentColor" stroke-miterlimit="10" />
  <path d="M94.0894 10.0298V22.4477" stroke="currentColor" stroke-miterlimit="10" />
  <path d="M96 8.59692V23.8805" stroke="currentColor" stroke-miterlimit="10" />
  <path d="M97.9106 9.55225V22.9254" stroke="currentColor" stroke-miterlimit="10" />
  <path d="M100.298 9.55225V22.9254" stroke="currentColor" stroke-miterlimit="10" />
  <path d="M102.209 5.73145V26.2688" stroke="currentColor" stroke-miterlimit="10" />
  <path d="M104.119 7.16406V25.3133" stroke="currentColor" stroke-miterlimit="10" />
  <path d="M106.507 2.86572V29.1344" stroke="currentColor" stroke-miterlimit="10" />
  <path d="M108.418 0.477539V31.5223" stroke="currentColor" stroke-miterlimit="10" />
  <path d="M110.328 3.34326V28.6567" stroke="currentColor" stroke-miterlimit="10" />
  <path d="M112.716 0.955322V31.0449" stroke="currentColor" stroke-miterlimit="10" />
  <path d="M114.627 7.64185V24.8359" stroke="currentColor" stroke-miterlimit="10" />
  <path d="M116.537 10.5076V21.9703" stroke="currentColor" stroke-miterlimit="10" />
  <path d="M118.925 8.59692V23.8805" stroke="currentColor" stroke-miterlimit="10" />
  <path d="M120.836 4.77612V27.2239" stroke="currentColor" stroke-miterlimit="10" />
  <path d="M122.746 0V32" stroke="currentColor" stroke-miterlimit="10" />
  <path d="M125.134 0V32" stroke="currentColor" stroke-miterlimit="10" />
  <path d="M127.045 3.34326V28.6567" stroke="currentColor" stroke-miterlimit="10" />
  <path d="M128.955 6.68652V25.791" stroke="currentColor" stroke-miterlimit="10" />
  <path d="M131.343 10.9851V21.4926" stroke="currentColor" stroke-miterlimit="10" />
  <path d="M133.254 11.4626V21.0149" stroke="currentColor" stroke-miterlimit="10" />
  <path d="M135.642 9.55225V22.9254" stroke="currentColor" stroke-miterlimit="10" />
  <path d="M137.552 6.68652V25.791" stroke="currentColor" stroke-miterlimit="10" />
  <path d="M139.463 5.25366V26.7462" stroke="currentColor" stroke-miterlimit="10" />
  <path d="M141.851 0.955322V31.0449" stroke="currentColor" stroke-miterlimit="10" />
  <path d="M143.761 3.34326V28.6567" stroke="currentColor" stroke-miterlimit="10" />
  <path d="M145.672 6.68652V25.791" stroke="currentColor" stroke-miterlimit="10" />
  <path d="M148.06 9.07471V23.4031" stroke="currentColor" stroke-miterlimit="10" />
  <path d="M149.97 0.955322V31.0449" stroke="currentColor" stroke-miterlimit="10" />
  <path d="M151.881 4.77612V27.2239" stroke="currentColor" stroke-miterlimit="10" />
  <path d="M154.269 7.64185V24.8359" stroke="currentColor" stroke-miterlimit="10" />
  <path d="M156.179 8.11938V24.3582" stroke="currentColor" stroke-miterlimit="10" />
  <path d="M158.089 10.0298V22.4477" stroke="currentColor" stroke-miterlimit="10" />
  <path d="M160.478 8.59692V23.8805" stroke="currentColor" stroke-miterlimit="10" />
  <path d="M162.388 9.55225V22.9254" stroke="currentColor" stroke-miterlimit="10" />
  <path d="M164.298 9.55225V22.9254" stroke="currentColor" stroke-miterlimit="10" />
  <path d="M166.687 5.73145V26.2688" stroke="currentColor" stroke-miterlimit="10" />
  <path d="M168.597 2.38818V29.6121" stroke="currentColor" stroke-miterlimit="10" />
  <path d="M170.507 2.86572V29.1344" stroke="currentColor" stroke-miterlimit="10" />
  <path d="M172.896 5.73145V26.2688" stroke="currentColor" stroke-miterlimit="10" />
  <path d="M174.806 11.9404V20.5374" stroke="currentColor" stroke-miterlimit="10" />
  <path d="M0 16.2388H179.582" stroke="currentColor" stroke-miterlimit="10" />
</svg>