<svg width="24" height="24" viewBox="0 0 24 24" fill="none" xmlns="http://www.w3.org/2000/svg">
<path d="M21.0303 4.83032C21.3232 4.53742 21.3232 4.06255 21.0303 3.76966C20.7374 3.47676 20.2626 3.47676 19.9697 3.76966L3.96967 19.7697C3.67678 20.0626 3.67678 20.5374 3.96967 20.8303C4.26256 21.1232 4.73744 21.1232 5.03033 20.8303L7.11065 18.75H18.5233C20.9961 18.75 23.0008 16.7453 23.0008 14.2724C23.0008 11.7995 20.9961 9.79487 18.5233 9.79487C18.4592 9.79487 18.3955 9.79622 18.3321 9.79889C18.2944 9.15021 18.1424 8.5322 17.8959 7.96472L21.0303 4.83032Z" fill="black"/>
<path d="M12.9319 4.70831C14.0388 4.70831 15.068 5.04077 15.9252 5.61127C16.0521 5.69573 16.0649 5.87445 15.9571 5.98224L4.09641 17.8429C4.01666 17.9227 3.89307 17.9396 3.79705 17.8805C2.1183 16.8462 0.999207 14.9911 0.999207 12.8746C0.999207 9.6297 3.62971 6.99919 6.87461 6.99919C7.39427 6.99919 7.89899 7.06684 8.38002 7.19402C9.34177 5.69973 11.0205 4.70831 12.9319 4.70831Z" fill="black"/>
</svg>
