<svg width="24" height="24" viewBox="0 0 24 24" fill="none" xmlns="http://www.w3.org/2000/svg">
<path fill-rule="evenodd" clip-rule="evenodd" d="M8.46038 7.28387C9.40301 5.82734 11.0427 4.86176 12.9091 4.86176C15.7228 4.86176 18.024 7.05626 18.1944 9.82707C18.2506 9.82494 18.307 9.82386 18.3636 9.82386C20.7862 9.82386 22.75 11.7877 22.75 14.2102C22.75 16.6327 20.7862 18.5966 18.3636 18.5966L7 18.5966C3.82436 18.5966 1.25 16.0222 1.25 12.8466C1.25 9.67095 3.82436 7.09659 7 7.09659C7.50391 7.09659 7.99348 7.16158 8.46038 7.28387ZM15.0856 12.4685C14.8269 12.792 14.3549 12.8444 14.0314 12.5857L12.75 11.5605V15C12.75 15.4142 12.4142 15.75 12 15.75C11.5858 15.75 11.25 15.4142 11.25 15V11.5604L9.96849 12.5857C9.64504 12.8444 9.17307 12.792 8.91431 12.4685C8.65556 12.1451 8.708 11.6731 9.03145 11.4143L11.5288 9.41649C11.656 9.31359 11.8176 9.25148 11.9937 9.25003L12 9.25L12.0024 9.25C12.1815 9.25057 12.3459 9.31392 12.4745 9.4192L14.9685 11.4143C15.2919 11.6731 15.3444 12.1451 15.0856 12.4685Z" fill="black"/>
</svg>
