<svg width="24" height="24" viewBox="0 0 24 24" fill="none" xmlns="http://www.w3.org/2000/svg">
<path fill-rule="evenodd" clip-rule="evenodd" d="M8.38002 7.19402C9.34177 5.69973 11.0205 4.70831 12.9319 4.70831C15.8124 4.70831 18.1671 6.95976 18.3321 9.79889C18.3955 9.79622 18.4592 9.79487 18.5233 9.79487C20.9961 9.79487 23.0008 11.7995 23.0008 14.2724C23.0008 16.7453 20.9961 18.75 18.5233 18.75H6.87461C3.62971 18.75 0.999207 16.1195 0.999207 12.8746C0.999207 9.6297 3.62971 6.99919 6.87461 6.99919C7.39427 6.99919 7.89899 7.06684 8.38002 7.19402ZM12 15.75C12.18 15.75 12.3453 15.6866 12.4745 15.5808L14.9685 13.5857C15.2919 13.3269 15.3444 12.8549 15.0856 12.5315C14.8269 12.208 14.3549 12.1556 14.0314 12.4143L12.75 13.4395V10C12.75 9.58579 12.4142 9.25 12 9.25C11.5858 9.25 11.25 9.58579 11.25 10V13.4396L9.96849 12.4143C9.64504 12.1556 9.17307 12.208 8.91431 12.5315C8.65556 12.8549 8.708 13.3269 9.03145 13.5857L11.5288 15.5835C11.656 15.6864 11.8176 15.7485 11.9937 15.75L12 15.75Z" fill="black"/>
</svg>
