<svg width="24" height="24" viewBox="0 0 24 24" fill="none" xmlns="http://www.w3.org/2000/svg">
<path d="M3.25 9C3.25 5.82436 5.82436 3.25 9 3.25H16.0129C16.4271 3.25 16.7629 3.58579 16.7629 4C16.7629 4.41421 16.4271 4.75 16.0129 4.75H9C6.65279 4.75 4.75 6.65279 4.75 9V16.1069C4.75 16.5211 4.41421 16.8569 4 16.8569C3.58579 16.8569 3.25 16.5211 3.25 16.1069V9Z" fill="black"/>
<path d="M18.4026 6.79326C15.1616 6.43104 11.8384 6.43104 8.59748 6.79326C7.6742 6.89645 6.93227 7.62304 6.82344 8.55348C6.43906 11.84 6.43906 15.16 6.82344 18.4465C6.93227 19.377 7.6742 20.1035 8.59748 20.2067C11.8384 20.569 15.1616 20.569 18.4026 20.2067C19.3258 20.1035 20.0678 19.377 20.1766 18.4465C20.561 15.16 20.561 11.84 20.1766 8.55348C20.0678 7.62304 19.3258 6.89645 18.4026 6.79326Z" fill="black"/>
</svg>
