<svg width="24" height="24" viewBox="0 0 24 24" fill="none" xmlns="http://www.w3.org/2000/svg">
<path d="M14 2.25C14.1381 2.25 14.25 2.36193 14.25 2.5V8.14706C14.25 8.56127 14.5858 8.89706 15 8.89706H19.5C19.6381 8.89706 19.75 9.00899 19.75 9.14706V19C19.75 20.5188 18.5188 21.75 17 21.75H7C5.48122 21.75 4.25 20.5188 4.25 19V5C4.25 3.48122 5.48122 2.25 7 2.25H14Z" fill="black"/>
<path d="M16.0862 2.63839C15.9426 2.5225 15.75 2.63964 15.75 2.82414V7.14706C15.75 7.28513 15.8619 7.39706 16 7.39706H19.2983C19.416 7.39706 19.4903 7.27302 19.4217 7.17745L16.4085 2.97955C16.3158 2.85036 16.2071 2.736 16.0862 2.63839Z" fill="black"/>
</svg>
