<svg width="24" height="24" viewBox="0 0 24 24" fill="none" xmlns="http://www.w3.org/2000/svg">
<path fill-rule="evenodd" clip-rule="evenodd" d="M14.25 2.5C14.25 2.36193 14.1381 2.25 14 2.25H7C5.48122 2.25 4.25 3.48122 4.25 5V19C4.25 20.5188 5.48122 21.75 7 21.75H17C18.5188 21.75 19.75 20.5188 19.75 19V9.14706C19.75 9.00899 19.6381 8.89706 19.5 8.89706H15C14.5858 8.89706 14.25 8.56127 14.25 8.14706V2.5ZM12 10C10.8954 10 10 10.8954 10 12C10 13.1046 10.8954 14 12 14C13.1046 14 14 13.1046 14 12C14 10.8954 13.1046 10 12 10ZM8 18.5C8 16.8431 9.34315 15.5 11 15.5H13C14.6569 15.5 16 16.8431 16 18.5C16 19.0523 15.5523 19.5 15 19.5H9C8.44772 19.5 8 19.0523 8 18.5Z" fill="black"/>
<path d="M15.75 2.82414C15.75 2.63964 15.9426 2.5225 16.0862 2.63839C16.2071 2.736 16.3158 2.85036 16.4085 2.97955L19.4217 7.17745C19.4903 7.27302 19.416 7.39706 19.2983 7.39706H16C15.8619 7.39706 15.75 7.28513 15.75 7.14706V2.82414Z" fill="black"/>
</svg>
