<svg width="24" height="24" viewBox="0 0 24 24" fill="none" xmlns="http://www.w3.org/2000/svg">
<path fill-rule="evenodd" clip-rule="evenodd" d="M21.4879 10.25C21.4636 10.0689 21.4369 9.88801 21.4081 9.70739L21.344 9.30595C21.1188 7.8946 19.9014 6.85612 18.4722 6.85612L10.3552 6.85612C10.0542 5.78516 9.07038 5 7.9032 5H5.61164C4.12881 5 2.87982 6.10798 2.70303 7.58023L2.43054 9.84935C2.13789 12.2864 2.21342 14.7535 2.65459 17.1681C2.89061 18.4599 3.97095 19.4281 5.28073 19.5218L6.79474 19.6302C10.2605 19.8781 13.7395 19.8781 17.2052 19.6302L18.8431 19.513C19.6516 19.4551 20.3676 19.0444 20.8288 18.426C21.4424 17.8374 21.9254 17.1184 22.2378 16.315L23.4872 13.1021C24.0209 11.7298 23.0086 10.25 21.5362 10.25H21.4879ZM5.61164 6.5C4.88807 6.5 4.2786 7.04066 4.19233 7.75907L3.91984 10.0282C3.64512 12.3159 3.71602 14.6319 4.13016 16.8985C4.24319 17.5171 4.76054 17.9808 5.38777 18.0257L5.47378 18.0318L7.80586 12.0073C8.21585 10.9481 9.23472 10.25 10.3704 10.25H19.9734C19.9587 10.1479 19.9431 10.0458 19.9269 9.94381L19.8628 9.54238C19.7537 8.85897 19.1642 8.35612 18.4722 8.35612L9.75932 8.35612C9.31233 8.35612 8.94997 7.99375 8.94997 7.54677C8.94997 6.96865 8.48132 6.5 7.9032 6.5H5.61164Z" fill="black"/>
</svg>
