<svg width="24" height="24" viewBox="0 0 24 24" fill="none" xmlns="http://www.w3.org/2000/svg">
<path fill-rule="evenodd" clip-rule="evenodd" d="M20.6675 9.8256C21.0554 12.2559 21.0276 14.7345 20.5852 17.1555C20.4239 18.0387 19.6852 18.7008 18.7896 18.7649L17.1517 18.8821C13.7216 19.1275 10.2784 19.1275 6.84826 18.8821L5.33425 18.7738C4.36574 18.7045 3.5669 17.9885 3.39238 17.0333C2.96472 14.6927 2.89151 12.3011 3.17519 9.93877L3.44768 7.66965C3.57921 6.57432 4.50844 5.75 5.61164 5.75H7.9032C8.89553 5.75 9.69997 6.55444 9.69997 7.54677C9.69997 7.57955 9.72654 7.60612 9.75932 7.60612L18.4722 7.60612C19.5328 7.60612 20.4362 8.37679 20.6034 9.42416L20.6675 9.8256ZM12.75 11C12.75 10.5858 12.4142 10.25 12 10.25C11.5858 10.25 11.25 10.5858 11.25 11V12.75H9.5C9.08579 12.75 8.75 13.0858 8.75 13.5C8.75 13.9142 9.08579 14.25 9.5 14.25H11.25V16C11.25 16.4142 11.5858 16.75 12 16.75C12.4142 16.75 12.75 16.4142 12.75 16V14.25H14.5C14.9142 14.25 15.25 13.9142 15.25 13.5C15.25 13.0858 14.9142 12.75 14.5 12.75H12.75V11Z" fill="black"/>
</svg>
