<svg width="24" height="24" viewBox="0 0 24 24" fill="none" xmlns="http://www.w3.org/2000/svg">
<path fill-rule="evenodd" clip-rule="evenodd" d="M20.6675 9.8256C21.0554 12.2559 21.0276 14.7345 20.5852 17.1555C20.4239 18.0387 19.6852 18.7008 18.7896 18.7649L17.1517 18.8821C13.7216 19.1275 10.2784 19.1275 6.84826 18.8821L5.33425 18.7738C4.36574 18.7045 3.5669 17.9885 3.39238 17.0333C2.96472 14.6927 2.89151 12.3011 3.17519 9.93877L3.44768 7.66965C3.57921 6.57432 4.50844 5.75 5.61164 5.75H7.9032C8.89553 5.75 9.69997 6.55444 9.69997 7.54677C9.69997 7.57955 9.72654 7.60612 9.75932 7.60612L18.4722 7.60612C19.5328 7.60612 20.4362 8.37679 20.6034 9.42416L20.6675 9.8256ZM9.70191 11.2019C9.9948 10.909 10.4697 10.909 10.7626 11.2019L12 12.4393L13.2374 11.2019C13.5303 10.909 14.0052 10.909 14.2981 11.2019C14.591 11.4948 14.591 11.9697 14.2981 12.2626L13.0607 13.5L14.2981 14.7374C14.591 15.0303 14.591 15.5052 14.2981 15.7981C14.0052 16.091 13.5303 16.091 13.2374 15.7981L12 14.5607L10.7626 15.7981C10.4697 16.091 9.9948 16.091 9.70191 15.7981C9.40902 15.5052 9.40902 15.0303 9.70191 14.7374L10.9394 13.5L9.70191 12.2626C9.40902 11.9697 9.40902 11.4948 9.70191 11.2019Z" fill="black"/>
</svg>
