<svg width="24" height="24" viewBox="0 0 24 24" fill="none" xmlns="http://www.w3.org/2000/svg">
<path d="M20.5852 17.1555C21.0276 14.7345 21.0554 12.2559 20.6675 9.8256L20.6034 9.42416C20.4362 8.37679 19.5328 7.60612 18.4722 7.60612L9.75932 7.60612C9.72654 7.60612 9.69997 7.57955 9.69997 7.54677C9.69997 6.55444 8.89553 5.75 7.9032 5.75H5.61164C4.50844 5.75 3.57921 6.57432 3.44768 7.66965L3.17519 9.93877C2.89151 12.3011 2.96472 14.6927 3.39238 17.0333C3.5669 17.9885 4.36574 18.7045 5.33425 18.7738L6.84826 18.8821C10.2784 19.1275 13.7216 19.1275 17.1517 18.8821L18.7896 18.7649C19.6852 18.7008 20.4239 18.0387 20.5852 17.1555Z" fill="black"/>
</svg>
