<svg width="24" height="24" viewBox="0 0 24 24" fill="none" xmlns="http://www.w3.org/2000/svg">
<path fill-rule="evenodd" clip-rule="evenodd" d="M12 4.75C7.99594 4.75 4.75 7.99594 4.75 12C4.75 16.0041 7.99594 19.25 12 19.25C16.0041 19.25 19.25 16.0041 19.25 12C19.25 7.99594 16.0041 4.75 12 4.75ZM3.25 12C3.25 7.16751 7.16751 3.25 12 3.25C16.8325 3.25 20.75 7.16751 20.75 12C20.75 16.8325 16.8325 20.75 12 20.75C7.16751 20.75 3.25 16.8325 3.25 12Z" fill="black"/>
<path fill-rule="evenodd" clip-rule="evenodd" d="M10.8498 9.30875C9.91622 10.0768 9.29253 11.1571 9.09417 12.3496L8.65623 14.9824C8.42881 16.3496 10.0186 17.2675 11.0889 16.3869L13.15 14.6912C14.0836 13.9232 14.7073 12.8429 14.9056 11.6504L15.3436 9.01756C15.571 7.65035 13.9813 6.73251 12.9109 7.61307L10.8498 9.30875ZM12 10.5C11.1716 10.5 10.5 11.1716 10.5 12C10.5 12.8284 11.1716 13.5 12 13.5C12.8284 13.5 13.5 12.8284 13.5 12C13.5 11.1716 12.8284 10.5 12 10.5Z" fill="black"/>
</svg>
