<svg width="24" height="24" viewBox="0 0 24 24" fill="none" xmlns="http://www.w3.org/2000/svg">
<path fill-rule="evenodd" clip-rule="evenodd" d="M3.52436 8.85685C3.87869 4.55824 7.47084 1.25 11.784 1.25H12.216C16.5292 1.25 20.1213 4.55824 20.4756 8.85685C20.666 11.166 19.9527 13.4589 18.486 15.2526L13.693 21.1144C12.818 22.1845 11.182 22.1845 10.307 21.1144L5.51396 15.2526C4.0473 13.4589 3.33402 11.166 3.52436 8.85685ZM11.784 2.75C8.25149 2.75 5.30949 5.45948 5.01929 8.98008C4.86088 10.9019 5.45452 12.8102 6.67518 14.3031L11.4682 20.1649C11.7431 20.501 12.2569 20.501 12.5318 20.1649L17.3248 14.3031C18.5455 12.8102 19.1391 10.9019 18.9807 8.98008C18.6905 5.45948 15.7485 2.75 12.216 2.75H11.784Z" fill="black"/>
<path d="M13 16C13 16.5523 12.5523 17 12 17C11.4477 17 11 16.5523 11 16C11 15.4477 11.4477 15 12 15C12.5523 15 13 15.4477 13 16Z" fill="black"/>
<path fill-rule="evenodd" clip-rule="evenodd" d="M12 7.75C11.0533 7.75 10.25 8.54542 10.25 9.57143C10.25 9.98564 9.91421 10.3214 9.5 10.3214C9.08579 10.3214 8.75 9.98564 8.75 9.57143C8.75 7.75711 10.1853 6.25 12 6.25C13.8147 6.25 15.25 7.75711 15.25 9.57143C15.25 11.0024 14.3618 12.2348 13.098 12.6983C12.9736 12.744 12.8723 12.8138 12.8112 12.8818C12.754 12.9455 12.75 12.9844 12.75 13C12.75 13.4142 12.4142 13.75 12 13.75C11.5858 13.75 11.25 13.4142 11.25 13C11.25 12.0764 11.9935 11.5057 12.5816 11.29C13.2531 11.0438 13.75 10.3747 13.75 9.57143C13.75 8.54542 12.9467 7.75 12 7.75Z" fill="black"/>
</svg>
