<svg width="24" height="24" viewBox="0 0 24 24" fill="none" xmlns="http://www.w3.org/2000/svg">
<path d="M12.82 4.10639C12.5863 3.68873 12.1487 3.50489 11.7591 3.5001C11.3704 3.49531 10.9224 3.66938 10.6924 4.09939L10.5282 4.40657C8.02804 9.08158 6.02459 13.955 4.54242 18.9678C4.38374 19.5044 4.68317 19.9512 5.0404 20.1655C5.39639 20.3791 5.89997 20.4302 6.33131 20.1578L10.9628 17.2327C11.5371 16.8701 12.351 16.8748 12.9525 17.2616L17.6799 20.3018C18.1054 20.5754 18.607 20.5463 18.9704 20.3331C19.3403 20.1161 19.6223 19.6603 19.4485 19.1264C17.8049 14.0768 15.6446 9.15402 12.9942 4.41774L12.82 4.10639Z" fill="black"/>
</svg>
