<svg width="22" height="22" viewBox="0 0 22 22" fill="none" xmlns="http://www.w3.org/2000/svg">
<path fill-rule="evenodd" clip-rule="evenodd" d="M0 11C0 4.92487 4.92487 0 11 0C17.0751 0 22 4.92487 22 11C22 17.0751 17.0751 22 11 22C4.92487 22 0 17.0751 0 11Z" fill="#32C000"/>
<path fill-rule="evenodd" clip-rule="evenodd" d="M16.3106 7.04291C16.7012 7.43343 16.7012 8.0666 16.3106 8.45712L10.1035 14.9571C9.71301 15.3476 9.07984 15.3476 8.68932 14.9571L5.68932 11.9571C5.29879 11.5666 5.29879 10.9334 5.68932 10.5429C6.07984 10.1524 6.71301 10.1524 7.10353 10.5429L9.39642 12.8358L14.8964 7.04291C15.2869 6.65238 15.9201 6.65238 16.3106 7.04291Z" fill="white"/>
</svg>
