<svg width="30" height="24" viewBox="0 0 30 24" fill="none" xmlns="http://www.w3.org/2000/svg">
<path d="M18.8842 9.31791C18.6039 8.57407 18.3704 7.92369 18.1213 7.2811C17.7904 6.436 17.2104 6.03098 16.2528 6.04266C12.9091 6.0855 9.56144 6.06992 6.2138 6.07771C6.08146 6.07771 5.94911 6.07771 5.77394 6.07771C6.4785 8.14178 7.16749 10.163 7.86037 12.1804C8.7946 14.8987 9.72104 17.617 10.6553 20.3354C10.7409 20.5885 10.846 20.8417 10.9628 21.0831C11.4143 22.0373 12.442 22.1113 13.0492 21.2311C13.3334 20.8222 13.4463 20.3587 13.4657 19.8642C13.5007 18.9801 13.7616 18.727 14.6296 18.727C16.9301 18.7231 19.2345 18.727 21.5351 18.727C22.2669 18.727 22.2669 18.727 22.01 18.0143C21.6557 17.0368 21.321 16.0476 20.9395 15.0817C20.8033 14.7429 20.8539 14.517 21.0835 14.2561C21.4144 13.8822 21.7102 13.4772 22.08 13.0099C22.5822 14.3963 23.0571 15.7049 23.5359 17.0095C23.7422 17.5703 23.8161 18.2986 24.2171 18.6296C24.6258 18.9645 25.3654 18.7153 25.961 18.727C26.755 18.7425 27.5452 18.7231 28.3393 18.7348C29.005 18.7464 29.3203 19.0736 29.3358 19.7434C29.3864 22.084 27.8878 23.634 25.56 23.634C21.0524 23.634 16.5487 23.6145 12.041 23.6457C10.8265 23.6535 10.0286 23.116 9.48748 22.0879C8.93473 21.0403 8.61943 19.9031 8.23796 18.7932C7.31152 16.1138 6.40065 13.4305 5.50146 10.7394C5.38468 10.3889 5.23287 10.2643 4.85529 10.2721C3.57852 10.2993 2.30174 10.2876 1.02497 10.2798C0.390477 10.276 0.0362507 9.9644 0.00900254 9.33739C-0.0377086 8.20799 0.0907472 7.09417 0.550074 6.04656C1.03665 4.93663 1.86577 4.31741 3.1114 4.31352C7.54118 4.30183 11.971 4.26678 16.3968 4.27457C18.2925 4.27847 19.9157 5.76226 20.1454 7.60045C20.161 7.73676 20.1143 7.81854 20.0403 7.91201C19.6783 8.34819 19.3124 8.79605 18.8842 9.31791ZM21.3404 20.4951C19.4253 20.4951 17.514 20.4912 15.5989 20.4989C15.4509 20.4989 15.2407 20.386 15.1707 20.6508C15.0695 21.0364 14.9605 21.4219 14.8515 21.8075C14.941 21.827 15.0266 21.862 15.1162 21.862C18.7324 21.862 22.3486 21.8659 25.961 21.8542C26.5721 21.8503 27.0081 21.5388 27.2767 20.9702C27.4479 20.6041 27.4207 20.4795 26.9652 20.4834C25.0929 20.5067 23.2167 20.4951 21.3404 20.4951ZM4.70737 8.51176C4.50885 7.82244 4.35703 7.16427 3.97945 6.59957C3.47731 5.84404 2.58201 5.91025 2.19275 6.7164C1.97476 7.17206 1.88913 7.66666 1.83463 8.16515C1.80738 8.39882 1.8502 8.52344 2.13047 8.51565C2.97516 8.50007 3.81986 8.51176 4.70737 8.51176Z" fill="#0068E2"/>
<path d="M17.8856 12.8952C18.6291 12.9302 19.3181 12.9691 20.011 12.9886C20.4041 13.0003 20.7934 13.0354 20.7973 13.5377C20.8012 14.044 20.4158 14.0869 20.0149 14.0713C19.1468 14.0401 18.2749 14.0323 17.4068 13.9778C17.0643 13.9544 16.8346 14.0323 16.6166 14.3127C15.9704 15.1539 15.2931 15.9757 14.6275 16.8052C14.3939 17.1012 14.1215 17.3387 13.7517 17.0428C13.3974 16.7585 13.522 16.4352 13.7633 16.1315C17.7533 11.1699 21.7821 6.24728 26.6556 2.10356C27.4809 1.40256 28.3411 0.748286 29.2754 0.19527C29.4466 0.094014 29.6179 -0.0968153 29.8476 0.0589636C30.0694 0.210848 29.9916 0.448411 29.9643 0.647029C29.797 2.01399 29.2676 3.25633 28.5396 4.4052C27.3096 6.35243 25.7642 8.066 24.3318 9.85746C23.7634 10.5663 23.1562 11.2439 22.5879 11.9527C22.3154 12.2954 22.0195 12.459 21.5563 12.4239C20.6494 12.3538 19.7385 12.3694 18.8354 12.311C18.3955 12.2798 18.0919 12.4006 17.8856 12.8952Z" fill="#0068E2"/>
<path d="M13.042 9.77589C11.843 9.77589 10.648 9.76421 9.44909 9.78368C9.12989 9.78757 8.94694 9.71747 8.87688 9.37865C8.77567 8.91521 8.31634 8.40114 8.546 8.05064C8.68614 7.83255 9.41016 7.98054 9.87338 7.98054C11.9014 7.97664 13.9295 7.99222 15.9575 7.96886C16.3468 7.96496 16.5297 8.06232 16.6582 8.44787C17.0942 9.78368 17.1136 9.77589 15.7123 9.77589C14.8209 9.77589 13.9295 9.77589 13.042 9.77589Z" fill="#0068E2"/>
</svg>
