<svg width="24" height="24" viewBox="0 0 24 24" fill="none" xmlns="http://www.w3.org/2000/svg">
<path d="M16.75 11C16.75 11.4142 16.4142 11.75 16 11.75H8C7.58579 11.75 7.25 11.4142 7.25 11C7.25 10.5858 7.58579 10.25 8 10.25H16C16.4142 10.25 16.75 10.5858 16.75 11Z" fill="black"/>
<path fill-rule="evenodd" clip-rule="evenodd" d="M4.38558 8.1467L5.57431 4.8991C5.87389 4.08066 6.60048 3.49419 7.46371 3.37406C10.4734 2.95523 13.5266 2.95523 16.5364 3.37406C17.3996 3.49419 18.1262 4.08067 18.4258 4.89912L19.6146 8.147C19.8369 8.49389 19.99 8.89042 20.0543 9.3179L20.1563 9.99574C20.5561 12.6544 20.5187 15.3605 20.0456 18.007C19.8359 19.1803 18.8723 20.0716 17.6862 20.1893L16.4558 20.3114C13.4925 20.6055 10.5074 20.6055 7.54417 20.3114L6.3137 20.1893C5.12763 20.0716 4.16407 19.1803 3.95434 18.007C3.48127 15.3605 3.44389 12.6544 3.84369 9.99574L3.94562 9.3179C4.00992 8.89029 4.16314 8.49365 4.38558 8.1467ZM7.67046 4.85974C10.543 4.46 13.4571 4.46 16.3296 4.85974C16.6437 4.90346 16.9081 5.11687 17.0172 5.4147L17.5234 6.79769C17.478 6.79108 17.4323 6.78549 17.3864 6.78092L16.4082 6.68383C13.4766 6.39286 10.5234 6.39286 7.59179 6.68384L6.6136 6.78092C6.56765 6.78548 6.52201 6.79107 6.4767 6.79767L6.98291 5.4147C7.09193 5.11687 7.35633 4.90346 7.67046 4.85974ZM5.68566 8.90098L5.70432 8.90781L5.72747 8.84456C5.97321 8.5287 6.34233 8.31522 6.76175 8.27359L7.73994 8.1765C10.573 7.89531 13.4269 7.89531 16.26 8.1765L17.2382 8.27359C17.6577 8.31523 18.0269 8.52879 18.2726 8.84476L18.2957 8.9078L18.3143 8.901C18.4454 9.08689 18.5354 9.30444 18.571 9.54095L18.6729 10.2188C19.0484 12.7158 19.0133 15.2574 18.569 17.7431C18.4774 18.2558 18.0563 18.6452 17.5381 18.6966L16.3076 18.8188C13.4429 19.1031 10.5571 19.1031 7.69232 18.8188L6.46186 18.6966C5.9436 18.6452 5.52258 18.2558 5.43094 17.7431C4.98662 15.2574 4.95152 12.7158 5.32701 10.2188L5.42894 9.54095C5.46451 9.30443 5.55453 9.08688 5.68566 8.90098Z" fill="black"/>
</svg>
