<svg width="24" height="24" viewBox="0 0 24 24" fill="none" xmlns="http://www.w3.org/2000/svg">
<path d="M8.89007 15.4027C8.34187 15.4698 7.95182 15.9685 8.01886 16.5167C8.0859 17.0649 8.58466 17.455 9.13286 17.3879C9.68106 17.3209 10.0711 16.8221 10.0041 16.2739C9.93703 15.7257 9.43827 15.3357 8.89007 15.4027Z" fill="black"/>
<path d="M5.5481 12.7891C5.48105 12.2409 5.87111 11.7421 6.41931 11.6751C6.96751 11.608 7.46626 11.9981 7.53331 12.5463C7.60035 13.0945 7.21029 13.5932 6.66209 13.6603C6.11389 13.7273 5.61514 13.3373 5.5481 12.7891Z" fill="black"/>
<path d="M7.91894 7.46188C7.37074 7.52892 6.98069 8.02768 7.04773 8.57588C7.11477 9.12408 7.61352 9.51413 8.16173 9.44709C8.70993 9.38005 9.09998 8.8813 9.03294 8.33309C8.9659 7.78489 8.46714 7.39484 7.91894 7.46188Z" fill="black"/>
<path d="M15.6973 9.28111C15.6303 8.73291 16.0203 8.23415 16.5685 8.16711C17.1167 8.10007 17.6155 8.49013 17.6825 9.03833C17.7495 9.58653 17.3595 10.0853 16.8113 10.1523C16.2631 10.2194 15.7643 9.82931 15.6973 9.28111Z" fill="black"/>
<path d="M11.9926 10.8786C11.4444 10.9457 11.0544 11.4444 11.1214 11.9926C11.1884 12.5408 11.6872 12.9309 12.2354 12.8638C12.7836 12.7968 13.1737 12.298 13.1066 11.7498C13.0396 11.2016 12.5408 10.8116 11.9926 10.8786Z" fill="black"/>
<path d="M11.3931 7.037C11.326 6.4888 11.7161 5.99004 12.2643 5.923C12.8125 5.85596 13.3112 6.24602 13.3783 6.79422C13.4453 7.34242 13.0553 7.84117 12.5071 7.90821C11.9589 7.97525 11.4601 7.5852 11.3931 7.037Z" fill="black"/>
<path fill-rule="evenodd" clip-rule="evenodd" d="M2.25289 11.7637C2.38339 6.38052 6.85312 2.12236 12.2363 2.25286C17.6195 2.38336 21.8777 6.85308 21.7472 12.2363C21.7389 12.5772 21.6243 12.8887 21.4132 13.1451C21.2113 13.3904 20.9498 13.5512 20.6919 13.6589C20.1898 13.8685 19.5606 13.9342 18.9379 13.9384C16.2492 13.9566 13.9139 16.2692 13.7613 18.9967C13.7256 19.6331 13.6171 20.2803 13.3433 20.7889C13.2015 21.0522 13.0023 21.3027 12.7233 21.4841C12.4377 21.6698 12.1102 21.7555 11.7637 21.7471C6.38055 21.6166 2.12239 17.1469 2.25289 11.7637ZM12.2 3.75242C7.64495 3.642 3.86287 7.24505 3.75245 11.8001C3.64203 16.3551 7.24508 20.1372 11.8001 20.2476C11.8682 20.2492 11.8934 20.2346 11.9057 20.2265C11.9247 20.2142 11.9688 20.1777 12.0226 20.0777C12.1399 19.8598 12.2321 19.4757 12.2636 18.9129C12.458 15.438 15.4045 12.4623 18.9278 12.4385C19.4898 12.4347 19.8843 12.3706 20.114 12.2747C20.1951 12.2408 20.2331 12.2122 20.2476 12.1992C20.3576 7.64449 16.7547 3.86283 12.2 3.75242Z" fill="black"/>
</svg>
