<svg width="24" height="24" viewBox="0 0 24 24" fill="none" xmlns="http://www.w3.org/2000/svg">
<path fill-rule="evenodd" clip-rule="evenodd" d="M12.75 2C12.75 1.58579 12.4142 1.25 12 1.25C11.5858 1.25 11.25 1.58579 11.25 2V2.27842C6.26644 2.65752 2.33019 6.78303 2.25121 11.8451C2.24408 12.3024 2.57422 12.6894 3.01742 12.7632C5.74366 13.2176 8.49575 13.4637 11.25 13.5015V19C11.25 19.4142 10.9142 19.75 10.5 19.75C10.0858 19.75 9.75 19.4142 9.75 19V18.5C9.75 18.0858 9.41421 17.75 9 17.75C8.58579 17.75 8.25 18.0858 8.25 18.5V19C8.25 20.2426 9.25736 21.25 10.5 21.25C11.7426 21.25 12.75 20.2426 12.75 19V13.5015C15.5042 13.4637 18.2563 13.2176 20.9826 12.7632C21.4258 12.6894 21.7559 12.3025 21.7488 11.8451C21.6698 6.78303 17.7336 2.65751 12.75 2.27842V2ZM20.226 11.3661C19.9024 7.10606 16.3431 3.75 12 3.75C7.65693 3.75 4.09759 7.10606 3.77398 11.3661C9.22473 12.2202 14.7753 12.2202 20.226 11.3661Z" fill="black"/>
</svg>
