<svg width="24" height="24" viewBox="0 0 24 24" fill="none" xmlns="http://www.w3.org/2000/svg">
<path fill-rule="evenodd" clip-rule="evenodd" d="M5.59393 4.9904L4.53699 8.37812C4.365 8.67244 4.2459 9.00227 4.19284 9.3551L4.09091 10.0329C3.69516 12.6646 3.73216 15.3433 4.20044 17.9631C4.39049 19.0263 5.26362 19.8339 6.3384 19.9405L7.56886 20.0627C10.5157 20.3552 13.4843 20.3552 16.4311 20.0627L17.6616 19.9405C18.7363 19.8339 19.6095 19.0263 19.7995 17.9631C20.2678 15.3433 20.3048 12.6646 19.909 10.0329L19.8071 9.3551C19.7519 8.98778 19.6251 8.64538 19.4415 8.34204L18.4051 4.99452C18.1365 4.12695 17.3905 3.49293 16.491 3.36776C13.5113 2.95311 10.4871 2.95334 7.5075 3.36798C6.60973 3.49291 5.86401 4.12473 5.59393 4.9904ZM16.2842 4.85344C13.4418 4.45789 10.5567 4.4581 7.71424 4.85366C7.39112 4.89863 7.1229 5.12609 7.02586 5.43715L6.52473 7.04337C6.56234 7.03806 6.6002 7.03351 6.63829 7.02973L7.61648 6.93264C10.5316 6.6433 13.4683 6.6433 16.3835 6.93264L17.3617 7.02973C17.3976 7.0333 17.4334 7.03756 17.4689 7.04249L16.9722 5.43814C16.8757 5.12631 16.6076 4.89843 16.2842 4.85344ZM16 11.75C16.4142 11.75 16.75 11.4142 16.75 11C16.75 10.5858 16.4142 10.25 16 10.25H8C7.58579 10.25 7.25 10.5858 7.25 11C7.25 11.4142 7.58579 11.75 8 11.75H16Z" fill="black"/>
</svg>
