<svg width="24" height="24" viewBox="0 0 24 24" fill="none" xmlns="http://www.w3.org/2000/svg">
<path fill-rule="evenodd" clip-rule="evenodd" d="M3.5 12C3.5 7.30558 7.30558 3.5 12 3.5C16.6944 3.5 20.5 7.30558 20.5 12C20.5 16.6944 16.6944 20.5 12 20.5C7.30558 20.5 3.5 16.6944 3.5 12ZM12.75 7C12.75 6.58579 12.4142 6.25 12 6.25C11.5858 6.25 11.25 6.58579 11.25 7V12C11.25 12.2586 11.3832 12.4989 11.6025 12.636L14.6025 14.511C14.9538 14.7305 15.4165 14.6238 15.636 14.2725C15.8555 13.9212 15.7488 13.4585 15.3975 13.239L12.75 11.5843V7Z" fill="black"/>
</svg>
