<svg width="24" height="24" viewBox="0 0 24 24" fill="none" xmlns="http://www.w3.org/2000/svg">
<path fill-rule="evenodd" clip-rule="evenodd" d="M12.2303 2.50279C6.98509 2.37564 2.62997 6.52461 2.50282 11.7698C2.37567 17.0149 6.52464 21.3701 11.7698 21.4972C12.1075 21.5054 12.4128 21.4107 12.668 21.2177C12.9156 21.0304 13.0871 20.7728 13.207 20.4973C13.4422 19.9569 13.5214 19.2483 13.5254 18.5176C13.5398 15.8759 15.8572 13.5817 18.4726 13.6807C19.1921 13.708 19.8862 13.6695 20.4211 13.4931C20.6917 13.4038 20.9551 13.2685 21.1568 13.0576C21.3687 12.836 21.4894 12.5541 21.4972 12.2302C21.6244 6.98506 17.4754 2.62993 12.2303 2.50279ZM8.89007 15.4027C8.34187 15.4697 7.95181 15.9685 8.01885 16.5167C8.0859 17.0649 8.58465 17.455 9.13285 17.3879C9.68105 17.3209 10.0711 16.8221 10.0041 16.2739C9.93702 15.7257 9.43827 15.3357 8.89007 15.4027ZM5.54809 12.7891C5.48105 12.2409 5.8711 11.7421 6.4193 11.6751C6.9675 11.608 7.46626 11.9981 7.5333 12.5463C7.60034 13.0945 7.21029 13.5932 6.66208 13.6603C6.11388 13.7273 5.61513 13.3373 5.54809 12.7891ZM7.91894 7.46188C7.37073 7.52892 6.98068 8.02767 7.04772 8.57587C7.11476 9.12407 7.61352 9.51413 8.16172 9.44709C8.70992 9.38004 9.09997 8.88129 9.03293 8.33309C8.96589 7.78489 8.46714 7.39483 7.91894 7.46188ZM15.6973 9.2811C15.6302 8.7329 16.0203 8.23415 16.5685 8.16711C17.1167 8.10006 17.6155 8.49012 17.6825 9.03832C17.7495 9.58652 17.3595 10.0853 16.8113 10.1523C16.2631 10.2194 15.7643 9.8293 15.6973 9.2811ZM11.9926 10.8786C11.4444 10.9457 11.0543 11.4444 11.1214 11.9926C11.1884 12.5408 11.6872 12.9309 12.2354 12.8638C12.7836 12.7968 13.1736 12.298 13.1066 11.7498C13.0396 11.2016 12.5408 10.8116 11.9926 10.8786ZM11.3931 7.03699C11.326 6.48879 11.7161 5.99004 12.2643 5.923C12.8125 5.85595 13.3112 6.24601 13.3783 6.79421C13.4453 7.34241 13.0553 7.84116 12.5071 7.90821C11.9589 7.97525 11.4601 7.58519 11.3931 7.03699Z" fill="black"/>
</svg>
