<svg width="24" height="24" viewBox="0 0 24 24" fill="none" xmlns="http://www.w3.org/2000/svg">
<path d="M7.55462 4.25201C7.8995 4.27719 8.18246 4.53491 8.23967 4.87594L10.04 15.6084L12.279 7.79345C12.3712 7.47164 12.6655 7.24989 13.0003 7.25002C13.335 7.25014 13.6292 7.4721 13.7211 7.79398L15.2394 13.1078L16.1105 11.6209C16.245 11.3912 16.4913 11.25 16.7576 11.25H18.6145C18.933 10.2357 19.8806 9.50002 21 9.50002C22.3807 9.50002 23.5 10.6193 23.5 12C23.5 13.3807 22.3807 14.5 21 14.5C19.8806 14.5 18.933 13.7643 18.6145 12.75H17.1874L15.6471 15.3791C15.4954 15.6382 15.2037 15.7818 14.9059 15.7441C14.608 15.7064 14.3613 15.4947 14.2789 15.2061L12.999 10.7266L10.5695 19.2066C10.473 19.5434 10.1561 19.7686 9.8062 19.7488C9.45634 19.7291 9.16679 19.4697 9.10882 19.1241L7.26937 8.15859L5.95622 12.2302C5.8563 12.54 5.56795 12.75 5.24242 12.75H2C1.58579 12.75 1.25 12.4142 1.25 12C1.25 11.5858 1.58579 11.25 2 11.25H4.69627L6.7862 4.76981C6.89234 4.4407 7.20974 4.22683 7.55462 4.25201Z" fill="black"/>
</svg>
