<svg width="24" height="24" viewBox="0 0 24 24" fill="none" xmlns="http://www.w3.org/2000/svg">
<path d="M9.64952 4.375C9.85662 4.01628 9.73372 3.55759 9.375 3.35048C9.01628 3.14338 8.55759 3.26628 8.35048 3.625L6.6906 6.50001H5.5C4.39543 6.50001 3.5 7.39544 3.5 8.5C3.5 9.21599 3.87623 9.84411 4.44179 10.1974C4.49938 10.2334 4.56663 10.25 4.63454 10.25H19.3655C19.4334 10.25 19.5006 10.2334 19.5582 10.1974C20.1238 9.84411 20.5 9.21599 20.5 8.5C20.5 7.39544 19.6046 6.50001 18.5 6.50001H17.3094L15.6495 3.625C15.4424 3.26628 14.9837 3.14338 14.625 3.35048C14.2663 3.55759 14.1434 4.01628 14.3505 4.375L15.5774 6.50001H8.42265L9.64952 4.375Z" fill="black"/>
<path fill-rule="evenodd" clip-rule="evenodd" d="M19.3348 11.9846C19.3563 11.8622 19.2621 11.75 19.1378 11.75H4.86221C4.73792 11.75 4.64373 11.8622 4.66523 11.9846L5.66574 17.6831C5.87388 18.8686 6.82291 19.7845 8.01503 19.9503C10.6589 20.3182 13.3411 20.3182 15.985 19.9503C17.1771 19.7845 18.1261 18.8686 18.3343 17.6831L19.3348 11.9846ZM10.75 14C10.75 13.5858 10.4142 13.25 10 13.25C9.58579 13.25 9.25 13.5858 9.25 14V16C9.25 16.4142 9.58579 16.75 10 16.75C10.4142 16.75 10.75 16.4142 10.75 16V14ZM14 13.25C14.4142 13.25 14.75 13.5858 14.75 14V16C14.75 16.4142 14.4142 16.75 14 16.75C13.5858 16.75 13.25 16.4142 13.25 16V14C13.25 13.5858 13.5858 13.25 14 13.25Z" fill="black"/>
</svg>
