<svg width="24" height="24" viewBox="0 0 24 24" fill="none" xmlns="http://www.w3.org/2000/svg">
<path d="M12.75 1.5C12.75 1.08579 12.4142 0.75 12 0.75C11.5858 0.75 11.25 1.08579 11.25 1.5V2.52917C6.40335 2.90769 2.57803 6.92332 2.50118 11.849C2.496 12.1813 2.73598 12.4629 3.05852 12.5167C5.77115 12.9688 8.5095 13.2137 11.25 13.2515V19C11.25 19.4142 10.9142 19.75 10.5 19.75C10.0858 19.75 9.75 19.4142 9.75 19V18.5C9.75 18.0858 9.41421 17.75 9 17.75C8.58579 17.75 8.25 18.0858 8.25 18.5V19C8.25 20.2426 9.25736 21.25 10.5 21.25C11.7426 21.25 12.75 20.2426 12.75 19V13.2515C15.4905 13.2137 18.2289 12.9688 20.9415 12.5167C21.264 12.4629 21.504 12.1813 21.4988 11.849C21.422 6.92331 17.5967 2.90768 12.75 2.52917V1.5Z" fill="black"/>
</svg>
