<svg width="24" height="24" viewBox="0 0 24 24" fill="none" xmlns="http://www.w3.org/2000/svg">
<path d="M16.1309 3.18554C13.4009 2.72787 10.5991 2.72787 7.86915 3.18554C6.87181 3.35274 6.07754 4.11841 5.87757 5.11118C4.96145 9.65927 4.91146 14.3393 5.73023 18.906L6.06358 20.7652C6.16637 21.3385 6.86528 21.5676 7.28754 21.1665L11.3113 17.344C11.6972 16.9773 12.3028 16.9773 12.6888 17.344L16.7125 21.1665C17.1347 21.5676 17.8336 21.3385 17.9364 20.7652L18.2698 18.906C19.0885 14.3394 19.0386 9.65927 18.1224 5.11118C17.9225 4.11841 17.1282 3.35274 16.1309 3.18554Z" fill="black"/>
</svg>
