<svg width="24" height="24" viewBox="0 0 24 24" fill="none" xmlns="http://www.w3.org/2000/svg">
<path fill-rule="evenodd" clip-rule="evenodd" d="M7.31673 3.76876C10.4043 3.42368 13.5957 3.42368 16.6832 3.76876C18.5096 3.97288 19.9845 5.41153 20.1994 7.24849C20.5686 10.4054 20.5686 13.5946 20.1994 16.7515C19.9845 18.5885 18.5096 20.0271 16.6832 20.2313C13.5957 20.5763 10.4043 20.5763 7.31673 20.2313C5.49035 20.0271 4.01545 18.5885 3.8006 16.7515C3.43137 13.5946 3.43137 10.4054 3.8006 7.24849C4.01545 5.41153 5.49035 3.97288 7.31673 3.76876ZM13 8.00001C13 8.55229 12.5523 9.00001 12 9.00001C11.4477 9.00001 11 8.55229 11 8.00001C11 7.44772 11.4477 7.00001 12 7.00001C12.5523 7.00001 13 7.44772 13 8.00001ZM12 10.75C12.4142 10.75 12.75 11.0858 12.75 11.5V16.5C12.75 16.9142 12.4142 17.25 12 17.25C11.5858 17.25 11.25 16.9142 11.25 16.5V11.5C11.25 11.0858 11.5858 10.75 12 10.75Z" fill="black"/>
</svg>
