<svg width="24" height="24" viewBox="0 0 24 24" fill="none" xmlns="http://www.w3.org/2000/svg">
<path fill-rule="evenodd" clip-rule="evenodd" d="M9.72961 3.99262C10.8216 2.39495 13.1784 2.39496 14.2703 3.99262L14.7023 4.62457C17.4083 8.58379 19.7333 12.7904 21.646 17.1881L21.7362 17.3955C22.4103 18.9453 21.3919 20.705 19.7124 20.8927C14.5867 21.4656 9.41323 21.4656 4.2876 20.8927C2.60805 20.705 1.58969 18.9453 2.26374 17.3955L2.35396 17.1881C4.26669 12.7904 6.59165 8.58378 9.29769 4.62457L9.72961 3.99262ZM13 8.99999C13 9.55227 12.5523 9.99999 12 9.99999C11.4477 9.99999 11 9.55227 11 8.99999C11 8.4477 11.4477 7.99999 12 7.99999C12.5523 7.99999 13 8.4477 13 8.99999ZM12 11.75C12.4142 11.75 12.75 12.0858 12.75 12.5V17.5C12.75 17.9142 12.4142 18.25 12 18.25C11.5858 18.25 11.25 17.9142 11.25 17.5V12.5C11.25 12.0858 11.5858 11.75 12 11.75Z" fill="black"/>
</svg>
