<svg width="24" height="24" viewBox="0 0 24 24" fill="none" xmlns="http://www.w3.org/2000/svg">
<path d="M4.5 9.76594C4.5 5.73718 7.87403 2.5 12 2.5C16.126 2.5 19.5 5.73718 19.5 9.76594C19.5 12.1199 18.5269 14.2437 16.7051 15.5831C16.5794 15.6756 16.5033 15.7902 16.4767 15.9028C16.418 16.1521 16.353 16.441 16.2864 16.751C16.2666 16.8434 16.185 16.9095 16.0905 16.9095H12.95C12.8395 16.9095 12.75 16.82 12.75 16.7095V16.0456L13.7993 14.3975C14.0064 14.0722 13.9331 13.643 13.6299 13.4048L11.8308 11.992L12.6327 10.7326C12.8551 10.3832 12.7522 9.91958 12.4028 9.69712C12.0534 9.47466 11.5898 9.57757 11.3673 9.92698L10.2007 11.7594C9.9936 12.0847 10.0669 12.5139 10.3701 12.7521L12.1692 14.1649L11.3673 15.4243C11.2907 15.5447 11.25 15.6844 11.25 15.8271V16.7095C11.25 16.82 11.1605 16.9095 11.05 16.9095H7.90949C7.815 16.9095 7.73344 16.8434 7.71359 16.751C7.64697 16.441 7.58199 16.1522 7.52325 15.9028C7.49675 15.7902 7.42064 15.6756 7.2949 15.5831C5.47313 14.2437 4.5 12.1199 4.5 9.76594Z" fill="black"/>
<path d="M8.28101 18.4095C8.15644 18.4095 8.06223 18.5223 8.08341 18.645C8.1876 19.249 8.26458 19.7924 8.28682 20.1599C8.34981 21.2011 9.11672 22.0588 10.1422 22.2803L10.3382 22.3227C11.4326 22.5591 12.5674 22.5591 13.6618 22.3227L13.8578 22.2803C14.8833 22.0588 15.6502 21.2011 15.7132 20.1599C15.7354 19.7924 15.8124 19.249 15.9166 18.645C15.9378 18.5223 15.8436 18.4095 15.719 18.4095H8.28101Z" fill="black"/>
</svg>
