<svg width="24" height="24" viewBox="0 0 24 24" fill="none" xmlns="http://www.w3.org/2000/svg">
<path d="M14.6041 2.76067C13.0635 2.58531 11.5079 2.58531 9.96734 2.76067L8.37201 2.94225C8.13603 2.96911 7.95151 3.15827 7.93052 3.39484L7.80789 4.77662C7.60172 7.09985 7.60172 9.43677 7.80789 11.76L7.93052 13.1418C7.95341 13.3998 8.16954 13.5976 8.42856 13.5976H10.5V21C10.5 21.2124 10.6342 21.4017 10.8347 21.4719C11.0351 21.5421 11.2581 21.478 11.3907 21.3121L11.7814 20.8229C14.1108 17.9064 15.9656 14.6408 17.2776 11.1464L17.4681 10.6392C17.5257 10.4856 17.5044 10.3135 17.411 10.1787C17.3176 10.0439 17.164 9.96343 17 9.96343H14.2869L16.6124 3.61092C16.6651 3.46694 16.6488 3.30675 16.5682 3.1763C16.4877 3.04586 16.3517 2.95959 16.1994 2.94225L14.6041 2.76067Z" fill="black"/>
</svg>
