<svg width="24" height="24" viewBox="0 0 24 24" fill="none" xmlns="http://www.w3.org/2000/svg">
<path fill-rule="evenodd" clip-rule="evenodd" d="M7.30621 7.75816L7.64927 10.8457L6.95505 10.9011C5.98695 10.9784 5.19645 11.7062 5.03952 12.6646C4.67783 14.8735 4.67783 17.1265 5.03952 19.3354C5.19645 20.2938 5.98695 21.0215 6.95505 21.0988L8.45118 21.2183C10.8133 21.4068 13.1867 21.4068 15.5489 21.2183L17.045 21.0988C18.0131 21.0215 18.8036 20.2938 18.9605 19.3354C19.3222 17.1265 19.3222 14.8735 18.9605 12.6646C18.8036 11.7062 18.0131 10.9784 17.045 10.9011L16.3507 10.8457L16.6937 7.75815C16.7342 7.39418 16.7342 7.02684 16.6937 6.66286L16.671 6.45797C16.4295 4.28458 14.7209 2.56492 12.5491 2.30941C12.1843 2.26649 11.8157 2.26649 11.4509 2.30941C9.27907 2.56492 7.57046 4.28457 7.32898 6.45796L7.30621 6.66286C7.26577 7.02684 7.26577 7.39418 7.30621 7.75816ZM12.3738 3.79914C12.1255 3.76992 11.8745 3.76992 11.6261 3.79914C10.1475 3.97309 8.98422 5.1439 8.8198 6.62361L8.79704 6.82851C8.76883 7.08239 8.76883 7.33862 8.79704 7.59251L9.14583 10.7317C11.0466 10.6098 12.9533 10.6098 14.8541 10.7317L15.2029 7.59251C15.2311 7.33862 15.2311 7.08239 15.2029 6.82851L15.1802 6.62361C15.0157 5.1439 13.8525 3.97309 12.3738 3.79914ZM12 14.5C11.1716 14.5 10.5 15.1716 10.5 16C10.5 16.8284 11.1716 17.5 12 17.5C12.8284 17.5 13.5 16.8284 13.5 16C13.5 15.1716 12.8284 14.5 12 14.5Z" fill="black"/>
</svg>
