<svg width="24" height="24" viewBox="0 0 24 24" fill="none" xmlns="http://www.w3.org/2000/svg">
<path d="M13 3C13 2.44772 12.5523 2 12 2C11.4477 2 11 2.44772 11 3V3.75H10.4426C8.21751 3.75 6.37591 5.48001 6.23702 7.70074L6.01601 11.2342C5.93175 12.5814 5.47946 13.8797 4.7084 14.9876C4.28833 15.5912 4.34704 16.3335 4.72533 16.8596C4.80631 16.9723 4.96736 16.972 5.06546 16.8739L16.5739 5.36539C16.6668 5.27254 16.6725 5.12308 16.5811 5.02888C15.8132 4.23822 14.7394 3.75 13.5574 3.75H13V3Z" fill="black"/>
<path fill-rule="evenodd" clip-rule="evenodd" d="M17.7863 8.07431L21.0303 4.83032C21.3232 4.53742 21.3232 4.06255 21.0303 3.76966C20.7374 3.47676 20.2626 3.47676 19.9697 3.76966L3.96967 19.7697C3.67678 20.0625 3.67678 20.5374 3.96967 20.8303C4.26256 21.1232 4.73744 21.1232 5.03033 20.8303L8.07613 17.7845L9.25 17.9254V19C9.25 20.5188 10.4812 21.75 12 21.75C13.5188 21.75 14.75 20.5188 14.75 19V17.9254L18.1571 17.5165C19.3681 17.3712 19.9883 15.9886 19.2916 14.9876C18.5205 13.8797 18.0682 12.5814 17.984 11.2342L17.7863 8.07431ZM10.75 19C10.75 19.6904 11.3096 20.25 12 20.25C12.6904 20.25 13.25 19.6904 13.25 19V18.25H10.75V19Z" fill="black"/>
</svg>
