<svg width="24" height="24" viewBox="0 0 24 24" fill="none" xmlns="http://www.w3.org/2000/svg">
<path fill-rule="evenodd" clip-rule="evenodd" d="M10.6637 11.8386L10.851 12L10.6637 12.1614C8.68826 13.8634 7.04583 15.9172 5.81982 18.2185C5.33871 19.1216 5.93601 20.2227 6.95536 20.3118L8.1289 20.4144C10.7047 20.6396 13.2953 20.6396 15.8711 20.4144L17.0447 20.3118C18.064 20.2227 18.6613 19.1216 18.1802 18.2185C16.9542 15.9172 15.3118 13.8634 13.3363 12.1614L13.149 12L13.3363 11.8386C15.3118 10.1366 16.9542 8.08279 18.1802 5.78147C18.6613 4.8784 18.064 3.77732 17.0447 3.6882L15.8711 3.58559C13.2953 3.36038 10.7047 3.36039 8.1289 3.58559L6.95536 3.6882C5.93601 3.77732 5.33871 4.8784 5.81982 5.78148C7.04583 8.08279 8.68826 10.1366 10.6637 11.8386ZM12 9.75C11.801 9.75 11.6103 9.67098 11.4696 9.53033L9.46963 7.53033C9.25513 7.31583 9.19097 6.99324 9.30705 6.71298C9.42314 6.43273 9.69661 6.25 9.99996 6.25H14C14.3033 6.25 14.5768 6.43273 14.6929 6.71298C14.809 6.99324 14.7448 7.31583 14.5303 7.53033L12.5303 9.53033C12.3896 9.67098 12.1989 9.75 12 9.75ZM12 14.25C11.801 14.25 11.6103 14.329 11.4696 14.4697L9.46963 16.4697C9.25513 16.6842 9.19097 17.0068 9.30705 17.287C9.42314 17.5673 9.69661 17.75 9.99996 17.75H14C14.3033 17.75 14.5768 17.5673 14.6929 17.287C14.809 17.0068 14.7448 16.6842 14.5303 16.4697L12.5303 14.4697C12.3896 14.329 12.1989 14.25 12 14.25Z" fill="black"/>
</svg>
