<svg width="24" height="24" viewBox="0 0 24 24" fill="none" xmlns="http://www.w3.org/2000/svg">
<path d="M12.5 2.46218C12.5 2.20286 12.2921 1.97382 12.0499 2.06654C11.8488 2.14355 11.6688 2.28741 11.5465 2.49812L8.83245 7.17543C8.64208 7.50352 8.31303 7.72741 7.93796 7.78406L2.85165 8.55228C1.99737 8.68131 1.69771 9.75992 2.36301 10.3111L6.1521 13.4503C6.50285 13.7409 6.66777 14.1993 6.58256 14.6467L5.5914 19.8519C5.43471 20.6747 6.2985 21.314 7.03965 20.9238L11.8291 18.4019C11.8759 18.3773 11.924 18.3558 11.9729 18.3374C12.2445 18.2356 12.5 18.0145 12.5 17.7244V2.46218Z" fill="black"/>
</svg>
