<svg width="24" height="24" viewBox="0 0 24 24" fill="none" xmlns="http://www.w3.org/2000/svg">
<path fill-rule="evenodd" clip-rule="evenodd" d="M1.65385 13.0138C2.15269 16.1731 4.87583 18.5 8.07431 18.5H15.9256C19.1241 18.5 21.8473 16.1731 22.3461 13.0138C22.4522 12.3421 22.4522 11.6579 22.3461 10.9862C21.8473 7.82691 19.1241 5.5 15.9256 5.5H8.07431C4.87583 5.5 2.15269 7.8269 1.65385 10.9862C1.5478 11.6579 1.5478 12.3421 1.65385 13.0138ZM16 15.5C17.7848 15.5 19.2778 14.137 19.464 12.3681C19.4897 12.1245 19.4897 11.8755 19.464 11.6319C19.2778 9.86302 17.7848 8.5 16 8.5C14.2152 8.5 12.7222 9.86302 12.536 11.6319C12.5104 11.8755 12.5104 12.1245 12.536 12.3681C12.7222 14.137 14.2152 15.5 16 15.5Z" fill="black"/>
</svg>
