<svg width="24" height="24" viewBox="0 0 24 24" fill="none" xmlns="http://www.w3.org/2000/svg">
<path fill-rule="evenodd" clip-rule="evenodd" d="M12.3553 3.30176C12.1119 3.23267 11.8551 3.23273 11.6116 3.30203C11.0931 3.44957 10.5697 3.58623 10.0445 3.72335C7.70087 4.33527 5.12037 5.00904 2.91292 6.81037L1.87215 7.65967C1.04221 8.33693 1.04264 9.66327 1.8733 10.3398L2.89724 11.1738C3.65371 11.79 4.44208 12.2719 5.25 12.665V17.2939C5.25 18.4272 5.94522 19.4444 7.0011 19.8561L11.0011 21.4156C11.6435 21.666 12.3565 21.666 12.9989 21.4156L16.9989 19.8561C18.0548 19.4444 18.75 18.4272 18.75 17.2939V12.6733C19.5526 12.2823 20.3357 11.8028 21.0871 11.1896L21.25 11.0567V16C21.25 16.4142 21.5858 16.75 22 16.75C22.4142 16.75 22.75 16.4142 22.75 16V9C22.7498 8.49918 22.542 7.99845 22.1267 7.66016L21.1028 6.82618C18.8793 5.01516 16.1903 4.31386 13.9192 3.72153C13.3952 3.58485 12.8729 3.44863 12.3553 3.30176ZM8.29914 12.8122C7.9193 12.647 7.47745 12.821 7.31224 13.2009C7.14704 13.5807 7.32103 14.0226 7.70087 14.1878C8.97872 14.7435 10.3015 15.1983 11.6571 15.5462C11.8933 15.6068 12.1411 15.6068 12.3773 15.5459C13.7292 15.198 15.0481 14.7432 16.3219 14.1874C16.7015 14.0217 16.875 13.5797 16.7093 13.2C16.5436 12.8204 16.1016 12.6469 15.7219 12.8126C14.5253 13.3348 13.2865 13.7623 12.0167 14.0899C10.743 13.7622 9.50004 13.3346 8.29914 12.8122Z" fill="black"/>
</svg>
