<svg width="24" height="24" viewBox="0 0 24 24" fill="none" xmlns="http://www.w3.org/2000/svg">
<path fill-rule="evenodd" clip-rule="evenodd" d="M10.5328 3.81144C10.2853 3.8475 10.0429 3.91246 9.8105 4.00497C8.42728 4.55569 7.60668 5.98768 7.83084 7.45953L7.86188 7.66334C7.90035 7.91587 7.96666 8.16337 8.05962 8.4013L8.97451 10.743C11.1637 10.5942 13.3611 10.6071 15.5489 10.7817L17.045 10.9011C18.0131 10.9784 18.8036 11.7062 18.9605 12.6646C19.3222 14.8735 19.3222 17.1265 18.9605 19.3354C18.8036 20.2938 18.0131 21.0215 17.045 21.0988L15.5489 21.2183C13.1867 21.4068 10.8133 21.4068 8.45118 21.2183L6.95505 21.0988C5.98695 21.0215 5.19645 20.2938 5.03952 19.3354C4.67783 17.1265 4.67783 14.8735 5.03952 12.6646C5.19645 11.7062 5.98695 10.9784 6.95505 10.9011L7.41163 10.8647L6.66247 8.94716C6.5292 8.60605 6.43413 8.25123 6.37898 7.88919L6.34794 7.68538C6.01869 5.52354 7.22399 3.42026 9.25565 2.61137C9.59693 2.47548 9.95297 2.38008 10.3165 2.32712C12.4804 2.01182 14.5758 3.23066 15.3716 5.26749L15.4466 5.45951C15.5799 5.80062 15.675 6.15544 15.7301 6.51749L15.8715 7.4455C15.913 7.71849 15.7254 7.9735 15.4524 8.01508L14.9581 8.09037C14.6852 8.13194 14.4301 7.94434 14.3886 7.67135L14.2472 6.74334C14.2088 6.4908 14.1424 6.2433 14.0495 6.00537L13.9745 5.81335C13.4327 4.42661 12.006 3.59678 10.5328 3.81144ZM12 14.5C11.1716 14.5 10.5 15.1716 10.5 16C10.5 16.8284 11.1716 17.5 12 17.5C12.8284 17.5 13.5 16.8284 13.5 16C13.5 15.1716 12.8284 14.5 12 14.5Z" fill="black"/>
</svg>
