<svg width="24" height="24" viewBox="0 0 24 24" fill="none" xmlns="http://www.w3.org/2000/svg">
<path fill-rule="evenodd" clip-rule="evenodd" d="M12 6.25C10.2051 6.25 8.75 7.70507 8.75 9.5C8.75 11.2949 10.2051 12.75 12 12.75C13.7949 12.75 15.25 11.2949 15.25 9.5C15.25 7.70507 13.7949 6.25 12 6.25ZM10.25 9.5C10.25 8.5335 11.0335 7.75 12 7.75C12.9665 7.75 13.75 8.5335 13.75 9.5C13.75 10.4665 12.9665 11.25 12 11.25C11.0335 11.25 10.25 10.4665 10.25 9.5Z" fill="black"/>
<path fill-rule="evenodd" clip-rule="evenodd" d="M12 2.25C7.99594 2.25 4.75 5.49594 4.75 9.5C4.75 10.9681 5.18639 12.3343 5.93652 13.476L3.35048 17.9551C3.20342 18.2099 3.21882 18.527 3.38988 18.7663C3.56093 19.0056 3.85606 19.1228 4.14467 19.066L6.75854 18.5522L7.62047 21.0728C7.71564 21.3511 7.96471 21.5481 8.25745 21.5766C8.5502 21.6051 8.83258 21.4599 8.97965 21.2051L11.5594 16.7368C11.7052 16.7456 11.8521 16.75 12 16.75C12.1479 16.75 12.2948 16.7456 12.4406 16.7368L15.0204 21.2051C15.1676 21.4601 15.4504 21.6054 15.7434 21.5765C16.0364 21.5477 16.2854 21.3501 16.3801 21.0713L17.2376 18.5455L19.8537 19.0657C20.1425 19.1232 20.4382 19.0063 20.6097 18.767C20.7812 18.5276 20.7967 18.2101 20.6495 17.9551L18.0635 13.476C18.8136 12.3343 19.25 10.9681 19.25 9.5C19.25 5.49594 16.0041 2.25 12 2.25ZM6.25 9.5C6.25 6.32436 8.82437 3.75 12 3.75C15.1756 3.75 17.75 6.32436 17.75 9.5C17.75 12.6756 15.1756 15.25 12 15.25C8.82437 15.25 6.25 12.6756 6.25 9.5ZM9.98376 16.466C8.83078 16.1328 7.79597 15.5212 6.95691 14.7086L5.4747 17.2759L7.11167 16.9541C7.47972 16.8817 7.84463 17.0924 7.96599 17.4473L8.50579 19.0259L9.98376 16.466ZM15.4918 19.0217L14.0163 16.466C15.1692 16.1328 16.204 15.5212 17.0431 14.7086L18.5229 17.2717L16.8851 16.9461C16.516 16.8727 16.1497 17.0842 16.0287 17.4406L15.4918 19.0217Z" fill="black"/>
</svg>
