<svg width="24" height="24" viewBox="0 0 24 24" fill="none" xmlns="http://www.w3.org/2000/svg">
<path fill-rule="evenodd" clip-rule="evenodd" d="M11.6023 18.636C11.7302 18.7128 11.8671 18.7468 12 18.7451C12.1329 18.7468 12.2698 18.7128 12.3977 18.636L13.533 17.9549C15.7595 16.619 18.4825 16.4008 20.8933 17.3651C21.7826 17.7208 22.75 17.0659 22.75 16.1081V4.44918C22.75 3.87123 22.3981 3.35151 21.8615 3.13686C18.7564 1.89483 15.2492 2.17585 12.3815 3.89647L12 4.12539L11.6185 3.89647C8.75077 2.17585 5.24357 1.89483 2.13848 3.13686C1.60187 3.35151 1.25 3.87123 1.25 4.44918V16.1081C1.25 17.0659 2.21739 17.7208 3.10672 17.3651C5.51752 16.4008 8.24052 16.619 10.467 17.9549L11.6023 18.636ZM2.75 4.50801V15.8948C5.54579 14.8468 8.67179 15.1285 11.2388 16.6686L11.25 16.6754V5.42467L10.8467 5.18271C8.39774 3.71332 5.40634 3.46498 2.75 4.50801ZM12.7612 16.6686L12.75 16.6754V5.42467L13.1533 5.18271C15.6023 3.71332 18.5937 3.46498 21.25 4.50801V15.8948C18.4542 14.8468 15.3282 15.1285 12.7612 16.6686Z" fill="black"/>
<path d="M9.27516 19.0423C7.2513 17.8617 4.7487 17.8617 2.72484 19.0423L2.6221 19.1022C2.26431 19.3109 2.14346 19.7701 2.35217 20.1279C2.56088 20.4857 3.02011 20.6066 3.3779 20.3979L3.48065 20.3379C5.03746 19.4298 6.96254 19.4298 8.51935 20.3379L9.60661 20.9722C11.0856 21.8349 12.9144 21.8349 14.3934 20.9722L15.4806 20.3379C17.0375 19.4298 18.9625 19.4298 20.5194 20.3379L20.6221 20.3979C20.9799 20.6066 21.4391 20.4857 21.6478 20.1279C21.8565 19.7701 21.7357 19.3109 21.3779 19.1022L21.2752 19.0423C19.2513 17.8617 16.7487 17.8617 14.7248 19.0423L13.6376 19.6765C12.6257 20.2668 11.3743 20.2668 10.3624 19.6765L9.27516 19.0423Z" fill="black"/>
</svg>
