<svg width="24" height="24" viewBox="0 0 24 24" fill="none" xmlns="http://www.w3.org/2000/svg">
<path d="M12 9.75C12.4142 9.75 12.75 10.0858 12.75 10.5V12.25H14.5C14.9142 12.25 15.25 12.5858 15.25 13C15.25 13.4142 14.9142 13.75 14.5 13.75H12.75V15.5C12.75 15.9142 12.4142 16.25 12 16.25C11.5858 16.25 11.25 15.9142 11.25 15.5V13.75H9.5C9.08579 13.75 8.75 13.4142 8.75 13C8.75 12.5858 9.08579 12.25 9.5 12.25H11.25V10.5C11.25 10.0858 11.5858 9.75 12 9.75Z" fill="black"/>
<path fill-rule="evenodd" clip-rule="evenodd" d="M8.4 5.25C5.61914 5.25 3.25 7.3293 3.25 10.0298C3.25 11.8797 4.03888 13.5064 5.13182 14.8815C6.22287 16.2543 7.65005 17.4193 9.01653 18.366C9.53846 18.7276 10.0665 19.0611 10.5497 19.3072C11.0035 19.5383 11.5253 19.75 12 19.75C12.4747 19.75 12.9965 19.5383 13.4503 19.3072C13.9335 19.0611 14.4615 18.7276 14.9835 18.366C16.35 17.4193 17.7771 16.2543 18.8682 14.8815C19.9611 13.5064 20.75 11.8797 20.75 10.0298C20.75 7.3293 18.3809 5.25 15.6 5.25C14.1665 5.25 12.9052 5.92214 12 6.79183C11.0948 5.92214 9.83347 5.25 8.4 5.25ZM4.75 10.0298C4.75 8.2791 6.32075 6.75 8.4 6.75C9.59415 6.75 10.7092 7.46342 11.4054 8.36892C11.5474 8.55356 11.7671 8.66176 12 8.66176C12.2329 8.66176 12.4526 8.55356 12.5946 8.36892C13.2908 7.46342 14.4058 6.75 15.6 6.75C17.6792 6.75 19.25 8.2791 19.25 10.0298C19.25 11.4333 18.6542 12.74 17.6939 13.9482C16.7317 15.1588 15.4371 16.2269 14.1293 17.133C13.6344 17.4758 13.1683 17.7675 12.7695 17.9706C12.3414 18.1886 12.0933 18.25 12 18.25C11.9067 18.25 11.6586 18.1886 11.2305 17.9706C10.8317 17.7675 10.3656 17.4758 9.87074 17.133C8.56292 16.2269 7.26828 15.1588 6.30609 13.9482C5.34579 12.74 4.75 11.4333 4.75 10.0298Z" fill="black"/>
</svg>
