<svg width="24" height="24" viewBox="0 0 24 24" fill="none" xmlns="http://www.w3.org/2000/svg">
<path d="M2.25 10.0298C2.25 7.3293 4.61914 5.25 7.4 5.25C8.83347 5.25 10.0948 5.92214 11 6.79183C11.9052 5.92214 13.1665 5.25 14.6 5.25C17.3809 5.25 19.75 7.3293 19.75 10.0298C19.75 10.1922 19.7439 10.3528 19.7321 10.5117C19.7208 10.6637 19.5919 10.7778 19.4395 10.7778H18.5423C18.3587 10.7778 18.2189 10.6144 18.2337 10.4314C18.2445 10.2984 18.25 10.1646 18.25 10.0298C18.25 8.2791 16.6792 6.75 14.6 6.75C13.4058 6.75 12.2908 7.46342 11.5946 8.36892C11.4526 8.55356 11.2329 8.66176 11 8.66176C10.7671 8.66176 10.5474 8.55356 10.4054 8.36892C9.7092 7.46342 8.59415 6.75 7.4 6.75C5.32075 6.75 3.75 8.2791 3.75 10.0298C3.75 11.4333 4.34579 12.74 5.30609 13.9482C6.26828 15.1588 7.56292 16.2269 8.87074 17.133C9.36562 17.4758 9.83174 17.7675 10.2305 17.9706C10.6586 18.1886 10.9067 18.25 11 18.25C11.0933 18.25 11.3414 18.1886 11.7695 17.9706C12.1683 17.7675 12.6344 17.4758 13.1293 17.133C13.5552 16.8378 13.9798 16.5255 14.392 16.1967C14.5375 16.0806 14.7532 16.1197 14.8457 16.2812L15.2974 17.0695C15.3706 17.1974 15.3403 17.3597 15.2246 17.4509C14.8126 17.7756 14.3953 18.0807 13.9835 18.366C13.4615 18.7276 12.9335 19.0611 12.4503 19.3072C11.9965 19.5383 11.4747 19.75 11 19.75C10.5253 19.75 10.0035 19.5383 9.54973 19.3072C9.06648 19.0611 8.53846 18.7276 8.01653 18.366C6.65005 17.4193 5.22287 16.2543 4.13182 14.8815C3.03888 13.5064 2.25 11.8797 2.25 10.0298Z" fill="black"/>
<path d="M14.8068 9.68751C14.6992 9.45272 14.4783 9.28982 14.2222 9.25633C13.9661 9.22285 13.7108 9.32349 13.5465 9.52272L11.4798 12.0278H10C9.58579 12.0278 9.25 12.3636 9.25 12.7778C9.25 13.192 9.58579 13.5278 10 13.5278H11.8333C12.0572 13.5278 12.2694 13.4278 12.4119 13.2551L13.9419 11.4005L15.7349 15.3125C15.8425 15.5473 16.0633 15.7102 16.3194 15.7437C16.5755 15.7772 16.8308 15.6765 16.9952 15.4773L18.6035 13.5278H21C21.4142 13.5278 21.75 13.192 21.75 12.7778C21.75 12.3636 21.4142 12.0278 21 12.0278H18.25C18.0261 12.0278 17.8139 12.1278 17.6715 12.3005L16.5998 13.5995L14.8068 9.68751Z" fill="black"/>
</svg>
