<svg width="24" height="24" viewBox="0 0 24 24" fill="none" xmlns="http://www.w3.org/2000/svg">
<path d="M16.2208 5.59854C16.336 5.48336 16.2721 5.2884 16.1099 5.27343C15.9418 5.25792 15.7717 5.25 15.6 5.25C14.1665 5.25 12.9052 5.92214 12 6.79183C11.0948 5.92214 9.83347 5.25 8.4 5.25C5.61914 5.25 3.25 7.3293 3.25 10.0298C3.25 11.8797 4.03888 13.5064 5.13182 14.8815C5.33321 15.1349 5.54605 15.3812 5.76784 15.6204C5.88182 15.7433 6.07472 15.7446 6.19323 15.6261L6.83009 14.9892C6.94574 14.8736 6.94714 14.6869 6.83638 14.5666C6.65069 14.3648 6.47336 14.1587 6.30609 13.9482C5.34579 12.74 4.75 11.4333 4.75 10.0298C4.75 8.2791 6.32075 6.75 8.4 6.75C9.59415 6.75 10.7092 7.46342 11.4054 8.36892C11.5474 8.55356 11.7671 8.66176 12 8.66176C12.2329 8.66176 12.4526 8.55356 12.5946 8.36892C13.1509 7.64536 13.9747 7.04445 14.8925 6.83218C14.9704 6.81416 15.0428 6.77652 15.0994 6.71997L16.2208 5.59854Z" fill="black"/>
<path fill-rule="evenodd" clip-rule="evenodd" d="M4.50299 19.4363L4.46967 19.4697C4.17678 19.7626 4.17678 20.2374 4.46967 20.5303C4.76256 20.8232 5.23744 20.8232 5.53033 20.5303L8.24756 17.8131C8.50428 18.005 8.76146 18.1893 9.01653 18.366C9.53846 18.7276 10.0665 19.0611 10.5497 19.3072C11.0035 19.5383 11.5253 19.75 12 19.75C12.4747 19.75 12.9965 19.5383 13.4503 19.3072C13.9335 19.0611 14.4615 18.7276 14.9835 18.366C16.35 17.4193 17.7771 16.2543 18.8682 14.8815C19.9611 13.5064 20.75 11.8797 20.75 10.0298C20.75 8.73357 20.2042 7.58046 19.3289 6.73172L21.5303 4.53033C21.8232 4.23744 21.8232 3.76256 21.5303 3.46967C21.2464 3.18572 20.7914 3.17705 20.497 3.44365L4.53033 19.4103C4.52138 19.4193 4.51227 19.4279 4.50299 19.4363ZM18.2678 7.79291L9.32 16.7407C9.50272 16.8746 9.6866 17.0054 9.87074 17.133C10.3656 17.4758 10.8317 17.7675 11.2305 17.9706C11.6586 18.1886 11.9067 18.25 12 18.25C12.0933 18.25 12.3414 18.1886 12.7695 17.9706C13.1683 17.7675 13.6344 17.4758 14.1293 17.133C15.4371 16.2269 16.7317 15.1588 17.6939 13.9482C18.6542 12.74 19.25 11.4333 19.25 10.0298C19.25 9.183 18.8825 8.38806 18.2678 7.79291Z" fill="black"/>
</svg>
