<svg width="24" height="24" viewBox="0 0 24 24" fill="none" xmlns="http://www.w3.org/2000/svg">
<path fill-rule="evenodd" clip-rule="evenodd" d="M9.93908 2.51227C11.4985 2.33478 13.073 2.33478 14.6324 2.51227L16.2277 2.69385C16.4562 2.71986 16.6601 2.84927 16.781 3.04493C16.9018 3.2406 16.9262 3.4809 16.8472 3.69686L14.6447 9.71343H17C17.246 9.71343 17.4764 9.8341 17.6165 10.0364C17.7566 10.2386 17.7886 10.4967 17.7021 10.7271L17.5117 11.2343C16.1905 14.7533 14.3225 18.0419 11.9767 20.9789L11.586 21.4681C11.3872 21.717 11.0527 21.8132 10.752 21.7078C10.4513 21.6025 10.25 21.3186 10.25 21V13.8476H8.42857C8.04005 13.8476 7.71585 13.5509 7.68151 13.1639L7.55888 11.7821C7.3514 9.44416 7.3514 7.09245 7.55888 4.75452L7.68151 3.37274C7.713 3.01788 7.98978 2.73414 8.34375 2.69385L9.93908 2.51227ZM14.4627 4.00265C13.0161 3.83799 11.5554 3.83799 10.1087 4.00265L9.12153 4.11501L9.05301 4.88711C8.85336 7.13682 8.85336 9.39979 9.05301 11.6495L9.11496 12.3476H11C11.4142 12.3476 11.75 12.6834 11.75 13.0976V18.8023C13.4521 16.46 14.8511 13.9102 15.9127 11.2134H13.5714C13.3265 11.2134 13.097 11.0938 12.9567 10.893C12.8164 10.6923 12.7829 10.4356 12.8671 10.2056L15.1109 4.07642L14.4627 4.00265Z" fill="black"/>
</svg>
