<svg width="24" height="24" viewBox="0 0 24 24" fill="none" xmlns="http://www.w3.org/2000/svg">
<path fill-rule="evenodd" clip-rule="evenodd" d="M12 3.75C8.52397 3.75 5.75 6.46727 5.75 9.76594C5.75 11.7705 6.57093 13.4993 8.03534 14.576C8.3581 14.8133 8.63421 15.1672 8.73996 15.6162C8.82675 15.9847 8.92608 16.4337 9.02447 16.9095H14.9755C15.0739 16.4337 15.1732 15.9847 15.26 15.6162C15.3658 15.1672 15.6419 14.8133 15.9647 14.576C17.4291 13.4993 18.25 11.7705 18.25 9.76594C18.25 6.46727 15.476 3.75 12 3.75ZM14.6887 18.4095H9.31128C9.42169 19.0471 9.50831 19.6509 9.53454 20.0844C9.56215 20.5408 9.90326 20.9498 10.4062 21.0585L10.6022 21.1009C11.5226 21.2997 12.4774 21.2997 13.3978 21.1009L13.5938 21.0585C14.0967 20.9498 14.4379 20.5408 14.4655 20.0844C14.4917 19.6509 14.5783 19.0471 14.6887 18.4095ZM4.25 9.76594C4.25 5.59116 7.74404 2.25 12 2.25C16.256 2.25 19.75 5.59116 19.75 9.76594C19.75 12.1898 18.7464 14.3926 16.8532 15.7845C16.7668 15.848 16.7307 15.9148 16.7201 15.9601C16.6017 16.4627 16.4575 17.128 16.326 17.8029C16.1432 18.7412 15.9944 19.6512 15.9627 20.175C15.8927 21.3332 15.0406 22.2805 13.9106 22.5247L13.7146 22.567C12.5854 22.811 11.4146 22.811 10.2854 22.567L10.0894 22.5247C8.95941 22.2805 8.10735 21.3332 8.03727 20.175C8.00558 19.6512 7.85678 18.7412 7.67399 17.8029C7.5425 17.128 7.3983 16.4627 7.27991 15.9601C7.26925 15.9148 7.23315 15.848 7.14681 15.7845C5.25357 14.3926 4.25 12.1898 4.25 9.76594Z" fill="black"/>
</svg>
