<svg width="24" height="24" viewBox="0 0 24 24" fill="none" xmlns="http://www.w3.org/2000/svg">
<path fill-rule="evenodd" clip-rule="evenodd" d="M13 3C13 2.44772 12.5523 2 12 2C11.4477 2 11 2.44772 11 3V3.75H10.4426C8.21751 3.75 6.37591 5.48001 6.23702 7.70074L6.01601 11.2342C5.93175 12.5814 5.47946 13.8797 4.7084 14.9876C4.01172 15.9886 4.63194 17.3712 5.84287 17.5165L9.25 17.9254V19C9.25 20.5188 10.4812 21.75 12 21.75C13.5188 21.75 14.75 20.5188 14.75 19V17.9254L18.1571 17.5165C19.3681 17.3712 19.9883 15.9886 19.2916 14.9876C18.5205 13.8797 18.0682 12.5814 17.984 11.2342L17.763 7.70074C17.6241 5.48001 15.7825 3.75 13.5574 3.75H13V3ZM10.4426 5.25C9.00958 5.25 7.82354 6.36417 7.73409 7.79438L7.51309 11.3278C7.41169 12.949 6.86744 14.5112 5.93959 15.8444C5.88924 15.9168 5.93406 16.0167 6.02159 16.0272L9.75925 16.4757C11.2477 16.6543 12.7523 16.6543 14.2407 16.4757L17.9784 16.0272C18.0659 16.0167 18.1108 15.9168 18.0604 15.8444C17.1326 14.5112 16.5883 12.949 16.4869 11.3278L16.2659 7.79438C16.1764 6.36417 14.9904 5.25 13.5574 5.25H10.4426ZM12 20.25C11.3096 20.25 10.75 19.6904 10.75 19V18.25H13.25V19C13.25 19.6904 12.6904 20.25 12 20.25Z" fill="black"/>
</svg>
