<svg width="24" height="24" viewBox="0 0 24 24" fill="none" xmlns="http://www.w3.org/2000/svg">
<path fill-rule="evenodd" clip-rule="evenodd" d="M16.7856 3.72499C15.9102 2.84954 14.4274 3.13511 13.9397 4.27307L12.3471 7.9891C10.848 7.69513 9.23294 8.12819 8.07003 9.29109L6.35994 11.0012C6.06704 11.2941 6.06704 11.769 6.35994 12.0618L8.85524 14.5572L3.4696 19.9428C3.17671 20.2357 3.17671 20.7106 3.4696 21.0035C3.7625 21.2963 4.23737 21.2963 4.53027 21.0035L9.9159 15.6178L12.4113 18.1132C12.5519 18.2539 12.7427 18.3329 12.9416 18.3329C13.1405 18.3329 13.3313 18.2539 13.472 18.1132L15.182 16.4031C16.345 15.2402 16.778 13.6251 16.484 12.126L20.2001 10.5334C21.338 10.0457 21.6236 8.56295 20.7481 7.68751L16.7856 3.72499ZM15.3184 4.86394C15.3881 4.70138 15.5999 4.66058 15.725 4.78565L19.6875 8.74817C19.8125 8.87323 19.7717 9.08506 19.6092 9.15473L15.2938 11.0042C14.9295 11.1603 14.7496 11.573 14.8832 11.9463C15.2942 13.0946 15.0388 14.425 14.1214 15.3425L12.9416 16.5222L7.95093 11.5315L9.13069 10.3518C10.0481 9.43434 11.3786 9.17897 12.5269 9.58997C12.9001 9.72356 13.3128 9.54364 13.469 9.17928L15.3184 4.86394Z" fill="black"/>
</svg>
