<svg width="24" height="24" viewBox="0 0 24 24" fill="none" xmlns="http://www.w3.org/2000/svg">
<path fill-rule="evenodd" clip-rule="evenodd" d="M10.4188 4.23059C11.06 3.12569 12.75 3.58052 12.75 4.85795V16.5386C12.75 17.5594 12.1845 18.4963 11.2812 18.9719L8.00559 20.6967C6.70857 21.3796 5.19695 20.2608 5.47115 18.8208L6.17113 15.1449C6.25633 14.6974 6.09141 14.2391 5.74067 13.9485L3.24177 11.8782C2.07748 10.9136 2.60189 9.026 4.09688 8.8002L7.52653 8.28219C7.90159 8.22554 8.23064 8.00165 8.42101 7.67357L10.4188 4.23059ZM11.25 5.78691L9.71841 8.4264C9.29959 9.14818 8.57568 9.64074 7.75054 9.76537L4.3209 10.2834C4.10732 10.3156 4.03241 10.5853 4.19874 10.7231L6.69764 12.7934C7.46927 13.4327 7.83209 14.4411 7.64465 15.4255L6.94467 19.1014C6.9055 19.3071 7.12144 19.467 7.30673 19.3694L10.5824 17.6446C10.993 17.4285 11.25 17.0026 11.25 16.5386V5.78691Z" fill="black"/>
</svg>
