<svg width="24" height="24" viewBox="0 0 24 24" fill="none" xmlns="http://www.w3.org/2000/svg">
<path fill-rule="evenodd" clip-rule="evenodd" d="M10.4864 4.11419C11.1608 2.95192 12.8392 2.95193 13.5136 4.11419L15.579 7.67355C15.7694 8.00164 16.0984 8.22553 16.4735 8.28218L19.9031 8.80018C21.3981 9.02598 21.9225 10.9136 20.7582 11.8781L18.2593 13.9485C17.9086 14.239 17.7437 14.6974 17.8289 15.1449L18.5289 18.8208C18.8031 20.2608 17.2914 21.3796 15.9944 20.6966L12.5824 18.9001C12.2178 18.7081 11.7822 18.7081 11.4176 18.9001L8.00559 20.6966C6.70858 21.3796 5.19695 20.2608 5.47115 18.8208L6.17113 15.1449C6.25633 14.6974 6.09141 14.239 5.74067 13.9485L3.24177 11.8781C2.07748 10.9136 2.60189 9.02598 4.09688 8.80018L7.52653 8.28218C7.90159 8.22553 8.23064 8.00164 8.42101 7.67355L10.4864 4.11419ZM12.2162 4.86702C12.1199 4.70098 11.8801 4.70098 11.7838 4.86702L9.71841 8.42638C9.29959 9.14817 8.57568 9.64073 7.75054 9.76535L4.3209 10.2834C4.10733 10.3156 4.03241 10.5853 4.19874 10.7231L6.69764 12.7934C7.46927 13.4327 7.8321 14.4411 7.64465 15.4254L6.94467 19.1014C6.9055 19.3071 7.12144 19.467 7.30673 19.3694L10.7188 17.5728C11.5207 17.1505 12.4793 17.1505 13.2812 17.5728L16.6933 19.3694C16.8786 19.467 17.0945 19.3071 17.0553 19.1014L16.3554 15.4254C16.1679 14.4411 16.5307 13.4327 17.3024 12.7934L19.8013 10.7231C19.9676 10.5853 19.8927 10.3156 19.6791 10.2834L16.2495 9.76535C15.4243 9.64073 14.7004 9.14817 14.2816 8.42638L12.2162 4.86702Z" fill="black"/>
</svg>
