<svg width="24" height="24" viewBox="0 0 24 24" fill="none" xmlns="http://www.w3.org/2000/svg">
<path d="M16 15.5C17.7848 15.5 19.2778 14.137 19.464 12.3681C19.4897 12.1245 19.4897 11.8755 19.464 11.6319C19.2778 9.86302 17.7848 8.5 16 8.5C14.2152 8.5 12.7222 9.86302 12.536 11.6319C12.5104 11.8755 12.5104 12.1245 12.536 12.3681C12.7222 14.137 14.2152 15.5 16 15.5Z" fill="black"/>
<path fill-rule="evenodd" clip-rule="evenodd" d="M15.9257 18.75H8.07432C4.75283 18.75 1.92495 16.3336 1.40693 13.0527C1.29679 12.3552 1.29679 11.6448 1.40693 10.9473C1.92495 7.6664 4.75283 5.25 8.07433 5.25H15.9257C19.2472 5.25 22.075 7.6664 22.5931 10.9473C22.7032 11.6448 22.7032 12.3552 22.5931 13.0527C22.075 16.3336 19.2472 18.75 15.9257 18.75ZM15.9257 17.25C18.509 17.25 20.7085 15.3706 21.1114 12.8188C21.1971 12.2763 21.1971 11.7237 21.1114 11.1812C20.7085 8.62942 18.509 6.75 15.9257 6.75L8.07433 6.75C5.49094 6.75 3.29148 8.62942 2.88857 11.1812C2.80291 11.7237 2.80291 12.2763 2.88857 12.8188C3.29148 15.3706 5.49094 17.25 8.07432 17.25H15.9257Z" fill="black"/>
</svg>
