<svg width="24" height="24" viewBox="0 0 24 24" fill="none" xmlns="http://www.w3.org/2000/svg">
<path d="M10.5 16C10.5 15.1716 11.1716 14.5 12 14.5C12.8284 14.5 13.5 15.1716 13.5 16C13.5 16.8284 12.8284 17.5 12 17.5C11.1716 17.5 10.5 16.8284 10.5 16Z" fill="black"/>
<path fill-rule="evenodd" clip-rule="evenodd" d="M9.81049 4.00497C10.0428 3.91246 10.2852 3.8475 10.5327 3.81144C12.006 3.59678 13.4327 4.42661 13.9745 5.81335L14.0495 6.00537C14.1424 6.2433 14.2087 6.4908 14.2472 6.74334L14.4638 8.16565L15.9467 7.9398L15.7301 6.51749C15.675 6.15544 15.5799 5.80062 15.4466 5.45951L15.3716 5.26749C14.5758 3.23066 12.4804 2.01182 10.3165 2.32712C9.95295 2.38008 9.59691 2.47548 9.25563 2.61137C7.22397 3.42026 6.01867 5.52354 6.34793 7.68538L6.37897 7.88919C6.43411 8.25123 6.52918 8.60605 6.66245 8.94716L7.3166 10.6215L6.93512 10.6519C5.85239 10.7384 4.96829 11.5523 4.79277 12.6242C4.4267 14.8598 4.4267 17.1401 4.79277 19.3758C4.96829 20.4477 5.85239 21.2616 6.93512 21.348L8.43125 21.4675C10.8066 21.6571 13.1934 21.6571 15.5687 21.4675L17.0649 21.348C18.1476 21.2616 19.0317 20.4477 19.2072 19.3758C19.5733 17.1401 19.5733 14.8598 19.2072 12.6242C19.0317 11.5523 18.1476 10.7384 17.0649 10.6519L15.5687 10.5325C13.3426 10.3548 11.1065 10.3436 8.87916 10.499L8.0596 8.4013C7.96665 8.16337 7.90033 7.91587 7.86187 7.66334L7.83083 7.45953C7.60666 5.98768 8.42727 4.55569 9.81049 4.00497ZM15.4494 12.0277C13.1534 11.8445 10.8466 11.8445 8.55062 12.0277L7.05449 12.1472C6.65956 12.1787 6.33708 12.4756 6.27306 12.8666C5.93327 14.9417 5.93327 17.0583 6.27306 19.1334C6.33708 19.5244 6.65956 19.8213 7.05449 19.8528L8.55062 19.9722C10.8465 20.1555 13.1534 20.1555 15.4494 19.9722L16.9455 19.8528C17.3404 19.8213 17.6629 19.5244 17.7269 19.1334C18.0667 17.0583 18.0667 14.9417 17.7269 12.8666C17.6629 12.4756 17.3404 12.1787 16.9455 12.1472L15.4494 12.0277Z" fill="black"/>
</svg>
