<svg width="24" height="24" viewBox="0 0 24 24" fill="none" xmlns="http://www.w3.org/2000/svg">
<path fill-rule="evenodd" clip-rule="evenodd" d="M12 3.75C8.43559 3.75 5.75 6.2048 5.75 9V10.2612C5.83234 10.2538 5.91573 10.25 6 10.25H9C9.41421 10.25 9.75 10.5858 9.75 11V18C9.75 18.4142 9.41421 18.75 9 18.75H6C4.48122 18.75 3.25 17.5188 3.25 16V13C3.25 12.146 3.63925 11.383 4.25 10.8786V9C4.25 5.16778 7.83242 2.25 12 2.25C16.1676 2.25 19.75 5.16778 19.75 9V10.8786C20.3608 11.383 20.75 12.146 20.75 13V16C20.75 17.5188 19.5188 18.75 18 18.75H15C14.5858 18.75 14.25 18.4142 14.25 18V11C14.25 10.5858 14.5858 10.25 15 10.25H18C18.0843 10.25 18.1677 10.2538 18.25 10.2612V9C18.25 6.2048 15.5644 3.75 12 3.75ZM6 11.75C5.30964 11.75 4.75 12.3096 4.75 13V16C4.75 16.6904 5.30964 17.25 6 17.25H8.25V11.75H6ZM19.25 13C19.25 12.3096 18.6904 11.75 18 11.75H15.75V17.25H18C18.6904 17.25 19.25 16.6904 19.25 16V13Z" fill="black"/>
</svg>
