<svg width="24" height="24" viewBox="0 0 24 24" fill="none" xmlns="http://www.w3.org/2000/svg">
<path d="M9.73361 2.6988C11.229 2.39239 12.771 2.39239 14.2663 2.6988C14.9131 2.83133 15.4112 3.34907 15.5185 4.00053L15.5728 4.32952C15.6652 4.89025 15.7388 5.45329 15.7937 6.0177C15.8009 6.09169 15.7744 6.16494 15.7218 6.21751L14.7992 7.14017C14.645 7.2943 14.3796 7.19116 14.3658 6.97361C14.315 6.17063 14.2239 5.36957 14.0927 4.57344L14.0385 4.24445C14.0322 4.20632 14.0031 4.17602 13.9652 4.16827C12.6685 3.90257 11.3314 3.90257 10.0347 4.16827C9.99686 4.17602 9.96771 4.20632 9.96143 4.24445L9.90721 4.57344C9.50423 7.0186 9.48021 9.5103 9.83514 11.961C9.84651 12.0395 9.82045 12.1189 9.76436 12.175L8.84631 13.093C8.72103 13.2183 8.5102 13.1743 8.48139 12.9995L8.42717 12.6705C7.97203 9.90879 7.97203 7.09121 8.42717 4.32952L8.48139 4.00053C8.58876 3.34907 9.0868 2.83133 9.73361 2.6988Z" fill="black"/>
<path fill-rule="evenodd" clip-rule="evenodd" d="M15.8708 9.98983L21.0303 4.83032C21.3232 4.53742 21.3232 4.06255 21.0303 3.76966C20.7374 3.47676 20.2626 3.47676 19.9697 3.76966L3.96967 19.7697C3.67678 20.0625 3.67678 20.5374 3.96967 20.8303C4.26256 21.1232 4.73744 21.1232 5.03033 20.8303L7.65903 18.2016C7.66143 18.2019 7.66383 18.2022 7.66623 18.2025C8.85647 18.3546 10.0527 18.4437 11.25 18.47V22.5C11.25 22.9142 11.5858 23.25 12 23.25C12.4142 23.25 12.75 22.9142 12.75 22.5V18.47C13.9473 18.4437 15.1435 18.3546 16.3337 18.2025C17.8644 18.007 19.0755 16.8124 19.292 15.2845L19.7426 12.1052C19.8007 11.6951 19.5153 11.3155 19.1052 11.2574C18.6951 11.1993 18.3155 11.4847 18.2574 11.8948L17.8069 15.0741C17.6852 15.9331 17.0042 16.6047 16.1437 16.7146C13.7792 17.0166 11.39 17.0591 9.01862 16.842L11.3485 14.5122C12.3238 14.5686 13.3047 14.4982 14.2663 14.3012C14.9131 14.1687 15.4112 13.6509 15.5185 12.9995L15.5728 12.6705C15.7193 11.7815 15.8186 10.8867 15.8708 9.98983ZM14.2073 11.6533L12.8682 12.9924C13.2359 12.9597 13.6021 12.9061 13.9652 12.8317C14.0031 12.824 14.0322 12.7937 14.0385 12.7556L14.0927 12.4266C14.1351 12.1693 14.1733 11.9115 14.2073 11.6533Z" fill="black"/>
<path d="M6.19306 15.0741C6.21072 15.1987 6.24015 15.3194 6.28019 15.435C6.31421 15.5332 6.29536 15.644 6.22188 15.7175L5.45976 16.4796C5.34801 16.5913 5.16141 16.5727 5.0862 16.4337C4.89672 16.0835 4.76622 15.6961 4.7079 15.2845L4.25739 12.1052C4.19928 11.6951 4.48463 11.3155 4.89475 11.2574C5.30487 11.1993 5.68444 11.4847 5.74255 11.8948L6.19306 15.0741Z" fill="black"/>
</svg>
