<svg width="24" height="24" viewBox="0 0 24 24" fill="none" xmlns="http://www.w3.org/2000/svg">
<path fill-rule="evenodd" clip-rule="evenodd" d="M9.73361 2.6988C11.229 2.39239 12.771 2.39239 14.2663 2.6988C14.9131 2.83133 15.4112 3.34907 15.5185 4.00053L15.5728 4.32952C16.0279 7.09121 16.0279 9.90879 15.5728 12.6705L15.5185 12.9995C15.4112 13.6509 14.9131 14.1687 14.2663 14.3012C12.771 14.6076 11.229 14.6076 9.73361 14.3012C9.08681 14.1687 8.58876 13.6509 8.48139 12.9995L8.42717 12.6705C7.97203 9.90879 7.97203 7.09121 8.42717 4.32952L8.48139 4.00053C8.58876 3.34907 9.0868 2.83133 9.73361 2.6988ZM13.9652 4.16827C12.6685 3.90257 11.3314 3.90257 10.0347 4.16827C9.99686 4.17602 9.96771 4.20632 9.96143 4.24445L9.90721 4.57344C9.47868 7.17361 9.47868 9.82639 9.90721 12.4266L9.96143 12.7556C9.96771 12.7937 9.99686 12.824 10.0347 12.8317C11.3314 13.0974 12.6685 13.0974 13.9652 12.8317C14.0031 12.824 14.0322 12.7937 14.0385 12.7556L14.0927 12.4266C14.5213 9.82639 14.5213 7.17361 14.0927 4.57344L14.0385 4.24445C14.0322 4.20632 14.0031 4.17602 13.9652 4.16827Z" fill="black"/>
<path d="M4.89475 11.2574C5.30486 11.1993 5.68444 11.4847 5.74255 11.8948L6.19306 15.0741C6.31478 15.9331 6.9957 16.6047 7.85628 16.7146C10.6076 17.0661 13.3924 17.0661 16.1437 16.7146C17.0042 16.6047 17.6852 15.9331 17.8069 15.0741L18.2574 11.8948C18.3155 11.4847 18.6951 11.1993 19.1052 11.2574C19.5153 11.3155 19.8007 11.6951 19.7426 12.1052L19.292 15.2845C19.0755 16.8124 17.8644 18.007 16.3337 18.2025C15.1435 18.3546 13.9473 18.4437 12.75 18.47V22.5C12.75 22.9142 12.4142 23.25 12 23.25C11.5858 23.25 11.25 22.9142 11.25 22.5V18.47C10.0527 18.4437 8.85647 18.3546 7.66623 18.2025C6.13553 18.007 4.9244 16.8124 4.7079 15.2845L4.25739 12.1052C4.19928 11.6951 4.48463 11.3155 4.89475 11.2574Z" fill="black"/>
</svg>
