<svg width="24" height="24" viewBox="0 0 24 24" fill="none" xmlns="http://www.w3.org/2000/svg">
<path fill-rule="evenodd" clip-rule="evenodd" d="M18.535 4.76622C19.265 5.03519 19.75 5.73073 19.75 6.50875V17.4912C19.75 18.2693 19.265 18.9648 18.535 19.2338C17.5442 19.5988 16.4558 19.5988 15.465 19.2338C14.735 18.9648 14.25 18.2693 14.25 17.4912L14.25 6.50875C14.25 5.73073 14.735 5.03519 15.465 4.76622C16.4558 4.40121 17.5442 4.40121 18.535 4.76622ZM18.25 6.50875C18.25 6.35917 18.1568 6.22545 18.0164 6.17374C17.3604 5.93204 16.6396 5.93204 15.9836 6.17374C15.8432 6.22545 15.75 6.35917 15.75 6.50875L15.75 17.4912C15.75 17.6408 15.8432 17.7745 15.9836 17.8262C16.6396 18.068 17.3604 18.068 18.0164 17.8262C18.1568 17.7745 18.25 17.6408 18.25 17.4912V6.50875Z" fill="black"/>
<path fill-rule="evenodd" clip-rule="evenodd" d="M8.53496 4.76622C9.26501 5.03519 9.75 5.73073 9.75 6.50875L9.75 17.4912C9.75 18.2693 9.26501 18.9648 8.53496 19.2338C7.5442 19.5988 6.4558 19.5988 5.46504 19.2338C4.73499 18.9648 4.25 18.2693 4.25 17.4912L4.25 6.50875C4.25 5.73073 4.73499 5.03519 5.46504 4.76622C6.4558 4.40121 7.5442 4.40121 8.53496 4.76622ZM8.25 6.50875C8.25 6.35917 8.15676 6.22545 8.0164 6.17374C7.36035 5.93204 6.63965 5.93204 5.9836 6.17374C5.84324 6.22545 5.75 6.35917 5.75 6.50875L5.75 17.4912C5.75 17.6408 5.84324 17.7745 5.9836 17.8262C6.63965 18.068 7.36035 18.068 8.0164 17.8262C8.15676 17.7745 8.25 17.6408 8.25 17.4912L8.25 6.50875Z" fill="black"/>
</svg>
