<svg width="24" height="24" viewBox="0 0 24 24" fill="none" xmlns="http://www.w3.org/2000/svg">
<path d="M16.4697 5.46967C16.1768 5.76256 16.1768 6.23744 16.4697 6.53033L17.1893 7.25H13.3768C12.706 7.25 12.0942 7.63343 11.8018 8.23713L11.5914 8.67144C11.5381 8.78157 11.5381 8.91006 11.5914 9.02018L12.1603 10.1947C12.2332 10.3451 12.4474 10.3451 12.5203 10.1947L13.1518 8.89102C13.1935 8.80478 13.2809 8.75 13.3768 8.75H17.1893L16.4697 9.46967C16.1768 9.76256 16.1768 10.2374 16.4697 10.5303C16.7626 10.8232 17.2374 10.8232 17.5303 10.5303L19.5303 8.53033C19.8232 8.23744 19.8232 7.76256 19.5303 7.46967L17.5303 5.46967C17.2374 5.17678 16.7626 5.17678 16.4697 5.46967Z" fill="black"/>
<path d="M10.0336 15.3286C10.0869 15.2184 10.0869 15.0899 10.0336 14.9798L9.46469 13.8053C9.39183 13.6549 9.17755 13.6549 9.10469 13.8053L8.47324 15.109C8.43146 15.1952 8.34407 15.25 8.24824 15.25H5C4.58579 15.25 4.25 15.5858 4.25 16C4.25 16.4142 4.58579 16.75 5 16.75H8.24824C8.91903 16.75 9.53079 16.3666 9.82321 15.7629L10.0336 15.3286Z" fill="black"/>
<path d="M16.4697 18.5303C16.1768 18.2374 16.1768 17.7626 16.4697 17.4697L17.1893 16.75H13.3768C12.706 16.75 12.0942 16.3666 11.8018 15.7629L8.47324 8.89102C8.43146 8.80478 8.34407 8.75 8.24824 8.75H5C4.58579 8.75 4.25 8.41421 4.25 8C4.25 7.58579 4.58579 7.25 5 7.25H8.24824C8.91903 7.25 9.53079 7.63343 9.82321 8.23713L13.1518 15.109C13.1935 15.1952 13.2809 15.25 13.3768 15.25H17.1893L16.4697 14.5303C16.1768 14.2374 16.1768 13.7626 16.4697 13.4697C16.7626 13.1768 17.2374 13.1768 17.5303 13.4697L19.5303 15.4697C19.8232 15.7626 19.8232 16.2374 19.5303 16.5303L17.5303 18.5303C17.2374 18.8232 16.7626 18.8232 16.4697 18.5303Z" fill="black"/>
</svg>
