<svg width="24" height="24" viewBox="0 0 24 24" fill="none" xmlns="http://www.w3.org/2000/svg">
<path d="M15.25 10.1068C12.2361 9.88371 9.20974 9.88704 6.19627 10.1167C5.96416 11.3562 5.96432 12.6284 6.19663 13.8678C9.20963 14.1064 12.2366 14.1099 15.25 13.8782V10.1068Z" fill="black"/>
<path fill-rule="evenodd" clip-rule="evenodd" d="M22 14V10C22 9.17157 21.3284 8.5 20.5 8.5H19.6V8.18967C19.6 7.04916 18.7225 6.10063 17.5855 6.01197L16.317 5.91306C12.7777 5.63709 9.22229 5.63709 5.683 5.91306L4.3354 6.01814C3.24022 6.10353 2.344 6.92392 2.16238 8.0073C1.71923 10.6507 1.71923 13.3493 2.16238 15.9927C2.344 17.0761 3.24022 17.8965 4.3354 17.9819L5.683 18.0869C9.22229 18.3629 12.7777 18.3629 16.317 18.0869L17.5855 17.988C18.7225 17.8994 19.6 16.9508 19.6 15.8103V15.5H20.5C21.3284 15.5 22 14.8284 22 14ZM16.75 9.78988V14.208C16.75 14.8027 16.2939 15.298 15.7012 15.347C12.4323 15.6169 9.14666 15.6169 5.87776 15.347L5.70348 15.3326C5.26569 15.2964 4.90237 14.98 4.8062 14.5516C4.42774 12.8662 4.4276 11.1172 4.80607 9.43168C4.90254 9.00205 5.26763 8.68537 5.70658 8.65057L5.89532 8.63561C9.15297 8.37737 12.426 8.37737 15.6836 8.63561C16.2857 8.68334 16.75 9.18588 16.75 9.78988Z" fill="black"/>
</svg>
