<svg width="24" height="24" viewBox="0 0 24 24" fill="none" xmlns="http://www.w3.org/2000/svg">
<path fill-rule="evenodd" clip-rule="evenodd" d="M22 10V14C22 14.8284 21.3284 15.5 20.5 15.5H19.6V15.8103C19.6 16.9508 18.7225 17.8994 17.5855 17.988L16.317 18.0869C12.7777 18.3629 9.22229 18.3629 5.683 18.0869L4.3354 17.9819C3.24022 17.8965 2.344 17.0761 2.16238 15.9927C1.71923 13.3493 1.71923 10.6507 2.16238 8.0073C2.344 6.92392 3.24022 6.10353 4.3354 6.01814L5.683 5.91306C9.22229 5.63709 12.7777 5.63709 16.317 5.91306L17.5855 6.01197C18.7225 6.10063 19.6 7.04916 19.6 8.18967V8.5H20.5C21.3284 8.5 22 9.17157 22 10ZM16.75 14.208V9.78988C16.75 9.18588 16.2857 8.68334 15.6836 8.63561C12.426 8.37737 9.15297 8.37737 5.89532 8.63561L5.70659 8.65057C5.26764 8.68537 4.90255 9.00205 4.80608 9.43168C4.42761 11.1172 4.42775 12.8662 4.8062 14.5516C4.90238 14.98 5.26569 15.2964 5.70349 15.3326L5.87776 15.347C9.14667 15.6169 12.4323 15.6169 15.7012 15.347C16.2939 15.298 16.75 14.8027 16.75 14.208Z" fill="black"/>
</svg>
