<svg width="24" height="24" viewBox="0 0 24 24" fill="none" xmlns="http://www.w3.org/2000/svg">
<path d="M9.75 13C9.75 11.7574 10.7574 10.75 12 10.75C13.2426 10.75 14.25 11.7574 14.25 13C14.25 14.2426 13.2426 15.25 12 15.25C10.7574 15.25 9.75 14.2426 9.75 13Z" fill="black"/>
<path fill-rule="evenodd" clip-rule="evenodd" d="M7.47366 7.64245C7.47366 5.90692 8.88058 4.5 10.6161 4.5H13.3838C15.1194 4.5 16.5263 5.90692 16.5263 7.64245C16.5263 7.65729 16.5377 7.66964 16.5525 7.67084L18.7821 7.85192C19.7808 7.93303 20.6022 8.67157 20.7886 9.65609C21.2643 12.1684 21.2997 14.7443 20.8934 17.2687L20.7962 17.8729C20.6128 19.0118 19.6755 19.8783 18.5257 19.9717L16.5834 20.1294C13.5328 20.3772 10.4672 20.3772 7.41659 20.1294L5.47426 19.9717C4.32448 19.8783 3.38711 19.0118 3.2038 17.8729L3.10655 17.2687C2.70022 14.7443 2.73569 12.1684 3.21137 9.65609C3.39778 8.67157 4.21915 7.93303 5.21788 7.85192L7.44747 7.67084C7.46227 7.66964 7.47366 7.65729 7.47366 7.64245ZM12 9.25C9.92893 9.25 8.25 10.9289 8.25 13C8.25 15.0711 9.92893 16.75 12 16.75C14.0711 16.75 15.75 15.0711 15.75 13C15.75 10.9289 14.0711 9.25 12 9.25Z" fill="black"/>
</svg>
