<svg width="24" height="24" viewBox="0 0 24 24" fill="none" xmlns="http://www.w3.org/2000/svg">
<path fill-rule="evenodd" clip-rule="evenodd" d="M12 3.74969L19.2736 3.95535C20.5588 3.99169 21.6219 4.96734 21.768 6.24474C22.0915 9.07235 22.0915 11.9276 21.768 14.7552C21.6219 16.0326 20.5588 17.0083 19.2736 17.0446L13.25 17.215V19.25H17C17.4142 19.25 17.75 19.5858 17.75 20C17.75 20.4142 17.4142 20.75 17 20.75H7C6.58579 20.75 6.25 20.4142 6.25 20C6.25 19.5858 6.58579 19.25 7 19.25H10.75V17.215L4.72636 17.0446C3.44114 17.0083 2.37812 16.0326 2.23196 14.7552C1.90844 11.9276 1.90844 9.07235 2.23196 6.24474C2.37812 4.96734 3.44114 3.99169 4.72636 3.95535L12 3.74969ZM5 13.75C4.58579 13.75 4.25 14.0858 4.25 14.5C4.25 14.9142 4.58579 15.25 5 15.25H19C19.4142 15.25 19.75 14.9142 19.75 14.5C19.75 14.0858 19.4142 13.75 19 13.75H5Z" fill="black"/>
</svg>
