<svg width="24" height="24" viewBox="0 0 24 24" fill="none" xmlns="http://www.w3.org/2000/svg">
<path d="M6.91804 1.59949C6.31259 1.53182 5.68743 1.53182 5.08199 1.59949C4.57616 1.65602 4.16572 2.05404 4.10569 2.56734C4.03321 3.187 4.03321 3.813 4.10569 4.43265C4.16572 4.94596 4.57616 5.34397 5.08199 5.40051C5.68743 5.46818 6.31259 5.46817 6.91804 5.40051C7.42387 5.34397 7.8343 4.94596 7.89434 4.43265C7.96681 3.813 7.96681 3.187 7.89434 2.56734C7.8343 2.05404 7.42387 1.65602 6.91804 1.59949Z" fill="black"/>
<path d="M12.918 1.59949C12.3126 1.53182 11.6874 1.53182 11.082 1.59949C10.5762 1.65602 10.1657 2.05404 10.1057 2.56734C10.0332 3.187 10.0332 3.813 10.1057 4.43265C10.1657 4.94596 10.5762 5.34397 11.082 5.40051C11.6874 5.46818 12.3126 5.46817 12.918 5.40051C13.4239 5.34397 13.8343 4.94596 13.8943 4.43265C13.9668 3.813 13.9668 3.187 13.8943 2.56734C13.8343 2.05404 13.4239 1.65602 12.918 1.59949Z" fill="black"/>
<path d="M18.918 1.59949C18.3126 1.53182 17.6874 1.53182 17.082 1.59949C16.5762 1.65602 16.1657 2.05404 16.1057 2.56734C16.0332 3.187 16.0332 3.813 16.1057 4.43265C16.1657 4.94596 16.5762 5.34397 17.082 5.40051C17.6874 5.46818 18.3126 5.46817 18.918 5.40051C19.4239 5.34397 19.8343 4.94596 19.8943 4.43265C19.9668 3.813 19.9668 3.187 19.8943 2.56734C19.8343 2.05404 19.4239 1.65602 18.918 1.59949Z" fill="black"/>
<path d="M6.91804 7.09949C6.31259 7.03182 5.68743 7.03182 5.08199 7.09949C4.57616 7.15602 4.16572 7.55404 4.10569 8.06734C4.03321 8.687 4.03321 9.31299 4.10569 9.93266C4.16572 10.446 4.57616 10.844 5.08199 10.9005C5.68743 10.9682 6.31259 10.9682 6.91804 10.9005C7.42387 10.844 7.8343 10.446 7.89434 9.93266C7.96681 9.31299 7.96681 8.687 7.89434 8.06734C7.8343 7.55404 7.42387 7.15602 6.91804 7.09949Z" fill="black"/>
<path d="M12.918 7.09949C12.3126 7.03182 11.6874 7.03182 11.082 7.09949C10.5762 7.15602 10.1657 7.55404 10.1057 8.06734C10.0332 8.687 10.0332 9.31299 10.1057 9.93266C10.1657 10.446 10.5762 10.844 11.082 10.9005C11.6874 10.9682 12.3126 10.9682 12.918 10.9005C13.4239 10.844 13.8343 10.446 13.8943 9.93266C13.9668 9.31299 13.9668 8.687 13.8943 8.06734C13.8343 7.55404 13.4239 7.15602 12.918 7.09949Z" fill="black"/>
<path d="M18.918 7.09949C18.3126 7.03182 17.6874 7.03182 17.082 7.09949C16.5762 7.15602 16.1657 7.55404 16.1057 8.06734C16.0332 8.687 16.0332 9.31299 16.1057 9.93266C16.1657 10.446 16.5762 10.844 17.082 10.9005C17.6874 10.9682 18.3126 10.9682 18.918 10.9005C19.4239 10.844 19.8343 10.446 19.8943 9.93266C19.9668 9.31299 19.9668 8.687 19.8943 8.06734C19.8343 7.55404 19.4239 7.15602 18.918 7.09949Z" fill="black"/>
<path d="M6.91804 12.5995C6.31259 12.5318 5.68743 12.5318 5.08199 12.5995C4.57616 12.656 4.16572 13.054 4.10569 13.5673C4.03321 14.187 4.03321 14.813 4.10569 15.4327C4.16572 15.946 4.57616 16.344 5.08199 16.4005C5.68743 16.4682 6.31259 16.4682 6.91804 16.4005C7.42387 16.344 7.8343 15.946 7.89434 15.4327C7.96681 14.813 7.96681 14.187 7.89434 13.5673C7.8343 13.054 7.42387 12.656 6.91804 12.5995Z" fill="black"/>
<path d="M12.918 12.5995C12.3126 12.5318 11.6874 12.5318 11.082 12.5995C10.5762 12.656 10.1657 13.054 10.1057 13.5673C10.0332 14.187 10.0332 14.813 10.1057 15.4327C10.1657 15.946 10.5762 16.344 11.082 16.4005C11.6874 16.4682 12.3126 16.4682 12.918 16.4005C13.4239 16.344 13.8343 15.946 13.8943 15.4327C13.9668 14.813 13.9668 14.187 13.8943 13.5673C13.8343 13.054 13.4239 12.656 12.918 12.5995Z" fill="black"/>
<path d="M12.918 18.0995C12.3126 18.0318 11.6874 18.0318 11.082 18.0995C10.5762 18.156 10.1657 18.554 10.1057 19.0673C10.0332 19.687 10.0332 20.313 10.1057 20.9327C10.1657 21.446 10.5762 21.844 11.082 21.9005C11.6874 21.9682 12.3126 21.9682 12.918 21.9005C13.4239 21.844 13.8343 21.446 13.8943 20.9327C13.9668 20.313 13.9668 19.687 13.8943 19.0673C13.8343 18.554 13.4239 18.156 12.918 18.0995Z" fill="black"/>
<path d="M18.918 12.5995C18.3126 12.5318 17.6874 12.5318 17.082 12.5995C16.5762 12.656 16.1657 13.054 16.1057 13.5673C16.0332 14.187 16.0332 14.813 16.1057 15.4327C16.1657 15.946 16.5762 16.344 17.082 16.4005C17.6874 16.4682 18.3126 16.4682 18.918 16.4005C19.4239 16.344 19.8343 15.946 19.8943 15.4327C19.9668 14.813 19.9668 14.187 19.8943 13.5673C19.8343 13.054 19.4239 12.656 18.918 12.5995Z" fill="black"/>
</svg>
