<svg width="24" height="24" viewBox="0 0 24 24" fill="none" xmlns="http://www.w3.org/2000/svg">
<path fill-rule="evenodd" clip-rule="evenodd" d="M13.0138 2.65387C16.1731 3.15272 18.5 5.87585 18.5 9.07433L18.5 14.9257C18.5 18.1241 16.1731 20.8473 13.0138 21.3461C12.3421 21.4522 11.6579 21.4522 10.9862 21.3461C7.82691 20.8473 5.5 18.1241 5.5 14.9257V9.07433C5.5 5.87586 7.82691 3.15272 10.9862 2.65387C11.6579 2.54782 12.3421 2.54782 13.0138 2.65387ZM11.25 10C11.25 10.4142 11.5858 10.75 12 10.75C12.4142 10.75 12.75 10.4142 12.75 10V7C12.75 6.58579 12.4142 6.25 12 6.25C11.5858 6.25 11.25 6.58579 11.25 7V10Z" fill="black"/>
</svg>
