<svg width="24" height="24" viewBox="0 0 24 24" fill="none" xmlns="http://www.w3.org/2000/svg">
<path d="M12.9726 2.6475C12.8543 2.6296 12.75 2.72272 12.75 2.84232L12.75 8.95C12.75 9.11569 12.8843 9.25 13.05 9.25H18.2C18.3657 9.25 18.5007 9.11559 18.4932 8.95008C18.3533 5.87209 16.074 3.13707 13.0138 2.65387C13 2.6517 12.9863 2.64958 12.9726 2.6475Z" fill="black"/>
<path d="M11.0274 2.6475C11.1457 2.62961 11.25 2.72272 11.25 2.84232L11.25 8.95C11.25 9.11569 11.1157 9.25 10.95 9.25H5.8C5.63431 9.25 5.49929 9.11559 5.50682 8.95008C5.64674 5.87209 7.92597 3.13707 10.9862 2.65387C11 2.6517 11.0137 2.64958 11.0274 2.6475Z" fill="black"/>
<path d="M5.8 10.75C5.63431 10.75 5.5 10.8843 5.5 11.05V14.9257C5.5 18.1241 7.82691 20.8473 10.9862 21.3461C11.6579 21.4522 12.3421 21.4522 13.0138 21.3461C16.1731 20.8473 18.5 18.1241 18.5 14.9257L18.5 11.05C18.5 10.8843 18.3657 10.75 18.2 10.75H5.8Z" fill="black"/>
</svg>
