<svg width="24" height="24" viewBox="0 0 24 24" fill="none" xmlns="http://www.w3.org/2000/svg">
<path fill-rule="evenodd" clip-rule="evenodd" d="M7.3445 4.01721C10.4136 3.67419 13.5864 3.67419 16.6555 4.01721C18.3682 4.20863 19.7499 5.55804 19.9511 7.27753C20.318 10.4152 20.318 13.5849 19.9511 16.7225C19.7499 18.442 18.3682 19.7914 16.6555 19.9828C13.5864 20.3258 10.4136 20.3258 7.3445 19.9828C5.63178 19.7914 4.25002 18.442 4.04891 16.7225C3.68194 13.5849 3.68194 10.4152 4.04891 7.27753C4.25002 5.55804 5.63178 4.20863 7.3445 4.01721ZM12 7.00735C12.4142 7.00735 12.75 7.34314 12.75 7.75735V11.25H16.2427C16.6569 11.25 16.9927 11.5858 16.9927 12C16.9927 12.4142 16.6569 12.75 16.2427 12.75H12.75V16.2426C12.75 16.6569 12.4142 16.9926 12 16.9926C11.5858 16.9926 11.25 16.6569 11.25 16.2426V12.75H7.75739C7.34317 12.75 7.00739 12.4142 7.00739 12C7.00739 11.5858 7.34317 11.25 7.75739 11.25H11.25V7.75735C11.25 7.34314 11.5858 7.00735 12 7.00735Z" fill="black"/>
</svg>
