<svg width="24" height="24" viewBox="0 0 24 24" fill="none" xmlns="http://www.w3.org/2000/svg">
<path fill-rule="evenodd" clip-rule="evenodd" d="M2.25 12C2.25 8.27208 5.27208 5.25 9 5.25H17C19.6234 5.25 21.75 7.37665 21.75 10C21.75 12.6234 19.6234 14.75 17 14.75H8.85714C7.33836 14.75 6.10714 13.5188 6.10714 12C6.10714 10.4812 7.33836 9.25 8.85714 9.25H16.7143C17.1285 9.25 17.4643 9.58579 17.4643 10C17.4643 10.4142 17.1285 10.75 16.7143 10.75H8.85714C8.16679 10.75 7.60714 11.3096 7.60714 12C7.60714 12.6904 8.16679 13.25 8.85714 13.25H17C18.7949 13.25 20.25 11.7949 20.25 10C20.25 8.20507 18.7949 6.75 17 6.75H9C6.1005 6.75 3.75 9.10051 3.75 12C3.75 14.8995 6.10051 17.25 9 17.25H16.7143C17.1285 17.25 17.4643 17.5858 17.4643 18C17.4643 18.4142 17.1285 18.75 16.7143 18.75H9C5.27208 18.75 2.25 15.7279 2.25 12Z" fill="black"/>
</svg>
