<svg width="24" height="24" viewBox="0 0 24 24" fill="none" xmlns="http://www.w3.org/2000/svg">
<path fill-rule="evenodd" clip-rule="evenodd" d="M7.3445 4.01721C10.4136 3.67419 13.5864 3.67419 16.6555 4.01721C18.3682 4.20863 19.7499 5.55804 19.9511 7.27753C20.318 10.4152 20.318 13.5849 19.9511 16.7225C19.7499 18.442 18.3682 19.7914 16.6555 19.9828C13.5864 20.3258 10.4136 20.3258 7.3445 19.9828C5.63178 19.7914 4.25002 18.442 4.04891 16.7225C3.68194 13.5849 3.68194 10.4152 4.04891 7.27753C4.25002 5.55804 5.63178 4.20863 7.3445 4.01721ZM8.46967 8.46967C8.76256 8.17678 9.23744 8.17678 9.53033 8.46967L12 10.9393L14.4697 8.46968C14.7626 8.17679 15.2374 8.17679 15.5303 8.46968C15.8232 8.76257 15.8232 9.23745 15.5303 9.53034L13.0607 12L15.5303 14.4697C15.8232 14.7626 15.8232 15.2374 15.5303 15.5303C15.2374 15.8232 14.7626 15.8232 14.4697 15.5303L12 13.0607L9.53034 15.5303C9.23744 15.8232 8.76257 15.8232 8.46968 15.5303C8.17678 15.2374 8.17678 14.7626 8.46968 14.4697L10.9393 12L8.46967 9.53033C8.17678 9.23744 8.17678 8.76256 8.46967 8.46967Z" fill="black"/>
</svg>
