<svg width="24" height="24" viewBox="0 0 24 24" fill="none" xmlns="http://www.w3.org/2000/svg">
<path d="M10.5417 19.2669C11.0144 14.4338 11.0144 9.56617 10.5417 4.73308C10.4992 4.29836 10.2011 3.9323 9.78901 3.79853C8.14609 3.26521 6.35391 3.26521 4.71099 3.79853C4.29893 3.93229 4.00079 4.29836 3.95828 4.73308C3.48563 9.56617 3.48563 14.4338 3.95828 19.2669C4.00079 19.7016 4.29893 20.0677 4.71099 20.2015C6.35391 20.7348 8.14609 20.7348 9.78901 20.2015C10.2011 20.0677 10.4992 19.7016 10.5417 19.2669Z" fill="black"/>
<path d="M20.0417 19.2669C20.5144 14.4338 20.5144 9.56617 20.0417 4.73308C19.9992 4.29836 19.7011 3.9323 19.289 3.79853C17.6461 3.26521 15.8539 3.26521 14.211 3.79853C13.7989 3.93229 13.5008 4.29836 13.4583 4.73308C12.9856 9.56617 12.9856 14.4338 13.4583 19.2669C13.5008 19.7016 13.7989 20.0677 14.211 20.2015C15.8539 20.7348 17.6461 20.7348 19.289 20.2015C19.7011 20.0677 19.9992 19.7016 20.0417 19.2669Z" fill="black"/>
</svg>
