<svg width="24" height="24" viewBox="0 0 24 24" fill="none" xmlns="http://www.w3.org/2000/svg">
<path d="M16.4765 3.00353C16.6441 3.01946 16.7164 3.22293 16.5974 3.34196L8.27727 11.6621C8.18305 11.7563 8.11563 11.8739 8.08195 12.0028L7.08195 15.8313C7.01466 16.0889 7.089 16.3629 7.27727 16.5511C7.46555 16.7394 7.73953 16.8138 7.99715 16.7465L11.8256 15.7465C11.9545 15.7128 12.0721 15.6454 12.1664 15.5511L20.6043 7.11322C20.7227 6.99483 20.9251 7.06566 20.9426 7.23217C21.2941 10.5813 21.2742 13.9597 20.8829 17.3055C20.6601 19.2106 19.1289 20.7064 17.2305 20.9185C13.7824 21.3039 10.2177 21.3039 6.76954 20.9185C4.87114 20.7064 3.33995 19.2106 3.11713 17.3055C2.70485 13.7805 2.70485 10.2195 3.11713 6.69449C3.33995 4.78944 4.87114 3.29366 6.76954 3.08148C9.96693 2.72413 13.2646 2.69814 16.4765 3.00353Z" fill="black"/>
<path d="M17.8234 4.23729C17.921 4.13985 18.079 4.13985 18.1766 4.23729L19.591 5.65165C19.6886 5.74928 19.6886 5.90757 19.591 6.0052L11.2976 14.2986C11.2663 14.3299 11.2267 14.3524 11.184 14.3637L9.26955 14.8638C9.08491 14.9119 8.91676 14.7433 8.96469 14.5587L9.46468 12.6445C9.47591 12.6015 9.49839 12.5623 9.52979 12.5309L17.8234 4.23729Z" fill="black"/>
</svg>
