<svg width="24" height="24" viewBox="0 0 24 24" fill="none" xmlns="http://www.w3.org/2000/svg">
<path fill-rule="evenodd" clip-rule="evenodd" d="M12 11.6495C11.3096 11.6495 10.75 12.2091 10.75 12.8995C10.75 13.5898 11.3096 14.1495 12 14.1495C12.6904 14.1495 13.25 13.5898 13.25 12.8995C13.25 12.2091 12.6904 11.6495 12 11.6495ZM9.25 12.8995C9.25 11.3807 10.4812 10.1495 12 10.1495C13.5188 10.1495 14.75 11.3807 14.75 12.8995C14.75 14.4183 13.5188 15.6495 12 15.6495C10.4812 15.6495 9.25 14.4183 9.25 12.8995Z" fill="black"/>
<path fill-rule="evenodd" clip-rule="evenodd" d="M12 7.64948C10.9617 7.64948 9.94662 7.95738 9.08326 8.53426C8.2199 9.11114 7.547 9.93108 7.14964 10.8904C6.75228 11.8497 6.64831 12.9053 6.85088 13.9237C7.05345 14.9421 7.55347 15.8776 8.28769 16.6118C8.58059 16.9047 8.58059 17.3796 8.28769 17.6724C7.9948 17.9653 7.51993 17.9653 7.22703 17.6724C6.28303 16.7284 5.64015 15.5257 5.3797 14.2163C5.11925 12.907 5.25292 11.5498 5.76382 10.3164C6.27471 9.08296 7.13987 8.02876 8.2499 7.28706C9.35994 6.54536 10.665 6.14948 12 6.14948C13.335 6.14948 14.6401 6.54536 15.7501 7.28706C16.8601 8.02875 17.7253 9.08296 18.2362 10.3164C18.7471 11.5498 18.8808 12.907 18.6203 14.2163C18.3599 15.5257 17.717 16.7284 16.773 17.6724C16.4801 17.9653 16.0052 17.9653 15.7123 17.6724C15.4194 17.3796 15.4194 16.9047 15.7123 16.6118C16.4465 15.8776 16.9466 14.9421 17.1491 13.9237C17.3517 12.9053 17.2477 11.8497 16.8504 10.8904C16.453 9.93108 15.7801 9.11114 14.9167 8.53426C14.0534 7.95738 13.0384 7.64948 12 7.64948Z" fill="black"/>
<path fill-rule="evenodd" clip-rule="evenodd" d="M12.0001 3.75C10.1905 3.75 8.42152 4.28661 6.9169 5.29197C5.41227 6.29733 4.23956 7.72628 3.54705 9.39813C2.85455 11.07 2.67336 12.9096 3.0264 14.6845C3.37943 16.4593 4.25083 18.0896 5.53041 19.3692C5.82331 19.662 5.82331 20.1369 5.53041 20.4298C5.23752 20.7227 4.76265 20.7227 4.46975 20.4298C2.9804 18.9405 1.96613 17.0429 1.55522 14.9771C1.14431 12.9113 1.3552 10.77 2.16123 8.82411C2.96727 6.87817 4.33224 5.21494 6.08354 4.04476C7.83484 2.87458 9.89381 2.25 12.0001 2.25C14.1063 2.25 16.1653 2.87458 17.9166 4.04476C19.6679 5.21494 21.0329 6.87817 21.8389 8.82411C22.645 10.77 22.8559 12.9113 22.4449 14.9771C22.034 17.0429 21.0198 18.9405 19.5304 20.4298C19.2375 20.7227 18.7626 20.7227 18.4697 20.4298C18.1768 20.1369 18.1768 19.662 18.4697 19.3692C19.7493 18.0896 20.6207 16.4593 20.9738 14.6845C21.3268 12.9096 21.1456 11.07 20.4531 9.39813C19.7606 7.72628 18.5879 6.29733 17.0833 5.29197C15.5786 4.28661 13.8097 3.75 12.0001 3.75Z" fill="black"/>
</svg>
