<svg width="24" height="24" viewBox="0 0 24 24" fill="none" xmlns="http://www.w3.org/2000/svg">
<path d="M9.06802 3.22802C7.70453 3.07563 6.29549 3.07563 4.932 3.22802C4.05481 3.32605 3.34551 4.01681 3.24207 4.90124C3.07898 6.29566 3.07898 7.70434 3.24207 9.09875C3.34551 9.98319 4.05481 10.6739 4.932 10.772C6.29549 10.9244 7.70453 10.9244 9.06802 10.772C9.9452 10.6739 10.6545 9.98319 10.7579 9.09875C10.921 7.70434 10.921 6.29566 10.7579 4.90124C10.6545 4.01681 9.9452 3.32605 9.06802 3.22802Z" fill="black"/>
<path d="M9.06802 13.228C7.70453 13.0756 6.29549 13.0756 4.932 13.228C4.05481 13.3261 3.34551 14.0168 3.24207 14.9012C3.07898 16.2957 3.07898 17.7043 3.24207 19.0988C3.34551 19.9832 4.05481 20.6739 4.932 20.772C6.29549 20.9244 7.70453 20.9244 9.06802 20.772C9.9452 20.6739 10.6545 19.9832 10.7579 19.0988C10.921 17.7043 10.921 16.2957 10.7579 14.9012C10.6545 14.0168 9.9452 13.3261 9.06802 13.228Z" fill="black"/>
<path d="M19.068 3.22802C17.7045 3.07563 16.2955 3.07563 14.932 3.22802C14.0548 3.32605 13.3455 4.01681 13.2421 4.90124C13.079 6.29566 13.079 7.70434 13.2421 9.09875C13.3455 9.98319 14.0548 10.6739 14.932 10.772C16.2955 10.9244 17.7045 10.9244 19.068 10.772C19.9452 10.6739 20.6545 9.98319 20.758 9.09875C20.9211 7.70434 20.9211 6.29566 20.758 4.90124C20.6545 4.01681 19.9452 3.32605 19.068 3.22802Z" fill="black"/>
<path d="M19.068 13.228C17.7045 13.0756 16.2955 13.0756 14.932 13.228C14.0548 13.3261 13.3455 14.0168 13.2421 14.9012C13.079 16.2957 13.079 17.7043 13.2421 19.0988C13.3455 19.9832 14.0548 20.6739 14.932 20.772C16.2955 20.9244 17.7045 20.9244 19.068 20.772C19.9452 20.6739 20.6545 19.9832 20.758 19.0988C20.9211 17.7043 20.9211 16.2957 20.758 14.9012C20.6545 14.0168 19.9452 13.3261 19.068 13.228Z" fill="black"/>
</svg>
