<svg width="24" height="24" viewBox="0 0 24 24" fill="none" xmlns="http://www.w3.org/2000/svg">
<path d="M12 8.75C10.2051 8.75 8.75 10.2051 8.75 12C8.75 13.7949 10.2051 15.25 12 15.25C13.7949 15.25 15.25 13.7949 15.25 12C15.25 10.2051 13.7949 8.75 12 8.75Z" fill="black"/>
<path fill-rule="evenodd" clip-rule="evenodd" d="M12.6799 2.80576C12.2571 2.57085 11.743 2.57085 11.3201 2.80576L4.12012 6.80576C3.67567 7.05267 3.40002 7.52114 3.40002 8.02958V15.9705C3.40002 16.4789 3.67567 16.9474 4.12012 17.1943L11.3201 21.1943C11.743 21.4292 12.2571 21.4292 12.6799 21.1943L19.8799 17.1943C20.3244 16.9474 20.6 16.4789 20.6 15.9705V8.02958C20.6 7.52114 20.3244 7.05267 19.8799 6.80576L12.6799 2.80576ZM7.25 12C7.25 9.37665 9.37665 7.25 12 7.25C14.6234 7.25 16.75 9.37665 16.75 12C16.75 14.6234 14.6234 16.75 12 16.75C9.37665 16.75 7.25 14.6234 7.25 12Z" fill="black"/>
</svg>
