<svg width="24" height="24" viewBox="0 0 24 24" fill="none" xmlns="http://www.w3.org/2000/svg">
<path d="M13.039 3.58195C12.4395 3.26907 11.616 3.26437 11.0124 3.57614C8.43374 4.90788 6.09706 6.43371 4.05109 8.12432C3.77826 8.34976 3.59772 8.66529 3.60081 9.02594C3.60389 9.38536 3.78854 9.69738 4.06046 9.91972C6.08996 11.5792 8.42928 13.1068 10.961 14.4282C11.5605 14.741 12.384 14.7457 12.9876 14.434C15.5663 13.1022 17.903 11.5764 19.9489 9.8858C20.2217 9.66036 20.4023 9.34483 20.3992 8.98418C20.3961 8.62476 20.2115 8.31274 19.9395 8.09039C17.91 6.43095 15.5707 4.90333 13.039 3.58195Z" fill="black"/>
<path d="M20.958 13.7315C21.3094 13.5121 21.4164 13.0494 21.197 12.6981C20.9777 12.3467 20.515 12.2397 20.1637 12.4591L14.0564 16.272C13.5124 16.6116 12.7733 16.801 11.9998 16.801C11.2264 16.8011 10.4872 16.6118 9.94304 16.2722L3.90271 12.5024C3.55132 12.2831 3.08867 12.3902 2.86937 12.7416C2.65006 13.093 2.75714 13.5557 3.10854 13.775L9.14887 17.5447C9.97773 18.062 11.006 18.3011 11.9999 18.301C12.9939 18.301 14.0221 18.0618 14.8508 17.5444L20.958 13.7315Z" fill="black"/>
<path d="M20.9581 17.4861C21.3094 17.2667 21.4164 16.8041 21.197 16.4527C20.9776 16.1014 20.5149 15.9945 20.1636 16.2139L14.8747 19.5167C14.1018 19.9994 13.068 20.2602 11.9998 20.2603C10.9316 20.2604 9.89767 19.9996 9.12465 19.517L3.90279 16.2572C3.55142 16.0379 3.08876 16.1449 2.86942 16.4963C2.65007 16.8476 2.75709 17.3103 3.10846 17.5296L8.33033 20.7895C9.38811 21.4498 10.7112 21.7604 11.9999 21.7603C13.2886 21.7602 14.6116 21.4495 15.6692 20.789L20.9581 17.4861Z" fill="black"/>
</svg>
