<svg width="24" height="24" viewBox="0 0 24 24" fill="none" xmlns="http://www.w3.org/2000/svg">
<path d="M9.25 3C9.25 2.58579 9.58579 2.25 10 2.25H14C14.4142 2.25 14.75 2.58579 14.75 3V3.75H19C19.4142 3.75 19.75 4.08579 19.75 4.5C19.75 4.91421 19.4142 5.25 19 5.25H5C4.58579 5.25 4.25 4.91421 4.25 4.5C4.25 4.08579 4.58579 3.75 5 3.75H9.25V3Z" fill="black"/>
<path fill-rule="evenodd" clip-rule="evenodd" d="M6.2399 7.94478C6.26803 7.69157 6.48206 7.5 6.73684 7.5H17.2632C17.5179 7.5 17.732 7.69157 17.7601 7.94478L17.9602 9.74613C18.321 12.9931 18.321 16.2701 17.9602 19.517L17.9405 19.6944C17.8091 20.8769 16.8926 21.8199 15.7143 21.9849C13.2501 22.3299 10.7499 22.3299 8.28574 21.9849C7.10737 21.8199 6.19085 20.8769 6.05945 19.6944L6.03975 19.517C5.67897 16.2701 5.67897 12.9931 6.03975 9.74613L6.2399 7.94478ZM14.5303 12.4697C14.8232 12.7626 14.8232 13.2374 14.5303 13.5303L13.0607 15L14.5303 16.4697C14.8232 16.7626 14.8232 17.2374 14.5303 17.5303C14.2374 17.8232 13.7626 17.8232 13.4697 17.5303L12 16.0607L10.5303 17.5303C10.2374 17.8232 9.76257 17.8232 9.46968 17.5303C9.17678 17.2374 9.17678 16.7626 9.46968 16.4697L10.9393 15L9.46967 13.5303C9.17678 13.2374 9.17678 12.7626 9.46967 12.4697C9.76256 12.1768 10.2374 12.1768 10.5303 12.4697L12 13.9393L13.4697 12.4697C13.7626 12.1768 14.2374 12.1768 14.5303 12.4697Z" fill="black"/>
</svg>
