<svg width="24" height="24" viewBox="0 0 24 24" fill="none" xmlns="http://www.w3.org/2000/svg">
<path fill-rule="evenodd" clip-rule="evenodd" d="M14.3851 15.4457C11.7348 17.5684 7.85538 17.4013 5.3986 14.9445C2.76256 12.3085 2.76256 8.03464 5.3986 5.3986C8.03464 2.76256 12.3085 2.76256 14.9445 5.3986C17.4013 7.85538 17.5684 11.7348 15.4457 14.3851L20.6014 19.5407C20.8943 19.8336 20.8943 20.3085 20.6014 20.6014C20.3085 20.8943 19.8336 20.8943 19.5407 20.6014L14.3851 15.4457ZM6.95001 10.2C6.95001 9.7858 7.2858 9.45001 7.70001 9.45001H9.45001V7.70001C9.45001 7.2858 9.7858 6.95001 10.2 6.95001C10.6142 6.95001 10.95 7.2858 10.95 7.70001V9.45001H12.7C13.1142 9.45001 13.45 9.7858 13.45 10.2C13.45 10.6142 13.1142 10.95 12.7 10.95H10.95V12.7C10.95 13.1142 10.6142 13.45 10.2 13.45C9.7858 13.45 9.45001 13.1142 9.45001 12.7V10.95H7.70001C7.2858 10.95 6.95001 10.6142 6.95001 10.2Z" fill="black"/>
</svg>
