<svg width="14" height="18" viewBox="0 0 14 18" fill="none" xmlns="http://www.w3.org/2000/svg">
<path d="M10.1251 9.83333C10.1251 9.48816 9.84526 9.20833 9.50008 9.20833H4.50008C4.1549 9.20833 3.87508 9.48816 3.87508 9.83333C3.87508 10.1785 4.1549 10.4583 4.50008 10.4583H9.50008C9.84526 10.4583 10.1251 10.1785 10.1251 9.83333Z" fill="#151515"/>
<path d="M10.1251 13.1667C10.1251 12.8215 9.84526 12.5417 9.50008 12.5417H4.50008C4.1549 12.5417 3.87508 12.8215 3.87508 13.1667C3.87508 13.5118 4.1549 13.7917 4.50008 13.7917H9.50008C9.84526 13.7917 10.1251 13.5118 10.1251 13.1667Z" fill="#151515"/>
<path fill-rule="evenodd" clip-rule="evenodd" d="M2.83341 0.875C1.56776 0.875 0.541748 1.90101 0.541748 3.16667V14.8333C0.541748 16.099 1.56776 17.125 2.83341 17.125H11.1667C12.4324 17.125 13.4584 16.099 13.4584 14.8333V5.63971C13.4584 5.32241 13.3549 5.01375 13.1636 4.76058L10.6655 1.4542C10.3899 1.08941 9.95913 0.875 9.50193 0.875H2.83341ZM1.79175 3.16667C1.79175 2.59137 2.25812 2.125 2.83341 2.125H8.87508V5.7892C8.87508 6.13438 9.1549 6.4142 9.50008 6.4142H12.2084V14.8333C12.2084 15.4086 11.742 15.875 11.1667 15.875H2.83341C2.25812 15.875 1.79175 15.4086 1.79175 14.8333V3.16667Z" fill="#151515"/>
</svg>
