<svg width="36" height="36" viewBox="0 0 36 36" fill="none" xmlns="http://www.w3.org/2000/svg">
<g filter="url(#filter0_d)">
<rect x="2" width="32" height="32" rx="16" fill="#0068E2"/>
</g>
<path fill-rule="evenodd" clip-rule="evenodd" d="M11.3072 16.5964L19.3827 8.6805C20.4217 7.66204 22.1069 7.66204 23.1459 8.6805L24.2245 9.73782C25.2635 10.7563 25.2635 12.4082 24.2245 13.4267L16.1172 21.3738C15.6536 21.8282 15.0251 22.0832 14.369 22.0832H11.0488C10.7403 22.0832 10.4925 21.8341 10.5002 21.5319L10.5837 18.2479C10.6003 17.6272 10.8594 17.0354 11.3072 16.5964ZM23.4484 10.4986L22.3698 9.44127C21.7594 8.84296 20.7691 8.84296 20.1588 9.44127L19.5319 10.0558L22.8218 13.2801L23.4484 12.6659C24.0588 12.0676 24.0588 11.0969 23.4484 10.4986ZM12.0833 17.3572L18.7558 10.8166L22.0457 14.0409L15.3411 20.6131L15.2519 20.6931C15.0056 20.8954 14.6935 21.0074 14.369 21.0074L11.6112 21.007L11.6809 18.2754C11.6901 17.9307 11.8344 17.6012 12.0833 17.3572ZM25.5 21.5454C25.5 21.2483 25.2543 21.0074 24.9512 21.0074H19.2258L19.1514 21.0124C18.8835 21.048 18.677 21.273 18.677 21.5454C18.677 21.8425 18.9227 22.0833 19.2258 22.0833H24.9512L25.0257 22.0784C25.2935 22.0428 25.5 21.8177 25.5 21.5454Z" fill="white"/>
<path d="M19.3827 8.6805L19.5577 8.85904L19.3827 8.6805ZM11.3072 16.5964L11.1322 16.4179L11.1322 16.4179L11.3072 16.5964ZM23.1459 8.6805L22.9709 8.85904L22.9709 8.85904L23.1459 8.6805ZM24.2245 9.73782L24.3995 9.55929L24.3995 9.55929L24.2245 9.73782ZM24.2245 13.4267L24.3995 13.6052L24.2245 13.4267ZM16.1172 21.3738L15.9422 21.1953L16.1172 21.3738ZM10.5002 21.5319L10.2503 21.5255L10.5002 21.5319ZM10.5837 18.2479L10.3338 18.2412L10.3338 18.2415L10.5837 18.2479ZM22.3698 9.44127L22.5448 9.26273L22.3698 9.44127ZM23.4484 10.4986L23.2734 10.6771V10.6771L23.4484 10.4986ZM20.1588 9.44127L19.9838 9.26273L20.1588 9.44127ZM19.5319 10.0558L19.3569 9.87727L19.1747 10.0558L19.3569 10.2344L19.5319 10.0558ZM22.8218 13.2801L22.6468 13.4586L22.8218 13.6302L22.9968 13.4586L22.8218 13.2801ZM23.4484 12.6659L23.2734 12.4874H23.2734L23.4484 12.6659ZM18.7558 10.8166L18.9308 10.638L18.7557 10.4665L18.5808 10.638L18.7558 10.8166ZM12.0833 17.3572L12.2583 17.5357H12.2583L12.0833 17.3572ZM22.0457 14.0409L22.2207 14.2194L22.4029 14.0408L22.2207 13.8623L22.0457 14.0409ZM15.3411 20.6131L15.5082 20.7993L15.5161 20.7916L15.3411 20.6131ZM15.2519 20.6931L15.4107 20.8865L15.4189 20.8792L15.2519 20.6931ZM14.369 21.0074L14.369 21.2574H14.369V21.0074ZM11.6112 21.007L11.3613 21.0006L11.3548 21.2569L11.6112 21.257L11.6112 21.007ZM11.6809 18.2754L11.431 18.2687L11.431 18.269L11.6809 18.2754ZM19.2258 21.0074V20.7574H19.2176L19.2094 20.758L19.2258 21.0074ZM19.1514 21.0124L19.1349 20.7629L19.1266 20.7634L19.1184 20.7645L19.1514 21.0124ZM24.9512 22.0833V22.3333H24.9595L24.9677 22.3328L24.9512 22.0833ZM25.0257 22.0784L25.0421 22.3279L25.0504 22.3273L25.0586 22.3262L25.0257 22.0784ZM19.2077 8.50197L11.1322 16.4179L11.4822 16.775L19.5577 8.85904L19.2077 8.50197ZM23.3209 8.50197C22.1847 7.38822 20.3439 7.38822 19.2077 8.50197L19.5577 8.85904C20.4995 7.93586 22.0291 7.93586 22.9709 8.85904L23.3209 8.50197ZM24.3995 9.55929L23.3209 8.50197L22.9709 8.85904L24.0495 9.91635L24.3995 9.55929ZM24.3995 13.6052C25.5385 12.4887 25.5385 10.6758 24.3995 9.55929L24.0495 9.91635C24.9885 10.8368 24.9885 12.3277 24.0495 13.2481L24.3995 13.6052ZM16.2922 21.5524L24.3995 13.6052L24.0495 13.2481L15.9422 21.1953L16.2922 21.5524ZM14.369 22.3332C15.0897 22.3332 15.7813 22.0532 16.2922 21.5524L15.9422 21.1953C15.5259 21.6033 14.9604 21.8332 14.369 21.8332V22.3332ZM11.0488 22.3332H14.369V21.8332H11.0488V22.3332ZM10.2503 21.5255C10.2389 21.9732 10.6047 22.3332 11.0488 22.3332V21.8332C10.876 21.8332 10.7461 21.6951 10.7501 21.5383L10.2503 21.5255ZM10.3338 18.2415L10.2503 21.5255L10.7501 21.5383L10.8336 18.2542L10.3338 18.2415ZM11.1322 16.4179C10.6385 16.9018 10.3521 17.555 10.3338 18.2412L10.8336 18.2546C10.8485 17.6993 11.0802 17.169 11.4822 16.775L11.1322 16.4179ZM22.1948 9.6198L23.2734 10.6771L23.6234 10.32L22.5448 9.26273L22.1948 9.6198ZM20.3338 9.6198C20.8469 9.11678 21.6816 9.11678 22.1948 9.6198L22.5448 9.26273C21.8372 8.56914 20.6914 8.56914 19.9838 9.26273L20.3338 9.6198ZM19.7069 10.2343L20.3338 9.6198L19.9838 9.26273L19.3569 9.87727L19.7069 10.2343ZM22.9968 13.1015L19.7068 9.87725L19.3569 10.2344L22.6468 13.4586L22.9968 13.1015ZM23.2734 12.4874L22.6468 13.1016L22.9968 13.4586L23.6234 12.8444L23.2734 12.4874ZM23.2734 10.6771C23.7838 11.1774 23.7838 11.9871 23.2734 12.4874L23.6234 12.8444C24.3338 12.1481 24.3338 11.0164 23.6234 10.32L23.2734 10.6771ZM18.5808 10.638L11.9083 17.1787L12.2583 17.5357L18.9308 10.9951L18.5808 10.638ZM22.2207 13.8623L18.9308 10.638L18.5808 10.9951L21.8707 14.2194L22.2207 13.8623ZM15.5161 20.7916L22.2207 14.2194L21.8707 13.8623L15.1661 20.4345L15.5161 20.7916ZM15.4189 20.8792L15.5081 20.7991L15.1741 20.427L15.0849 20.5071L15.4189 20.8792ZM14.369 21.2574C14.751 21.2574 15.1192 21.1256 15.4106 20.8863L15.0932 20.4999C14.892 20.6652 14.6361 20.7574 14.369 20.7574V21.2574ZM11.6112 21.257L14.369 21.2574L14.369 20.7574L11.6112 20.757L11.6112 21.257ZM11.431 18.269L11.3613 21.0006L11.8611 21.0134L11.9308 18.2818L11.431 18.269ZM11.9083 17.1787C11.6136 17.4676 11.442 17.8585 11.431 18.2687L11.9308 18.2821C11.9383 18.0029 12.0552 17.7348 12.2583 17.5357L11.9083 17.1787ZM24.9512 21.2574C25.121 21.2574 25.25 21.391 25.25 21.5454H25.75C25.75 21.1055 25.3876 20.7574 24.9512 20.7574V21.2574ZM19.2258 21.2574H24.9512V20.7574H19.2258V21.2574ZM19.1678 21.2618L19.2423 21.2569L19.2094 20.758L19.1349 20.7629L19.1678 21.2618ZM18.927 21.5454C18.927 21.4038 19.0352 21.28 19.1843 21.2602L19.1184 20.7645C18.7318 20.816 18.427 21.1423 18.427 21.5454H18.927ZM19.2258 21.8333C19.0561 21.8333 18.927 21.6997 18.927 21.5454H18.427C18.427 21.9852 18.7894 22.3333 19.2258 22.3333V21.8333ZM24.9512 21.8333H19.2258V22.3333H24.9512V21.8333ZM25.0092 21.829L24.9348 21.8339L24.9677 22.3328L25.0421 22.3279L25.0092 21.829ZM25.25 21.5454C25.25 21.6869 25.1418 21.8108 24.9927 21.8306L25.0586 22.3262C25.4452 22.2748 25.75 21.9485 25.75 21.5454H25.25Z" fill="white"/>
<defs>
<filter id="filter0_d" x="0" y="0" width="36" height="36" filterUnits="userSpaceOnUse" color-interpolation-filters="sRGB">
<feFlood flood-opacity="0" result="BackgroundImageFix"/>
<feColorMatrix in="SourceAlpha" type="matrix" values="0 0 0 0 0 0 0 0 0 0 0 0 0 0 0 0 0 0 127 0"/>
<feOffset dy="2"/>
<feGaussianBlur stdDeviation="1"/>
<feColorMatrix type="matrix" values="0 0 0 0 0 0 0 0 0 0 0 0 0 0 0 0 0 0 0.2 0"/>
<feBlend mode="normal" in2="BackgroundImageFix" result="effect1_dropShadow"/>
<feBlend mode="normal" in="SourceGraphic" in2="effect1_dropShadow" result="shape"/>
</filter>
</defs>
</svg>
