<svg width="16" height="14" viewBox="0 0 16 14" fill="none" xmlns="http://www.w3.org/2000/svg">
<path d="M9.66676 4.4999C9.66676 3.80954 10.2264 3.2499 10.9168 3.2499C11.6071 3.2499 12.1668 3.80954 12.1668 4.4999C12.1668 5.19025 11.6071 5.7499 10.9168 5.7499C10.2264 5.7499 9.66676 5.19025 9.66676 4.4999Z" fill="#151515"/>
<path fill-rule="evenodd" clip-rule="evenodd" d="M4.05637 0.882025C6.68057 0.653908 9.31962 0.653908 11.9438 0.882025L13.2024 0.991427C14.4066 1.09611 15.3821 2.01248 15.5619 3.2078C15.9399 5.72173 15.9399 8.27806 15.5619 10.792C15.3821 11.9873 14.4066 12.9037 13.2024 13.0084L11.9438 13.1178C9.31963 13.3459 6.68057 13.3459 4.05637 13.1178L2.79784 13.0084C1.59362 12.9037 0.618059 11.9873 0.438311 10.792C0.0602765 8.27806 0.0602765 5.72173 0.438311 3.2078C0.618059 2.01248 1.59362 1.09611 2.79784 0.991427L4.05637 0.882025ZM11.8356 2.12733C9.2834 1.90547 6.71679 1.90547 4.16462 2.12733L2.90609 2.23673C2.27749 2.29137 1.76824 2.76972 1.67441 3.39368C1.4598 4.82086 1.3733 6.26241 1.41493 7.70118L4.64148 4.47462C4.7632 4.35291 4.92972 4.28678 5.10178 4.29183C5.27384 4.29689 5.43619 4.37268 5.55055 4.50134L8.61009 7.94331L10.7191 7.2403C10.955 7.16168 11.215 7.23033 11.3813 7.41513L14.3139 10.6736C14.3184 10.6513 14.3224 10.6288 14.3258 10.6061C14.6853 8.2154 14.6853 5.78439 14.3258 3.39368C14.232 2.76972 13.7227 2.29137 13.0941 2.23673L11.8356 2.12733ZM13.5169 11.6566L10.726 8.55561L8.6144 9.25949C8.37721 9.33855 8.11573 9.26866 7.94962 9.08179L5.05666 5.82721L1.52026 9.36361C1.56091 9.7787 1.61229 10.193 1.67441 10.6061C1.76824 11.2301 2.27749 11.7084 2.90609 11.7631L4.16462 11.8725C6.71679 12.0943 9.28341 12.0943 11.8356 11.8725L13.0941 11.7631C13.243 11.7501 13.3853 11.7134 13.5169 11.6566Z" fill="#151515"/>
</svg>
