<svg width="14" height="14" viewBox="0 0 14 14" fill="none" xmlns="http://www.w3.org/2000/svg">
<path fill-rule="evenodd" clip-rule="evenodd" d="M13.0281 4.96432C13.0281 4.55011 12.6923 4.21432 12.2781 4.21432L9.78549 4.21432V1.72168C9.78549 1.30747 9.4497 0.97168 9.03549 0.97168C8.62127 0.97168 8.28549 1.30747 8.28549 1.72168V4.96432C8.28549 5.37853 8.62127 5.71432 9.03549 5.71432L12.2781 5.71432C12.6923 5.71432 13.0281 5.37853 13.0281 4.96432Z" fill="#151515"/>
<path fill-rule="evenodd" clip-rule="evenodd" d="M9.03551 13.028C9.44973 13.028 9.78551 12.6922 9.78551 12.278L9.78551 9.78537L12.2782 9.78537C12.6924 9.78537 13.0282 9.44958 13.0282 9.03537C13.0282 8.62115 12.6924 8.28537 12.2782 8.28537L9.03551 8.28537C8.6213 8.28537 8.28551 8.62115 8.28551 9.03537L8.28551 12.278C8.28551 12.6922 8.6213 13.028 9.03551 13.028Z" fill="#151515"/>
<path fill-rule="evenodd" clip-rule="evenodd" d="M4.96444 13.028C4.55023 13.028 4.21444 12.6922 4.21444 12.278V9.78537H1.7218C1.30759 9.78537 0.971802 9.44958 0.971802 9.03536C0.971802 8.62115 1.30759 8.28536 1.7218 8.28536L4.96444 8.28537C5.37866 8.28537 5.71444 8.62115 5.71444 9.03537L5.71444 12.278C5.71444 12.6922 5.37866 13.028 4.96444 13.028Z" fill="#151515"/>
<path fill-rule="evenodd" clip-rule="evenodd" d="M0.971828 4.96432C0.971828 4.55011 1.30761 4.21432 1.72183 4.21432H4.21447L4.21447 1.72168C4.21447 1.30747 4.55026 0.97168 4.96447 0.97168C5.37868 0.97168 5.71447 1.30747 5.71447 1.72168L5.71447 4.96432C5.71447 5.37853 5.37868 5.71432 4.96447 5.71432L1.72183 5.71432C1.30761 5.71432 0.971828 5.37853 0.971828 4.96432Z" fill="#151515"/>
</svg>
