<svg width="24" height="24" viewBox="0 0 24 24" fill="none" xmlns="http://www.w3.org/2000/svg">
<circle cx="12" cy="12" r="12" fill="#4F4F4F"/>
<path d="M8.64355 13.7412C8.64355 9.83105 10.2363 7.87598 13.4219 7.87598C13.9232 7.87598 14.347 7.91471 14.6934 7.99219V9.33203C14.347 9.23177 13.946 9.18164 13.4902 9.18164C12.4193 9.18164 11.6149 9.46875 11.0771 10.043C10.5394 10.6172 10.2477 11.5378 10.2021 12.8047H10.2842C10.4984 12.4355 10.7992 12.1507 11.1865 11.9502C11.5739 11.7451 12.0296 11.6426 12.5537 11.6426C13.4606 11.6426 14.167 11.9206 14.6729 12.4766C15.1787 13.0326 15.4316 13.7868 15.4316 14.7393C15.4316 15.7874 15.1377 16.6169 14.5498 17.2275C13.9665 17.8337 13.1689 18.1367 12.1572 18.1367C11.4417 18.1367 10.8197 17.9658 10.291 17.624C9.76237 17.2777 9.35449 16.7764 9.06738 16.1201C8.78483 15.4593 8.64355 14.6663 8.64355 13.7412ZM12.1299 16.8105C12.6813 16.8105 13.1051 16.6328 13.4014 16.2773C13.7021 15.9219 13.8525 15.4137 13.8525 14.7529C13.8525 14.1787 13.7113 13.7275 13.4287 13.3994C13.1507 13.0713 12.7314 12.9072 12.1709 12.9072C11.8245 12.9072 11.5055 12.9824 11.2139 13.1328C10.9222 13.2786 10.6921 13.4814 10.5234 13.7412C10.3548 13.9964 10.2705 14.2585 10.2705 14.5273C10.2705 15.1699 10.4437 15.7122 10.79 16.1543C11.141 16.5918 11.5876 16.8105 12.1299 16.8105Z" fill="white"/>
</svg>
