<svg width="24" height="24" viewBox="0 0 24 24" fill="none" xmlns="http://www.w3.org/2000/svg">
<circle cx="12" cy="12" r="12" fill="#4F4F4F"/>
<path d="M15.0146 10.3027C15.0146 10.9362 14.8301 11.4648 14.4609 11.8887C14.0918 12.3079 13.5723 12.5905 12.9023 12.7363V12.791C13.7044 12.8913 14.306 13.1419 14.707 13.543C15.1081 13.9395 15.3086 14.4681 15.3086 15.1289C15.3086 16.0905 14.9691 16.8333 14.29 17.3574C13.611 17.877 12.6449 18.1367 11.3916 18.1367C10.2842 18.1367 9.34993 17.9567 8.58887 17.5967V16.168C9.0127 16.3776 9.46159 16.5394 9.93555 16.6533C10.4095 16.7673 10.8652 16.8242 11.3027 16.8242C12.0775 16.8242 12.6562 16.6807 13.0391 16.3936C13.4219 16.1064 13.6133 15.6621 13.6133 15.0605C13.6133 14.5273 13.4014 14.1354 12.9775 13.8848C12.5537 13.6341 11.8883 13.5088 10.9814 13.5088H10.1133V12.2031H10.9951C12.5902 12.2031 13.3877 11.6517 13.3877 10.5488C13.3877 10.1204 13.2487 9.79004 12.9707 9.55762C12.6927 9.3252 12.2826 9.20898 11.7402 9.20898C11.362 9.20898 10.9974 9.26367 10.6465 9.37305C10.2956 9.47786 9.88086 9.68522 9.40234 9.99512L8.61621 8.87402C9.53223 8.19954 10.5964 7.8623 11.8086 7.8623C12.8158 7.8623 13.6019 8.07878 14.167 8.51172C14.7321 8.94466 15.0146 9.54167 15.0146 10.3027Z" fill="white"/>
</svg>
