<svg width="24" height="24" viewBox="0 0 24 24" fill="none" xmlns="http://www.w3.org/2000/svg">
<path fill-rule="evenodd" clip-rule="evenodd" d="M22 10V14C22 14.8284 21.3284 15.5 20.5 15.5H19.6V15.8103C19.6 16.9508 18.7225 17.8994 17.5855 17.988L16.317 18.0869C12.7777 18.3629 9.22229 18.3629 5.683 18.0869L4.3354 17.9819C3.24022 17.8965 2.344 17.0761 2.16238 15.9927C1.71923 13.3493 1.71923 10.6507 2.16238 8.0073C2.344 6.92392 3.24022 6.10353 4.3354 6.01814L5.683 5.91306C9.22229 5.63709 12.7777 5.63709 16.317 5.91306L17.5855 6.01197C18.7225 6.10063 19.6 7.04916 19.6 8.18967V8.5H20.5C21.3284 8.5 22 9.17157 22 10ZM10.7895 9.19653C10.7895 8.99603 10.7092 8.80387 10.5666 8.66296C10.4239 8.52206 10.2308 8.44413 10.0303 8.44659C8.65078 8.4635 7.27169 8.52651 5.89534 8.63562L5.7066 8.65058C5.26765 8.68537 4.90256 9.00205 4.80609 9.43168C4.42762 11.1172 4.42776 12.8662 4.80622 14.5516C4.90239 14.98 5.26571 15.2964 5.7035 15.3326L5.87778 15.347C7.25969 15.4611 8.64458 15.5269 10.0299 15.5446C10.2305 15.5471 10.4237 15.4692 10.5664 15.3283C10.7091 15.1874 10.7895 14.9952 10.7895 14.7946V9.19653Z" fill="black"/>
</svg>
