<svg width="24" height="24" viewBox="0 0 24 24" fill="none" xmlns="http://www.w3.org/2000/svg">
<path fill-rule="evenodd" clip-rule="evenodd" d="M11.0959 4.90979C11.4502 5.2119 11.7613 5.56994 12 5.97112C12.2387 5.56994 12.5498 5.2119 12.9041 4.90979C13.7201 4.21397 14.8052 3.77777 15.8889 3.77777C16.647 3.77777 17.4588 3.9915 18.1599 4.35429C18.8573 4.71514 19.4925 5.24859 19.8412 5.92626C19.8497 5.94284 19.8573 5.95988 19.864 5.9773L21.9939 11.5776C22.4736 12.3644 22.75 13.2888 22.75 14.2778C22.75 17.1466 20.4244 19.4722 17.5556 19.4722C14.8554 19.4722 12.6365 17.412 12.3849 14.7778H11.6151C11.3635 17.412 9.14459 19.4722 6.44444 19.4722C3.57563 19.4722 1.25 17.1466 1.25 14.2778C1.25 13.2889 1.52632 12.3645 2.00597 11.5778L4.13602 5.9773C4.14265 5.95988 4.15025 5.94284 4.15877 5.92626C4.5075 5.24859 5.14265 4.71514 5.84007 4.35429C6.54121 3.9915 7.35298 3.77777 8.1111 3.77777C9.1948 3.77777 10.2799 4.21397 11.0959 4.90979ZM2.75 14.2778C2.75 12.2374 4.40406 10.5833 6.44444 10.5833C8.48483 10.5833 10.1389 12.2374 10.1389 14.2778C10.1389 16.3181 8.48483 17.9722 6.44444 17.9722C4.40406 17.9722 2.75 16.3181 2.75 14.2778ZM13.8611 14.2778C13.8611 12.2374 15.5152 10.5833 17.5556 10.5833C19.5959 10.5833 21.25 12.2374 21.25 14.2778C21.25 16.3181 19.5959 17.9722 17.5556 17.9722C15.5152 17.9722 13.8611 16.3181 13.8611 14.2778Z" fill="black"/>
</svg>
