<svg width="24" height="24" viewBox="0 0 24 24" fill="none" xmlns="http://www.w3.org/2000/svg">
<path fill-rule="evenodd" clip-rule="evenodd" d="M12 2.25C12.4142 2.25 12.75 2.58579 12.75 3V4.7369C14.1814 4.75655 15.6123 4.83247 17.0392 4.96464L17.3708 4.99536C19.6355 5.20514 21.3794 7.0858 21.418 9.3599L21.4301 10.0734C21.4771 12.8482 21.2534 15.621 20.7622 18.3524C20.5387 19.5955 19.457 20.5 18.194 20.5H17.9729C16.8364 20.5 15.8067 19.8302 15.3459 18.7914L14.2853 16.4001C13.4063 14.4182 10.5937 14.4182 9.71471 16.4001L8.65411 18.7914C8.19334 19.8302 7.1636 20.5 6.02711 20.5H5.80606C4.54306 20.5 3.46135 19.5955 3.23781 18.3524C2.74662 15.621 2.52294 12.8482 2.56997 10.0734L2.58206 9.3599C2.62061 7.0858 4.36452 5.20514 6.62925 4.99536L6.96085 4.96464C8.38778 4.83247 9.81861 4.75655 11.25 4.7369V3C11.25 2.58579 11.5858 2.25 12 2.25ZM17 8C17 7.44772 16.5523 7 16 7C15.4477 7 15 7.44772 15 8V8.25C15 8.80228 15.4477 9.25 16 9.25C16.5523 9.25 17 8.80228 17 8.25V8ZM8.00002 7.25C8.41423 7.25 8.75002 7.58579 8.75002 8V9.25H10C10.4142 9.25 10.75 9.58579 10.75 10C10.75 10.4142 10.4142 10.75 10 10.75H8.75002V12C8.75002 12.4142 8.41423 12.75 8.00002 12.75C7.5858 12.75 7.25002 12.4142 7.25002 12V10.75H6.00002C5.5858 10.75 5.25002 10.4142 5.25002 10C5.25002 9.58579 5.5858 9.25 6.00002 9.25L7.25002 9.25V8C7.25002 7.58579 7.5858 7.25 8.00002 7.25ZM16 10.75C16.5523 10.75 17 11.1977 17 11.75V12C17 12.5523 16.5523 13 16 13C15.4477 13 15 12.5523 15 12V11.75C15 11.1977 15.4477 10.75 16 10.75ZM18 11C18.5523 11 19 10.5523 19 10C19 9.44772 18.5523 9 18 9H17.75C17.1977 9 16.75 9.44771 16.75 10C16.75 10.5523 17.1977 11 17.75 11H18ZM15.25 10C15.25 10.5523 14.8023 11 14.25 11H14C13.4477 11 13 10.5523 13 10C13 9.44771 13.4477 9 14 9H14.25C14.8023 9 15.25 9.44772 15.25 10Z" fill="black"/>
</svg>
