<svg width="24" height="24" viewBox="0 0 24 24" fill="none" xmlns="http://www.w3.org/2000/svg">
<path fill-rule="evenodd" clip-rule="evenodd" d="M18.7502 11.0001L18.7441 11.2433L18.7502 11.5001L18.7443 11.745L18.7502 12.0001L18.5615 20.2533C18.538 21.2804 17.7568 22.131 16.7354 22.2416C13.5877 22.5825 10.4123 22.5825 7.26453 22.2416C6.24313 22.131 5.46194 21.2804 5.43846 20.2533L5.24979 12.0001L5.25566 11.7433L5.24981 11.5001L5.25596 11.2443L5.24976 11.0001L5.41846 4.3586C5.41957 4.31471 5.4217 4.27106 5.42481 4.22767L5.43593 3.7655C5.46136 2.70879 6.26844 1.83578 7.3199 1.7276C7.4074 1.7186 7.49493 1.70985 7.58247 1.70135C7.70121 1.67376 7.82296 1.65364 7.94722 1.64153C10.6427 1.37881 13.3573 1.37881 16.0528 1.64153C16.177 1.65364 16.2988 1.67375 16.4175 1.70134C16.5051 1.70984 16.5926 1.7186 16.6802 1.7276C17.7316 1.83578 18.5387 2.70879 18.5641 3.7655L18.5753 4.22872C18.5783 4.27176 18.5804 4.31506 18.5815 4.3586L18.7502 11.0001ZM16 17.75C16.4142 17.75 16.75 17.4142 16.75 17C16.75 16.5858 16.4142 16.25 16 16.25H8C7.58579 16.25 7.25 16.5858 7.25 17C7.25 17.4142 7.58579 17.75 8 17.75H16ZM12 21.7001C12.8284 21.7001 13.5 21.0285 13.5 20.2001C13.5 19.3716 12.8284 18.7001 12 18.7001C11.1716 18.7001 10.5 19.3716 10.5 20.2001C10.5 21.0285 11.1716 21.7001 12 21.7001Z" fill="black"/>
</svg>
