<svg width="24" height="24" viewBox="0 0 24 24" fill="none" xmlns="http://www.w3.org/2000/svg">
<path fill-rule="evenodd" clip-rule="evenodd" d="M4.20075 8.36379L6.25 8.13603V3.91302C6.25 3.26973 6.74006 2.73236 7.38062 2.67323C10.4537 2.38956 13.5463 2.38956 16.6194 2.67323C17.2599 2.73236 17.75 3.26973 17.75 3.91302V8.13602L19.7993 8.36379C20.4616 8.43741 21.008 8.91572 21.1686 9.56248C21.7246 11.8018 21.7246 14.143 21.1686 16.3823L21.0158 16.9975C20.9425 17.2927 20.6775 17.5 20.3733 17.5H17.75V20.083C17.75 20.705 17.2786 21.2259 16.6597 21.2878C13.561 21.5977 10.439 21.5977 7.34031 21.2878C6.72135 21.2259 6.25 20.705 6.25 20.083V17.5H3.62675C3.32257 17.5 3.05752 17.2927 2.98422 16.9975L2.83147 16.3823C2.27549 14.143 2.27549 11.8018 2.83147 9.56248C2.99205 8.91572 3.53844 8.43741 4.20075 8.36379ZM7.75 7.99042C10.5785 7.75735 13.4215 7.75734 16.25 7.99041V4.14607C13.4221 3.89862 10.5779 3.89862 7.75 4.14607V7.99042ZM7.75 16.1795V19.8205C10.5771 20.0867 13.4229 20.0867 16.25 19.8205V16.1795C13.4229 15.9133 10.5771 15.9133 7.75 16.1795ZM17.75 11C17.0596 11 16.5 11.5596 16.5 12.25C16.5 12.9404 17.0596 13.5 17.75 13.5C18.4404 13.5 19 12.9404 19 12.25C19 11.5596 18.4404 11 17.75 11Z" fill="black"/>
</svg>
