<svg width="24" height="24" viewBox="0 0 24 24" fill="none" xmlns="http://www.w3.org/2000/svg">
<path d="M10.3583 9.93815C11.44 9.81726 12.56 9.81726 13.6417 9.93815C13.8577 9.9623 14.0266 10.1337 14.0505 10.338C14.1796 11.4422 14.1796 12.5578 14.0505 13.662C14.0266 13.8663 13.8577 14.0377 13.6417 14.0619C12.56 14.1827 11.44 14.1827 10.3583 14.0619C10.1423 14.0377 9.97339 13.8663 9.94949 13.662C9.82034 12.5578 9.82034 11.4422 9.94949 10.338C9.97339 10.1337 10.1423 9.9623 10.3583 9.93815Z" fill="black"/>
<path fill-rule="evenodd" clip-rule="evenodd" d="M15 2.25C15.4142 2.25 15.75 2.58579 15.75 3V5.9265C16.9134 6.15719 17.8395 7.07626 18.0581 8.25H21C21.4142 8.25 21.75 8.58579 21.75 9C21.75 9.41421 21.4142 9.75 21 9.75H18.2119C18.2487 10.2495 18.2733 10.7496 18.2855 11.25H20C20.4142 11.25 20.75 11.5858 20.75 12C20.75 12.4142 20.4142 12.75 20 12.75H18.2855C18.2733 13.2504 18.2487 13.7505 18.2119 14.25H21C21.4142 14.25 21.75 14.5858 21.75 15C21.75 15.4142 21.4142 15.75 21 15.75H18.0581C17.8395 16.9237 16.9134 17.8428 15.75 18.0735V21C15.75 21.4142 15.4142 21.75 15 21.75C14.5858 21.75 14.25 21.4142 14.25 21V18.2258C13.7518 18.261 13.2513 18.2845 12.75 18.2963V20C12.75 20.4142 12.4142 20.75 12 20.75C11.5858 20.75 11.25 20.4142 11.25 20V18.2963C10.7487 18.2845 10.2482 18.261 9.75 18.2258V21C9.75 21.4142 9.41421 21.75 9 21.75C8.58579 21.75 8.25 21.4142 8.25 21V18.0735C7.08663 17.8428 6.16054 16.9237 5.94186 15.75H3C2.58579 15.75 2.25 15.4142 2.25 15C2.25 14.5858 2.58579 14.25 3 14.25H5.78807C5.75126 13.7505 5.72673 13.2504 5.71446 12.75H4C3.58579 12.75 3.25 12.4142 3.25 12C3.25 11.5858 3.58579 11.25 4 11.25H5.71446C5.72673 10.7496 5.75126 10.2495 5.78807 9.75H3C2.58579 9.75 2.25 9.41421 2.25 9C2.25 8.58579 2.58579 8.25 3 8.25H5.94186C6.16054 7.07626 7.08663 6.15719 8.25 5.92651V3C8.25 2.58579 8.58579 2.25 9 2.25C9.41421 2.25 9.75 2.58579 9.75 3V5.77424C10.2482 5.73897 10.7487 5.71547 11.25 5.70373V4C11.25 3.58579 11.5858 3.25 12 3.25C12.4142 3.25 12.75 3.58579 12.75 4V5.70373C13.2513 5.71547 13.7518 5.73897 14.25 5.77424V3C14.25 2.58579 14.5858 2.25 15 2.25ZM13.8083 8.44743C12.6158 8.31416 11.3841 8.31416 10.1917 8.44743C9.29371 8.5478 8.56598 9.2546 8.45965 10.1637C8.31696 11.3838 8.31696 12.6163 8.45965 13.8363C8.56598 14.7454 9.29371 15.4522 10.1917 15.5526C11.3841 15.6858 12.6158 15.6858 13.8083 15.5526C14.7063 15.4522 15.434 14.7454 15.5403 13.8363C15.683 12.6163 15.683 11.3838 15.5403 10.1637C15.434 9.2546 14.7063 8.5478 13.8083 8.44743Z" fill="black"/>
</svg>
