<svg width="24" height="24" viewBox="0 0 24 24" fill="none" xmlns="http://www.w3.org/2000/svg">
<path fill-rule="evenodd" clip-rule="evenodd" d="M3.94736 5C3.94736 4.17157 4.61893 3.5 5.44736 3.5H18.4474C19.2758 3.5 19.9474 4.17157 19.9474 5V9C19.9474 9.82843 19.2758 10.5 18.4474 10.5H5.44736C4.61893 10.5 3.94736 9.82843 3.94736 9V5ZM6 7C6 6.44772 6.44772 6 7 6C7.55229 6 8 6.44772 8 7C8 7.55228 7.55229 8 7 8C6.44772 8 6 7.55228 6 7ZM10 6C9.44771 6 9 6.44772 9 7C9 7.55228 9.44771 8 10 8C10.5523 8 11 7.55228 11 7C11 6.44772 10.5523 6 10 6Z" fill="black"/>
<path fill-rule="evenodd" clip-rule="evenodd" d="M3.94736 13C3.94736 12.1716 4.61893 11.5 5.44736 11.5H18.4474C19.2758 11.5 19.9474 12.1716 19.9474 13V17C19.9474 17.8284 19.2758 18.5 18.4474 18.5H12.75V20.25H19C19.4142 20.25 19.75 20.5858 19.75 21C19.75 21.4142 19.4142 21.75 19 21.75H5C4.58579 21.75 4.25 21.4142 4.25 21C4.25 20.5858 4.58579 20.25 5 20.25H11.25V18.5H5.44736C4.61893 18.5 3.94736 17.8284 3.94736 17V13ZM6 15C6 14.4477 6.44772 14 7 14C7.55229 14 8 14.4477 8 15C8 15.5523 7.55229 16 7 16C6.44772 16 6 15.5523 6 15ZM9 15C9 14.4477 9.44771 14 10 14C10.5523 14 11 14.4477 11 15C11 15.5523 10.5523 16 10 16C9.44771 16 9 15.5523 9 15Z" fill="black"/>
</svg>
