<svg width="24" height="24" viewBox="0 0 24 24" fill="none" xmlns="http://www.w3.org/2000/svg">
<path fill-rule="evenodd" clip-rule="evenodd" d="M6.96638 5.81396C9.31916 5.60359 11.6868 5.62195 14.036 5.86878L14.6438 5.93264C15.8037 6.05451 16.7372 6.93433 16.9314 8.07943L20.2098 6.33767C20.432 6.21964 20.6985 6.22085 20.9196 6.34091C21.1407 6.46097 21.2868 6.68388 21.3088 6.9345L21.3337 7.21834C21.6126 10.4 21.6126 13.6 21.3337 16.7817L21.3088 17.0655C21.2868 17.3161 21.1407 17.539 20.9196 17.6591C20.6985 17.7791 20.432 17.7804 20.2098 17.6623L16.9314 15.9206C16.7372 17.0657 15.8037 17.9455 14.6438 18.0674L14.036 18.1312C11.6868 18.3781 9.31916 18.3964 6.96638 18.1861L5.3846 18.0446C4.1927 17.9381 3.22968 17.0275 3.05657 15.8434C2.68394 13.2947 2.68394 10.7053 3.05657 8.15658C3.22968 6.97251 4.1927 6.06196 5.3846 5.95539L6.96638 5.81396ZM17.1164 14.3666C17.1966 14.3792 17.2762 14.4052 17.3519 14.4454L19.9069 15.8029C20.0882 13.2709 20.0882 10.7291 19.9069 8.19714L17.3519 9.55459C17.2762 9.59483 17.1966 9.62078 17.1164 9.63338C17.2566 11.208 17.2566 12.792 17.1164 14.3666Z" fill="black"/>
</svg>
