<svg width="24" height="24" viewBox="0 0 24 24" fill="none" xmlns="http://www.w3.org/2000/svg">
<path fill-rule="evenodd" clip-rule="evenodd" d="M7.57347 7.24015L7.65736 3.67369C7.67326 2.99782 8.11988 2.40795 8.7661 2.20933C10.8734 1.56165 13.1266 1.56165 15.2339 2.20933C15.8801 2.40795 16.3268 2.99782 16.3427 3.67369L16.4266 7.24017C17.3037 8.05624 17.9549 9.11182 18.2762 10.3028C18.3628 9.98426 18.654 9.75 19 9.75C19.4142 9.75 19.75 10.0858 19.75 10.5V13.5C19.75 13.9142 19.4142 14.25 19 14.25C18.654 14.25 18.3628 14.0157 18.2762 13.6972C17.9549 14.8882 17.3037 15.9438 16.4266 16.7598L16.3427 20.3263C16.3268 21.0022 15.8801 21.5921 15.2339 21.7907C13.1266 22.4384 10.8734 22.4384 8.7661 21.7907C8.11988 21.5921 7.67326 21.0022 7.65736 20.3263L7.57347 16.7598C6.29789 15.5731 5.5 13.8797 5.5 12C5.5 10.1203 6.29789 8.42693 7.57347 7.24015ZM9.20679 3.64314C11.0269 3.08372 12.9731 3.08372 14.7932 3.64314C14.8223 3.65207 14.8424 3.67858 14.8431 3.70897L14.9012 6.18181C14.0279 5.74548 13.0426 5.5 12 5.5C10.9574 5.5 9.97209 5.74548 9.09878 6.1818L9.15695 3.70897C9.15766 3.67858 9.17774 3.65207 9.20679 3.64314ZM9.09878 17.8182L9.15695 20.291C9.15766 20.3214 9.17774 20.3479 9.20679 20.3569C11.0269 20.9163 12.9731 20.9163 14.7932 20.3569C14.8223 20.3479 14.8424 20.3214 14.8431 20.291L14.9012 17.8182C14.0279 18.2545 13.0426 18.5 12 18.5C10.9574 18.5 9.97209 18.2545 9.09878 17.8182ZM9.70189 14.2981C9.409 14.0052 8.93412 14.0052 8.64123 14.2981C8.34834 14.591 8.34834 15.0659 8.64123 15.3588C10.4962 17.2138 13.5038 17.2138 15.3587 15.3588C15.6516 15.0659 15.6516 14.591 15.3587 14.2981C15.0659 14.0052 14.591 14.0052 14.2981 14.2981C13.0289 15.5673 10.9711 15.5673 9.70189 14.2981Z" fill="black"/>
</svg>
