<svg width="24" height="24" viewBox="0 0 24 24" fill="none" xmlns="http://www.w3.org/2000/svg">
<path fill-rule="evenodd" clip-rule="evenodd" d="M20.0848 16.9324C20.5298 12.6557 20.5298 8.34435 20.0848 4.06765C19.9261 2.5426 18.1677 1.77009 16.9372 2.68481L12.8336 5.73522C11.5831 6.66473 10.0665 7.16668 8.50839 7.16668H4.67919C3.98884 7.16668 3.42919 7.72632 3.42919 8.41668V12.5833C3.42919 13.2737 3.98883 13.8333 4.67919 13.8333H5.30347L4.45811 16.9883C4.36391 17.3398 4.53572 17.7083 4.86559 17.8621L8.54673 19.5787C8.74766 19.6724 8.97974 19.6724 9.18066 19.5787C9.38159 19.485 9.53077 19.3072 9.58815 19.0931L10.8508 14.3806C10.8643 14.3306 10.8723 14.2804 10.8752 14.2306C11.5727 14.4715 12.2338 14.819 12.8336 15.2648L16.9372 18.3152C18.1677 19.2299 19.9261 18.4574 20.0848 16.9324ZM18.5928 4.22288C19.0271 8.39637 19.0271 12.6037 18.5928 16.7771C18.5545 17.1458 18.1295 17.3325 17.8321 17.1114L13.7284 14.061C12.2193 12.9391 10.3888 12.3333 8.50839 12.3333L4.92919 12.3333L4.92919 8.66668H8.50839C10.3888 8.66668 12.2193 8.06088 13.7284 6.93905L17.8321 3.88864C18.1295 3.66755 18.5545 3.85427 18.5928 4.22288ZM9.43615 13.8929C9.12975 13.8534 8.81989 13.8333 8.50839 13.8333H6.85638L6.06988 16.7686L8.3706 17.8415L9.40195 13.9924C9.41117 13.958 9.42263 13.9248 9.43615 13.8929Z" fill="black"/>
</svg>
