<svg width="24" height="24" viewBox="0 0 24 24" fill="none" xmlns="http://www.w3.org/2000/svg">
<path d="M15.1 11.45C15.5142 11.45 15.85 11.7858 15.85 12.2C15.85 12.6142 15.5142 12.95 15.1 12.95H9.6C9.18578 12.95 8.85 12.6142 8.85 12.2C8.85 11.7858 9.18578 11.45 9.6 11.45H15.1Z" fill="black"/>
<path fill-rule="evenodd" clip-rule="evenodd" d="M4.59187 15.3042C2.344 9.78675 6.40311 3.75 12.3609 3.75H12.6823C17.138 3.75 20.75 7.36201 20.75 11.8176C20.75 16.7785 16.7284 20.8 11.7676 20.8H3.94735C3.6291 20.8 3.34549 20.5991 3.23987 20.2989C3.13424 19.9987 3.22959 19.6645 3.47773 19.4652L5.44922 17.8819C5.53543 17.8127 5.56592 17.6951 5.5242 17.5927L4.59187 15.3042ZM12.3609 5.25C7.46839 5.25 4.13507 10.2074 5.98101 14.7383L6.91334 17.0268C7.20534 17.7435 6.99189 18.5669 6.38847 19.0515L6.07902 19.3H11.7676C15.9 19.3 19.25 15.95 19.25 11.8176C19.25 8.19044 16.3096 5.25 12.6823 5.25H12.3609Z" fill="black"/>
</svg>
