<svg width="24" height="24" viewBox="0 0 24 24" fill="none" xmlns="http://www.w3.org/2000/svg">
<path d="M10 9.00002C10 7.89545 10.8954 7.00002 12 7.00002C13.1046 7.00002 14 7.89545 14 9.00002C14 10.1046 13.1046 11 12 11C10.8954 11 10 10.1046 10 9.00002Z" fill="black"/>
<path d="M11 12.5C9.34315 12.5 8 13.8432 8 15.5C8 16.0523 8.44772 16.5 9 16.5H15C15.5523 16.5 16 16.0523 16 15.5C16 13.8432 14.6569 12.5 13 12.5H11Z" fill="black"/>
<path fill-rule="evenodd" clip-rule="evenodd" d="M7.54353 2.8827C10.4993 2.45796 13.5007 2.45796 16.4565 2.8827C17.922 3.09329 19.0511 4.28268 19.1852 5.75714L19.3122 7.15287C19.6055 10.3776 19.6055 13.6224 19.3122 16.8472L19.1852 18.2429C19.0511 19.7174 17.922 20.9068 16.4565 21.1173C13.5007 21.5421 10.4993 21.5421 7.54353 21.1173C6.07804 20.9068 4.94894 19.7174 4.81482 18.2429L4.68785 16.8472C4.3945 13.6224 4.3945 10.3776 4.68785 7.15287L4.81482 5.75714C4.94894 4.28268 6.07804 3.09329 7.54353 2.8827ZM16.2431 4.36745C13.4288 3.96305 10.5712 3.96305 7.75688 4.36745C6.97909 4.47922 6.37983 5.11048 6.30865 5.89303L6.18168 7.28876C5.89655 10.4231 5.89655 13.5769 6.18168 16.7113L6.30865 18.107C6.37984 18.8896 6.97909 19.5208 7.75688 19.6326C10.5712 20.037 13.4288 20.037 16.2431 19.6326C17.0209 19.5208 17.6202 18.8896 17.6914 18.107L17.8183 16.7113C18.1035 13.5769 18.1035 10.4231 17.8183 7.28876L17.6914 5.89303C17.6202 5.11048 17.0209 4.47922 16.2431 4.36745Z" fill="black"/>
</svg>
