<svg width="24" height="24" viewBox="0 0 24 24" fill="none" xmlns="http://www.w3.org/2000/svg">
<path fill-rule="evenodd" clip-rule="evenodd" d="M2.46013 16.8191C2.23855 16.5893 2.18669 16.2445 2.33089 15.9597L3.03239 14.5743C4.69266 11.2955 8.05561 9.22883 11.7308 9.22883H12.0757C12.1009 8.68245 12.1333 8.13633 12.1731 7.5906L12.241 6.65996C12.2961 5.90314 13.14 5.48007 13.7794 5.88866C15.8771 7.22902 17.7007 8.95611 19.153 10.9779L19.6091 11.6128C19.797 11.8743 19.797 12.2265 19.6091 12.4879L19.153 13.1229C17.7007 15.1446 15.8771 16.8717 13.7794 18.2121C13.14 18.6207 12.2961 18.1976 12.241 17.4408L12.1731 16.5101C12.1256 15.8584 12.0885 15.2061 12.0619 14.5535C9.91206 14.4914 7.76485 14.9254 5.79148 15.8361L3.31429 16.9795C3.02446 17.1132 2.68171 17.0489 2.46013 16.8191ZM4.67837 14.6978L5.1629 14.4742C7.57404 13.3614 10.2196 12.8916 12.8447 13.0932C13.227 13.1226 13.5256 13.4356 13.5369 13.8188C13.5624 14.6802 13.6065 15.5411 13.6692 16.4011L13.6746 16.4755C15.318 15.3139 16.7583 13.8855 17.9348 12.2477L18.0765 12.0504L17.9348 11.853C16.7583 10.2152 15.318 8.78686 13.6746 7.6252L13.6692 7.69965C13.6132 8.46726 13.5721 9.23568 13.5458 10.0045C13.532 10.4085 13.2004 10.7288 12.7962 10.7288L11.7308 10.7288C8.83351 10.7288 6.16554 12.2467 4.67837 14.6978Z" fill="black"/>
</svg>
