<svg width="24" height="24" viewBox="0 0 24 24" fill="none" xmlns="http://www.w3.org/2000/svg">
<path fill-rule="evenodd" clip-rule="evenodd" d="M4.4765 10.481C6.41854 14.7108 9.87391 18.0738 14.1699 19.8974L14.9277 20.235C16.5487 20.9572 18.4541 20.4443 19.4934 19.0058L20.7678 17.242C21.3127 16.4879 21.1722 15.4393 20.4481 14.8551L18.2234 13.0603C17.4492 12.4358 16.3108 12.5812 15.7186 13.3804L15.2224 14.0499C13.028 12.919 11.2357 11.1266 10.1047 8.93221L10.7742 8.43605C11.5734 7.84381 11.7189 6.70542 11.0943 5.93125L9.29927 3.7062C8.71528 2.98231 7.66705 2.8417 6.91293 3.38611L5.13964 4.66627C3.69165 5.71158 3.18173 7.63299 3.92083 9.25874L4.47533 10.4785L4.4765 10.481ZM14.7618 18.5191C10.8081 16.8425 7.62759 13.7483 5.84027 9.85641L5.83968 9.85511L5.28634 8.63795C4.84288 7.6625 5.14883 6.50966 6.01762 5.88247L7.79092 4.60231C7.89865 4.52454 8.04839 4.54462 8.13182 4.64804L9.92686 6.87308C10.0161 6.98368 9.99531 7.14631 9.88114 7.23091L8.71276 8.09677C8.42901 8.30705 8.33041 8.68681 8.47603 9.00857C9.81396 11.965 12.1897 14.3407 15.1461 15.6786C15.4678 15.8242 15.8476 15.7256 16.0579 15.4419L16.9237 14.2735C17.0083 14.1593 17.171 14.1385 17.2816 14.2278L19.5063 16.0226C19.6097 16.106 19.6298 16.2558 19.552 16.3636L18.2776 18.1273C17.654 18.9904 16.5108 19.2982 15.5381 18.8648L14.7743 18.5244L14.7618 18.5191Z" fill="black"/>
<path d="M13.75 9.00003C13.75 9.19894 13.829 9.38971 13.9697 9.53036C14.1103 9.67101 14.3011 9.75003 14.5 9.75003H18.3284C18.7426 9.75003 19.0784 9.41424 19.0784 9.00003C19.0784 8.58582 18.7426 8.25003 18.3284 8.25003H16.3107L19.4697 5.09102C19.7626 4.79813 19.7626 4.32325 19.4697 4.03036C19.1768 3.73747 18.7019 3.73747 18.409 4.03036L15.25 7.18937V5.1716C15.25 4.75739 14.9142 4.4216 14.5 4.4216C14.0858 4.4216 13.75 4.75739 13.75 5.1716V9.00003Z" fill="black"/>
</svg>
