<svg width="24" height="24" viewBox="0 0 24 24" fill="none" xmlns="http://www.w3.org/2000/svg">
<path d="M10.9941 10.8253C11.0998 10.7195 11.1112 10.5522 11.0237 10.4308C10.6821 9.95653 10.3746 9.45581 10.1047 8.93221L10.7742 8.43605C11.5734 7.84381 11.7189 6.70542 11.0943 5.93125L9.29927 3.7062C8.71528 2.98231 7.66705 2.8417 6.91293 3.38611L5.13964 4.66627C3.69165 5.71158 3.18173 7.63299 3.92083 9.25874L4.47533 10.4785L4.4765 10.481C5.13017 11.9047 5.9553 13.2302 6.92622 14.4319C7.03691 14.5689 7.24161 14.5778 7.36615 14.4532L8.0069 13.8125C8.11618 13.7032 8.12433 13.529 8.02793 13.4082C7.1633 12.3247 6.42678 11.1335 5.84027 9.85641L5.83968 9.85511L5.28634 8.63795C4.84288 7.6625 5.14883 6.50966 6.01762 5.88247L7.79092 4.60231C7.89865 4.52454 8.04839 4.54462 8.13182 4.64804L9.92686 6.87308C10.0161 6.98368 9.99531 7.14631 9.88114 7.23091L8.71276 8.09677C8.42901 8.30705 8.33041 8.68681 8.47603 9.00857C8.86701 9.87251 9.34661 10.6869 9.90342 11.4402C10.0106 11.5852 10.2213 11.5981 10.3488 11.4706L10.9941 10.8253Z" fill="black"/>
<path fill-rule="evenodd" clip-rule="evenodd" d="M19.9971 3.94361L4.03033 19.9104C4.02136 19.9193 4.01222 19.928 4.00291 19.9365L3.96967 19.9697C3.67678 20.2626 3.67678 20.7375 3.96967 21.0304C4.26256 21.3233 4.73744 21.3233 5.03033 21.0304L9.23783 16.8229C10.6991 18.0874 12.3599 19.129 14.1699 19.8974L14.9277 20.235C16.5487 20.9572 18.4541 20.4443 19.4934 19.0058L20.7678 17.242C21.3127 16.4879 21.1722 15.4393 20.4481 14.8551L18.2234 13.0603C17.4492 12.4358 16.3108 12.5812 15.7186 13.3804L15.2224 14.0499C14.5294 13.6928 13.8766 13.2697 13.2719 12.7888L21.0303 5.03036C21.3232 4.73747 21.3232 4.26259 21.0303 3.9697C20.7464 3.68578 20.2915 3.67708 19.9971 3.94361ZM15.1461 15.6786C14.0837 15.1978 13.0964 14.5831 12.2052 13.8555L10.3015 15.7592C11.6272 16.8919 13.1285 17.8265 14.7618 18.5191L14.7743 18.5244L15.5381 18.8648C16.5108 19.2982 17.654 18.9904 18.2776 18.1273L19.552 16.3636C19.6298 16.2558 19.6097 16.106 19.5063 16.0226L17.2816 14.2278C17.171 14.1385 17.0083 14.1593 16.9237 14.2735L16.0579 15.4419C15.8476 15.7256 15.4678 15.8242 15.1461 15.6786Z" fill="black"/>
</svg>
