<svg width="24" height="24" viewBox="0 0 24 24" fill="none" xmlns="http://www.w3.org/2000/svg">
<path fill-rule="evenodd" clip-rule="evenodd" d="M5.84027 9.85635C7.62759 13.7482 10.8081 16.8424 14.7618 18.519L14.7743 18.5243L15.5381 18.8647C16.5108 19.2981 17.654 18.9903 18.2776 18.1272L19.552 16.3635C19.6298 16.2558 19.6097 16.106 19.5063 16.0225L17.2816 14.2277C17.171 14.1385 17.0083 14.1593 16.9237 14.2734L16.0579 15.4418C15.8476 15.7256 15.4678 15.8242 15.1461 15.6786C12.1897 14.3406 9.81396 11.9649 8.47603 9.00851C8.33041 8.68674 8.42901 8.30699 8.71276 8.09671L9.88114 7.23085C9.99531 7.14625 10.0161 6.98362 9.92686 6.87302L8.13182 4.64798C8.04839 4.54456 7.89865 4.52448 7.79092 4.60225L6.01762 5.88241C5.14883 6.5096 4.84288 7.66244 5.28634 8.63789L5.83968 9.85505L5.84027 9.85635ZM14.1699 19.8973C9.87391 18.0737 6.41854 14.7107 4.4765 10.4809L4.47533 10.4784L3.92083 9.25868C3.18173 7.63293 3.69165 5.71152 5.13964 4.66621L6.91293 3.38605C7.66705 2.84164 8.71528 2.98225 9.29927 3.70614L11.0943 5.93119C11.7189 6.70536 11.5734 7.84375 10.7742 8.43599L10.1047 8.93215C11.2357 11.1265 13.028 12.9189 15.2224 14.0498L15.7186 13.3803C16.3108 12.5812 17.4492 12.4357 18.2234 13.0603L20.4481 14.855C21.1722 15.4392 21.3127 16.4879 20.7678 17.242L19.4934 19.0057C18.4541 20.4442 16.5487 20.9572 14.9277 20.2349L14.1699 19.8973Z" fill="black"/>
<path fill-rule="evenodd" clip-rule="evenodd" d="M19.4697 4.03033C19.6103 4.17098 19.6893 4.36175 19.6893 4.56066V8.38909C19.6893 8.8033 19.3536 9.13909 18.9393 9.13909C18.5251 9.13909 18.1893 8.8033 18.1893 8.38909V6.37132L15.0303 9.53033C14.7374 9.82322 14.2626 9.82322 13.9697 9.53033C13.6768 9.23744 13.6768 8.76256 13.9697 8.46967L17.1287 5.31066L15.1109 5.31066C14.6967 5.31066 14.3609 4.97487 14.3609 4.56066C14.3609 4.14645 14.6967 3.81066 15.1109 3.81066L18.9393 3.81066C19.1383 3.81066 19.329 3.88968 19.4697 4.03033Z" fill="black"/>
</svg>
