<svg width="24" height="24" viewBox="0 0 24 24" fill="none" xmlns="http://www.w3.org/2000/svg">
<path fill-rule="evenodd" clip-rule="evenodd" d="M20.5399 16.8073C20.7615 16.5775 20.8133 16.2326 20.6691 15.9478L19.939 14.5059C18.2787 11.2271 14.9158 9.16048 11.2406 9.16049H10.8367C10.8113 8.60714 10.7785 8.05406 10.7382 7.50138L10.6697 6.56241C10.6144 5.80389 9.76865 5.37987 9.12778 5.78937C7.01208 7.14127 5.17279 8.88321 3.70797 10.9224L3.24779 11.563C3.05996 11.8245 3.05996 12.1766 3.24779 12.4381L3.70798 13.0787C5.17279 15.1179 7.01208 16.8598 9.12778 18.2117C9.76866 18.6212 10.6144 18.1972 10.6697 17.4387L10.7382 16.4997C10.7862 15.8402 10.8237 15.18 10.8506 14.5196C13.0228 14.4559 15.1925 14.8939 17.1864 15.8141L19.6857 16.9676C19.9756 17.1014 20.3183 17.0371 20.5399 16.8073ZM18.3291 14.6894L17.815 14.4522C15.3833 13.3299 12.7153 12.856 10.0678 13.0594C9.68549 13.0888 9.38689 13.4018 9.37556 13.785C9.34987 14.6542 9.30539 15.5229 9.24214 16.3907L9.2358 16.4776C7.57299 15.3039 6.11597 13.8598 4.92623 12.2036L4.78037 12.0005L4.92623 11.7975C6.11597 10.1413 7.57299 8.69718 9.2358 7.52347L9.24214 7.61043C9.2986 8.38499 9.3401 9.16037 9.36664 9.93613C9.38046 10.3401 9.71197 10.6605 10.1162 10.6605L11.2406 10.6605C14.1614 10.6605 16.8492 12.2032 18.3291 14.6894Z" fill="black"/>
</svg>
