<svg width="24" height="24" viewBox="0 0 24 24" fill="none" xmlns="http://www.w3.org/2000/svg">
<path fill-rule="evenodd" clip-rule="evenodd" d="M6.90838 4.32375C10.2642 3.94868 13.7358 3.94868 17.0916 4.32375C18.4218 4.47241 19.4872 5.52202 19.6414 6.8397C20.0424 10.2682 20.0424 13.7318 19.6414 17.1603C19.4872 18.478 18.4218 19.5276 17.0916 19.6763C13.7358 20.0513 10.2642 20.0513 6.90838 19.6763C5.57827 19.5276 4.51278 18.478 4.35867 17.1603C3.95767 13.7318 3.95767 10.2682 4.35867 6.8397C4.51278 5.52202 5.57827 4.47241 6.90838 4.32375ZM17.2583 2.83303C13.7917 2.44559 10.2083 2.44559 6.74177 2.83303C4.72971 3.05791 3.10538 4.64292 2.86883 6.66545C2.45429 10.2097 2.45429 13.7903 2.86883 17.3346C3.10538 19.3571 4.72971 20.9421 6.74177 21.167C10.2083 21.5544 13.7917 21.5544 17.2583 21.167C19.2703 20.9421 20.8946 19.3571 21.1312 17.3346C21.5457 13.7903 21.5457 10.2097 21.1312 6.66545C20.8946 4.64292 19.2703 3.05791 17.2583 2.83303ZM9.37471 15.5H8.03271V8.18501C8.51672 8.09701 9.18771 8.03101 10.1007 8.03101C11.0907 8.03101 11.8167 8.24001 12.2897 8.63601C12.7297 8.99901 13.0157 9.58201 13.0157 10.275C13.0157 10.979 12.7957 11.562 12.3777 11.958C11.8387 12.497 10.9917 12.75 10.0347 12.75C9.78171 12.75 9.55071 12.739 9.37471 12.706V15.5ZM10.1557 9.06501C9.78171 9.06501 9.51772 9.09801 9.37471 9.13101V11.639C9.53971 11.683 9.75972 11.694 10.0347 11.694C11.0467 11.694 11.6627 11.199 11.6627 10.33C11.6627 9.50501 11.0907 9.06501 10.1557 9.06501ZM14.9063 15.5H13.5533V11.87C13.5533 11.144 13.5423 10.627 13.5093 10.143H14.6863L14.7303 11.166H14.7743C15.0383 10.407 15.6653 10.022 16.2373 10.022C16.3693 10.022 16.4463 10.033 16.5563 10.055V11.331C16.4463 11.309 16.3253 11.287 16.1603 11.287C15.5113 11.287 15.0713 11.705 14.9503 12.31C14.9283 12.431 14.9063 12.574 14.9063 12.728V15.5Z" fill="black"/>
</svg>
