<svg width="24" height="24" viewBox="0 0 24 24" fill="none" xmlns="http://www.w3.org/2000/svg">
<path fill-rule="evenodd" clip-rule="evenodd" d="M16.7108 1.37734C16.7013 1.15855 16.5966 0.954848 16.4243 0.819718C16.252 0.684589 16.0292 0.631533 15.8144 0.674482C15.3141 0.77454 13.6824 1.1796 12.3942 2.46782C11.7364 3.12562 11.3722 3.956 11.175 4.71195C11.0733 5.10154 11.0126 5.48411 10.9803 5.8344C10.9034 5.80097 10.8227 5.76602 10.7372 5.72955C10.0442 5.43409 9.14786 5.08909 8.12774 5.08909C7.03508 5.08909 5.48461 5.53363 4.20457 6.78991C2.90681 8.06357 1.95002 10.1078 1.95001 13.1904C1.95001 14.9223 2.81612 17.4409 3.98347 19.4848C4.5737 20.5182 5.26852 21.4801 6.01851 22.1888C6.74691 22.8771 7.63533 23.4271 8.603 23.4022C9.32321 23.3992 10.0522 23.1165 10.6203 22.8961L10.6705 22.8767C11.324 22.6235 11.79 22.4525 12.181 22.4525C12.555 22.4525 13.0246 22.6232 13.6892 22.8777L13.7377 22.8963C14.3144 23.1174 15.0571 23.4022 15.7703 23.4022C16.3089 23.4022 16.9325 23.1141 17.4782 22.7746C18.0616 22.4118 18.6927 21.9032 19.274 21.2993C20.4116 20.1174 21.4907 18.428 21.4488 16.6201C21.4423 16.3369 21.2767 16.0816 21.0209 15.96C20.674 15.7952 20.1079 15.4228 19.6307 14.8756C19.1578 14.3333 18.8092 13.6641 18.7874 12.888C18.7567 11.7925 19.0642 10.8237 19.4704 10.0815C19.8915 9.31199 20.3696 8.87106 20.592 8.75452C20.7839 8.6539 20.923 8.47515 20.9733 8.26431C21.0236 8.05347 20.9803 7.83118 20.8544 7.65471C20.5117 7.17425 19.8623 6.54287 19.0964 6.03364C18.3387 5.52985 17.3524 5.06894 16.3418 5.08924C16.1653 5.09278 15.9922 5.10578 15.823 5.12636C16.1929 4.57657 16.4077 3.8945 16.5336 3.29577C16.6852 2.57455 16.7316 1.8559 16.7108 1.37734ZM13.4549 3.52848C13.9964 2.98691 14.6322 2.64484 15.1586 2.43408C15.1357 2.6127 15.1051 2.7994 15.0657 2.98714C14.9349 3.60892 14.7294 4.12902 14.4759 4.42482C13.9969 4.98361 13.3525 5.59354 12.4883 5.83471C12.5158 5.59791 12.5599 5.34532 12.6264 5.09069C12.7816 4.49584 13.0456 3.9377 13.4549 3.52848ZM16.3719 6.58894C16.9371 6.57758 17.6142 6.84946 18.2659 7.28276C18.6096 7.51129 18.9142 7.76326 19.1565 7.99492C18.7988 8.35343 18.4485 8.82425 18.1546 9.36133C17.6416 10.2986 17.2487 11.5283 17.288 12.9301C17.3223 14.1519 17.8724 15.1416 18.5002 15.8615C18.9597 16.3884 19.4805 16.7946 19.9296 17.0701C19.8036 18.1661 19.1064 19.3105 18.1933 20.2591C17.6913 20.7807 17.1558 21.2087 16.686 21.5009C16.1785 21.8166 15.862 21.9022 15.7703 21.9022C15.3696 21.9022 14.8822 21.7284 14.2257 21.477L14.1462 21.4464C13.5818 21.2297 12.8602 20.9525 12.181 20.9525C11.4817 20.9525 10.7629 21.2317 10.2006 21.45L10.1286 21.478C9.48083 21.7289 9.00206 21.9022 8.59172 21.9022C8.58412 21.9022 8.57651 21.9023 8.56891 21.9025C8.19287 21.914 7.67491 21.6903 7.04873 21.0986C6.44124 20.5245 5.83165 19.6962 5.286 18.7409C4.18158 16.8072 3.45001 14.5539 3.45001 13.1904C3.45002 10.4342 4.29512 8.80275 5.25524 7.86046C6.23308 6.90078 7.39647 6.58909 8.12774 6.58909C8.82349 6.58909 9.48069 6.82446 10.1489 7.10936C10.2363 7.14663 10.3269 7.18609 10.4189 7.22616C10.6562 7.32947 10.9027 7.4368 11.1266 7.52074C11.4386 7.63772 11.806 7.74983 12.181 7.74983C12.556 7.74983 12.9272 7.64471 13.2504 7.53068C13.4923 7.44536 13.7557 7.33644 14.0105 7.23108C14.0959 7.19577 14.1803 7.16085 14.2627 7.12737C14.9562 6.84525 15.6448 6.60354 16.3719 6.58894Z" fill="black"/>
</svg>
