<svg width="24" height="24" viewBox="0 0 24 24" fill="none" xmlns="http://www.w3.org/2000/svg">
<path fill-rule="evenodd" clip-rule="evenodd" d="M4.11076 6.26974C2.9404 7.87828 2.25 9.85851 2.25 12C2.25 16.9969 6.00901 21.1158 10.8535 21.6833C10.8903 21.6902 10.9273 21.6943 10.9642 21.6956C11.3045 21.7316 11.6501 21.75 12 21.75C17.3848 21.75 21.75 17.3848 21.75 12C21.75 10.6324 21.4684 9.33049 20.9601 8.14921C20.9482 8.11577 20.934 8.08342 20.9177 8.05236C19.4024 4.63431 15.9797 2.25 12 2.25C8.81007 2.25 5.97793 3.78191 4.19914 6.1502C4.16549 6.18731 4.13597 6.22739 4.11076 6.26974ZM4.72648 8.10321C4.10342 9.26373 3.75 10.5906 3.75 12C3.75 16.0778 6.70855 19.4646 10.5963 20.1311L12.822 16.2724C12.5558 16.3233 12.281 16.35 12 16.35C10.3237 16.35 8.86889 15.4018 8.14258 14.0125L4.72648 8.10321ZM5.65991 6.72087L7.88829 10.5765C8.47791 8.87313 10.0961 7.64999 12 7.64999L19.0113 7.65C17.5556 5.30868 14.9598 3.75 12 3.75C9.4517 3.75 7.17325 4.90538 5.65991 6.72087ZM19.7445 9.15H15.2864C15.949 9.91336 16.35 10.9098 16.35 12C16.35 12.8566 16.1024 13.6554 15.6749 14.3287L12.2617 20.2459C16.6969 20.1077 20.25 16.4688 20.25 12C20.25 10.9983 20.0715 10.0382 19.7445 9.15ZM12 9.14999C10.426 9.14999 9.15002 10.426 9.15002 12C9.15002 13.574 10.426 14.85 12 14.85C13.574 14.85 14.85 13.574 14.85 12C14.85 10.426 13.574 9.14999 12 9.14999Z" fill="black"/>
</svg>
