<svg width="24" height="24" viewBox="0 0 24 24" fill="none" xmlns="http://www.w3.org/2000/svg">
<path fill-rule="evenodd" clip-rule="evenodd" d="M6.09658 2.49246C6.3424 2.33586 6.65668 2.33584 6.9025 2.49243L12.0003 5.73963L17.097 2.49247C17.3428 2.33584 17.6572 2.33584 17.903 2.49247L23.403 5.99657C23.6191 6.13428 23.75 6.37282 23.75 6.6291C23.75 6.88539 23.6191 7.12393 23.403 7.26163L18.8958 10.1332L23.403 13.0048C23.6191 13.1425 23.75 13.381 23.75 13.6373C23.75 13.8936 23.6191 14.1321 23.403 14.2698L18.7966 17.2045L19.0161 17.3508C19.2247 17.4899 19.35 17.7241 19.35 17.9748C19.35 18.2256 19.2247 18.4598 19.0161 18.5989L12.4166 22.999C12.1647 23.167 11.8365 23.167 11.5845 22.9991L4.98402 18.599C4.77536 18.4599 4.65002 18.2257 4.65002 17.975C4.65003 17.7242 4.77536 17.49 4.98403 17.3509L5.20369 17.2045L0.597006 14.2695C0.380862 14.1318 0.25 13.8932 0.25 13.637C0.25 13.3807 0.380868 13.1421 0.597013 13.0044L5.10423 10.1329L0.597006 7.26129C0.380862 7.12358 0.25 6.88504 0.25 6.62875C0.25 6.37247 0.380868 6.13393 0.597013 5.99622L6.09658 2.49246ZM10.5792 13.6211L9.51096 14.3332L6.4996 16.2515L2.39582 13.637L6.49961 11.0225L10.5792 13.6211ZM14.5264 14.3576L13.4215 13.6209L17.5 11.0225L21.6042 13.6373L17.5 16.252L14.5264 14.3576ZM10.33 15.59L6.75218 17.975L12.0005 21.4736L17.248 17.9749L13.7072 15.6142L11.9996 14.5264L10.33 15.59ZM11.9996 7.51815L16.1042 10.1332L12.0003 12.7478L7.89506 10.1329L11.9996 7.51815ZM6.49961 4.01425L2.39582 6.62877L6.4996 9.24333L10.604 6.6287L6.49961 4.01425ZM13.3958 6.6291L17.5 9.24392L21.6042 6.6291L17.5 4.01428L13.3958 6.6291Z" fill="black"/>
</svg>
