<svg width="24" height="24" viewBox="0 0 24 24" fill="none" xmlns="http://www.w3.org/2000/svg">
<path d="M5.85557 6.83965C5.62315 6.71449 5.34204 6.72075 5.11541 6.85611C4.88878 6.99148 4.75 7.23602 4.75 7.5V17C4.75 17.4142 5.08579 17.75 5.5 17.75C5.91421 17.75 6.25 17.4142 6.25 17V8.75566L11.6444 11.6604C11.8664 11.7799 12.1336 11.7799 12.3556 11.6604L17.75 8.75566V17C17.75 17.4142 18.0858 17.75 18.5 17.75C18.9142 17.75 19.25 17.4142 19.25 17V7.5C19.25 7.23602 19.1112 6.99148 18.8846 6.85611C18.658 6.72075 18.3769 6.71449 18.1444 6.83965L12 10.1482L5.85557 6.83965Z" fill="black"/>
<path fill-rule="evenodd" clip-rule="evenodd" d="M17.3106 3.72184C13.7773 3.40591 10.2228 3.40591 6.68943 3.72184L5.17208 3.8575C3.54447 4.00303 2.2294 5.24645 1.99301 6.86337C1.49501 10.2697 1.49501 13.7303 1.99301 17.1366C2.2294 18.7535 3.54447 19.997 5.17208 20.1425L6.68943 20.2782C10.2228 20.5941 13.7773 20.5941 17.3106 20.2782L18.8279 20.1425C20.4556 19.997 21.7706 18.7535 22.007 17.1366C22.505 13.7303 22.505 10.2697 22.007 6.86337C21.7706 5.24645 20.4556 4.00303 18.8279 3.8575L17.3106 3.72184ZM6.82301 5.21588C10.2675 4.9079 13.7325 4.9079 17.177 5.21588L18.6944 5.35154C19.6305 5.43524 20.3868 6.15039 20.5228 7.08036C20.9998 10.3428 20.9998 13.6572 20.5228 16.9196C20.3868 17.8496 19.6305 18.5648 18.6944 18.6485L17.177 18.7841C13.7325 19.0921 10.2675 19.0921 6.82301 18.7841L5.30567 18.6485C4.36955 18.5648 3.61319 17.8496 3.47723 16.9196C3.00027 13.6572 3.00027 10.3428 3.47723 7.08036C3.61319 6.1504 4.36955 5.43524 5.30567 5.35154L6.82301 5.21588Z" fill="black"/>
</svg>
