<svg width="24" height="24" viewBox="0 0 24 24" fill="none" xmlns="http://www.w3.org/2000/svg">
<path fill-rule="evenodd" clip-rule="evenodd" d="M11.5763 5.56075C8.91373 4.12428 6.16498 2.64231 5.78592 2.44177C5.39709 2.21902 4.95701 2.14898 4.55109 2.21873C4.54332 2.22005 4.53555 2.22149 4.5278 2.22306C4.52046 2.22454 4.51315 2.22613 4.50588 2.22783C4.15987 2.30773 3.82822 2.50501 3.59054 2.83759C3.3557 3.16618 3.25 3.57338 3.25 4.01772V19.8414C3.25 20.2292 3.32574 20.6378 3.53817 20.9816C3.76563 21.3497 4.13866 21.617 4.62138 21.6616C4.67873 21.6669 4.73593 21.6655 4.79194 21.6579C5.1406 21.6593 5.47338 21.5468 5.78123 21.3794L5.89026 21.3203C6.02069 21.2496 6.23036 21.1358 6.50625 20.9867C8.39335 19.9664 13.3485 17.2874 16.9001 15.3565C16.9086 15.3519 16.917 15.3471 16.9253 15.3422C17.6023 14.9744 18.2278 14.6342 18.7706 14.339L19.6215 13.8763C19.9694 13.6872 20.2535 13.5329 20.4594 13.4217C20.5624 13.366 20.645 13.3215 20.7058 13.289L20.7786 13.2504L20.8047 13.2368L20.8225 13.2277C21.1442 13.0585 21.5878 12.6989 21.716 12.1535C21.7879 11.8479 21.7491 11.5161 21.5674 11.2114C21.3966 10.9248 21.1295 10.7114 20.8257 10.5498L20.8185 10.546C20.532 10.3975 18.9498 9.53859 16.9011 8.42056C16.8597 8.39798 16.8169 8.37963 16.7733 8.36546L15.2499 7.54315C14.2571 7.00725 12.9266 6.28923 11.5763 5.56075ZM13.7072 10.8508L8.31115 5.50394C9.11284 5.93618 9.99214 6.41045 10.8641 6.88089C12.2143 7.6093 13.5446 8.32727 14.5375 8.86315L15.29 9.26938L13.7072 10.8508ZM4.75 19.7825V4.08695L12.6455 11.9104L4.75 19.7825ZM14.7758 11.9061L16.6828 10.0102C18.47 10.9848 19.8353 11.7256 20.1241 11.8756L20.1462 11.8878C20.1399 11.8916 20.1337 11.8951 20.1277 11.8984C19.9725 11.9777 19.1542 12.4228 17.9812 13.0608C17.5819 13.278 17.1414 13.5176 16.672 13.7727L14.7758 11.9061ZM8.40918 18.2523L13.7127 12.9645L15.2944 14.5219C13.0527 15.7392 10.4392 17.1541 8.40918 18.2523Z" fill="black"/>
</svg>
