<svg width="24" height="24" viewBox="0 0 24 24" fill="none" xmlns="http://www.w3.org/2000/svg">
<path d="M0.25 10.2145C0.25 6.24636 4.05525 3.25 8.45161 3.25C11.9502 3.25 15.0521 5.13375 16.1918 7.89933C16.243 8.02337 16.154 8.15792 16.0203 8.16898C15.648 8.19978 15.2782 8.25265 14.9138 8.32662C14.8207 8.34551 14.7269 8.29807 14.6853 8.2127C13.7216 6.23442 11.3546 4.75 8.45161 4.75C4.61715 4.75 1.75 7.31827 1.75 10.2145C1.75 11.7791 2.56392 13.224 3.9325 14.2455C4.12216 14.3871 4.23387 14.6099 4.23387 14.8465V15.7873L5.78151 15.357C5.9163 15.3196 6.05888 15.3205 6.19314 15.3598C6.80385 15.5387 7.45668 15.6474 8.13752 15.673C8.24556 15.6771 8.33258 15.764 8.33726 15.8721C8.35581 16.3 8.41311 16.7133 8.50538 17.1107C8.51344 17.1454 8.48728 17.1788 8.45161 17.1789C7.59258 17.1789 6.76262 17.0669 5.98177 16.8582L3.68475 17.4968C3.45891 17.5596 3.21671 17.5132 3.03009 17.3713C2.84346 17.2295 2.73387 17.0086 2.73387 16.7742V15.211C1.22401 13.9648 0.25 12.2016 0.25 10.2145Z" fill="black"/>
<path d="M6.85486 8.25806C6.85486 8.84597 6.37826 9.32257 5.79035 9.32257C5.20243 9.32257 4.72583 8.84597 4.72583 8.25806C4.72583 7.67014 5.20243 7.19354 5.79035 7.19354C6.37826 7.19354 6.85486 7.67014 6.85486 8.25806Z" fill="black"/>
<path d="M11.1129 9.32257C11.7008 9.32257 12.1774 8.84597 12.1774 8.25806C12.1774 7.67014 11.7008 7.19354 11.1129 7.19354C10.525 7.19354 10.0484 7.67014 10.0484 8.25806C10.0484 8.84597 10.525 9.32257 11.1129 9.32257Z" fill="black"/>
<path d="M14.5459 15.1774C15.0604 15.1774 15.4774 14.7604 15.4774 14.246C15.4774 13.7315 15.0604 13.3145 14.5459 13.3145C14.0315 13.3145 13.6145 13.7315 13.6145 14.246C13.6145 14.7604 14.0315 15.1774 14.5459 15.1774Z" fill="black"/>
<path d="M20.0016 14.246C20.0016 14.7604 19.5846 15.1774 19.0702 15.1774C18.5557 15.1774 18.1387 14.7604 18.1387 14.246C18.1387 13.7315 18.5557 13.3145 19.0702 13.3145C19.5846 13.3145 20.0016 13.7315 20.0016 14.246Z" fill="black"/>
<path fill-rule="evenodd" clip-rule="evenodd" d="M16.7856 9.85853C20.496 9.85853 23.7452 12.3912 23.7452 15.7873C23.7452 17.4662 22.9366 18.7319 21.6801 19.7881V21.0322C21.6801 21.2666 21.5705 21.4876 21.3839 21.6294C21.1972 21.7712 20.955 21.8176 20.7292 21.7548L18.8477 21.2318C18.1961 21.4029 17.5049 21.4945 16.7903 21.4945C13.0798 21.4945 9.83063 18.9619 9.83063 15.5658C9.83063 12.1697 13.0751 9.85853 16.7856 9.85853ZM22.25 15.5658C22.25 13.2416 19.9389 11.1371 16.7903 11.1371C13.6417 11.1371 11.3306 13.2416 11.3306 15.5658C11.3306 17.89 13.6417 19.9945 16.7903 19.9945C17.4405 19.9945 18.062 19.9021 18.6372 19.7337C18.7715 19.6943 18.9141 19.6934 19.0489 19.7308L20.1801 20.0453V19.4259C20.1801 19.1892 20.2918 18.9664 20.4815 18.8248C21.596 17.9929 22.25 16.8237 22.25 15.5658Z" fill="black"/>
</svg>
