<svg width="24" height="24" viewBox="0 0 24 24" fill="none" xmlns="http://www.w3.org/2000/svg">
<path d="M16.4106 8.98006L17.25 8.17713L17.2493 8H14.3476L12.2794 13.1601L9.92657 8.00065H6.88285V8.17713L7.86356 9.35776C7.91097 9.40044 7.94765 9.4537 7.97062 9.51322C7.99359 9.57273 8.0022 9.63682 7.99575 9.70029V14.3414C8.00982 14.4239 8.00431 14.5086 7.97965 14.5885C7.95499 14.6685 7.91188 14.7416 7.85379 14.8018L6.75 16.14V16.3159H9.87708V16.14L8.77394 14.8018C8.71538 14.7416 8.67128 14.6689 8.64499 14.5891C8.61871 14.5093 8.61091 14.4246 8.62221 14.3414V10.3281L11.367 16.3165H11.6861L14.0435 10.3281V15.1014C14.0435 15.2277 14.0435 15.2524 13.9601 15.3358L13.1116 16.1589V16.3348H17.2292V16.1589L16.4106 15.3553C16.3752 15.3283 16.3478 15.2921 16.3314 15.2507C16.315 15.2093 16.3102 15.1642 16.3175 15.1203V9.21515C16.3102 9.1712 16.315 9.1261 16.3314 9.08469C16.3478 9.04328 16.3752 9.00711 16.4106 8.98006Z" fill="black"/>
<path fill-rule="evenodd" clip-rule="evenodd" d="M17.2583 2.83303C13.7917 2.44559 10.2083 2.44559 6.74177 2.83303C4.72971 3.05791 3.10538 4.64292 2.86883 6.66545C2.45429 10.2097 2.45429 13.7903 2.86883 17.3346C3.10538 19.3571 4.72971 20.9421 6.74177 21.167C10.2083 21.5544 13.7917 21.5544 17.2583 21.167C19.2703 20.9421 20.8946 19.3571 21.1312 17.3346C21.5457 13.7903 21.5457 10.2097 21.1312 6.66545C20.8946 4.64292 19.2703 3.05791 17.2583 2.83303ZM6.90838 4.32375C10.2642 3.94868 13.7358 3.94868 17.0916 4.32375C18.4218 4.47241 19.4872 5.52202 19.6414 6.8397C20.0424 10.2682 20.0424 13.7318 19.6414 17.1603C19.4872 18.478 18.4218 19.5276 17.0916 19.6763C13.7358 20.0513 10.2642 20.0513 6.90838 19.6763C5.57827 19.5276 4.51278 18.478 4.35867 17.1603C3.95767 13.7318 3.95767 10.2682 4.35867 6.8397C4.51278 5.52202 5.57827 4.47241 6.90838 4.32375Z" fill="black"/>
</svg>
