<svg width="24" height="24" viewBox="0 0 24 24" fill="none" xmlns="http://www.w3.org/2000/svg">
<path d="M16.5749 7.25C16.6367 7.5947 16.5568 7.93083 16.2367 7.96106L15.7054 8.05695L15.4846 16.374C15.0168 16.6242 14.5911 16.7615 14.2397 16.7492C13.673 16.7295 13.5363 16.5344 13.1293 15.9534L9.82408 10.0074L9.6745 15.643L10.7624 15.9474C10.7624 15.9474 10.7444 16.6282 9.8619 16.5975L7.42244 16.6647C7.35563 16.5103 7.43656 16.1328 7.68674 16.0685L8.32658 15.9003L8.52431 8.45078L7.64386 8.34408C7.5821 7.99938 7.77252 7.515 8.26605 7.49445L10.8834 7.39509L14.328 13.4217L14.4666 8.20063L13.5514 8.0544C13.4916 7.63736 13.7802 7.34318 14.1354 7.32025L16.5749 7.25Z" fill="black"/>
<path fill-rule="evenodd" clip-rule="evenodd" d="M17.2583 2.83303C13.7917 2.44559 10.2083 2.44559 6.74177 2.83303C4.72971 3.05791 3.10538 4.64292 2.86883 6.66545C2.45429 10.2097 2.45429 13.7903 2.86883 17.3346C3.10538 19.3571 4.72971 20.9421 6.74177 21.167C10.2083 21.5544 13.7917 21.5544 17.2583 21.167C19.2703 20.9421 20.8946 19.3571 21.1312 17.3346C21.5457 13.7903 21.5457 10.2097 21.1312 6.66545C20.8946 4.64292 19.2703 3.05791 17.2583 2.83303ZM6.90838 4.32375C10.2642 3.94868 13.7358 3.94868 17.0916 4.32375C18.4218 4.47241 19.4872 5.52202 19.6414 6.8397C20.0424 10.2682 20.0424 13.7318 19.6414 17.1603C19.4872 18.478 18.4218 19.5276 17.0916 19.6763C13.7358 20.0513 10.2642 20.0513 6.90838 19.6763C5.57827 19.5276 4.51278 18.478 4.35867 17.1603C3.95767 13.7318 3.95767 10.2682 4.35867 6.8397C4.51278 5.52202 5.57827 4.47241 6.90838 4.32375Z" fill="black"/>
</svg>
