<svg width="24" height="24" viewBox="0 0 24 24" fill="none" xmlns="http://www.w3.org/2000/svg">
<path fill-rule="evenodd" clip-rule="evenodd" d="M11.9981 2.24998L12.0059 2.25003L12.0074 2.25003C12.0331 2.25034 12.0586 2.25197 12.0839 2.25488L17.9881 2.87914C18.0148 2.88175 18.0413 2.88581 18.0674 2.89124C18.1031 2.89864 18.1381 2.9086 18.172 2.92098C18.3066 2.97001 18.4272 3.05753 18.5167 3.17758L23.0919 9.31955C23.1199 9.35608 23.1446 9.39547 23.1658 9.4374C23.1699 9.44554 23.1738 9.45376 23.1777 9.46208C23.2312 9.57858 23.2529 9.70404 23.2443 9.82694C23.2399 9.89113 23.2272 9.95463 23.2065 10.0158C23.1862 10.0759 23.1581 10.1337 23.1225 10.1878C23.1116 10.2043 23.0999 10.2205 23.0876 10.2363C23.0792 10.2472 23.0704 10.2578 23.0614 10.2681L12.575 22.4794C12.5497 22.5098 12.5218 22.5385 12.4914 22.565C12.4284 22.6201 12.3577 22.6633 12.2826 22.694C12.1902 22.7319 12.0928 22.7503 11.996 22.75C11.9006 22.7498 11.8046 22.7314 11.7136 22.694C11.6383 22.6632 11.5674 22.6199 11.5043 22.5646C11.4741 22.5382 11.4463 22.5097 11.4211 22.4794L0.935644 10.2692C0.910885 10.2409 0.888125 10.2106 0.867635 10.1784C0.790048 10.0568 0.750024 9.91661 0.75 9.77515C0.749988 9.70345 0.760254 9.63142 0.781114 9.56134C0.798638 9.50239 0.823514 9.44527 0.85562 9.39139C0.869992 9.36724 0.885626 9.34407 0.902412 9.32193L5.477 3.18098C5.48348 3.17218 5.49016 3.1635 5.49705 3.15496C5.57084 3.06341 5.66434 2.9914 5.7693 2.94344C5.81256 2.92368 5.85776 2.90799 5.90433 2.8967C5.93856 2.8884 5.97342 2.88249 6.00866 2.87907L11.9122 2.25488C11.9376 2.25196 11.9632 2.25033 11.989 2.25003L11.9901 2.25003L11.9981 2.24998ZM21.0022 9.02516L18.4537 5.60398L18.0802 9.02516H21.0022ZM13.6672 3.93064L16.6998 7.84732L17.0879 4.29232L13.6672 3.93064ZM6.90823 4.29232L10.3289 3.93065L7.29625 7.84735L6.90823 4.29232ZM11.998 4.22505L15.7145 9.02508H8.28146L11.998 4.22505ZM3.13267 10.5252H6.25792L9.37938 17.7994L3.13267 10.5252ZM5.54245 5.60402L2.99393 9.02516H5.91581L5.54245 5.60402ZM20.8635 10.5252L14.6167 17.7994L17.7382 10.5252H20.8635ZM7.89017 10.5252H16.1059L11.9981 20.0981L7.89017 10.5252Z" fill="black"/>
</svg>
