<svg width="24" height="24" viewBox="0 0 24 24" fill="none" xmlns="http://www.w3.org/2000/svg">
<path d="M13.2042 11.2725C13.5776 11.3839 13.9335 11.5472 14.2614 11.7577C14.5964 11.9779 14.8756 12.2737 15.0772 12.6202C15.286 13.004 15.3917 13.4353 15.3841 13.8722C15.4017 14.4356 15.2338 14.9893 14.9062 15.4481C14.5616 15.9191 14.0886 16.2808 13.5438 16.4898C12.9577 16.7237 12.3303 16.8365 11.6994 16.8212C10.957 16.8421 10.2206 16.6829 9.55308 16.3572C9.11438 16.1263 8.73773 15.7932 8.45496 15.386C8.17202 14.9945 8.01349 14.5268 8 14.044C8 13.827 8.08621 13.6188 8.23967 13.4654C8.39312 13.3119 8.60125 13.2257 8.81827 13.2257C9.03529 13.2257 9.24342 13.3119 9.39688 13.4654C9.55033 13.6188 9.63654 13.827 9.63654 14.044C9.65335 14.1936 9.71048 14.3359 9.80183 14.4556C9.93198 14.6426 10.1048 14.7961 10.3059 14.9032C10.7414 15.1066 11.2191 15.2031 11.6994 15.1847C12.1147 15.1982 12.5285 15.1281 12.9162 14.9785C13.1763 14.885 13.404 14.7189 13.5724 14.4998C13.6971 14.3258 13.7589 14.1145 13.7475 13.9008C13.7561 13.7357 13.7229 13.571 13.651 13.4221C13.5766 13.3001 13.475 13.197 13.354 13.121C13.1599 12.9987 12.9498 12.9039 12.7296 12.8395C12.5504 12.7847 12.3548 12.7315 12.1519 12.6791L12.1372 12.6775C12.1281 12.6745 12.1154 12.6714 12.1042 12.6687C12.1002 12.6678 12.0964 12.6669 12.093 12.666C11.9604 12.6325 11.8279 12.5989 11.6863 12.5678C11.3246 12.4901 11.0742 12.4271 10.9171 12.3796C10.9136 12.3787 10.9105 12.3766 10.9074 12.3745C10.9048 12.3727 10.9021 12.3709 10.8991 12.3698C10.5358 12.2817 10.1786 12.1702 9.82966 12.036C9.3679 11.8507 8.96236 11.5484 8.65298 11.1588C8.33253 10.7382 8.16511 10.221 8.17838 9.69243C8.17849 9.16152 8.35204 8.64518 8.67262 8.22199C9.00732 7.79639 9.45425 7.47274 9.96303 7.28752C10.5256 7.08534 11.1206 6.98827 11.7182 7.00113C12.1884 6.99593 12.6567 7.06102 13.1077 7.19424C13.4983 7.30815 13.8643 7.49379 14.187 7.74167C14.4662 7.95362 14.6993 8.22037 14.8718 8.52557C14.9236 8.62025 14.9562 8.72423 14.9676 8.83154C14.979 8.93884 14.9691 9.04735 14.9384 9.15081C14.9078 9.25427 14.8569 9.35064 14.7888 9.43437C14.7208 9.51811 14.6368 9.58755 14.5418 9.6387C14.4468 9.68985 14.3426 9.7217 14.2352 9.73242C14.1278 9.74314 14.0194 9.73251 13.9161 9.70115C13.8129 9.66979 13.7168 9.61832 13.6336 9.54969C13.5503 9.48107 13.4814 9.39665 13.4309 9.30129C13.3611 9.19149 13.2708 9.09619 13.1649 9.02062C13.0012 8.90125 12.8175 8.81202 12.6224 8.75714C12.3283 8.67286 12.0233 8.6326 11.7174 8.63767C11.3221 8.62602 10.9279 8.68589 10.5538 8.81442C10.3314 8.89017 10.1336 9.02444 9.98104 9.2031C9.87205 9.34259 9.81299 9.51459 9.81329 9.69161C9.79991 9.8567 9.84638 10.0211 9.94421 10.1547C10.0779 10.3181 10.2515 10.4441 10.4483 10.5205C10.83 10.6675 11.223 10.7835 11.6233 10.8675C11.9588 10.9411 12.2305 11.0066 12.4596 11.0704C12.7214 11.135 12.9751 11.203 13.2042 11.2725Z" fill="black"/>
<path fill-rule="evenodd" clip-rule="evenodd" d="M8 2.75C5.1005 2.75 2.75 5.1005 2.75 8C2.75 8.84325 2.94934 9.64173 3.30383 10.3492C3.20277 10.8845 3.15 11.4364 3.15 12C3.15 16.8877 7.11228 20.85 12 20.85C12.5636 20.85 13.1155 20.7972 13.6508 20.6962C14.3583 21.0507 15.1568 21.25 16 21.25C18.8995 21.25 21.25 18.8995 21.25 16C21.25 15.1568 21.0507 14.3583 20.6962 13.6508C20.7972 13.1155 20.85 12.5636 20.85 12C20.85 7.11228 16.8877 3.15 12 3.15C11.4364 3.15 10.8845 3.20277 10.3492 3.30383C9.64173 2.94934 8.84325 2.75 8 2.75ZM4.25 8C4.25 5.92893 5.92893 4.25 8 4.25C8.67891 4.25 9.31357 4.42974 9.86141 4.74371C10.0236 4.83666 10.2146 4.86569 10.3971 4.82513C10.9124 4.71057 11.4487 4.65 12 4.65C16.0593 4.65 19.35 7.94071 19.35 12C19.35 12.5513 19.2894 13.0876 19.1749 13.6029C19.1343 13.7854 19.1633 13.9764 19.2563 14.1386C19.5703 14.6864 19.75 15.3211 19.75 16C19.75 18.0711 18.0711 19.75 16 19.75C15.3211 19.75 14.6864 19.5703 14.1386 19.2563C13.9764 19.1633 13.7854 19.1343 13.6029 19.1749C13.0876 19.2894 12.5513 19.35 12 19.35C7.94071 19.35 4.65 16.0593 4.65 12C4.65 11.4487 4.71057 10.9124 4.82513 10.3971C4.86569 10.2146 4.83666 10.0236 4.74371 9.86141C4.42974 9.31357 4.25 8.67891 4.25 8Z" fill="black"/>
</svg>
