<svg width="24" height="24" viewBox="0 0 24 24" fill="none" xmlns="http://www.w3.org/2000/svg">
<path fill-rule="evenodd" clip-rule="evenodd" d="M22.3636 17.7071C22.0383 18.5127 21.2716 18.8898 20.8363 19.0678C20.5288 19.1934 20.1801 19.2995 19.8011 19.3896C19.7938 19.4188 19.7862 19.4484 19.7783 19.4783C19.6895 19.8514 19.479 20.1998 19.1595 20.4539C18.8411 20.7071 18.438 20.8461 18.018 20.832H18.0027L17.9716 20.8307C17.7521 20.8216 17.5342 20.792 17.3205 20.7424C17.0964 20.6932 16.8688 20.6681 16.6409 20.667C16.5109 20.6672 16.3803 20.6773 16.2478 20.6978C15.9923 20.7763 15.7513 20.9106 15.5384 21.0996C14.6107 21.9402 13.4318 22.4396 12.1849 22.4983L12.1496 22.5H12.1143C12.0757 22.5 12.032 22.4995 11.9864 22.4981C11.9522 22.4994 11.918 22.5001 11.8838 22.5L11.8504 22.4999L11.817 22.4984C10.57 22.4402 9.3909 21.9409 8.46329 21.1001C8.24958 20.9109 8.00749 20.776 7.75411 20.698C7.62482 20.6782 7.49459 20.6679 7.36425 20.6671C7.13974 20.6704 6.91711 20.6974 6.69687 20.7481C6.4967 20.7967 6.29276 20.8281 6.08711 20.8418C5.64689 20.8799 5.21692 20.7493 4.87624 20.4903C4.5388 20.2338 4.3162 19.8741 4.22338 19.4875C4.21495 19.4554 4.20673 19.4233 4.1987 19.3911C3.81997 19.3011 3.47138 19.1949 3.1639 19.069C2.72778 18.8904 1.96482 18.5133 1.63924 17.711C1.5603 17.5176 1.51469 17.3135 1.5028 17.1077L1.50213 17.0961C1.48219 16.6975 1.59953 16.2936 1.85004 15.9615C2.09879 15.6316 2.46846 15.389 2.90237 15.3077C3.63306 15.1654 4.31316 14.7437 4.80572 14.0909L4.82149 14.07L4.83798 14.0497C5.05523 13.7818 5.24701 13.4904 5.41064 13.1786C5.32779 13.1509 5.20808 13.1097 5.09631 13.0621C4.87664 12.9696 4.49362 12.79 4.15261 12.5028C3.84767 12.2459 3.20723 11.5757 3.38831 10.5631L3.41087 10.4369L3.45452 10.3164C3.61183 9.88196 3.89884 9.49402 4.29179 9.21874C4.67399 8.95099 5.13399 8.80651 5.60995 8.81636C5.61775 8.81638 5.62555 8.81645 5.63334 8.81656C5.60583 7.75016 5.72264 6.68188 5.98261 5.64643L6.00894 5.54154L6.05005 5.44151C6.52836 4.27767 7.32407 3.27474 8.35155 2.56867C9.37583 1.86478 10.5816 1.49021 11.8189 1.50297L12.1629 1.50048C13.405 1.48465 14.6161 1.85879 15.6448 2.56451C16.6736 3.27031 17.4708 4.27327 17.9506 5.43754L17.9922 5.53851L18.0188 5.64443C18.2775 6.67683 18.3944 7.74065 18.3678 8.80338C18.3704 8.8034 18.3731 8.80341 18.3758 8.80344C18.6574 8.80467 18.9329 8.85704 19.1914 8.95547C19.5591 9.07505 19.8801 9.29338 20.1256 9.577C20.3991 9.89287 20.5691 10.2773 20.627 10.678L20.6405 10.771L20.6422 10.865C20.663 11.9945 19.7926 12.6883 18.9023 13.0632L18.8906 13.0681C18.7876 13.1104 18.6773 13.1493 18.5842 13.1806C18.8337 13.6671 19.164 14.0954 19.5554 14.445C20.0311 14.87 20.5844 15.1676 21.1707 15.3228C21.5752 15.4171 21.9187 15.6525 22.1533 15.9658C22.4019 16.2976 22.518 16.7002 22.4977 17.0975L22.4974 17.1036C22.4861 17.3093 22.4417 17.5136 22.3636 17.7071ZM20.9721 17.1451C20.988 17.1058 20.9973 17.0639 20.9997 17.0212C21.0025 16.9648 20.9859 16.9092 20.9528 16.865C20.9197 16.8208 20.8725 16.7911 20.8202 16.7816C20.7048 16.7519 20.5906 16.7182 20.4776 16.6808L20.4735 16.6795C20.2111 16.5923 19.9555 16.4847 19.7088 16.3577C19.6832 16.3445 19.6577 16.3312 19.6323 16.3176C19.2486 16.1122 18.8873 15.8596 18.5561 15.5637C17.8996 14.9773 17.3793 14.2372 17.0357 13.4011L17.0308 13.3893C16.9578 13.2617 16.9118 13.1185 16.896 12.9699C16.8803 12.8214 16.8953 12.6709 16.9399 12.5291C17.0075 12.3584 17.1369 12.2248 17.2922 12.1178C17.3087 12.1065 17.3254 12.0954 17.3425 12.0846C17.5734 11.9385 17.8503 11.845 18.0657 11.7724C18.0792 11.7679 18.0925 11.7635 18.1057 11.759C18.1089 11.7579 18.1121 11.7569 18.1153 11.7558C18.1193 11.7544 18.1233 11.7531 18.1272 11.7517C18.1988 11.7273 18.2655 11.7032 18.3202 11.6807C18.329 11.677 18.3378 11.6733 18.3465 11.6696C18.3524 11.667 18.3582 11.6645 18.364 11.6619L18.3657 11.6612C18.4647 11.6179 18.5517 11.5745 18.628 11.5313C18.6508 11.5183 18.6727 11.5054 18.6936 11.4925C19.0607 11.2667 19.1453 11.0495 19.1425 10.8926C19.1244 10.7678 19.0719 10.6516 18.9915 10.5588C18.9112 10.4659 18.8067 10.4007 18.6914 10.3715L18.6865 10.3689C18.5844 10.3257 18.4763 10.3034 18.3657 10.3034C18.3296 10.3029 18.2936 10.3055 18.2581 10.311C18.1987 10.3203 18.1407 10.338 18.0854 10.3636C18.0016 10.4088 17.9154 10.4483 17.8274 10.4821C17.8239 10.4834 17.8205 10.4847 17.817 10.486C17.7995 10.4926 17.7819 10.499 17.7642 10.5051C17.7467 10.5112 17.7291 10.5171 17.7115 10.5228C17.6932 10.5286 17.6749 10.5342 17.6564 10.5396L17.6511 10.5411C17.5121 10.5813 17.3694 10.6074 17.225 10.6189C17.1418 10.6208 17.0597 10.6079 16.9819 10.5814C16.8977 10.5527 16.8184 10.508 16.7481 10.4487L16.7764 9.93944L16.7801 9.87791C16.9533 8.58594 16.8797 7.27 16.5637 6.00907C16.1909 5.10428 15.5761 4.33646 14.7962 3.80142C14.0163 3.26637 13.1058 2.98778 12.1782 3.00041L11.8156 3.00303C10.8891 2.99093 9.97972 3.26983 9.20109 3.8049C8.42245 4.33998 7.80905 5.10752 7.43746 6.01169C7.12157 7.26988 7.04782 8.58568 7.2199 9.87529C7.23179 10.0664 7.24285 10.2575 7.25309 10.4487C7.1825 10.5077 7.10337 10.5525 7.01955 10.5817C6.92609 10.6144 6.8268 10.6278 6.72702 10.6203C6.59759 10.6144 6.46899 10.5963 6.34287 10.5664C6.3407 10.5659 6.33853 10.5654 6.33636 10.5649C6.32463 10.5621 6.31291 10.5591 6.30122 10.5561C6.26038 10.5456 6.21983 10.5338 6.17961 10.5207C6.17623 10.5196 6.17284 10.5185 6.16946 10.5174C6.16031 10.5144 6.15119 10.5113 6.14208 10.5082C6.02981 10.4695 5.92036 10.4212 5.81501 10.3636C5.79214 10.3528 5.76862 10.3438 5.74466 10.3367C5.6957 10.3221 5.64486 10.3153 5.59376 10.3165C5.43745 10.31 5.28313 10.3557 5.15243 10.4473C5.02173 10.5388 4.92119 10.6716 4.86489 10.8271C4.8206 11.0748 5.0024 11.2819 5.22766 11.4384C5.24746 11.4522 5.2676 11.4655 5.28795 11.4785C5.37109 11.5315 5.45776 11.5779 5.5395 11.6172C5.56929 11.6315 5.59842 11.6448 5.62649 11.6572C5.64518 11.6655 5.6634 11.6733 5.68103 11.6807C5.73606 11.7044 5.80323 11.7281 5.87538 11.7523C5.89508 11.759 5.91516 11.7657 5.93546 11.7724C6.1378 11.8407 6.39558 11.9278 6.6179 12.0598C6.63224 12.0684 6.64643 12.0771 6.66046 12.086C6.6785 12.0974 6.69626 12.1092 6.71369 12.1213C6.86694 12.2277 6.99448 12.3602 7.06134 12.5291C7.10584 12.6712 7.12064 12.8219 7.10471 12.9707C7.08879 13.1196 7.04253 13.2629 6.96916 13.3906L6.96547 13.4011C6.71596 13.9785 6.3927 14.514 6.00306 14.9945C5.57332 15.5639 5.03524 16.0216 4.42999 16.3412C4.39373 16.3604 4.35723 16.379 4.3205 16.3972C3.96022 16.5752 3.57759 16.7051 3.18098 16.7816C3.12847 16.7909 3.081 16.8204 3.04767 16.8646C3.01433 16.9088 2.99747 16.9646 3.0003 17.0212C3.00278 17.0641 3.01235 17.1062 3.02857 17.1456C3.07192 17.2533 3.16275 17.3559 3.29935 17.4527C3.30354 17.4557 3.30778 17.4587 3.31205 17.4616C3.51193 17.5999 3.80578 17.726 4.18848 17.8378C4.30282 17.8712 4.42509 17.9033 4.55515 17.934C4.78744 17.989 5.04458 18.0396 5.32581 18.0856C5.45118 18.1066 5.50404 18.3252 5.57778 18.6826C5.60665 18.8323 5.64068 18.9808 5.6798 19.1278C5.6937 19.1957 5.73085 19.2558 5.78401 19.2962C5.83717 19.3366 5.90255 19.3545 5.96742 19.3464C6.09616 19.339 6.22405 19.3197 6.34968 19.2888C6.68154 19.2116 7.01832 19.171 7.35756 19.167C7.60138 19.1677 7.84475 19.1895 8.08521 19.2325C8.59238 19.3696 9.06411 19.6265 9.46552 19.984C10.1437 20.6008 10.996 20.9584 11.8869 21C11.9169 21.0001 11.9468 20.9987 11.9766 20.9961C12.0135 20.9987 12.0627 21 12.1143 21C13.0051 20.958 13.8573 20.6005 14.5357 19.984C14.9376 19.6253 15.4084 19.37 15.916 19.2325C16.1569 19.1893 16.399 19.167 16.6436 19.167C16.9827 19.1683 17.3208 19.206 17.6528 19.2796C17.778 19.3092 17.9056 19.3267 18.0338 19.332H18.0547C18.1158 19.3375 18.1767 19.319 18.2258 19.2799C18.275 19.2408 18.309 19.1839 18.3214 19.1199C18.362 18.9693 18.3939 18.8253 18.4234 18.6787C18.4959 18.3226 18.55 18.1052 18.6754 18.0843C18.9814 18.0339 19.2589 17.9782 19.5069 17.9176C19.6136 17.8915 19.7149 17.8644 19.8106 17.8365C20.1618 17.7342 20.4384 17.6199 20.6362 17.4954C20.6575 17.482 20.6778 17.4685 20.6972 17.4549C20.7388 17.4259 20.7762 17.3962 20.8093 17.3661C20.8866 17.2959 20.941 17.2229 20.9719 17.1473L20.9721 17.1451Z" fill="black"/>
</svg>
