<svg width="24" height="24" viewBox="0 0 24 24" fill="none" xmlns="http://www.w3.org/2000/svg">
<path fill-rule="evenodd" clip-rule="evenodd" d="M2.75 3.4C2.75 2.76487 3.26487 2.25 3.9 2.25H20.1C20.7351 2.25 21.25 2.76487 21.25 3.4V14.8716C21.25 15.1766 21.1288 15.4691 20.9132 15.6848L18.191 18.407C17.9753 18.6226 17.6828 18.7438 17.3778 18.7438H12.8386L9.38728 22.1951C8.78881 22.7936 7.76553 22.3697 7.76553 21.5234V18.7438H3.9C3.26487 18.7438 2.75 18.2289 2.75 17.5938V3.4ZM4.25 3.75V17.2438H8.11553C8.75066 17.2438 9.26553 17.7587 9.26553 18.3938V20.1955L11.8805 17.5806C12.0961 17.3649 12.3886 17.2438 12.6936 17.2438H17.2328L19.75 14.7266V3.75H4.25ZM10.4689 6.95C10.8832 6.95 11.2189 7.28579 11.2189 7.7V11.972C11.2189 12.3863 10.8832 12.722 10.4689 12.722C10.0547 12.722 9.71894 12.3863 9.71894 11.972V7.7C9.71894 7.28579 10.0547 6.95 10.4689 6.95ZM15.4845 6.95C15.8987 6.95 16.2345 7.28579 16.2345 7.7V11.972C16.2345 12.3863 15.8987 12.722 15.4845 12.722C15.0703 12.722 14.7345 12.3863 14.7345 11.972V7.7C14.7345 7.28579 15.0703 6.95 15.4845 6.95Z" fill="black"/>
</svg>
