<svg width="24" height="24" viewBox="0 0 24 24" fill="none" xmlns="http://www.w3.org/2000/svg">
<path d="M10.4975 11.3219C10.6046 11.2148 10.6147 11.045 10.5243 10.9236C10.0876 10.3372 9.70264 9.70967 9.37609 9.04768L10.6333 8.11596C11.09 7.77754 11.1731 7.12702 10.8162 6.68464L8.38637 3.6727C8.06103 3.26942 7.48152 3.18145 7.05116 3.47002L5.71832 4.36372C4.29597 5.31742 3.77259 7.16027 4.48132 8.71922L4.99941 9.85884L5.00019 9.86053C5.66371 11.3057 6.50628 12.6483 7.50034 13.8608C7.61146 13.9963 7.81496 14.0044 7.93889 13.8805L10.4975 11.3219Z" fill="black"/>
<path d="M19.9971 3.9436L4.03033 19.9104C4.02136 19.9193 4.01222 19.928 4.00291 19.9365L3.96967 19.9697C3.67678 20.2626 3.67678 20.7375 3.96967 21.0304C4.26256 21.3233 4.73744 21.3233 5.03033 21.0304L9.8299 16.2308C11.2399 17.428 12.8338 18.4168 14.5661 19.1519L15.2457 19.4547C16.8005 20.1475 18.6283 19.6212 19.5766 18.2077L20.4647 16.884C20.7535 16.4536 20.6656 15.8739 20.2622 15.5485L17.2503 13.1187C16.808 12.7618 16.1574 12.845 15.819 13.3016L14.8873 14.5589C14.1475 14.1939 13.4507 13.756 12.8062 13.2545L21.0303 5.03036C21.3232 4.73747 21.3232 4.26259 21.0303 3.9697C20.7464 3.68578 20.2915 3.67708 19.9971 3.9436Z" fill="black"/>
</svg>
