<svg width="24" height="24" viewBox="0 0 24 24" fill="none" xmlns="http://www.w3.org/2000/svg">
<path d="M20.4461 16.0608C20.5422 16.2506 20.5077 16.4805 20.3599 16.6337C20.2122 16.7869 19.9837 16.8298 19.7905 16.7406L17.2911 15.5871C15.1905 14.6176 12.8982 14.1741 10.6098 14.2784C10.5826 15.0133 10.5423 15.7477 10.4888 16.4815L10.4204 17.4205C10.3788 17.9901 9.74367 18.3086 9.26238 18.001C7.17339 16.6662 5.35733 14.9463 3.91101 12.9329L3.45082 12.2922C3.3256 12.1179 3.3256 11.8831 3.45082 11.7088L3.911 11.0682C5.35733 9.0548 7.17339 7.33485 9.26238 6.00003C9.74367 5.69249 10.3788 6.01093 10.4204 6.58058L10.4888 7.51954C10.5347 8.14939 10.5709 8.77978 10.5975 9.41047H11.2406C14.8215 9.41047 18.0983 11.4241 19.716 14.6189L20.4461 16.0608Z" fill="black"/>
</svg>
