<svg width="24" height="24" viewBox="0 0 24 24" fill="none" xmlns="http://www.w3.org/2000/svg">
<path d="M1.54607 13.0547C0.856063 12.5208 0.856062 11.4791 1.54607 10.9452C3.68419 9.29083 6.0717 7.98683 8.61923 7.08204L9.08528 6.91652C9.95492 6.60765 10.8742 7.19604 10.992 8.09448C11.1298 9.14469 11.2112 10.2125 11.2363 11.2836C11.3164 11.1579 11.4196 11.043 11.5461 10.9452C13.6842 9.29083 16.0717 7.98683 18.6192 7.08204L19.0853 6.91652C19.9549 6.60765 20.8742 7.19604 20.992 8.09448C21.3289 10.663 21.3289 13.337 20.992 15.9055C20.8742 16.8039 19.9549 17.3923 19.0853 17.0835L18.6192 16.9179C16.0717 16.0131 13.6842 14.7091 11.5461 13.0547C11.4196 12.9569 11.3164 12.8421 11.2363 12.7164C11.2112 13.7874 11.1298 14.8553 10.992 15.9055C10.8742 16.8039 9.95492 17.3923 9.08528 17.0835L8.61923 16.9179C6.0717 16.0131 3.68419 14.7091 1.54607 13.0547Z" fill="black"/>
</svg>
