<svg width="24" height="24" viewBox="0 0 24 24" fill="none" xmlns="http://www.w3.org/2000/svg">
<path d="M14.166 3.18862C12.7368 2.89579 11.2631 2.89579 9.83398 3.18862C9.39016 3.27956 9.04841 3.63482 8.97474 4.08184L8.92052 4.41083C8.47425 7.11868 8.47425 9.88132 8.92052 12.5892L8.97474 12.9182C9.04841 13.3652 9.39016 13.7204 9.83398 13.8114C11.2631 14.1042 12.7368 14.1042 14.166 13.8114C14.6098 13.7204 14.9515 13.3652 15.0252 12.9182L15.0794 12.5892C15.5257 9.88132 15.5257 7.11868 15.0794 4.41083L15.0252 4.08183C14.9515 3.63482 14.6098 3.27956 14.166 3.18862Z" fill="black"/>
<path d="M4.89475 10.2574C5.30486 10.1993 5.68444 10.4847 5.74255 10.8948L6.19306 14.0741C6.31478 14.9331 6.9957 15.6047 7.85628 15.7146C10.6076 16.0661 13.3924 16.0661 16.1437 15.7146C17.0042 15.6047 17.6852 14.9331 17.8069 14.0741L18.2574 10.8948C18.3155 10.4847 18.6951 10.1993 19.1052 10.2574C19.5153 10.3155 19.8007 10.6951 19.7426 11.1052L19.292 14.2845C19.0755 15.8124 17.8644 17.007 16.3337 17.2025C15.1435 17.3546 13.9473 17.4437 12.75 17.47V21.5C12.75 21.9142 12.4142 22.25 12 22.25C11.5858 22.25 11.25 21.9142 11.25 21.5V17.47C10.0527 17.4437 8.85647 17.3546 7.66623 17.2025C6.13553 17.007 4.9244 15.8124 4.7079 14.2845L4.25739 11.1052C4.19928 10.6951 4.48463 10.3155 4.89475 10.2574Z" fill="black"/>
</svg>
