<svg width="24" height="24" viewBox="0 0 24 24" fill="none" xmlns="http://www.w3.org/2000/svg">
<path d="M17.2757 5.46998C17.7109 5.63032 18 6.04495 18 6.50875L18 17.4912C18 17.955 17.7109 18.3697 17.2757 18.53C16.4523 18.8334 15.5477 18.8334 14.7243 18.53C14.2891 18.3697 14 17.955 14 17.4912L14 6.50875C14 6.04495 14.2891 5.63032 14.7243 5.46998C15.5477 5.16662 16.4523 5.16662 17.2757 5.46998Z" fill="black"/>
<path d="M9.27568 5.46998C9.71088 5.63032 10 6.04495 10 6.50875L10 17.4912C10 17.955 9.71088 18.3697 9.27568 18.53C8.45228 18.8334 7.54772 18.8334 6.72432 18.53C6.28912 18.3697 6 17.955 6 17.4912L6 6.50875C6 6.04495 6.28912 5.63032 6.72432 5.46998C7.54772 5.16662 8.45228 5.16662 9.27568 5.46998Z" fill="black"/>
</svg>
