<svg width="24" height="24" viewBox="0 0 24 24" fill="none" xmlns="http://www.w3.org/2000/svg">
<path d="M6.75 7C6.75 6.58579 6.41421 6.25 6 6.25C5.58579 6.25 5.25 6.58579 5.25 7V17C5.25 17.4142 5.58579 17.75 6 17.75C6.41421 17.75 6.75 17.4142 6.75 17V7Z" fill="black"/>
<path d="M9.85209 12.6593C9.42078 12.3256 9.42078 11.6744 9.85209 11.3407C11.9483 9.71872 14.289 8.44027 16.7866 7.55322L17.2527 7.38769C17.8145 7.18814 18.4188 7.56832 18.4963 8.15951C18.8275 10.6849 18.8275 13.3151 18.4963 15.8405C18.4188 16.4317 17.8145 16.8119 17.2527 16.6123L16.7866 16.4468C14.289 15.5597 11.9483 14.2813 9.85209 12.6593Z" fill="black"/>
</svg>
