<svg width="24" height="24" viewBox="0 0 24 24" fill="none" xmlns="http://www.w3.org/2000/svg">
<path d="M4 9.75C4 9.33578 4.33579 9 4.75 9H8.63795C8.87189 9 9.09842 8.91798 9.27813 8.76822L14.2972 4.58563C14.601 4.33252 15.0644 4.51541 15.1135 4.90773L15.2093 5.67422C15.7344 9.87506 15.7344 14.1249 15.2093 18.3258L15.1135 19.0923C15.0644 19.4846 14.601 19.6675 14.2972 19.4144L9.27813 15.2318C9.09842 15.082 8.87189 15 8.63795 15H4.75C4.33579 15 4 14.6642 4 14.25V9.75Z" fill="black"/>
<path fill-rule="evenodd" clip-rule="evenodd" d="M13.9771 4.20154C14.5846 3.69532 15.5115 4.0611 15.6096 4.84573L15.7054 5.61222C16.2357 9.85424 16.2357 14.1458 15.7054 18.3878L15.6096 19.1543C15.5115 19.9389 14.5846 20.3047 13.9771 19.7985L8.95804 15.6159C8.86818 15.541 8.75492 15.5 8.63795 15.5H4.75C4.05964 15.5 3.5 14.9404 3.5 14.25V9.75001C3.5 9.05966 4.05964 8.50001 4.75 8.50001H8.63795C8.75492 8.50001 8.86818 8.459 8.95804 8.38412L13.9771 4.20154ZM14.6173 4.96976L9.59823 9.15234C9.32865 9.37699 8.98885 9.50001 8.63795 9.50001H4.75C4.61193 9.50001 4.5 9.61194 4.5 9.75001V14.25C4.5 14.3881 4.61193 14.5 4.75 14.5H8.63795C8.98885 14.5 9.32865 14.623 9.59823 14.8477L14.6173 19.0303L14.7131 18.2638C15.2331 14.1041 15.2331 9.89591 14.7131 5.73626L14.6173 4.96976Z" fill="black"/>
<path fill-rule="evenodd" clip-rule="evenodd" d="M18.0696 7.50236C18.4584 7.35951 18.8894 7.55889 19.0323 7.94769C19.4968 9.21186 19.75 10.5772 19.75 12C19.75 13.1799 19.5758 14.3204 19.2514 15.3967C19.2333 15.4566 19.2148 15.5163 19.1958 15.5758C19.1446 15.7362 19.0901 15.895 19.0323 16.0523C18.8894 16.4411 18.4584 16.6405 18.0696 16.4976C17.6808 16.3548 17.4815 15.9238 17.6243 15.535C17.6747 15.3979 17.7222 15.2595 17.7668 15.1198C17.7833 15.0679 17.7995 15.0159 17.8152 14.9637C18.0978 14.0263 18.25 13.0316 18.25 12C18.25 10.7563 18.0288 9.56594 17.6243 8.46501C17.4815 8.07621 17.6808 7.64522 18.0696 7.50236Z" fill="black"/>
</svg>
