<svg width="24" height="24" viewBox="0 0 24 24" fill="none" xmlns="http://www.w3.org/2000/svg">
<path d="M14.6096 4.84573C14.5115 4.0611 13.5846 3.69532 12.9771 4.20154L7.95804 8.38412C7.86818 8.459 7.75492 8.50001 7.63795 8.50001H3.75C3.05964 8.50001 2.5 9.05966 2.5 9.75001V14.25C2.5 14.9404 3.05964 15.5 3.75 15.5H7.63795C7.75492 15.5 7.86818 15.541 7.95804 15.6159L12.9771 19.7985C13.5846 20.3047 14.5115 19.9389 14.6096 19.1543L14.7054 18.3878C15.2357 14.1458 15.2357 9.85424 14.7054 5.61222L14.6096 4.84573Z" fill="black"/>
<path d="M17.2374 9.70191C17.5303 9.40902 18.0052 9.40902 18.2981 9.70191L19.5355 10.9393L20.773 9.70191C21.0659 9.40902 21.5407 9.40902 21.8336 9.70191C22.1265 9.99481 22.1265 10.4697 21.8336 10.7626L20.5962 12L21.8336 13.2374C22.1265 13.5303 22.1265 14.0052 21.8336 14.2981C21.5407 14.591 21.0659 14.591 20.773 14.2981L19.5355 13.0607L18.2981 14.2981C18.0052 14.591 17.5303 14.591 17.2374 14.2981C16.9445 14.0052 16.9445 13.5303 17.2374 13.2374L18.4749 12L17.2374 10.7626C16.9445 10.4697 16.9445 9.99481 17.2374 9.70191Z" fill="black"/>
</svg>
