<svg width="24" height="24" viewBox="0 0 24 24" fill="none" xmlns="http://www.w3.org/2000/svg">
<path d="M14.3024 13.575C14.3354 13.454 14.3464 13.322 14.3464 13.179V12.376C14.3464 12.266 14.3354 12.134 14.3134 12.024C14.1924 11.496 13.7634 11.067 13.1474 11.067C12.2784 11.067 11.7944 11.837 11.7944 12.838C11.7944 13.817 12.2784 14.532 13.1364 14.532C13.6864 14.532 14.1704 14.158 14.3024 13.575Z" fill="black"/>
<path fill-rule="evenodd" clip-rule="evenodd" d="M6.76954 3.08148C10.2177 2.69611 13.7824 2.69611 17.2305 3.08148C19.1289 3.29366 20.6601 4.78944 20.8829 6.69449C21.2952 10.2195 21.2952 13.7805 20.8829 17.3055C20.6601 19.2106 19.1289 20.7064 17.2305 20.9185C13.7824 21.3039 10.2177 21.3039 6.76954 20.9185C4.87114 20.7064 3.33995 19.2106 3.11713 17.3055C2.70485 13.7805 2.70485 10.2195 3.11713 6.69449C3.33995 4.78944 4.87114 3.29366 6.76954 3.08148ZM14.3464 10.726V7.69H15.6994V13.993C15.6994 14.543 15.7214 15.137 15.7434 15.5H14.5334L14.4784 14.653H14.4564C14.1374 15.247 13.4884 15.621 12.7074 15.621C11.4314 15.621 10.4194 14.532 10.4194 12.882C10.4084 11.089 11.5304 10.022 12.8174 10.022C13.5544 10.022 14.0824 10.33 14.3244 10.726H14.3464ZM8.35498 15.5V8.086H9.70798V15.5H8.35498Z" fill="black"/>
</svg>
