<svg width="24" height="24" viewBox="0 0 24 24" fill="none" xmlns="http://www.w3.org/2000/svg">
<path fill-rule="evenodd" clip-rule="evenodd" d="M7.01644 1.64645C7.2117 1.45118 7.52829 1.45118 7.72355 1.64645L8.82926 2.75216C9.65857 2.27373 10.6208 2 11.6471 2H12.3529C13.38 2 14.343 2.27417 15.1727 2.75332L16.2796 1.64645C16.4749 1.45118 16.7915 1.45118 16.9867 1.64645C17.182 1.84171 17.182 2.15829 16.9867 2.35355L16.0026 3.33769C17.2245 4.37354 18 5.91973 18 7.64706C18 7.84198 17.842 8 17.6471 8H6.35294C6.15802 8 6 7.84198 6 7.64706C6 5.91892 6.77626 4.37209 7.99912 3.33624L7.01644 2.35355C6.82118 2.15829 6.82118 1.84171 7.01644 1.64645ZM10.5 5.25C10.5 5.66421 10.1642 6 9.75 6C9.33579 6 9 5.66421 9 5.25C9 4.83579 9.33579 4.5 9.75 4.5C10.1642 4.5 10.5 4.83579 10.5 5.25ZM14.2237 6C14.6379 6 14.9737 5.66421 14.9737 5.25C14.9737 4.83579 14.6379 4.5 14.2237 4.5C13.8095 4.5 13.4737 4.83579 13.4737 5.25C13.4737 5.66421 13.8095 6 14.2237 6Z" fill="black"/>
<path d="M4 8.94736C3.44772 8.94736 3 9.39507 3 9.94736V15.9474C3 16.4996 3.44772 16.9474 4 16.9474C4.55228 16.9474 5 16.4996 5 15.9474V9.94736C5 9.39507 4.55228 8.94736 4 8.94736Z" fill="black"/>
<path d="M7 8.94736C6.44772 8.94736 6 9.39507 6 9.94736V18.9474C6 19.4996 6.44772 19.9474 7 19.9474H17C17.5523 19.9474 18 19.4996 18 18.9474V9.94736C18 9.39507 17.5523 8.94736 17 8.94736H7Z" fill="black"/>
<path d="M19.2105 9.94736C19.2105 9.39507 19.6582 8.94736 20.2105 8.94736C20.7628 8.94736 21.2105 9.39507 21.2105 9.94736V15.9474C21.2105 16.4996 20.7628 16.9474 20.2105 16.9474C19.6582 16.9474 19.2105 16.4996 19.2105 15.9474V9.94736Z" fill="black"/>
<path d="M7.79348 21C7.63139 21 7.5 21.1314 7.5 21.2935V21.5C7.5 22.4665 8.2835 23.25 9.25 23.25C10.2165 23.25 11 22.4665 11 21.5V21.2935C11 21.1314 10.8686 21 10.7065 21H7.79348Z" fill="black"/>
<path d="M13 21.2935C13 21.1314 13.1314 21 13.2935 21H16.2065C16.3686 21 16.5 21.1314 16.5 21.2935V21.5C16.5 22.4665 15.7165 23.25 14.75 23.25C13.7835 23.25 13 22.4665 13 21.5V21.2935Z" fill="black"/>
</svg>
