<svg width="24" height="24" viewBox="0 0 24 24" fill="none" xmlns="http://www.w3.org/2000/svg">
<path d="M11.703 5.61564C11.7322 4.71122 11.9813 3.37888 12.8483 2.5036C13.6531 1.69111 14.6328 1.29513 15.243 1.1141C15.4786 1.04422 15.7046 1.22186 15.693 1.46731C15.6522 2.33311 15.4245 3.6245 14.8371 4.31632C14.2834 4.96848 13.3927 5.83329 12.088 5.9788C11.8744 6.00262 11.6961 5.8304 11.703 5.61564Z" fill="black"/>
<path d="M13.9371 22.1695C14.5636 22.4095 15.197 22.6522 15.7703 22.6522C16.9967 22.6522 20.5678 19.8226 20.6964 16.8838C20.7031 16.7329 20.6129 16.5981 20.4811 16.5243C19.5727 16.016 18.0893 14.7503 18.0377 12.909C17.9775 10.7632 19.0549 9.05879 19.8704 8.35376C20.0539 8.19509 20.1169 7.91531 19.9531 7.73638C19.2112 6.92618 17.7186 5.81172 16.3569 5.83908C15.3661 5.85898 14.4735 6.22803 13.7075 6.54472C13.1198 6.78768 12.6067 6.99982 12.181 6.99982C11.7778 6.99982 11.2938 6.78904 10.7383 6.54713C9.99021 6.22134 9.11242 5.83908 8.12774 5.83908C6.30381 5.83908 2.70002 7.35156 2.70001 13.1904C2.70001 16.2857 5.89537 22.7343 8.59172 22.6522C9.17396 22.6522 9.79619 22.4111 10.4136 22.1719C11.0217 21.9363 11.625 21.7025 12.181 21.7025C12.7178 21.7025 13.3241 21.9347 13.9371 22.1695Z" fill="black"/>
</svg>
