<svg width="24" height="24" viewBox="0 0 24 24" fill="none" xmlns="http://www.w3.org/2000/svg">
<path d="M19.0247 5.57349C19.1268 5.50637 19.1443 5.36392 19.06 5.27547C17.2841 3.41157 14.7777 2.25 12 2.25C11.2631 2.25 10.5453 2.33175 9.85511 2.48669C9.7143 2.5183 9.65743 2.68574 9.74576 2.79987C11.0747 4.51704 12.2744 6.3395 13.3301 8.25263C13.3779 8.33938 13.4819 8.37853 13.5747 8.34377C15.5033 7.62106 17.3292 6.68836 19.0247 5.57349Z" fill="black"/>
<path d="M2.67697 10.0605C2.55487 10.0551 2.46692 9.94151 2.4941 9.82236C3.17224 6.84982 5.20884 4.39441 7.91615 3.1439C7.99834 3.10593 8.09564 3.12958 8.1522 3.20028C9.52543 4.91685 10.7627 6.7468 11.8476 8.67381C11.91 8.7847 11.8535 8.92463 11.7315 8.96071C9.25122 9.69389 6.62503 10.0874 3.9065 10.0874C3.49444 10.0874 3.08453 10.0784 2.67697 10.0605Z" fill="black"/>
<path d="M4.80045 18.216C4.72177 18.3142 4.57309 18.3185 4.49277 18.2217C3.09208 16.5334 2.25 14.3651 2.25 12C2.25 11.9142 2.25111 11.8286 2.25331 11.7433C2.25619 11.6322 2.35116 11.5467 2.46223 11.5521C2.94076 11.5755 3.42227 11.5874 3.9065 11.5874C6.90577 11.5874 9.79932 11.1328 12.5217 10.2887C12.6153 10.2596 12.7163 10.302 12.7602 10.3896C13.0676 11.0022 13.3599 11.6236 13.6367 12.2534C13.6863 12.3663 13.622 12.4963 13.5029 12.5281C10.0219 13.4574 6.98972 15.4851 4.80045 18.216Z" fill="black"/>
<path d="M16.2717 20.6021C16.2894 20.6907 16.2452 20.7802 16.1635 20.8189C14.9009 21.416 13.4895 21.75 12 21.75C9.67979 21.75 7.54887 20.9395 5.87488 19.5863C5.79197 19.5193 5.77859 19.3984 5.84415 19.3144C7.89727 16.6814 10.799 14.7444 14.1378 13.9137C14.2346 13.8896 14.334 13.9418 14.3697 14.0349C15.1799 16.1452 15.8195 18.3398 16.2717 20.6021Z" fill="black"/>
<path d="M21.3742 13.8856C21.4777 13.9105 21.5425 14.0134 21.5194 14.1174C21.014 16.3997 19.7088 18.3814 17.9128 19.7531C17.7981 19.8408 17.633 19.7767 17.6024 19.6355C17.1707 17.6455 16.5987 15.7079 15.8975 13.8334C15.8522 13.7125 15.9309 13.5805 16.0592 13.5657C16.6346 13.4995 17.2198 13.4654 17.813 13.4654C19.0402 13.4654 20.2326 13.611 21.3742 13.8856Z" fill="black"/>
<path d="M19.9729 6.74476C20.0656 6.68318 20.191 6.70796 20.2503 6.80201C21.2003 8.3066 21.75 10.0891 21.75 12C21.75 12.0628 21.7494 12.1256 21.7482 12.1881C21.7458 12.314 21.6268 12.4034 21.504 12.3757C20.3162 12.1071 19.0808 11.9654 17.813 11.9654C16.9887 11.9654 16.1783 12.0253 15.3861 12.1409C15.2954 12.1541 15.2069 12.1049 15.1708 12.0207C14.8699 11.3179 14.5505 10.6249 14.2132 9.94239C14.1606 9.83592 14.2112 9.70712 14.322 9.66453C16.3215 8.89649 18.2146 7.91382 19.9729 6.74476Z" fill="black"/>
</svg>
