<svg width="24" height="24" viewBox="0 0 24 24" fill="none" xmlns="http://www.w3.org/2000/svg">
<path fill-rule="evenodd" clip-rule="evenodd" d="M2.5 12C2.5 6.75329 6.75329 2.5 12 2.5C17.2467 2.5 21.5 6.75329 21.5 12C21.5 17.2467 17.2467 21.5 12 21.5C10.9584 21.5 9.95496 21.3322 9.01593 21.0217L6.15811 21.9743C6.00564 22.0252 5.83803 21.9996 5.70764 21.9056C5.57726 21.8116 5.5 21.6607 5.5 21.5V18.9282C3.65412 17.1958 2.5 14.7324 2.5 12ZM14.7767 14.0377L17.4267 10.1182C17.689 9.73215 17.1916 9.31251 16.8117 9.58947L13.9536 11.6038C13.8597 11.6691 13.7454 11.7045 13.628 11.7045C13.5106 11.7045 13.3963 11.6691 13.3024 11.6038L11.186 10.1266C10.5529 9.69019 9.64842 9.84965 9.22333 10.4623L6.57328 14.3818C6.31099 14.7679 6.80844 15.1875 7.18831 14.9105L10.0464 12.8962C10.1403 12.8309 10.2546 12.7955 10.372 12.7955C10.4894 12.7955 10.6037 12.8309 10.6976 12.8962L12.814 14.3482C13.4471 14.8098 14.3516 14.6504 14.7767 14.0377Z" fill="black"/>
</svg>
