<svg width="24" height="24" viewBox="0 0 24 24" fill="none" xmlns="http://www.w3.org/2000/svg">
<path d="M7.24277 21.32C7.01157 21.32 6.86726 21.0695 6.98325 20.8695L10.1765 15.3635C10.2301 15.2709 10.329 15.214 10.436 15.214L22.0554 15.213C22.2863 15.213 22.4306 15.4629 22.3152 15.6629L19.1379 21.1699C19.0843 21.2628 18.9852 21.32 18.878 21.32H7.24277Z" fill="black"/>
<path d="M7.3371 4.97221C7.45243 4.77242 7.7407 4.77213 7.85644 4.97169L11.0421 10.4647C11.096 10.5576 11.0961 10.6722 11.0425 10.7652L5.21045 20.8699C5.095 21.0699 4.80631 21.07 4.69082 20.87L1.5116 15.364C1.45801 15.2712 1.458 15.1569 1.51159 15.064L7.3371 4.97221Z" fill="black"/>
<path d="M21.4702 13.3C21.5857 13.5 21.4414 13.75 21.2104 13.75H14.855C14.7478 13.75 14.6488 13.6928 14.5952 13.6L8.73611 3.44998C8.62066 3.24998 8.765 3 8.99593 3H15.3513C15.4585 3 15.5576 3.05719 15.6111 3.15002L21.4702 13.3Z" fill="black"/>
</svg>
