<svg width="24" height="24" viewBox="0 0 24 24" fill="none" xmlns="http://www.w3.org/2000/svg">
<path d="M4.75 1.875C3.57639 1.875 2.625 2.82639 2.625 4C2.625 5.1736 3.57639 6.125 4.75 6.125C5.9236 6.125 6.875 5.1736 6.875 4C6.875 2.82639 5.9236 1.875 4.75 1.875Z" fill="black"/>
<path d="M2.75 7.875C2.68096 7.875 2.625 7.93096 2.625 8V21C2.625 21.069 2.68096 21.125 2.75 21.125H6.75C6.81904 21.125 6.875 21.069 6.875 21V8C6.875 7.93096 6.81904 7.875 6.75 7.875H2.75Z" fill="black"/>
<path d="M9.25 7.875C9.18096 7.875 9.125 7.93096 9.125 8V21C9.125 21.069 9.18096 21.125 9.25 21.125H13.25C13.319 21.125 13.375 21.069 13.375 21V14C13.375 13.5027 13.5725 13.0258 13.9242 12.6742C14.2758 12.3225 14.7527 12.125 15.25 12.125C15.7473 12.125 16.2242 12.3225 16.5758 12.6742C16.9275 13.0258 17.125 13.5027 17.125 14V21C17.125 21.069 17.181 21.125 17.25 21.125H21.25C21.319 21.125 21.375 21.069 21.375 21V12.3802C21.375 9.9535 19.2644 8.05499 16.8498 8.2745C16.1052 8.34219 15.369 8.52731 14.6815 8.82194L13.375 9.38186V8C13.375 7.93096 13.319 7.875 13.25 7.875H9.25Z" fill="black"/>
</svg>
