<svg width="24" height="24" viewBox="0 0 24 24" fill="none" xmlns="http://www.w3.org/2000/svg">
<path fill-rule="evenodd" clip-rule="evenodd" d="M6.76954 3.08148C10.2177 2.69611 13.7824 2.69611 17.2305 3.08148C19.1289 3.29366 20.6601 4.78944 20.8829 6.69449C21.2952 10.2195 21.2952 13.7805 20.8829 17.3055C20.6601 19.2106 19.1289 20.7064 17.2305 20.9185C13.7824 21.3039 10.2177 21.3039 6.76954 20.9185C4.87114 20.7064 3.33995 19.2106 3.11713 17.3055C2.70485 13.7805 2.70485 10.2195 3.11713 6.69449C3.33995 4.78944 4.87114 3.29366 6.76954 3.08148ZM16.4106 8.98006L17.25 8.17713L17.2493 8H14.3476L12.2794 13.1601L9.92657 8.00065H6.88285V8.17713L7.86356 9.35776C7.91097 9.40044 7.94765 9.4537 7.97062 9.51322C7.99359 9.57273 8.0022 9.63682 7.99575 9.70029V14.3414C8.00982 14.4239 8.00431 14.5086 7.97965 14.5885C7.95499 14.6685 7.91188 14.7416 7.85379 14.8018L6.75 16.14V16.3159H9.87708V16.14L8.77394 14.8018C8.71538 14.7416 8.67128 14.6689 8.64499 14.5891C8.61871 14.5093 8.61091 14.4246 8.62221 14.3414V10.3281L11.367 16.3165H11.6861L14.0435 10.3281V15.1014C14.0435 15.2277 14.0435 15.2525 13.9601 15.3358L13.1116 16.1589V16.3348H17.2292V16.1589L16.4106 15.3553C16.3752 15.3283 16.3478 15.2921 16.3314 15.2507C16.315 15.2093 16.3102 15.1642 16.3175 15.1203V9.21515C16.3102 9.1712 16.315 9.1261 16.3314 9.08469C16.3478 9.04328 16.3752 9.00711 16.4106 8.98006Z" fill="black"/>
</svg>
