<svg width="24" height="24" viewBox="0 0 24 24" fill="none" xmlns="http://www.w3.org/2000/svg">
<path fill-rule="evenodd" clip-rule="evenodd" d="M19.9605 1.75C19.0866 1.75 18.3245 2.22861 17.922 2.93801L14.3217 2.19949C13.9721 2.12777 13.6204 2.31236 13.4808 2.64083C13.07 3.60742 12.4535 5.07237 11.9393 6.32585C11.7128 6.87797 11.505 7.39196 11.3429 7.80535C9.42533 7.89837 7.65094 8.39583 6.18636 9.1904C5.6286 8.43248 4.73028 7.94 3.71581 7.94C2.02263 7.94 0.650024 9.3126 0.650024 11.0058C0.650024 12.2165 1.35128 13.2621 2.36927 13.7606C2.28237 14.1452 2.23682 14.5415 2.23682 14.9474C2.23682 16.9879 3.38844 18.7893 5.15811 20.0612C6.92858 21.3337 9.34914 22.1052 12 22.1052C14.6508 22.1052 17.0714 21.3337 18.8418 20.0612C20.6115 18.7893 21.7631 16.9879 21.7631 14.9474C21.7631 14.5416 21.7176 14.1452 21.6307 13.7606C22.6484 13.2623 23.35 12.2167 23.35 11.0058C23.35 9.3126 21.9774 7.94 20.2842 7.94C19.2698 7.94 18.3714 8.4325 17.8137 9.19043C16.424 8.43648 14.7553 7.95003 12.9501 7.82278C13.0645 7.53798 13.192 7.22454 13.3271 6.89516C13.746 5.87394 14.2341 4.7095 14.6219 3.79229L17.64 4.41138C17.7957 5.55385 18.7753 6.43421 19.9605 6.43421C21.254 6.43421 22.3026 5.38561 22.3026 4.0921C22.3026 2.7986 21.254 1.75 19.9605 1.75ZM19.1184 4.0921C19.1184 3.62702 19.4954 3.25 19.9605 3.25C20.4256 3.25 20.8026 3.62702 20.8026 4.0921C20.8026 4.55719 20.4256 4.93421 19.9605 4.93421C19.4954 4.93421 19.1184 4.55719 19.1184 4.0921ZM21.1006 12.3424C20.6318 11.4592 19.9349 10.669 19.0769 10.0084C19.3645 9.66089 19.7991 9.44 20.2842 9.44C21.149 9.44 21.85 10.141 21.85 11.0058C21.85 11.5708 21.5504 12.067 21.1006 12.3424ZM4.92306 10.0084C4.63551 9.66087 4.20097 9.44 3.71581 9.44C2.85105 9.44 2.15002 10.141 2.15002 11.0058C2.15002 11.5709 2.44982 12.0671 2.89942 12.3424C3.36821 11.4592 4.0651 10.669 4.92306 10.0084ZM15.5374 14.9473C16.3368 14.9473 16.9848 14.2993 16.9848 13.5C16.9848 12.7006 16.3368 12.0526 15.5374 12.0526C14.738 12.0526 14.09 12.7006 14.09 13.5C14.09 14.2993 14.738 14.9473 15.5374 14.9473ZM9.90475 13.5C9.90475 14.2993 9.25674 14.9473 8.45738 14.9473C7.65802 14.9473 7.01001 14.2993 7.01001 13.5C7.01001 12.7006 7.65802 12.0526 8.45738 12.0526C9.25674 12.0526 9.90475 12.7006 9.90475 13.5ZM8.85013 16.6288C8.49979 16.4078 8.03664 16.5127 7.81565 16.863C7.59466 17.2134 7.69951 17.6765 8.04985 17.8975L8.39477 18.1151C10.595 19.503 13.3971 19.503 15.5973 18.1151L15.9422 17.8975C16.2926 17.6765 16.3974 17.2134 16.1764 16.863C15.9554 16.5127 15.4923 16.4078 15.142 16.6288L14.797 16.8464C13.0857 17.9259 10.9064 17.9259 9.19505 16.8464L8.85013 16.6288Z" fill="black"/>
</svg>
