<svg width="24" height="24" viewBox="0 0 24 24" fill="none" xmlns="http://www.w3.org/2000/svg">
<path fill-rule="evenodd" clip-rule="evenodd" d="M3.9 2.5C3.40294 2.5 3 2.90294 3 3.4V17.5938C3 18.0908 3.40294 18.4938 3.9 18.4938H8.01553V21.5234C8.01553 22.147 8.76953 22.4593 9.2105 22.0183L12.7351 18.4938H17.3778C17.6165 18.4938 17.8454 18.399 18.0142 18.2302L20.7364 15.508C20.9052 15.3392 21 15.1103 21 14.8716V3.4C21 2.90294 20.5971 2.5 20.1 2.5H3.9ZM11.2189 7.70001C11.2189 7.2858 10.8831 6.95001 10.4689 6.95001C10.0547 6.95001 9.71893 7.2858 9.71893 7.70001V11.9721C9.71893 12.3863 10.0547 12.7221 10.4689 12.7221C10.8831 12.7221 11.2189 12.3863 11.2189 11.9721V7.70001ZM16.2345 7.70001C16.2345 7.2858 15.8987 6.95001 15.4845 6.95001C15.0702 6.95001 14.7345 7.2858 14.7345 7.70001V11.9721C14.7345 12.3863 15.0702 12.7221 15.4845 12.7221C15.8987 12.7221 16.2345 12.3863 16.2345 11.9721V7.70001Z" fill="black"/>
</svg>
