<svg width="24" height="24" viewBox="0 0 24 24" fill="none" xmlns="http://www.w3.org/2000/svg">
<path fill-rule="evenodd" clip-rule="evenodd" d="M8.45161 3.5C4.1489 3.5 0.5 6.42501 0.5 10.2145C0.5 12.1544 1.47002 13.8816 2.98387 15.092V16.7742C2.98387 16.9305 3.05693 17.0777 3.18135 17.1723C3.30577 17.2668 3.46723 17.2978 3.61779 17.2559L5.98096 16.599C6.75964 16.8134 7.59025 16.9289 8.45161 16.9289C8.50486 16.9289 8.558 16.9285 8.61101 16.9276C8.73504 16.9256 8.82426 16.8099 8.80274 16.6877C8.73899 16.3259 8.70565 15.9515 8.70565 15.5658C8.70565 11.6678 12.1105 8.92941 15.9032 8.55578C16.031 8.5432 16.1177 8.41747 16.0753 8.29631C15.0877 5.47931 11.9999 3.5 8.45161 3.5ZM6.85486 7.45969C6.85486 8.0476 6.37826 8.5242 5.79035 8.5242C5.20243 8.5242 4.72583 8.0476 4.72583 7.45969C4.72583 6.87177 5.20243 6.39517 5.79035 6.39517C6.37826 6.39517 6.85486 6.87177 6.85486 7.45969ZM11.1129 8.52421C11.7008 8.52421 12.1774 8.04761 12.1774 7.45969C12.1774 6.87178 11.7008 6.39518 11.1129 6.39518C10.525 6.39518 10.0484 6.87178 10.0484 7.45969C10.0484 8.04761 10.525 8.52421 11.1129 8.52421Z" fill="black"/>
<path fill-rule="evenodd" clip-rule="evenodd" d="M16.7903 9.88708C20.4071 9.88708 23.5 12.3484 23.5 15.5658C23.5 17.1983 22.6902 18.6497 21.4301 19.6703V21.0322C21.4301 21.1885 21.357 21.3358 21.2326 21.4303C21.1082 21.5249 20.9467 21.5558 20.7962 21.514L18.849 20.9727C18.1993 21.1494 17.5073 21.2445 16.7903 21.2445C13.1735 21.2445 10.0806 18.7832 10.0806 15.5658C10.0806 12.3484 13.1735 9.88708 16.7903 9.88708ZM14.5459 14.6452C15.0604 14.6452 15.4774 14.2281 15.4774 13.7137C15.4774 13.1993 15.0604 12.7823 14.5459 12.7823C14.0315 12.7823 13.6145 13.1993 13.6145 13.7137C13.6145 14.2281 14.0315 14.6452 14.5459 14.6452ZM20.0016 13.7137C20.0016 14.2281 19.5846 14.6452 19.0702 14.6452C18.5557 14.6452 18.1387 14.2281 18.1387 13.7137C18.1387 13.1993 18.5557 12.7823 19.0702 12.7823C19.5846 12.7823 20.0016 13.1993 20.0016 13.7137Z" fill="black"/>
</svg>
