<svg width="24" height="24" viewBox="0 0 24 24" fill="none" xmlns="http://www.w3.org/2000/svg">
<path d="M9.9206 7.40766L9.9209 7.40832C10.0522 7.70083 10.2695 8.23024 10.443 8.65259L10.4464 8.66094C10.5149 8.82774 10.5767 8.97816 10.6248 9.09391C10.6489 9.15184 10.6691 9.19974 10.6846 9.23596C10.6984 9.26808 10.7054 9.2835 10.7074 9.28796C10.7079 9.28911 10.7081 9.28952 10.708 9.28931C10.8081 9.48871 10.9103 9.81184 10.7303 10.1808L9.9206 7.40766ZM9.9206 7.40766C9.79983 7.13959 9.64314 6.92805 9.42231 6.80005M9.9206 7.40766L9.42231 6.80005M13.2541 13.965C13.1998 13.938 13.1319 13.9087 13.0693 13.8817L13.0602 13.8778L13.0591 13.8773C12.7138 13.7283 12.0552 13.4441 11.2911 12.7639L11.2903 12.7631C10.644 12.1904 10.1811 11.4832 10.0001 11.1828C10.0873 11.0945 10.1808 10.9816 10.2563 10.8903L10.2653 10.8795C10.3146 10.8199 10.359 10.7663 10.4007 10.7184L10.4008 10.7183C10.5585 10.5371 10.6308 10.3871 10.6992 10.2451L10.7031 10.2371L10.7031 10.2371L10.7303 10.1809L9.95445 11.1104L9.92572 11.127L9.92546 11.1272L9.52401 11.3599M13.2541 13.965L13.2449 13.9834C13.2494 13.9782 13.254 13.9728 13.2588 13.9673M13.2541 13.965C13.2541 13.965 13.254 13.9649 13.254 13.9649L13.2447 13.9836C13.2325 13.9978 13.2214 14.0108 13.2115 14.0223L13.2114 14.0223C13.1986 14.0372 13.1989 14.0333 13.2135 14.0241C13.2135 14.0241 13.2135 14.0241 13.2135 14.0241C13.214 14.0237 13.2146 14.0234 13.2151 14.023C13.2191 14.0207 13.2236 14.0181 13.2288 14.0155L13.2213 14.0307L13.2213 14.0308L13.0313 14.4126M13.2541 13.965C13.2557 13.9658 13.2572 13.9665 13.2588 13.9673M13.2588 13.9673C13.2994 13.9872 13.3217 13.9942 13.3297 13.9963C13.3308 13.9966 13.3313 13.9967 13.3313 13.9967C13.3313 13.9967 13.3172 13.9938 13.2933 13.9966C13.2792 13.9983 13.2644 14.0016 13.2498 14.0068C13.242 14.0095 13.235 14.0125 13.2289 14.0155L13.2213 14.0308L13.2213 14.0308L13.0313 14.4126M13.2588 13.9673C13.4478 13.747 13.8501 13.2736 13.991 13.0662M13.0313 14.4126C13.2886 14.5406 13.4419 14.5209 13.5903 14.3486C13.7388 14.1762 14.2334 13.6001 14.4066 13.3441M13.0313 14.4126C12.9895 14.3918 12.9325 14.3672 12.8621 14.3368C12.4998 14.1805 11.783 13.8712 10.9587 13.1373C10.1919 12.4579 9.67249 11.6159 9.52401 11.3599M13.991 13.0662C13.9902 13.0673 13.9894 13.0685 13.9887 13.0696L14.4066 13.3441M13.991 13.0662C13.9915 13.0654 13.992 13.0647 13.9925 13.064L14.4066 13.3441M13.991 13.0662C14.1287 12.858 14.3291 12.6876 14.6115 12.6544C14.8384 12.6276 15.0465 12.7053 15.1557 12.746L15.1601 12.7477L15.1602 12.7477C15.3063 12.8022 15.7096 12.9933 16.0753 13.1693C16.4554 13.3523 16.8383 13.5404 16.9691 13.6055L16.9692 13.6055C17.0163 13.629 17.0607 13.6502 17.105 13.6715L16.8888 14.1224M14.4066 13.3441C14.5748 13.0881 14.7479 13.1275 14.9854 13.2161C15.2228 13.3047 16.4892 13.9251 16.7464 14.0531C16.7972 14.0784 16.8448 14.1012 16.8888 14.1224M9.52401 11.3599L9.92538 11.1271L9.92564 11.127L9.95442 11.1103L10.0237 10.3899C9.97707 10.4435 9.92848 10.5022 9.88007 10.5607C9.79493 10.6636 9.71034 10.7658 9.63783 10.838C9.50923 10.9659 9.37562 11.1039 9.52401 11.3599ZM16.8888 14.1224C17.0678 14.2082 17.1895 14.2665 17.2411 14.3535M16.8888 14.1224L17.105 13.6715L17.1172 13.6774C17.1966 13.7154 17.292 13.7611 17.3734 13.8108C17.4584 13.8627 17.5836 13.9509 17.6711 14.0984M17.2411 14.3535L17.6711 14.0984M17.2411 14.3535C17.3054 14.4618 17.3054 14.9739 17.0927 15.5746M17.2411 14.3535L17.0927 15.5746M17.2411 14.3535L17.671 14.0982C17.671 14.0983 17.671 14.0983 17.6711 14.0984M17.2411 14.3535L7.45098 12.5726M17.6711 14.0984C17.7507 14.2325 17.7671 14.387 17.7734 14.4663C17.7817 14.5722 17.7799 14.6933 17.7689 14.822C17.7468 15.0806 17.6847 15.4006 17.564 15.7415L17.5628 15.7449C17.3959 16.2053 16.9606 16.5749 16.5893 16.8141C16.2115 17.0574 15.7511 17.2604 15.3983 17.2934M17.0927 15.5746C16.875 16.1752 15.8263 16.7513 15.3514 16.7956M17.0927 15.5746L6.80327 9.62685C6.80327 10.8707 7.70422 12.0762 7.85149 12.2733L7.85696 12.2806M15.3514 16.7956C15.3064 16.7999 15.2617 16.8053 15.2156 16.8108M15.3514 16.7956L15.3978 17.2935C15.398 17.2934 15.3981 17.2934 15.3983 17.2934M15.3514 16.7956L15.3983 17.2934M15.2156 16.8108C14.7804 16.8635 14.2279 16.9303 12.2596 16.1555M15.2156 16.8108L15.2757 17.3072C15.0358 17.3362 14.7354 17.3714 14.2298 17.2866C13.7427 17.2049 13.0762 17.0143 12.0765 16.6208M15.2156 16.8108L15.2757 17.3072C15.3228 17.3015 15.361 17.2969 15.3983 17.2934M12.2596 16.1555C9.83423 15.2018 8.23321 12.8354 7.90952 12.357M12.2596 16.1555L12.0765 16.6208M12.2596 16.1555L12.0766 16.6209C12.0766 16.6208 12.0765 16.6208 12.0765 16.6208M7.90952 12.357C7.88396 12.3192 7.86637 12.2932 7.85696 12.2806M7.90952 12.357L7.49539 12.6371L7.46471 12.5919L7.45636 12.5799C7.45585 12.5791 7.45548 12.5786 7.45523 12.5783L7.45098 12.5726M7.90952 12.357L7.49539 12.6371L7.50104 12.6455C7.83484 13.139 9.50637 15.61 12.0765 16.6208M7.85696 12.2806L7.45642 12.5799L7.45619 12.5796L7.85696 12.2806ZM7.45098 12.5726L7.45094 12.5725L7.45089 12.5725C7.37176 12.4666 7.08928 12.0886 6.82602 11.5683C6.56614 11.0548 6.30327 10.3608 6.30327 9.62685C6.30327 8.24151 6.99959 7.50184 7.29369 7.19102L7.29369 7.19102C7.31107 7.17265 7.32491 7.15802 7.33703 7.14495C7.33703 7.14495 7.33703 7.14495 7.33704 7.14494L7.45098 12.5726ZM9.42231 6.80005C9.21136 6.67777 9.00439 6.67264 8.90971 6.67029M9.42231 6.80005L8.90971 6.67029M8.90971 6.67029C8.90661 6.67022 8.90362 6.67014 8.90076 6.67007L8.90971 6.67029ZM7.51635 20.1816C7.40484 20.1212 7.27455 20.1054 7.15185 20.1375L2.71223 21.2971L3.8968 16.9973C3.93241 16.868 3.91462 16.7299 3.84743 16.6139C3.01912 15.1837 2.58348 13.562 2.58408 11.9115V11.9114C2.58408 6.72456 6.82981 2.5 12.0419 2.5C14.5762 2.5 16.9475 3.48164 18.7335 5.25928C20.5189 7.03641 21.5 9.40027 21.5 11.9163C21.5 17.103 17.2543 21.3275 12.042 21.3275H12.0371C10.4535 21.3275 8.89791 20.93 7.51635 20.1816Z" fill="black" stroke="black" stroke-linejoin="round"/>
</svg>
