<svg width="24" height="24" viewBox="0 0 24 24" fill="none" xmlns="http://www.w3.org/2000/svg">
<path d="M12.7636 11.2836C12.6835 11.1579 12.5803 11.043 12.4539 10.9452C10.3157 9.29083 7.92823 7.98683 5.3807 7.08204L4.91465 6.91652C4.04501 6.60765 3.12572 7.19604 3.00789 8.09448C2.67104 10.663 2.67104 13.337 3.00789 15.9055C3.12572 16.8039 4.04501 17.3923 4.91465 17.0835L5.3807 16.9179C7.92823 16.0131 10.3157 14.7091 12.4539 13.0547C12.5803 12.9569 12.6835 12.8421 12.7636 12.7164C12.7887 13.7874 12.8702 14.8553 13.0079 15.9055C13.1257 16.8039 14.045 17.3923 14.9146 17.0835L15.3807 16.9179C17.9282 16.0131 20.3157 14.7091 22.4539 13.0547C23.1439 12.5208 23.1439 11.4791 22.4539 10.9452C20.3157 9.29083 17.9282 7.98683 15.3807 7.08204L14.9146 6.91652C14.045 6.60765 13.1257 7.19604 13.0079 8.09448C12.8702 9.14469 12.7887 10.2125 12.7636 11.2836Z" fill="black"/>
</svg>
