<svg width="24" height="24" viewBox="0 0 24 24" fill="none" xmlns="http://www.w3.org/2000/svg">
<rect x="10" y="18" width="4" height="4" rx="2" fill="black"/>
<path d="M19 9C19 5.68629 15.866 3 12 3C8.13401 3 5 5.68629 5 9" stroke="black" stroke-width="1.5"/>
<path d="M11 20L15 20C17.2091 20 19 18.2091 19 16V16" stroke="black" stroke-width="1.5" stroke-linecap="round"/>
<path d="M3 11C3 9.89543 3.89543 9 5 9H7.5V16H5C3.89543 16 3 15.1046 3 14V11Z" fill="black" stroke="black" stroke-width="1.5" stroke-linejoin="round"/>
<path d="M21 11C21 9.89543 20.1046 9 19 9H16.5V16H19C20.1046 16 21 15.1046 21 14V11Z" fill="black" stroke="black" stroke-width="1.5" stroke-linejoin="round"/>
</svg>
