<svg width="24" height="24" viewBox="0 0 24 24" fill="none" xmlns="http://www.w3.org/2000/svg">
<path d="M15.0794 4.41083C15.1928 5.09855 15.2773 5.78981 15.3331 6.48281C15.3389 6.55547 15.3124 6.62694 15.2608 6.67849L9.24591 12.6934C9.13292 12.8064 8.9465 12.7468 8.92052 12.5892C8.47425 9.88132 8.47425 7.11868 8.92052 4.41083L8.97474 4.08184C9.04841 3.63482 9.39016 3.27956 9.83398 3.18862C11.2631 2.89579 12.7368 2.89579 14.166 3.18862C14.6098 3.27956 14.9515 3.63482 15.0252 4.08183L15.0794 4.41083Z" fill="black"/>
<path d="M6.19306 14.0741C6.24202 14.4196 6.38145 14.7348 6.58664 14.9953C6.67285 15.1048 6.67537 15.264 6.57685 15.3625L5.87071 16.0686C5.77358 16.1658 5.6155 16.1669 5.52488 16.0637C5.09598 15.5751 4.80398 14.9626 4.7079 14.2845L4.25739 11.1052C4.19928 10.6951 4.48463 10.3155 4.89475 10.2574C5.30487 10.1993 5.68444 10.4847 5.74255 10.8948L6.19306 14.0741Z" fill="black"/>
<path d="M8.55625 17.3044L5.03033 20.8303C4.73744 21.1232 4.26256 21.1232 3.96967 20.8303C3.67678 20.5374 3.67678 20.0625 3.96967 19.7697L19.9697 3.76966C20.2626 3.47676 20.7374 3.47676 21.0303 3.76966C21.3232 4.06255 21.3232 4.53742 21.0303 4.83032L15.3322 10.5285C15.2764 11.2177 15.1922 11.9052 15.0794 12.5892L15.0252 12.9182C14.9515 13.3652 14.6098 13.7204 14.166 13.8114C13.3959 13.9692 12.6129 14.0419 11.831 14.0297L9.94695 15.9137C12.0126 16.0436 14.0875 15.9773 16.1437 15.7146C17.0042 15.6047 17.6852 14.9331 17.8069 14.0741L18.2574 10.8948C18.3155 10.4847 18.6951 10.1993 19.1052 10.2574C19.5153 10.3155 19.8007 10.6951 19.7426 11.1052L19.292 14.2845C19.0755 15.8124 17.8644 17.007 16.3337 17.2025C15.1435 17.3546 13.9473 17.4437 12.75 17.47V21.5C12.75 21.9142 12.4142 22.25 12 22.25C11.5858 22.25 11.25 21.9142 11.25 21.5V17.47C10.3508 17.4503 9.45218 17.3951 8.55625 17.3044Z" fill="black"/>
</svg>
