<svg width="24" height="24" viewBox="0 0 24 24" fill="none" xmlns="http://www.w3.org/2000/svg">
<path d="M18.75 7C18.75 6.58579 18.4142 6.25 18 6.25C17.5858 6.25 17.25 6.58579 17.25 7V17C17.25 17.4142 17.5858 17.75 18 17.75C18.4142 17.75 18.75 17.4142 18.75 17V7Z" fill="black"/>
<path d="M14.4539 10.9452C15.1439 11.4791 15.1439 12.5208 14.4539 13.0547C12.3157 14.7091 9.92823 16.0131 7.3807 16.9179L6.91465 17.0835C6.04501 17.3923 5.12572 16.8039 5.00789 15.9055C4.67104 13.337 4.67104 10.663 5.00789 8.09448C5.12572 7.19604 6.04501 6.60765 6.91465 6.91652L7.3807 7.08204C9.92823 7.98683 12.3157 9.29083 14.4539 10.9452Z" fill="black"/>
</svg>
