<svg width="24" height="24" viewBox="0 0 24 24" fill="none" xmlns="http://www.w3.org/2000/svg">
<path d="M14.6096 4.84573C14.5115 4.0611 13.5846 3.69532 12.9771 4.20154L7.95804 8.38412C7.86818 8.459 7.75492 8.50001 7.63795 8.50001H3.75C3.05964 8.50001 2.5 9.05966 2.5 9.75001V14.25C2.5 14.9404 3.05964 15.5 3.75 15.5H7.63795C7.75492 15.5 7.86818 15.541 7.95804 15.6159L12.9771 19.7985C13.5846 20.3047 14.5115 19.9389 14.6096 19.1543L14.7054 18.3878C15.2357 14.1458 15.2357 9.85424 14.7054 5.61222L14.6096 4.84573Z" fill="black"/>
<path d="M19.9082 5.94578C20.3014 5.81572 20.7257 6.02908 20.8557 6.42234C21.4362 8.17731 21.75 10.0528 21.75 12C21.75 13.9473 21.4362 15.8227 20.8557 17.5777C20.7257 17.971 20.3014 18.1843 19.9082 18.0543C19.5149 17.9242 19.3015 17.5 19.4316 17.1067C19.9624 15.5018 20.25 13.7852 20.25 12C20.25 10.2148 19.9624 8.49828 19.4316 6.89336C19.3015 6.50009 19.5149 6.07585 19.9082 5.94578Z" fill="black"/>
<path d="M18.0323 7.94771C17.8894 7.55891 17.4584 7.35953 17.0696 7.50239C16.6808 7.64524 16.4815 8.07623 16.6243 8.46503C17.0288 9.56596 17.25 10.7563 17.25 12C17.25 13.0316 17.0978 14.0264 16.8152 14.9637C16.7995 15.0159 16.7833 15.068 16.7668 15.1198C16.7222 15.2595 16.6747 15.398 16.6243 15.535C16.4815 15.9238 16.6808 16.3548 17.0696 16.4977C17.4584 16.6405 17.8894 16.4411 18.0323 16.0523C18.0901 15.8951 18.1446 15.7362 18.1958 15.5759C18.2148 15.5163 18.2333 15.4566 18.2514 15.3967C18.5758 14.3204 18.75 13.1799 18.75 12C18.75 10.5772 18.4968 9.21188 18.0323 7.94771Z" fill="black"/>
</svg>
