<svg width="24" height="24" viewBox="0 0 24 24" fill="none" xmlns="http://www.w3.org/2000/svg">
<path d="M12 9C10.8954 9 10 9.89543 10 11C10 12.1046 10.8954 13 12 13C13.1046 13 14 12.1046 14 11C14 9.89543 13.1046 9 12 9Z" fill="black"/>
<path d="M8 17.5C8 15.8431 9.34315 14.5 11 14.5H13C14.6569 14.5 16 15.8431 16 17.5C16 18.0523 15.5523 18.5 15 18.5H9C8.44772 18.5 8 18.0523 8 17.5Z" fill="black"/>
<path fill-rule="evenodd" clip-rule="evenodd" d="M7 2.25C5.48122 2.25 4.25 3.48122 4.25 5V19C4.25 20.5188 5.48122 21.75 7 21.75H17C18.5188 21.75 19.75 20.5188 19.75 19V8.1979C19.75 7.83178 19.6352 7.47488 19.4217 7.17745L16.4085 2.97955C16.0798 2.52157 15.5506 2.25 14.9868 2.25H7ZM5.75 5C5.75 4.30964 6.30964 3.75 7 3.75H14.25V8.14705C14.25 8.56126 14.5858 8.89705 15 8.89705H18.25V19C18.25 19.6904 17.6904 20.25 17 20.25H7C6.30964 20.25 5.75 19.6904 5.75 19V5Z" fill="black"/>
</svg>
