<svg width="24" height="24" viewBox="0 0 24 24" fill="none" xmlns="http://www.w3.org/2000/svg">
<path d="M18.68 9.98322C18.7009 10.114 18.7205 10.245 18.7389 10.3761C18.7564 10.501 18.8493 10.6014 18.9705 10.6363C19.3283 10.7393 19.6626 10.8979 19.9634 11.1021C20.1139 11.2043 20.3347 11.0911 20.3156 10.9102C20.2744 10.5215 20.223 10.1335 20.1613 9.74679L20.0972 9.34535C19.8913 8.05533 18.7786 7.10612 17.4722 7.10612L9.15777 7.10612C8.95226 6.04846 8.02099 5.25 6.90323 5.25H4.61167C3.25538 5.25 2.11298 6.26343 1.95127 7.61004L1.67879 9.87915C1.38913 12.2913 1.46388 14.7333 1.90055 17.1232C2.11607 18.3027 3.10258 19.1869 4.2986 19.2725L5.81261 19.3808C7.99334 19.5368 10.1793 19.5943 12.364 19.5533C12.5028 19.5507 12.6204 19.4524 12.6568 19.3183C12.748 18.9821 12.8773 18.6615 13.0396 18.3615C13.1167 18.219 13.0141 18.0378 12.8522 18.042C10.5408 18.1022 8.2272 18.0497 5.91965 17.8846L4.40565 17.7763C3.89217 17.7396 3.46865 17.36 3.37612 16.8536C2.96649 14.6116 2.89636 12.3208 3.16809 10.058L3.44057 7.78888C3.51176 7.19611 4.01464 6.75 4.61167 6.75H6.90323C7.34328 6.75 7.7 7.10672 7.7 7.54677C7.7 8.13183 8.17429 8.60612 8.75936 8.60612H17.4722C18.0414 8.60612 18.5262 9.0197 18.6159 9.58178L18.68 9.98322Z" fill="black"/>
<path d="M18 12C16.8954 12 16 12.8954 16 14C16 15.1046 16.8954 16 18 16C19.1046 16 20 15.1046 20 14C20 12.8954 19.1046 12 18 12Z" fill="black"/>
<path d="M14 20.5C14 18.8431 15.3431 17.5 17 17.5H19C20.6569 17.5 22 18.8431 22 20.5C22 21.0523 21.5523 21.5 21 21.5H15C14.4477 21.5 14 21.0523 14 20.5Z" fill="black"/>
</svg>
