<svg width="24" height="24" viewBox="0 0 24 24" fill="none" xmlns="http://www.w3.org/2000/svg">
<path d="M8.75 13.5C8.75 13.0858 9.08579 12.75 9.5 12.75H11.25V11C11.25 10.5858 11.5858 10.25 12 10.25C12.4142 10.25 12.75 10.5858 12.75 11V12.75H14.5C14.9142 12.75 15.25 13.0858 15.25 13.5C15.25 13.9142 14.9142 14.25 14.5 14.25H12.75V16C12.75 16.4142 12.4142 16.75 12 16.75C11.5858 16.75 11.25 16.4142 11.25 16V14.25H9.5C9.08579 14.25 8.75 13.9142 8.75 13.5Z" fill="black"/>
<path fill-rule="evenodd" clip-rule="evenodd" d="M21.1613 9.74679C21.5581 12.233 21.5297 14.7686 21.0771 17.2453C20.8748 18.353 19.9484 19.1833 18.8253 19.2636L17.1874 19.3808C13.7335 19.6279 10.2665 19.6279 6.81261 19.3808L5.2986 19.2725C4.10258 19.1869 3.11607 18.3027 2.90055 17.1232C2.46388 14.7333 2.38913 12.2913 2.67879 9.87915L2.95127 7.61004C3.11298 6.26343 4.25538 5.25 5.61167 5.25H7.90323C9.02099 5.25 9.95226 6.04846 10.1578 7.10612L18.4722 7.10612C19.7786 7.10612 20.8913 8.05533 21.0972 9.34535L21.1613 9.74679ZM19.6016 16.9757C20.0236 14.6662 20.0501 12.3017 19.68 9.98322L19.6159 9.58178C19.5262 9.0197 19.0414 8.60612 18.4722 8.60612H9.75936C9.17429 8.60612 8.7 8.13183 8.7 7.54677C8.7 7.10672 8.34328 6.75 7.90323 6.75H5.61167C5.01464 6.75 4.51176 7.19611 4.44057 7.78888L4.16809 10.058C3.89636 12.3208 3.96649 14.6116 4.37612 16.8536C4.46865 17.36 4.89217 17.7396 5.40565 17.7763L6.91965 17.8846C10.3022 18.1266 13.6978 18.1266 17.0804 17.8846L18.7182 17.7674C19.1588 17.7359 19.5222 17.4102 19.6016 16.9757Z" fill="black"/>
</svg>
