<svg width="24" height="24" viewBox="0 0 24 24" fill="none" xmlns="http://www.w3.org/2000/svg">
<path d="M13.5 9.75002C13.5 9.3358 13.1642 9.00002 12.75 9.00002H6.75C6.33579 9.00002 6 9.3358 6 9.75002C6 10.1642 6.33579 10.5 6.75 10.5H12.75C13.1642 10.5 13.5 10.1642 13.5 9.75002Z" fill="black"/>
<path d="M12.5 12.75C12.5 12.3358 12.1642 12 11.75 12H6.75C6.33579 12 6 12.3358 6 12.75C6 13.1642 6.33579 13.5 6.75 13.5H11.75C12.1642 13.5 12.5 13.1642 12.5 12.75Z" fill="black"/>
<path d="M12.75 15C13.1642 15 13.5 15.3358 13.5 15.75C13.5 16.1642 13.1642 16.5 12.75 16.5H6.75C6.33579 16.5 6 16.1642 6 15.75C6 15.3358 6.33579 15 6.75 15H12.75Z" fill="black"/>
<path fill-rule="evenodd" clip-rule="evenodd" d="M6 21.75H19C20.5188 21.75 21.75 20.5188 21.75 19V13.5C21.75 13.0858 21.4142 12.75 21 12.75H17.75V4.94321C17.75 3.51981 16.1411 2.69184 14.9828 3.51918L14.8078 3.64421C14.0273 4.2017 12.9701 4.19983 12.1859 3.63972C10.8821 2.70839 9.11794 2.70839 7.81407 3.63972C7.02992 4.19983 5.9727 4.2017 5.19221 3.64421L5.01717 3.51918C3.8589 2.69184 2.25 3.51981 2.25 4.94321V18C2.25 20.0711 3.92893 21.75 6 21.75ZM8.68593 4.86032C9.46825 4.30152 10.5318 4.30152 11.3141 4.86032C12.6161 5.79035 14.3739 5.79745 15.6796 4.86481L15.8547 4.73978C16.0202 4.62159 16.25 4.73987 16.25 4.94321V19C16.25 19.4501 16.3581 19.875 16.5499 20.25H6C4.75736 20.25 3.75 19.2427 3.75 18V4.94321C3.75 4.73987 3.97984 4.62159 4.14531 4.73978L4.32036 4.86481C5.62605 5.79745 7.3839 5.79034 8.68593 4.86032ZM17.75 19V14.25H20.25V19C20.25 19.6904 19.6904 20.25 19 20.25C18.3096 20.25 17.75 19.6904 17.75 19Z" fill="black"/>
</svg>
