<svg width="24" height="24" viewBox="0 0 24 24" fill="none" xmlns="http://www.w3.org/2000/svg">
<path d="M19.8361 16.9065C20.2793 12.647 20.2793 8.35301 19.8361 4.09352C19.6975 2.76121 18.1614 2.08633 17.0863 2.88544L12.9827 5.93585C11.6891 6.89742 10.1202 7.41667 8.5084 7.41667H4.6792C4.12691 7.41667 3.6792 7.86438 3.6792 8.41667V12.5833C3.6792 13.1356 4.12691 13.5833 4.6792 13.5833L8.50839 13.5833C10.1202 13.5833 11.6891 14.1026 12.9827 15.0642L17.0863 18.1146C18.1614 18.9137 19.6975 18.2388 19.8361 16.9065Z" fill="black"/>
<path d="M9.09262 15.802C9.15006 15.5775 9.10055 15.3391 8.95848 15.1561C8.8164 14.9731 8.59773 14.866 8.36604 14.866L6.36604 14.866C6.08196 14.866 5.82226 15.0265 5.69522 15.2806L4.69522 17.2806C4.52444 17.6222 4.63756 18.0375 4.95794 18.2453L7.09191 19.6293C7.29452 19.7607 7.548 19.7865 7.77293 19.6986C7.99786 19.6107 8.16672 19.4199 8.22659 19.186L9.09262 15.802Z" fill="black"/>
</svg>
