<svg width="24" height="24" viewBox="0 0 24 24" fill="none" xmlns="http://www.w3.org/2000/svg">
<path fill-rule="evenodd" clip-rule="evenodd" d="M4.82339 15.2099C2.64251 9.85685 6.58066 4 12.3609 4H12.6823C16.9999 4 20.5 7.50008 20.5 11.8176C20.5 16.6404 16.5904 20.55 11.7676 20.55H3.94735C3.73518 20.55 3.54611 20.4161 3.4757 20.2159C3.40528 20.0158 3.46884 19.793 3.63427 19.6602L5.60576 18.0769C5.77817 17.9384 5.83916 17.7032 5.75573 17.4984L4.82339 15.2099ZM13.1 9.45001C13.1 9.0358 12.7642 8.70001 12.35 8.70001C11.9358 8.70001 11.6 9.0358 11.6 9.45001V11.45H9.60001C9.18579 11.45 8.85001 11.7858 8.85001 12.2C8.85001 12.6142 9.18579 12.95 9.60001 12.95H11.6V14.95C11.6 15.3642 11.9358 15.7 12.35 15.7C12.7642 15.7 13.1 15.3642 13.1 14.95V12.95H15.1C15.5142 12.95 15.85 12.6142 15.85 12.2C15.85 11.7858 15.5142 11.45 15.1 11.45H13.1V9.45001Z" fill="black"/>
</svg>
