<svg width="24" height="24" viewBox="0 0 24 24" fill="none" xmlns="http://www.w3.org/2000/svg">
<path fill-rule="evenodd" clip-rule="evenodd" d="M12 7.5C12 8.47187 12.3081 9.37179 12.8319 10.1074C13.1238 10.5173 13.4827 10.8762 13.8926 11.1681C14.6282 11.6919 15.5281 12 16.5 12C18.9853 12 21 9.98528 21 7.5C21 6.52813 20.6919 5.62821 20.1681 4.8926C19.8762 4.48271 19.5173 4.12383 19.1074 3.83194C18.3718 3.30809 17.4719 3 16.5 3C14.0147 3 12 5.01472 12 7.5ZM16.5 10.5C15.9436 10.5 15.4227 10.3486 14.976 10.0846L19.0846 5.97602C19.3486 6.42266 19.5 6.94364 19.5 7.5C19.5 9.15685 18.1569 10.5 16.5 10.5ZM13.9154 9.02398L18.024 4.91536C17.5773 4.65145 17.0564 4.5 16.5 4.5C14.8431 4.5 13.5 5.84315 13.5 7.5C13.5 8.05636 13.6514 8.57734 13.9154 9.02398Z" fill="black"/>
<path d="M4.82339 15.2099C2.79588 10.2333 6.05703 4.82127 11.1703 4.08469C11.3393 4.06035 11.4522 4.25084 11.3637 4.39688C10.8155 5.3023 10.5 6.36431 10.5 7.50001C10.5 10.8137 13.1863 13.5 16.5 13.5C17.8715 13.5 19.1355 13.0399 20.1461 12.2655C20.2846 12.1594 20.4909 12.2569 20.4788 12.431C20.164 16.9676 16.3842 20.55 11.7676 20.55H3.94735C3.73518 20.55 3.54611 20.4161 3.4757 20.216C3.40528 20.0158 3.46884 19.793 3.63427 19.6602L5.60576 18.0769C5.77817 17.9384 5.83916 17.7032 5.75573 17.4984L4.82339 15.2099Z" fill="black"/>
</svg>
