<svg width="24" height="24" viewBox="0 0 24 24" fill="none" xmlns="http://www.w3.org/2000/svg">
<path fill-rule="evenodd" clip-rule="evenodd" d="M16.4565 2.88264C13.5007 2.4579 10.4993 2.4579 7.54353 2.88264C6.07804 3.09323 4.94894 4.28262 4.81482 5.75708L4.68785 7.15281C4.3945 10.3776 4.3945 13.6223 4.68785 16.8471L4.81482 18.2428C4.94894 19.7173 6.07804 20.9067 7.54353 21.1173C10.4993 21.542 13.5007 21.542 16.4565 21.1173C17.922 20.9067 19.0511 19.7173 19.1852 18.2428L19.3122 16.8471C19.6055 13.6223 19.6055 10.3776 19.3122 7.15281L19.1852 5.75708C19.0511 4.28262 17.922 3.09323 16.4565 2.88264ZM10 8.99997C10 7.8954 10.8954 6.99997 12 6.99997C13.1046 6.99997 14 7.8954 14 8.99997C14 10.1045 13.1046 11 12 11C10.8954 11 10 10.1045 10 8.99997ZM8 15.5C8 13.8431 9.34315 12.5 11 12.5H13C14.6569 12.5 16 13.8431 16 15.5C16 16.0523 15.5523 16.5 15 16.5H9C8.44772 16.5 8 16.0523 8 15.5Z" fill="black"/>
</svg>
