<svg width="24" height="24" viewBox="0 0 24 24" fill="none" xmlns="http://www.w3.org/2000/svg">
<path d="M19.8069 5.68672C20.1051 5.93234 20.3533 6.23695 20.5337 6.58375C20.5907 6.69348 20.5479 6.82634 20.4428 6.89145L14.1768 10.7704C12.833 11.6023 11.1384 11.6198 9.77772 10.8157L3.46989 7.08834C3.36798 7.02812 3.3212 6.90416 3.36713 6.79506C3.54974 6.36128 3.83432 5.98302 4.19034 5.68898L4.19 5.686L4.20227 5.67918C4.46571 5.46395 4.76774 5.29459 5.09615 5.18258L9.20602 2.89932C10.9427 1.93452 13.0543 1.93452 14.7909 2.89932L18.896 5.1799C19.2301 5.29279 19.5371 5.46499 19.8042 5.68448L19.8069 5.68672Z" fill="black"/>
<path d="M2.98885 8.95415C3.00703 8.77391 3.20603 8.67473 3.362 8.76689L9.01462 12.1071C10.8556 13.1949 13.1482 13.1713 14.9664 12.0458L20.6109 8.55152C20.7662 8.45542 20.9685 8.55277 20.9882 8.73429C21.2682 11.3217 21.2145 13.9363 20.8269 16.5133C20.6284 17.8335 19.551 18.8455 18.2211 18.9611L16.7108 19.0924C13.5762 19.3649 10.4238 19.3649 7.28918 19.0924L5.77895 18.9611C4.44901 18.8455 3.3716 17.8335 3.17308 16.5133C2.79653 14.0092 2.73512 11.4698 2.98885 8.95415Z" fill="black"/>
</svg>
