<svg width="24" height="24" viewBox="0 0 24 24" fill="none" xmlns="http://www.w3.org/2000/svg">
<path d="M11.337 3.75C10.879 3.75001 10.4499 3.97406 10.1882 4.34991L5.95631 10.427C5.16164 11.5682 4.80745 12.9587 4.95934 14.341L5.28477 17.3024C5.42383 18.5679 6.4173 19.5703 7.68151 19.7207L9.79855 19.9725C11.4152 20.1648 13.0544 19.9981 14.5992 19.4843C15.6806 19.1246 16.5467 18.3039 16.964 17.2435L18.6726 12.9014C18.7552 12.6914 18.8123 12.4722 18.8427 12.2485C19.107 10.3014 17.3476 8.68822 15.4306 9.12017L11.5327 9.99848L12.6926 5.49935C12.921 4.61335 12.2519 3.74998 11.337 3.75Z" fill="black"/>
</svg>
