<svg width="24" height="24" viewBox="0 0 24 24" fill="none" xmlns="http://www.w3.org/2000/svg">
<path fill-rule="evenodd" clip-rule="evenodd" d="M6.67001 4.75C6.67001 4.33579 7.0058 4 7.42001 4H10.2484C10.6627 4 10.9984 4.33579 10.9984 4.75C10.9984 5.16421 10.6627 5.5 10.2484 5.5H9.23067L11.829 8.09835C11.9267 8.19598 12.0849 8.19598 12.1826 8.09835L16.0613 4.21967C16.3541 3.92678 16.829 3.92678 17.1219 4.21967C17.4148 4.51256 17.4148 4.98744 17.1219 5.28033L13.2432 9.15901C12.5598 9.84243 11.4518 9.84243 10.7684 9.15901L8.17001 6.56066V7.57843C8.17001 7.99264 7.83423 8.32843 7.42001 8.32843C7.0058 8.32843 6.67001 7.99264 6.67001 7.57843V4.75Z" fill="black"/>
<path d="M18.4158 12.6506C14.1093 11.0543 9.35152 11.119 5.08161 12.8447L4.38696 13.1112C2.79771 13.7207 1.87743 15.3853 2.20636 17.0554L2.51439 18.6193C2.61454 19.1278 3.08658 19.4755 3.6019 19.4204L7.44972 19.0089C8.01489 18.9484 8.41609 18.4296 8.33249 17.8674L8.1023 16.3196C10.6268 15.4629 13.3718 15.4629 15.8963 16.3196L15.6661 17.8674C15.5825 18.4296 15.9837 18.9484 16.5489 19.0088L20.3968 19.4204C20.9121 19.4755 21.384 19.128 21.4843 18.6196L21.7948 17.0452C22.1262 15.3651 21.1932 13.6919 19.5897 13.0907L18.4175 12.6512L18.4158 12.6506Z" fill="black"/>
</svg>
