<svg width="24" height="24" viewBox="0 0 24 24" fill="none" xmlns="http://www.w3.org/2000/svg">
<path d="M5.0002 9.86053C6.9166 14.0344 10.3266 17.3529 14.5661 19.1519L15.2457 19.4547C16.8006 20.1475 18.6283 19.6212 19.5766 18.2077L20.4647 16.884C20.7535 16.4536 20.6656 15.8739 20.2622 15.5485L17.2503 13.1187C16.808 12.7618 16.1575 12.845 15.819 13.3016L14.8873 14.5589C12.4965 13.3795 10.5554 11.4385 9.3761 9.04768L10.6333 8.11596C11.09 7.77754 11.1731 7.12702 10.8162 6.68464L8.38638 3.6727C8.06103 3.26942 7.48153 3.18145 7.05116 3.47002L5.71832 4.36372C4.29598 5.31742 3.7726 7.16027 4.48133 8.71922L4.99942 9.85884L5.0002 9.86053Z" fill="black"/>
</svg>
