<svg width="24" height="24" viewBox="0 0 24 24" fill="none" xmlns="http://www.w3.org/2000/svg">
<path fill-rule="evenodd" clip-rule="evenodd" d="M19.4696 4.03038C19.6103 4.17103 19.6893 4.3618 19.6893 4.56071V8.38913C19.6893 8.80335 19.3535 9.13913 18.9393 9.13913C18.5251 9.13913 18.1893 8.80335 18.1893 8.38913V6.37137L15.0303 9.53038C14.7374 9.82327 14.2625 9.82327 13.9696 9.53038C13.6768 9.23748 13.6768 8.76261 13.9696 8.46972L17.1287 5.31071L15.1109 5.31071C14.6967 5.31071 14.3609 4.97492 14.3609 4.56071C14.3609 4.14649 14.6967 3.81071 15.1109 3.81071L18.9393 3.81071C19.1382 3.81071 19.329 3.88973 19.4696 4.03038Z" fill="black"/>
<path d="M5.00017 9.86053C6.91657 14.0344 10.3266 17.3529 14.5661 19.1519L15.2457 19.4547C16.8005 20.1475 18.6283 19.6212 19.5766 18.2077L20.4647 16.884C20.7534 16.4536 20.6655 15.8739 20.2622 15.5485L17.2503 13.1187C16.8079 12.7618 16.1574 12.845 15.819 13.3016L14.8873 14.5589C12.4965 13.3795 10.5554 11.4385 9.37607 9.04768L10.6333 8.11596C11.09 7.77754 11.1731 7.12702 10.8162 6.68464L8.38635 3.6727C8.061 3.26942 7.4815 3.18145 7.05113 3.47002L5.71829 4.36372C4.29595 5.31742 3.77257 7.16027 4.4813 8.71922L4.99939 9.85884L5.00017 9.86053Z" fill="black"/>
</svg>
