<svg width="24" height="24" viewBox="0 0 24 24" fill="none" xmlns="http://www.w3.org/2000/svg">
<path d="M21.2428 12.4371C21.4016 12.3489 21.5 12.1816 21.5 12C21.5 11.8184 21.4016 11.6511 21.2428 11.5629L18.9605 10.295C14.464 7.79689 9.72391 5.76488 4.81421 4.2306L4.14914 4.02276C3.99732 3.97532 3.83198 4.00294 3.70383 4.09716C3.57568 4.19138 3.5 4.34094 3.5 4.5V10.25C3.5 10.5159 3.70816 10.7353 3.97372 10.7493L4.98336 10.8025C7.44497 10.932 9.89156 11.2659 12.2979 11.8006L12.5362 11.8536C12.5892 11.8654 12.6122 11.887 12.625 11.9042C12.6411 11.926 12.6536 11.9594 12.6536 12C12.6536 12.0406 12.6411 12.0741 12.625 12.0958C12.6122 12.113 12.5892 12.1347 12.5362 12.1464L12.2979 12.1994C9.89157 12.7341 7.44496 13.068 4.98334 13.1976L3.97372 13.2507C3.70816 13.2647 3.5 13.4841 3.5 13.75V19.5C3.5 19.6591 3.57568 19.8086 3.70383 19.9029C3.83198 19.9971 3.99732 20.0247 4.14914 19.9772L4.81422 19.7694C9.72391 18.2351 14.464 16.2031 18.9605 13.705L21.2428 12.4371Z" fill="black"/>
</svg>
