<svg width="24" height="24" viewBox="0 0 24 24" fill="none" xmlns="http://www.w3.org/2000/svg">
<path d="M6.25 7.5C6.25 5.42893 7.92893 3.75 10 3.75C12.0711 3.75 13.75 5.42893 13.75 7.5C13.75 9.57107 12.0711 11.25 10 11.25C7.92893 11.25 6.25 9.57107 6.25 7.5Z" fill="black"/>
<path d="M2.25 17C2.25 14.9289 3.92893 13.25 6 13.25H6.34087C6.52536 13.25 6.70869 13.2792 6.88407 13.3364L7.74959 13.6191C8.71109 13.933 9.72187 14.0405 10.7171 13.9416C10.8773 13.9257 11.0004 14.0921 10.9397 14.2412C10.6562 14.9384 10.5 15.701 10.5 16.5C10.5 17.7522 10.8836 18.9148 11.5397 19.8768C11.6313 20.0111 11.5433 20.1997 11.3808 20.2053C8.76099 20.2955 6.1345 20.1288 3.53927 19.7051C2.79588 19.5837 2.25 18.9415 2.25 18.1883V17Z" fill="black"/>
<path fill-rule="evenodd" clip-rule="evenodd" d="M12 16.5C12 17.4719 12.3081 18.3718 12.8319 19.1074C13.1238 19.5173 13.4827 19.8762 13.8926 20.1681C14.6282 20.6919 15.5281 21 16.5 21C18.9853 21 21 18.9853 21 16.5C21 15.5281 20.6919 14.6282 20.1681 13.8926C19.8762 13.4827 19.5173 13.1238 19.1074 12.8319C18.3718 12.3081 17.4719 12 16.5 12C14.0147 12 12 14.0147 12 16.5ZM16.5 19.5C15.9436 19.5 15.4227 19.3486 14.976 19.0846L19.0846 14.976C19.3486 15.4227 19.5 15.9436 19.5 16.5C19.5 18.1569 18.1569 19.5 16.5 19.5ZM13.9154 18.024L18.024 13.9154C17.5773 13.6514 17.0564 13.5 16.5 13.5C14.8431 13.5 13.5 14.8431 13.5 16.5C13.5 17.0564 13.6514 17.5773 13.9154 18.024Z" fill="black"/>
</svg>
