<svg width="24" height="24" viewBox="0 0 24 24" fill="none" xmlns="http://www.w3.org/2000/svg">
<path d="M10 3.75C7.92893 3.75 6.25 5.42893 6.25 7.5C6.25 9.57107 7.92893 11.25 10 11.25C12.0711 11.25 13.75 9.57107 13.75 7.5C13.75 5.42893 12.0711 3.75 10 3.75Z" fill="black"/>
<path d="M6 13.25C3.92893 13.25 2.25 14.9289 2.25 17V18.1883C2.25 18.9415 2.79588 19.5837 3.53927 19.7051C5.75 20.0661 7.98342 20.2405 10.2161 20.2285C10.3722 20.2276 10.4666 20.055 10.3902 19.9188C9.82327 18.9078 9.5 17.7416 9.5 16.5C9.5 15.7129 9.6299 14.9562 9.86944 14.25C9.91446 14.1173 9.81816 13.9762 9.67817 13.97C9.02633 13.9411 8.37745 13.8241 7.74959 13.6191L6.88407 13.3364C6.70869 13.2792 6.52536 13.25 6.34087 13.25H6Z" fill="black"/>
<path d="M17.25 15C17.25 14.5858 16.9142 14.25 16.5 14.25C16.0858 14.25 15.75 14.5858 15.75 15V16.7727C15.75 17.0127 15.8648 17.2381 16.0589 17.3793L17.0589 18.1066C17.3939 18.3502 17.8629 18.2761 18.1066 17.9411C18.3502 17.6061 18.2761 17.1371 17.9411 16.8934L17.25 16.3908V15Z" fill="black"/>
<path fill-rule="evenodd" clip-rule="evenodd" d="M16.5 22C19.5376 22 22 19.5376 22 16.5C22 13.4624 19.5376 11 16.5 11C13.4624 11 11 13.4624 11 16.5C11 19.5376 13.4624 22 16.5 22ZM16.5 20.5C18.7091 20.5 20.5 18.7091 20.5 16.5C20.5 14.2909 18.7091 12.5 16.5 12.5C14.2909 12.5 12.5 14.2909 12.5 16.5C12.5 18.7091 14.2909 20.5 16.5 20.5Z" fill="black"/>
</svg>
