<svg width="24" height="24" viewBox="0 0 24 24" fill="none" xmlns="http://www.w3.org/2000/svg">
<path d="M11 3.75C8.92893 3.75 7.25 5.42893 7.25 7.5C7.25 9.57107 8.92893 11.25 11 11.25C13.0711 11.25 14.75 9.57107 14.75 7.5C14.75 5.42893 13.0711 3.75 11 3.75Z" fill="black"/>
<path d="M7 13.25C4.92893 13.25 3.25 14.9289 3.25 17V18.1883C3.25 18.9415 3.79588 19.5837 4.53927 19.7051C8.8181 20.4037 13.1819 20.4037 17.4607 19.7051C18.2041 19.5837 18.75 18.9415 18.75 18.1883V17C18.75 14.9289 17.0711 13.25 15 13.25H14.6591C14.4746 13.25 14.2913 13.2792 14.1159 13.3364L13.2504 13.6191C11.7881 14.0965 10.2119 14.0965 8.74959 13.6191L7.88407 13.3364C7.70869 13.2792 7.52536 13.25 7.34087 13.25H7Z" fill="black"/>
<path d="M19.5 6.25C19.9142 6.25 20.25 6.58579 20.25 7V8.75H22C22.4142 8.75 22.75 9.08579 22.75 9.5C22.75 9.91421 22.4142 10.25 22 10.25H20.25V12C20.25 12.4142 19.9142 12.75 19.5 12.75C19.0858 12.75 18.75 12.4142 18.75 12V10.25H17C16.5858 10.25 16.25 9.91421 16.25 9.5C16.25 9.08579 16.5858 8.75 17 8.75H18.75V7C18.75 6.58579 19.0858 6.25 19.5 6.25Z" fill="black"/>
</svg>
