<svg width="24" height="24" viewBox="0 0 24 24" fill="none" xmlns="http://www.w3.org/2000/svg">
<path d="M16.75 14.208V9.78988C16.75 9.18588 16.2857 8.68334 15.6836 8.63561C12.426 8.37737 9.15298 8.37737 5.89533 8.63561L5.7066 8.65057C5.26765 8.68537 4.90256 9.00205 4.80609 9.43168C4.42762 11.1172 4.42775 12.8662 4.80621 14.5516C4.90239 14.98 5.2657 15.2964 5.70349 15.3326L5.87777 15.347C9.14667 15.6169 12.4323 15.6169 15.7012 15.347C16.2939 15.298 16.75 14.8027 16.75 14.208Z" fill="black"/>
<path fill-rule="evenodd" clip-rule="evenodd" d="M22.25 14V10C22.25 9.0335 21.4665 8.25 20.5 8.25H19.85V8.18967C19.85 6.91863 18.8721 5.86153 17.6049 5.76273L16.3364 5.66382C12.7842 5.38684 9.2158 5.38684 5.66357 5.66382L4.31597 5.76889C3.10632 5.86321 2.11644 6.76935 1.91583 7.96597C1.46809 10.6367 1.46809 13.3633 1.91583 16.034C2.11644 17.2306 3.10632 18.1368 4.31597 18.2311L5.66357 18.3362C9.2158 18.6132 12.7842 18.6132 16.3364 18.3362L17.6049 18.2373C18.8721 18.1385 19.85 17.0814 19.85 15.8103V15.75H20.5C21.4665 15.75 22.25 14.9665 22.25 14ZM20.75 10V14C20.75 14.1381 20.6381 14.25 20.5 14.25L19.1 14.25C18.6858 14.25 18.35 14.5858 18.35 15V15.8103C18.35 16.2982 17.9747 16.7039 17.4883 16.7418L16.2198 16.8407C12.7452 17.1116 9.25479 17.1116 5.78018 16.8407L4.43257 16.7356C3.90974 16.6949 3.48189 16.3032 3.39518 15.786C2.97497 13.2795 2.97497 10.7205 3.39518 8.21398C3.48189 7.69677 3.90974 7.30512 4.43257 7.26435L5.78018 7.15928C9.25478 6.88835 12.7452 6.88835 16.2198 7.15928L17.4883 7.25819C17.9747 7.29611 18.35 7.70183 18.35 8.18967V9C18.35 9.41421 18.6858 9.75 19.1 9.75H20.5C20.6381 9.75 20.75 9.86193 20.75 10Z" fill="black"/>
</svg>
