<svg width="24" height="24" viewBox="0 0 24 24" fill="none" xmlns="http://www.w3.org/2000/svg">
<path fill-rule="evenodd" clip-rule="evenodd" d="M1.62291 12.3414L3.89619 5.90526C3.9075 5.87326 3.92096 5.84205 3.93649 5.81187C4.31617 5.07405 4.99793 4.50855 5.72519 4.13225C6.45804 3.75306 7.30894 3.52777 8.11111 3.52777C9.25937 3.52777 10.4009 3.98861 11.2581 4.71956C11.533 4.95392 11.7847 5.22175 12 5.51778C12.2153 5.22175 12.467 4.95392 12.7419 4.71956C13.5991 3.98861 14.7406 3.52777 15.8889 3.52777C16.6911 3.52777 17.542 3.75306 18.2748 4.13225C19.0021 4.50855 19.6838 5.07405 20.0635 5.81187C20.079 5.84205 20.0925 5.87326 20.1038 5.90526L22.3771 12.3414C22.6176 12.9398 22.75 13.5933 22.75 14.2778C22.75 17.1466 20.4244 19.4722 17.5556 19.4722C14.9414 19.4722 12.7783 17.5412 12.4149 15.0278H11.5851C11.2217 17.5412 9.05856 19.4722 6.44444 19.4722C3.57645 19.4722 1.25132 17.1479 1.25 14.2802M4.18176 9.6007L5.29183 6.45786C5.49314 6.09472 5.8859 5.73799 6.41451 5.46448C6.95711 5.18373 7.57325 5.02777 8.11111 5.02777C8.87198 5.02777 9.67485 5.34076 10.2848 5.86092C10.8935 6.37996 11.25 7.04959 11.25 7.73456V12.3021C10.4726 10.4132 8.61382 9.08331 6.44444 9.08331C5.63337 9.08331 4.86572 9.2692 4.18176 9.6007ZM10.0638 13.5332C10.113 13.7737 10.1389 14.0227 10.1389 14.2778C10.1389 16.3182 8.48483 17.9722 6.44444 17.9722C4.40406 17.9722 2.75 16.3181 2.75 14.2778C2.75 12.7534 3.67326 11.4446 4.99112 10.8801C5.01851 10.8684 5.04607 10.857 5.07379 10.8459C5.49773 10.6765 5.9603 10.5833 6.44444 10.5833C7.71962 10.5833 8.84391 11.2294 9.50784 12.212C9.77346 12.6052 9.96539 13.0522 10.0638 13.5332ZM12.75 12.3022C12.9444 11.8299 13.2063 11.3926 13.5238 11.0023C14.4762 9.83137 15.9285 9.08333 17.5556 9.08333C17.5782 9.08333 17.6007 9.08347 17.6233 9.08376C18.1063 9.08993 18.5733 9.162 19.0157 9.29137C19.2936 9.3726 19.5618 9.47641 19.8182 9.6007L18.7082 6.45786C18.5069 6.09472 18.1141 5.73799 17.5855 5.46448C17.0429 5.18373 16.4268 5.02777 15.8889 5.02777C15.128 5.02777 14.3251 5.34076 13.7152 5.86092C13.1065 6.37996 12.75 7.04959 12.75 7.73456V12.3022ZM13.8611 14.2778C13.8611 14.2778 13.8611 14.2778 13.8611 14.2778C13.8611 16.3181 15.5152 17.9722 17.5556 17.9722C19.5952 17.9722 21.2488 16.3193 21.25 14.28C21.25 14.2792 21.25 14.2785 21.25 14.2778C21.25 14.2471 21.2496 14.2165 21.2489 14.1859C21.248 14.1491 21.2466 14.1124 21.2446 14.0758C21.1662 12.62 20.2449 11.3882 18.9602 10.8597C18.527 10.6815 18.0527 10.5833 17.5556 10.5833C16.2803 10.5833 15.156 11.2294 14.4921 12.2122C14.0937 12.8018 13.8611 13.5126 13.8611 14.2778Z" fill="black"/>
<path d="M1.62291 12.3414C1.38237 12.9398 1.25 13.5933 1.25 14.2778C1.25 14.2778 1.25 14.2778 1.25 14.2778" fill="black"/>
</svg>
