<svg width="24" height="24" viewBox="0 0 24 24" fill="none" xmlns="http://www.w3.org/2000/svg">
<path d="M8 7.25C8.41421 7.25 8.75 7.58579 8.75 8V9.25H10C10.4142 9.25 10.75 9.58579 10.75 10C10.75 10.4142 10.4142 10.75 10 10.75H8.75V12C8.75 12.4142 8.41421 12.75 8 12.75C7.58579 12.75 7.25 12.4142 7.25 12V10.75H6C5.58579 10.75 5.25 10.4142 5.25 10C5.25 9.58579 5.58579 9.25 6 9.25H7.25V8C7.25 7.58579 7.58579 7.25 8 7.25Z" fill="black"/>
<path d="M17 11.75C17 11.1977 16.5523 10.75 16 10.75C15.4477 10.75 15 11.1977 15 11.75V12C15 12.5523 15.4477 13 16 13C16.5523 13 17 12.5523 17 12V11.75Z" fill="black"/>
<path d="M16 7C16.5523 7 17 7.44772 17 8V8.25C17 8.80228 16.5523 9.25 16 9.25C15.4477 9.25 15 8.80228 15 8.25V8C15 7.44772 15.4477 7 16 7Z" fill="black"/>
<path d="M19 10C19 10.5523 18.5523 11 18 11H17.75C17.1977 11 16.75 10.5523 16.75 10C16.75 9.44771 17.1977 9 17.75 9H18C18.5523 9 19 9.44772 19 10Z" fill="black"/>
<path d="M14.25 11C14.8023 11 15.25 10.5523 15.25 10C15.25 9.44772 14.8023 9 14.25 9H14C13.4477 9 13 9.44771 13 10C13 10.5523 13.4477 11 14 11H14.25Z" fill="black"/>
<path fill-rule="evenodd" clip-rule="evenodd" d="M12.75 3C12.75 2.58579 12.4142 2.25 12 2.25C11.5858 2.25 11.25 2.58579 11.25 3V4.48688C9.8109 4.50654 8.37237 4.58282 6.93777 4.71571L6.60617 4.74642C4.21447 4.96797 2.37279 6.95407 2.33209 9.35566L2.31999 10.0691C2.27269 12.8602 2.49767 15.6492 2.99174 18.3967C3.2367 19.7588 4.42204 20.75 5.80605 20.75H6.0271C7.26245 20.75 8.38177 20.022 8.88263 18.8927L9.94323 16.5014C10.7343 14.7177 13.2657 14.7177 14.0568 16.5014L15.1174 18.8927C15.6182 20.022 16.7376 20.75 17.9729 20.75H18.194C19.578 20.75 20.7633 19.7588 21.0083 18.3967C21.5023 15.6492 21.7273 12.8602 21.68 10.0691L21.6679 9.35566C21.6272 6.95406 19.7855 4.96797 17.3938 4.74643L17.0622 4.71571C15.6276 4.58282 14.1891 4.50654 12.75 4.48688V3ZM7.07613 6.20931C10.3517 5.9059 13.6483 5.9059 16.9239 6.20931L17.2555 6.24003C18.8853 6.39101 20.1404 7.74447 20.1681 9.38108L20.1802 10.0945C20.2259 12.7881 20.0088 15.4797 19.5319 18.1312C19.4155 18.7788 18.8519 19.25 18.194 19.25H17.9729C17.3308 19.25 16.7489 18.8716 16.4886 18.2846L15.428 15.8933C14.1094 12.9205 9.89056 12.9205 8.57204 15.8933L7.51144 18.2846C7.25109 18.8716 6.66925 19.25 6.0271 19.25H5.80605C5.14806 19.25 4.58452 18.7788 4.46806 18.1312C3.99125 15.4797 3.77413 12.7881 3.81978 10.0945L3.83187 9.38108C3.85961 7.74447 5.11466 6.39101 6.74453 6.24003L7.07613 6.20931Z" fill="black"/>
</svg>
