<svg width="24" height="24" viewBox="0 0 24 24" fill="none" xmlns="http://www.w3.org/2000/svg">
<path d="M17.75 11C17.0596 11 16.5 11.5596 16.5 12.25C16.5 12.9404 17.0596 13.5 17.75 13.5C18.4404 13.5 19 12.9404 19 12.25C19 11.5596 18.4404 11 17.75 11Z" fill="black"/>
<path fill-rule="evenodd" clip-rule="evenodd" d="M4.17314 8.11532L6.25 7.88449V3.91302C6.25 3.26973 6.74006 2.73236 7.38062 2.67323C10.4537 2.38956 13.5463 2.38956 16.6194 2.67323C17.2599 2.73236 17.75 3.26973 17.75 3.91302V7.88448L19.8269 8.11532C20.5932 8.2005 21.2254 8.75392 21.4112 9.50223C21.977 11.7811 21.977 14.1637 21.4112 16.4425L21.2279 17.1807C21.1449 17.5152 20.8446 17.75 20.5 17.75H17.75V20.083C17.75 20.705 17.2786 21.2259 16.6597 21.2878C13.561 21.5977 10.439 21.5977 7.34031 21.2878C6.72135 21.2259 6.25 20.705 6.25 20.083V17.75H3.50003C3.15542 17.75 2.85516 17.5152 2.77213 17.1807L2.58884 16.4425C2.02304 14.1637 2.02304 11.7811 2.58884 9.50223C2.77464 8.75392 3.40682 8.2005 4.17314 8.11532ZM16.25 7.73957C13.4214 7.50763 10.5786 7.50763 7.75 7.73958V4.14607C10.5779 3.89862 13.4221 3.89862 16.25 4.14607V7.73957ZM16.25 16.5016C16.2482 16.3437 16.147 16.2077 16.0033 16.157C13.3397 15.9208 10.6604 15.9208 7.99674 16.1569C7.85177 16.2082 7.75003 16.3462 7.75003 16.506V17L7.75 17.0063V19.8205C10.5771 20.0867 13.4229 20.0867 16.25 19.8205V16.5016ZM19.9135 16.25H17.75V15.917C17.75 15.295 17.2786 14.7741 16.6597 14.7122C16.5243 14.6987 16.3888 14.6857 16.2533 14.6734C16.1965 14.6619 16.1388 14.6529 16.0801 14.6466C13.3679 14.3544 10.6321 14.3544 7.91992 14.6466C7.86129 14.6529 7.80354 14.6619 7.74678 14.6734C7.61125 14.6857 7.47576 14.6987 7.34031 14.7122C6.72135 14.7741 6.25 15.295 6.25 15.917V16.25H4.08658L4.04464 16.0811C3.53777 14.0396 3.53777 11.9052 4.04464 9.86369C4.07914 9.72473 4.19654 9.62196 4.33884 9.60614L6.42116 9.3747C10.129 8.96258 13.8711 8.96258 17.5789 9.3747L19.6612 9.60614C19.8035 9.62196 19.9209 9.72473 19.9554 9.86369C20.4623 11.9052 20.4623 14.0396 19.9554 16.0811L19.9135 16.25Z" fill="black"/>
</svg>
