<svg width="24" height="24" viewBox="0 0 24 24" fill="none" xmlns="http://www.w3.org/2000/svg">
<path fill-rule="evenodd" clip-rule="evenodd" d="M13.8083 8.44743C12.6158 8.31416 11.3841 8.31416 10.1917 8.44743C9.29371 8.5478 8.56598 9.2546 8.45965 10.1637C8.31696 11.3838 8.31696 12.6163 8.45965 13.8363C8.56598 14.7454 9.29371 15.4522 10.1917 15.5526C11.3841 15.6858 12.6158 15.6858 13.8083 15.5526C14.7063 15.4522 15.434 14.7454 15.5403 13.8363C15.683 12.6163 15.683 11.3838 15.5403 10.1637C15.434 9.2546 14.7063 8.5478 13.8083 8.44743ZM10.3583 9.93815C11.44 9.81726 12.56 9.81726 13.6417 9.93815C13.8577 9.9623 14.0266 10.1337 14.0505 10.338C14.1796 11.4422 14.1796 12.5578 14.0505 13.662C14.0266 13.8663 13.8577 14.0377 13.6417 14.0619C12.56 14.1827 11.44 14.1827 10.3583 14.0619C10.1423 14.0377 9.97339 13.8663 9.94949 13.662C9.82034 12.5578 9.82034 11.4422 9.94949 10.338C9.97339 10.1337 10.1423 9.9623 10.3583 9.93815Z" fill="black"/>
<path fill-rule="evenodd" clip-rule="evenodd" d="M15.75 3C15.75 2.58579 15.4142 2.25 15 2.25C14.5858 2.25 14.25 2.58579 14.25 3V5.52362C13.7517 5.48862 13.2512 5.4653 12.75 5.45366V4C12.75 3.58579 12.4142 3.25 12 3.25C11.5858 3.25 11.25 3.58579 11.25 4V5.45366C10.7488 5.4653 10.2483 5.48862 9.75 5.52362V3C9.75 2.58579 9.41421 2.25 9 2.25C8.58579 2.25 8.25 2.58579 8.25 3V5.67203C6.95006 5.9088 5.9125 6.93591 5.68791 8.25H3C2.58579 8.25 2.25 8.58579 2.25 9C2.25 9.41421 2.58579 9.75 3 9.75H5.5374C5.50089 10.2495 5.47655 10.7496 5.46439 11.25H4C3.58579 11.25 3.25 11.5858 3.25 12C3.25 12.4142 3.58579 12.75 4 12.75H5.46439C5.47655 13.2504 5.50089 13.7505 5.5374 14.25H3C2.58579 14.25 2.25 14.5858 2.25 15C2.25 15.4142 2.58579 15.75 3 15.75H5.68791C5.91251 17.0641 6.95006 18.0912 8.25 18.328V21C8.25 21.4142 8.58579 21.75 9 21.75C9.41421 21.75 9.75 21.4142 9.75 21V18.4764C10.2483 18.5114 10.7488 18.5347 11.25 18.5463V20C11.25 20.4142 11.5858 20.75 12 20.75C12.4142 20.75 12.75 20.4142 12.75 20V18.5463C13.2512 18.5347 13.7517 18.5114 14.25 18.4764V21C14.25 21.4142 14.5858 21.75 15 21.75C15.4142 21.75 15.75 21.4142 15.75 21V18.328C17.0499 18.0912 18.0875 17.0641 18.3121 15.75H21C21.4142 15.75 21.75 15.4142 21.75 15C21.75 14.5858 21.4142 14.25 21 14.25H18.4626C18.4991 13.7505 18.5235 13.2504 18.5356 12.75H20C20.4142 12.75 20.75 12.4142 20.75 12C20.75 11.5858 20.4142 11.25 20 11.25H18.5356C18.5235 10.7496 18.4991 10.2495 18.4626 9.75H21C21.4142 9.75 21.75 9.41421 21.75 9C21.75 8.58579 21.4142 8.25 21 8.25H18.3121C18.0875 6.93591 17.0499 5.90879 15.75 5.67203V3ZM8.63335 7.13094C10.8521 6.88296 13.1479 6.88296 15.3667 7.13094C16.1397 7.21734 16.7569 7.82785 16.8459 8.58883C17.111 10.8552 17.111 13.1448 16.8459 15.4112C16.7569 16.1721 16.1397 16.7827 15.3667 16.8691C13.1479 17.117 10.8521 17.117 8.63335 16.8691C7.86027 16.7827 7.24309 16.1721 7.15408 15.4112C6.88901 13.1448 6.88901 10.8552 7.15408 8.58883C7.24309 7.82785 7.86027 7.21734 8.63335 7.13094Z" fill="black"/>
</svg>
