<svg width="24" height="24" viewBox="0 0 24 24" fill="none" xmlns="http://www.w3.org/2000/svg">
<path fill-rule="evenodd" clip-rule="evenodd" d="M6.01992 6.48008C5.72703 6.18718 5.72703 5.71231 6.01992 5.41942C6.31281 5.12652 6.78769 5.12652 7.08058 5.41942L11.75 10.0888L11.75 2.60355C11.75 1.71265 12.8271 1.26648 13.4571 1.89645L17.8033 6.24264C18.1938 6.63316 18.1938 7.26633 17.8033 7.65685L13.5104 11.9497L17.8033 16.2426C18.1938 16.6332 18.1938 17.2663 17.8033 17.6569L13.4571 22.003C12.8271 22.633 11.75 22.1868 11.75 21.2959V13.8107L7.08058 18.4801C6.78769 18.773 6.31281 18.773 6.01992 18.4801C5.72703 18.1872 5.72703 17.7123 6.01992 17.4194L11.4896 11.9497L6.01992 6.48008ZM13.25 3.81066V10.0888L16.3891 6.94975L13.25 3.81066ZM16.3891 16.9497L13.25 13.8107L13.25 20.0888L16.3891 16.9497Z" fill="black"/>
</svg>
