<svg width="24" height="24" viewBox="0 0 24 24" fill="none" xmlns="http://www.w3.org/2000/svg">
<path d="M12 18.25C11.5858 18.25 11.25 18.5858 11.25 19C11.25 19.4142 11.5858 19.75 12 19.75H18C18.9665 19.75 19.75 18.9665 19.75 18V6C19.75 5.0335 18.9665 4.25 18 4.25H12C11.5858 4.25 11.25 4.58579 11.25 5C11.25 5.41421 11.5858 5.75 12 5.75L18 5.75C18.1381 5.75 18.25 5.86193 18.25 6L18.25 18C18.25 18.1381 18.1381 18.25 18 18.25H12Z" fill="black"/>
<path fill-rule="evenodd" clip-rule="evenodd" d="M3.25 13.1152C3.25 13.8056 3.80964 14.3652 4.5 14.3652H9.1126C9.11912 14.4386 9.12595 14.512 9.13308 14.5854L9.18711 15.1413C9.26954 15.9894 10.1701 16.4973 10.9386 16.1291C12.5728 15.3459 14.1514 14.1706 15.4049 12.8618C15.8691 12.3771 15.8691 11.6128 15.4049 11.1281L15.3057 11.0245C14.0522 9.71578 12.5728 8.64403 10.9386 7.86084C10.1701 7.49258 9.26954 8.00049 9.18711 8.8486L9.13308 9.40448C9.12595 9.47787 9.11912 9.55128 9.1126 9.6247L4.5 9.6247C3.80964 9.6247 3.25 10.1843 3.25 10.8747V13.1152ZM10.5532 13.5307C10.5107 13.1537 10.1913 12.8652 9.80797 12.8652H4.75L4.75 11.1247H9.80797C10.2041 11.1247 10.5319 10.8167 10.5565 10.4214C10.5747 10.1305 10.5978 9.83987 10.626 9.54959L10.6417 9.38824C11.9466 10.0607 13.1342 10.9409 14.1577 11.995C13.7303 12.4351 13.2744 12.8448 12.7932 13.2219C12.122 13.7478 11.4018 14.21 10.6417 14.6017L10.626 14.4403C10.5978 14.15 10.5747 13.8594 10.5565 13.5685C10.5557 13.5558 10.5546 13.5432 10.5532 13.5307Z" fill="black"/>
</svg>
