<svg width="24" height="24" viewBox="0 0 24 24" fill="none" xmlns="http://www.w3.org/2000/svg">
<path d="M6.54544 8.16273C6.33022 8.10595 6.15134 7.95651 6.05718 7.75482C5.96302 7.55313 5.96331 7.32004 6.05797 7.11859L7.71872 3.5842C7.84248 3.32081 8.10743 3.15279 8.39845 3.15315C8.68946 3.15351 8.95399 3.32219 9.0771 3.58588L9.80973 5.15511C9.83592 5.14482 9.86297 5.13589 9.8908 5.12843C14.2381 3.96357 18.7067 6.54347 19.8715 10.8908C21.0364 15.2382 18.4565 19.7067 14.1092 20.8716C9.76181 22.0364 5.29328 19.4565 4.12841 15.1092C3.75798 13.7267 3.76632 12.3299 4.09075 11.0311C4.19114 10.6293 4.5983 10.3849 5.00016 10.4853C5.40203 10.5856 5.64642 10.9928 5.54603 11.3947C5.28174 12.4527 5.27445 13.5907 5.5773 14.721C6.52775 18.2681 10.1738 20.3731 13.7209 19.4227C17.2681 18.4722 19.3731 14.8262 18.4227 11.2791C17.4877 7.7899 13.9447 5.69609 10.4531 6.53314L11.1923 8.11644C11.3154 8.38013 11.2748 8.69124 11.0883 8.91457C10.9017 9.1379 10.6028 9.23314 10.3214 9.15891L6.54544 8.16273Z" fill="black"/>
</svg>
