<svg width="24" height="24" viewBox="0 0 24 24" fill="none" xmlns="http://www.w3.org/2000/svg">
<path fill-rule="evenodd" clip-rule="evenodd" d="M3.48911 6.2367C3.65493 4.81893 4.85617 3.75 6.28361 3.75H17.0263C17.2084 3.75 17.3843 3.81626 17.5211 3.93641L20.2816 6.3602C20.9022 6.90511 21.245 7.70008 21.2154 8.52543L20.8714 18.0988C20.8182 19.5781 19.6035 20.75 18.1232 20.75H6.11291C4.78329 20.75 3.66076 19.762 3.49191 18.4432C2.99542 14.565 2.97403 10.6407 3.42822 6.75728L3.48911 6.2367ZM6.28361 5.25C5.61719 5.25 5.05637 5.74905 4.97895 6.41096L4.91807 6.93153C4.47805 10.6937 4.49877 14.4955 4.97977 18.2527C5.05277 18.8229 5.53807 19.25 6.11291 19.25H6.75V15C6.75 14.0335 7.5335 13.25 8.5 13.25H15.5C16.4665 13.25 17.25 14.0335 17.25 15V19.25H18.1232C18.7961 19.25 19.3482 18.7173 19.3724 18.0449L19.7164 8.47157C19.7298 8.09641 19.574 7.73505 19.2919 7.48737L16.75 5.2555V7.59998C16.75 8.56647 15.9665 9.34998 15 9.34998H9C8.0335 9.34998 7.25 8.56647 7.25 7.59998V5.25H6.28361ZM8.75 5.25V7.59998C8.75 7.73805 8.86193 7.84998 9 7.84998H15C15.1381 7.84998 15.25 7.73805 15.25 7.59998V5.25H8.75ZM15.75 19.25H8.25V15C8.25 14.8619 8.36193 14.75 8.5 14.75H15.5C15.6381 14.75 15.75 14.8619 15.75 15V19.25Z" fill="black"/>
</svg>
