<svg width="24" height="24" viewBox="0 0 24 24" fill="none" xmlns="http://www.w3.org/2000/svg">
<path d="M10.2 6.95001C10.6142 6.95001 10.95 7.2858 10.95 7.70001V9.45001H12.7C13.1142 9.45001 13.45 9.7858 13.45 10.2C13.45 10.6142 13.1142 10.95 12.7 10.95H10.95V12.7C10.95 13.1142 10.6142 13.45 10.2 13.45C9.7858 13.45 9.45001 13.1142 9.45001 12.7V10.95H7.70001C7.2858 10.95 6.95001 10.6142 6.95001 10.2C6.95001 9.7858 7.2858 9.45001 7.70001 9.45001H9.45001V7.70001C9.45001 7.2858 9.7858 6.95001 10.2 6.95001Z" fill="black"/>
<path fill-rule="evenodd" clip-rule="evenodd" d="M5.3986 14.9445C7.85538 17.4013 11.7348 17.5684 14.3851 15.4457L19.5407 20.6014C19.8336 20.8943 20.3085 20.8943 20.6014 20.6014C20.8943 20.3085 20.8943 19.8336 20.6014 19.5407L15.4457 14.3851C17.5684 11.7348 17.4013 7.85538 14.9445 5.3986C12.3085 2.76256 8.03464 2.76256 5.3986 5.3986C2.76256 8.03464 2.76256 12.3085 5.3986 14.9445ZM6.45926 6.45926C4.40901 8.50951 4.40901 11.8336 6.45926 13.8839C8.50801 15.9326 11.8288 15.9341 13.8794 13.8884L13.8839 13.8839L13.8884 13.8794C15.9341 11.8287 15.9326 8.50801 13.8839 6.45926C11.8336 4.40901 8.50951 4.40901 6.45926 6.45926Z" fill="black"/>
</svg>
