<svg width="24" height="24" viewBox="0 0 24 24" fill="none" xmlns="http://www.w3.org/2000/svg">
<path fill-rule="evenodd" clip-rule="evenodd" d="M11.4898 4.11084C8.68914 2.43042 5.26388 2.15596 2.23133 3.36898C1.78963 3.54566 1.5 3.97346 1.5 4.44918V16.1081C1.5 16.889 2.28876 17.423 3.01387 17.133C5.49721 16.1397 8.30215 16.3644 10.5956 17.7405L11.7309 18.4217C11.8175 18.4736 11.9101 18.4963 12 18.4947C12.0899 18.4963 12.1825 18.4736 12.2691 18.4217L13.4044 17.7405C15.6979 16.3644 18.5028 16.1397 20.9861 17.133C21.7112 17.423 22.5 16.889 22.5 16.1081V4.44918C22.5 3.97346 22.2104 3.54566 21.7687 3.36898C18.7361 2.15596 15.3109 2.43042 12.5102 4.11084L12 4.41694L11.4898 4.11084ZM12.75 6.50003C12.75 6.08582 12.4142 5.75003 12 5.75003C11.5858 5.75003 11.25 6.08582 11.25 6.50003V16C11.25 16.4142 11.5858 16.75 12 16.75C12.4142 16.75 12.75 16.4142 12.75 16V6.50003Z" fill="black"/>
<path d="M2.72484 19.0423C4.7487 17.8617 7.2513 17.8617 9.27516 19.0423L10.3624 19.6765C11.3743 20.2668 12.6257 20.2668 13.6376 19.6765L14.7248 19.0423C16.7487 17.8617 19.2513 17.8617 21.2752 19.0423L21.3779 19.1022C21.7357 19.3109 21.8565 19.7701 21.6478 20.1279C21.4391 20.4857 20.9799 20.6066 20.6221 20.3979L20.5194 20.3379C18.9625 19.4298 17.0375 19.4298 15.4806 20.3379L14.3934 20.9722C12.9144 21.8349 11.0856 21.8349 9.60661 20.9722L8.51935 20.3379C6.96254 19.4298 5.03746 19.4298 3.48065 20.3379L3.3779 20.3979C3.02011 20.6066 2.56088 20.4857 2.35217 20.1279C2.14346 19.7701 2.26431 19.3109 2.6221 19.1022L2.72484 19.0423Z" fill="black"/>
</svg>
