<svg width="24" height="24" viewBox="0 0 24 24" fill="none" xmlns="http://www.w3.org/2000/svg">
<path d="M9.37536 20.3998C9.5237 20.5323 9.74858 20.388 9.6929 20.197L7.17342 11.5589C7.12651 11.398 6.9843 11.2835 6.81719 11.2713C6.40945 11.2413 6.0019 11.2078 5.59459 11.1708L2.22417 10.8644C2.06681 10.8501 1.95605 11.0151 2.03055 11.1545C3.85362 14.5643 6.47882 17.8133 9.37536 20.3998Z" fill="black"/>
<path d="M11.8471 22.2259C11.8675 22.2956 11.9274 22.348 12 22.348C12.0726 22.348 12.1325 22.2956 12.1529 22.2259L15.2368 11.6525C15.2752 11.5208 15.1725 11.3903 15.0354 11.3962C13.0127 11.4831 10.9873 11.4831 8.96465 11.3962C8.82751 11.3903 8.72482 11.5208 8.76325 11.6525L11.8471 22.2259Z" fill="black"/>
<path d="M14.3071 20.197C14.2514 20.388 14.4763 20.5323 14.6246 20.3998C17.5212 17.8133 20.1464 14.5643 21.9694 11.1545C22.0439 11.0151 21.9332 10.8501 21.7758 10.8644L18.4054 11.1708C17.9981 11.2078 17.5906 11.2413 17.1828 11.2713C17.0157 11.2835 16.8735 11.398 16.8266 11.5589L14.3071 20.197Z" fill="black"/>
<path d="M21.801 9.35593C21.9534 9.34207 22.0344 9.16918 21.9475 9.0432L18.7097 4.34841C18.4297 3.94243 17.9681 3.70001 17.4749 3.70001H14.9853C14.8431 3.70001 14.7464 3.84409 14.8001 3.97566L17.0569 9.49903C17.1225 9.65958 17.2841 9.75968 17.4569 9.74602C17.7279 9.7246 17.9988 9.70158 18.2696 9.67696L21.801 9.35593Z" fill="black"/>
<path d="M13.1651 3.94617C13.103 3.79711 12.9573 3.70001 12.7958 3.70001H11.2042C11.0427 3.70001 10.8971 3.79711 10.8349 3.94617L8.47739 9.60429C8.42422 9.7319 8.51347 9.87367 8.65155 9.88036C10.8825 9.98836 13.1175 9.98836 15.3485 9.88035C15.4865 9.87367 15.5758 9.7319 15.5226 9.60429L13.1651 3.94617Z" fill="black"/>
<path d="M9.19988 3.97566C9.25364 3.84409 9.15687 3.70001 9.01474 3.70001H6.5251C6.03193 3.70001 5.57026 3.94243 5.29028 4.34841L2.05249 9.0432C1.96561 9.16918 2.04663 9.34207 2.19903 9.35593L5.73039 9.67696C6.00118 9.70158 6.27207 9.7246 6.54306 9.74602C6.71595 9.75968 6.87755 9.65958 6.94314 9.49903L9.19988 3.97566Z" fill="black"/>
</svg>
