<svg width="24" height="24" viewBox="0 0 24 24" fill="none" xmlns="http://www.w3.org/2000/svg">
<path fill-rule="evenodd" clip-rule="evenodd" d="M20.5303 4.53033C20.8232 4.23744 20.8232 3.76256 20.5303 3.46967C20.2374 3.17678 19.7626 3.17678 19.4697 3.46967L3.46967 19.4697C3.17678 19.7626 3.17678 20.2374 3.46967 20.5303C3.76256 20.8232 4.23744 20.8232 4.53033 20.5303L7.56535 17.4953C8.88317 18.1032 10.3919 18.5 12 18.5C14.6178 18.5 16.972 17.4486 18.6684 16.1466C19.5177 15.4948 20.2146 14.7709 20.7035 14.0663C21.1831 13.3752 21.5 12.6485 21.5 12C21.5 11.3515 21.1831 10.6248 20.7035 9.93368C20.2146 9.22913 19.5177 8.50519 18.6684 7.85335C18.3978 7.64567 18.1104 7.44437 17.808 7.25269L20.5303 4.53033ZM15.1287 9.93196L14.0307 11.0299C14.1713 11.3237 14.25 11.6526 14.25 12C14.25 13.2426 13.2426 14.25 12 14.25C11.6526 14.25 11.3237 14.1713 11.0299 14.0307L9.93196 15.1287C10.5248 15.5213 11.2357 15.75 12 15.75C14.0711 15.75 15.75 14.0711 15.75 12C15.75 11.2357 15.5213 10.5248 15.1287 9.93196Z" fill="black"/>
<path d="M12.6692 8.30953C12.753 8.32462 12.8395 8.2998 12.8997 8.2396L14.8493 6.29007C14.9816 6.15772 14.9267 5.93281 14.7464 5.88252C13.879 5.64055 12.9571 5.5 12 5.5C9.38223 5.5 7.02801 6.55139 5.33162 7.85335C4.48232 8.50519 3.78544 9.22913 3.29649 9.93368C2.81686 10.6248 2.5 11.3515 2.5 12C2.5 12.6485 2.81686 13.3752 3.29649 14.0663C3.7138 14.6676 4.28257 15.2831 4.96829 15.8558C5.06614 15.9375 5.20993 15.9294 5.30008 15.8393L8.2396 12.8997C8.2998 12.8395 8.32462 12.753 8.30953 12.6692C8.27042 12.452 8.25 12.2284 8.25 12C8.25 9.92893 9.92893 8.25 12 8.25C12.2284 8.25 12.452 8.27042 12.6692 8.30953Z" fill="black"/>
</svg>
