<svg width="24" height="24" viewBox="0 0 24 24" fill="none" xmlns="http://www.w3.org/2000/svg">
<path d="M4.5 9.76594C4.5 5.73718 7.87403 2.5 12 2.5C13.9252 2.5 15.6867 3.2048 17.0181 4.36596C17.1453 4.47694 17.1476 4.67177 17.0282 4.79116L6.919 14.9003C6.80505 15.0143 6.62083 15.0183 6.50742 14.9038C5.19414 13.578 4.5 11.754 4.5 9.76594Z" fill="black"/>
<path d="M4.00291 19.9364L3.96967 19.9697C3.67678 20.2626 3.67678 20.7374 3.96967 21.0303C4.26256 21.3232 4.73744 21.3232 5.03033 21.0303L9.15111 16.9095H16.0095C16.1512 16.9095 16.2735 16.8103 16.3035 16.6718C16.3641 16.3918 16.423 16.1308 16.4767 15.9028C16.5033 15.7902 16.5794 15.6756 16.7051 15.5831C18.5269 14.2437 19.5 12.1199 19.5 9.76594C19.5 8.81839 19.3134 7.91463 18.9742 7.08647L21.0303 5.03033C21.3232 4.73744 21.3232 4.26256 21.0303 3.96967C20.7464 3.68575 20.2915 3.67705 19.9971 3.94358L4.03033 19.9103C4.02136 19.9193 4.01222 19.928 4.00291 19.9364Z" fill="black"/>
<path d="M8.28101 18.4095C8.15644 18.4095 8.06223 18.5223 8.08341 18.645C8.1876 19.2491 8.26458 19.7924 8.28682 20.1599C8.34981 21.2011 9.11672 22.0588 10.1422 22.2803L10.3382 22.3227C11.4326 22.5591 12.5674 22.5591 13.6618 22.3227L13.8578 22.2803C14.8833 22.0588 15.6502 21.2011 15.7132 20.1599C15.7354 19.7924 15.8124 19.2491 15.9166 18.645C15.9378 18.5223 15.8436 18.4095 15.719 18.4095H8.28101Z" fill="black"/>
</svg>
