<svg width="24" height="24" viewBox="0 0 24 24" fill="none" xmlns="http://www.w3.org/2000/svg">
<path fill-rule="evenodd" clip-rule="evenodd" d="M5.30625 6.75816L5.6531 9.87978L5.177 9.92159C4.07641 10.0182 3.18565 10.8569 3.02299 11.9497C2.6726 14.3036 2.6726 16.6964 3.02299 19.0502C3.18565 20.143 4.07641 20.9817 5.177 21.0784L6.31144 21.178C7.53164 21.2851 8.75533 21.339 9.97905 21.3396C10.1541 21.3397 10.2451 21.1279 10.1327 20.9937C9.11359 19.7778 8.50002 18.2106 8.50002 16.5C8.50002 13.1205 10.8948 10.3004 14.0799 9.64412C14.256 9.60783 14.393 9.46552 14.4128 9.28682L14.6938 6.75815C14.7342 6.39418 14.7342 6.02684 14.6938 5.66286L14.671 5.45797C14.4295 3.28458 12.7209 1.56492 10.5491 1.30941C10.1843 1.26649 9.81572 1.26649 9.45089 1.30941C7.2791 1.56492 5.5705 3.28457 5.32901 5.45796L5.30625 5.66286C5.26581 6.02684 5.26581 6.39418 5.30625 6.75816ZM10.3739 2.79914C10.1255 2.76992 9.87454 2.76992 9.62615 2.79914C8.14753 2.97309 6.98425 4.1439 6.81984 5.62361L6.79707 5.82851C6.76886 6.08239 6.76886 6.33862 6.79707 6.59251L7.14867 9.75684C9.04739 9.62815 10.9526 9.62815 12.8514 9.75684L13.203 6.59251C13.2312 6.33862 13.2312 6.08239 13.203 5.82851L13.1802 5.62361C13.0158 4.1439 11.8525 2.97309 10.3739 2.79914Z" fill="black"/>
<path d="M16.25 15C16.25 14.5858 15.9142 14.25 15.5 14.25C15.0858 14.25 14.75 14.5858 14.75 15V16.7727C14.75 17.0127 14.8648 17.2381 15.0589 17.3793L16.0589 18.1065C16.3939 18.3502 16.8629 18.2761 17.1066 17.9411C17.3502 17.6061 17.2761 17.1371 16.9411 16.8934L16.25 16.3908V15Z" fill="black"/>
<path fill-rule="evenodd" clip-rule="evenodd" d="M15.5 22C18.5376 22 21 19.5375 21 16.5C21 13.4624 18.5376 11 15.5 11C12.4624 11 10 13.4624 10 16.5C10 19.5375 12.4624 22 15.5 22ZM15.5 20.5C17.7092 20.5 19.5 18.7091 19.5 16.5C19.5 14.2908 17.7092 12.5 15.5 12.5C13.2909 12.5 11.5 14.2908 11.5 16.5C11.5 18.7091 13.2909 20.5 15.5 20.5Z" fill="black"/>
</svg>
