<svg width="24" height="24" viewBox="0 0 24 24" fill="none" xmlns="http://www.w3.org/2000/svg">
<path d="M16.4321 4.07853C15.8067 3.45322 14.7476 3.65719 14.3992 4.47002L12.6399 8.57526C11.1944 8.14698 9.56519 8.50302 8.42358 9.64464L7.06704 11.0012C6.77414 11.2941 6.77414 11.7689 7.06704 12.0618L9.20881 14.2036L3.46961 19.9428C3.17672 20.2357 3.17672 20.7106 3.46961 21.0035C3.7625 21.2964 4.23738 21.2964 4.53027 21.0035L10.2695 15.2643L12.4113 17.4061C12.7042 17.699 13.1791 17.699 13.4719 17.4061L14.8285 16.0496C15.9701 14.9079 16.3262 13.2787 15.8979 11.8333L20.0031 10.0739C20.8159 9.72551 21.0199 8.66637 20.3946 8.04105L16.4321 4.07853Z" fill="black"/>
</svg>
