<svg width="24" height="24" viewBox="0 0 24 24" fill="none" xmlns="http://www.w3.org/2000/svg">
<path fill-rule="evenodd" clip-rule="evenodd" d="M6.25 5.5C6.25 3.70507 7.70507 2.25 9.5 2.25C10.5052 2.25 11.4038 2.70637 12 3.42322C12.5962 2.70637 13.4948 2.25 14.5 2.25C16.2949 2.25 17.75 3.70507 17.75 5.5C17.75 6.25426 17.4931 6.94852 17.0619 7.5H18C19.3807 7.5 20.5 8.61929 20.5 10V11.25C20.5 11.6642 20.1642 12 19.75 12H13.05C12.8843 12 12.75 11.8657 12.75 11.7V8.23909C12.4671 8.05794 12.214 7.83415 12 7.57678C11.786 7.83415 11.5329 8.05794 11.25 8.23909V11.7C11.25 11.8657 11.1157 12 10.95 12H4.25C3.83579 12 3.5 11.6642 3.5 11.25V10C3.5 8.61929 4.61929 7.5 6 7.5H6.93808C6.50694 6.94852 6.25 6.25426 6.25 5.5ZM11.25 5.5C11.25 4.5335 10.4665 3.75 9.5 3.75C8.5335 3.75 7.75 4.5335 7.75 5.5C7.75 6.4665 8.5335 7.25 9.5 7.25C10.4665 7.25 11.25 6.4665 11.25 5.5ZM12.75 5.5C12.75 6.4665 13.5335 7.25 14.5 7.25C15.4665 7.25 16.25 6.4665 16.25 5.5C16.25 4.5335 15.4665 3.75 14.5 3.75C13.5335 3.75 12.75 4.5335 12.75 5.5Z" fill="black"/>
<path d="M11.25 13.65C11.25 13.4843 11.1157 13.35 10.95 13.35H5.64901C5.24336 13.35 4.89672 13.6423 4.82821 14.0421C4.60616 15.3379 4.60616 16.6621 4.82821 17.9579L5.05252 19.2669C5.20356 20.1483 5.91941 20.8235 6.80812 20.9229L7.87325 21.0419C8.89415 21.156 9.91861 21.2276 10.944 21.2568C11.112 21.2616 11.25 21.1262 11.25 20.9581L11.25 13.65Z" fill="black"/>
<path d="M13.056 21.2568C12.888 21.2616 12.75 21.1262 12.75 20.9581L12.75 13.65C12.75 13.4843 12.8843 13.35 13.05 13.35H18.351C18.7566 13.35 19.1033 13.6423 19.1718 14.0421C19.3938 15.3379 19.3938 16.6621 19.1718 17.9579L18.9475 19.2669C18.7964 20.1483 18.0806 20.8235 17.1919 20.9229L16.1268 21.0419C15.1058 21.156 14.0814 21.2276 13.056 21.2568Z" fill="black"/>
</svg>
