<svg width="24" height="24" viewBox="0 0 24 24" fill="none" xmlns="http://www.w3.org/2000/svg">
<path fill-rule="evenodd" clip-rule="evenodd" d="M22.3461 13.0138C21.8473 16.1731 19.1242 18.5 15.9257 18.5H8.07434C4.87586 18.5 2.15272 16.1731 1.65388 13.0138C1.54783 12.3421 1.54783 11.6579 1.65388 10.9862C2.15272 7.82691 4.87586 5.5 8.07434 5.5H15.9257C19.1242 5.5 21.8473 7.8269 22.3461 10.9862C22.4522 11.6579 22.4522 12.3421 22.3461 13.0138ZM8 15.5C6.21517 15.5 4.72218 14.137 4.53599 12.3681C4.51034 12.1245 4.51034 11.8755 4.53599 11.6319C4.72218 9.86302 6.21517 8.5 8 8.5C9.78483 8.5 11.2778 9.86302 11.464 11.6319C11.4897 11.8755 11.4897 12.1245 11.464 12.3681C11.2778 14.137 9.78483 15.5 8 15.5Z" fill="black"/>
</svg>
