<svg width="24" height="24" viewBox="0 0 24 24" fill="none" xmlns="http://www.w3.org/2000/svg">
<path fill-rule="evenodd" clip-rule="evenodd" d="M6.53518 3.25C5.95006 3.25 5.40366 3.54243 5.07909 4.02927L1.48987 9.41311C1.27014 9.74271 1.24386 10.1648 1.42101 10.5191C3.38512 14.4473 6.11467 17.9432 9.44923 20.8014L11.2 22.3021C11.6603 22.6967 12.3397 22.6967 12.8 22.3021L14.5508 20.8014C17.8853 17.9432 20.6149 14.4473 22.579 10.5191C22.7561 10.1648 22.7299 9.74271 22.5101 9.41311L18.9209 4.02927C18.5963 3.54243 18.0499 3.25 17.4648 3.25H6.53518ZM6.32717 4.86132C6.37353 4.79178 6.45159 4.75 6.53518 4.75H8.87499L6.95987 9.34629C6.91576 9.45216 6.88246 9.56135 6.86002 9.67224C6.15619 9.61985 5.45296 9.55669 4.75057 9.48276L3.34486 9.33479L6.32717 4.86132ZM3.27865 10.8361C5.07205 14.1261 7.44021 17.0714 10.2732 19.5312L7.14775 11.1967C6.29541 11.1381 5.44387 11.064 4.59355 10.9745L3.27865 10.8361ZM8.78481 11.2902L12 19.864L15.2152 11.2902C13.0728 11.3876 10.9272 11.3876 8.78481 11.2902ZM16.8523 11.1967L13.7268 19.5312C16.5598 17.0714 18.9279 14.1261 20.7213 10.8361L19.4064 10.9745C18.5561 11.064 17.7046 11.1381 16.8523 11.1967ZM20.6551 9.33479L19.2494 9.48276C18.547 9.55669 17.8438 9.61985 17.14 9.67224C17.1175 9.56135 17.0842 9.45216 17.0401 9.34629L15.125 4.75H17.4648C17.5484 4.75 17.6265 4.79178 17.6728 4.86133L20.6551 9.33479ZM15.5917 9.77005C13.1988 9.89432 10.8012 9.89432 8.4083 9.77005L10.5 4.75H13.5L15.5917 9.77005Z" fill="black"/>
</svg>
