<svg width="24" height="24" viewBox="0 0 24 24" fill="none" xmlns="http://www.w3.org/2000/svg">
<path d="M12 3.75C8.52397 3.75 5.75 6.46727 5.75 9.76594C5.75 11.4449 6.32585 12.9303 7.37332 14.0012C7.49308 14.1237 7.49842 14.3209 7.37731 14.442L6.74235 15.077C6.62828 15.1911 6.44386 15.1949 6.33032 15.0803C4.96634 13.7038 4.25 11.8138 4.25 9.76594C4.25 5.59116 7.74404 2.25 12 2.25C13.9921 2.25 15.8173 2.98204 17.1954 4.18896C17.3223 4.30015 17.3245 4.49485 17.2052 4.61418L16.5675 5.25185C16.4529 5.36643 16.2685 5.3687 16.1454 5.26342C15.0457 4.32351 13.5969 3.75 12 3.75Z" fill="black"/>
<path fill-rule="evenodd" clip-rule="evenodd" d="M19.9971 3.94358L4.03033 19.9103C4.02136 19.9193 4.01222 19.928 4.00291 19.9364L3.96967 19.9697C3.67678 20.2626 3.67678 20.7374 3.96967 21.0303C4.26256 21.3232 4.73744 21.3232 5.03033 21.0303L7.76689 18.2938C7.90553 19.0496 8.01116 19.7434 8.03727 20.175C8.10735 21.3332 8.95941 22.2805 10.0894 22.5247L10.2854 22.567C11.4146 22.811 12.5854 22.811 13.7146 22.567L13.9106 22.5247C15.0406 22.2805 15.8927 21.3332 15.9627 20.175C15.9944 19.6512 16.1432 18.7412 16.326 17.8029C16.4575 17.128 16.6017 16.4627 16.7201 15.9601C16.7307 15.9148 16.7668 15.848 16.8532 15.7845C18.7464 14.3926 19.75 12.1898 19.75 9.76594C19.75 8.74722 19.5419 7.77813 19.1655 6.89512L21.0303 5.03033C21.3232 4.73744 21.3232 4.26256 21.0303 3.96967C20.7464 3.68575 20.2915 3.67705 19.9971 3.94358ZM18.25 9.76594C18.25 9.17624 18.1613 8.60512 17.9959 8.06478L9.15113 16.9095H14.9755C15.0739 16.4337 15.1732 15.9847 15.26 15.6162C15.3658 15.1672 15.6419 14.8133 15.9647 14.576C17.4291 13.4993 18.25 11.7705 18.25 9.76594ZM9.31128 18.4095C9.42169 19.0471 9.50831 19.6509 9.53454 20.0844C9.56215 20.5408 9.90326 20.9498 10.4062 21.0585L10.6022 21.1009C11.5226 21.2997 12.4774 21.2997 13.3978 21.1009L13.5938 21.0585C14.0967 20.9498 14.4379 20.5408 14.4655 20.0844C14.4917 19.6509 14.5783 19.0471 14.6887 18.4095H9.31128Z" fill="black"/>
</svg>
