<svg width="24" height="24" viewBox="0 0 24 24" fill="none" xmlns="http://www.w3.org/2000/svg">
<path d="M10.5 16C10.5 15.1716 11.1716 14.5 12 14.5C12.8284 14.5 13.5 15.1716 13.5 16C13.5 16.8284 12.8284 17.5 12 17.5C11.1716 17.5 10.5 16.8284 10.5 16Z" fill="black"/>
<path fill-rule="evenodd" clip-rule="evenodd" d="M7.62165 10.5971L7.30621 7.75816C7.26577 7.39418 7.26577 7.02684 7.30621 6.66286L7.32898 6.45796C7.57046 4.28457 9.27907 2.56492 11.4509 2.30941C11.8157 2.26649 12.1843 2.26649 12.5491 2.30941C14.7209 2.56492 16.4295 4.28458 16.671 6.45797L16.6937 6.66286C16.7342 7.02684 16.7342 7.39418 16.6937 7.75815L16.3783 10.5971L17.0649 10.6519C18.1476 10.7384 19.0317 11.5523 19.2073 12.6242C19.5733 14.8598 19.5733 17.1401 19.2073 19.3758C19.0317 20.4477 18.1476 21.2616 17.0649 21.348L15.5688 21.4675C13.1934 21.6571 10.8067 21.6571 8.43128 21.4675L6.93515 21.348C5.85242 21.2616 4.96832 20.4477 4.7928 19.3758C4.42673 17.1401 4.42673 14.8598 4.7928 12.6242C4.96832 11.5523 5.85242 10.7384 6.93515 10.6519L7.62165 10.5971ZM11.6261 3.79914C11.8745 3.76992 12.1255 3.76992 12.3738 3.79914C13.8525 3.97309 15.0157 5.1439 15.1802 6.62361L15.2029 6.82851C15.2311 7.08239 15.2311 7.33862 15.2029 7.59251L14.8818 10.483C12.9626 10.3594 11.0374 10.3594 9.1182 10.483L8.79704 7.59251C8.76883 7.33862 8.76883 7.08239 8.79704 6.82851L8.8198 6.62361C8.98422 5.1439 10.1475 3.97309 11.6261 3.79914ZM15.4494 12.0277C13.1535 11.8445 10.8466 11.8445 8.55065 12.0277L7.05452 12.1472C6.65959 12.1787 6.33711 12.4756 6.27309 12.8666C5.9333 14.9417 5.9333 17.0583 6.27309 19.1334C6.33711 19.5244 6.65959 19.8213 7.05452 19.8528L8.55065 19.9722C10.8466 20.1555 13.1535 20.1555 15.4494 19.9722L16.9455 19.8528C17.3405 19.8213 17.6629 19.5244 17.727 19.1334C18.0668 17.0583 18.0668 14.9417 17.727 12.8666C17.6629 12.4756 17.3405 12.1787 16.9455 12.1472L15.4494 12.0277Z" fill="black"/>
</svg>
