<svg width="24" height="24" viewBox="0 0 24 24" fill="none" xmlns="http://www.w3.org/2000/svg">
<path d="M12 2C12.5523 2 13 2.44772 13 3V3.75H13.5574C14.7394 3.75 15.8132 4.23822 16.5811 5.02888C16.6725 5.12308 16.6668 5.27254 16.5739 5.36539L15.8712 6.06817C15.766 6.17338 15.5933 6.16314 15.4887 6.05727C14.9953 5.5577 14.3105 5.25 13.5574 5.25H10.4426C9.00958 5.25 7.82354 6.36417 7.73409 7.79438L7.51309 11.3278C7.41169 12.949 6.86744 14.5112 5.93959 15.8444V15.8444C5.88921 15.9168 5.89094 16.0392 5.82886 16.1019L5.06546 16.8722C4.9675 16.9711 4.80583 16.9718 4.72466 16.8587C4.34697 16.3326 4.28858 15.5908 4.7084 14.9876C5.47946 13.8797 5.93175 12.5814 6.01601 11.2342L6.23702 7.70074C6.37591 5.48001 8.21751 3.75 10.4426 3.75H11V3C11 2.44772 11.4477 2 12 2Z" fill="black"/>
<path fill-rule="evenodd" clip-rule="evenodd" d="M17.7863 8.07431L21.0303 4.83032C21.3232 4.53742 21.3232 4.06255 21.0303 3.76966C20.7374 3.47676 20.2626 3.47676 19.9697 3.76966L3.96967 19.7697C3.67678 20.0626 3.67678 20.5374 3.96967 20.8303C4.26256 21.1232 4.73744 21.1232 5.03033 20.8303L8.07613 17.7845L9.24999 17.9254V19C9.24999 20.5188 10.4812 21.75 12 21.75C13.5188 21.75 14.75 20.5188 14.75 19V17.9254L18.1571 17.5165C19.3681 17.3712 19.9883 15.9886 19.2916 14.9876C18.5205 13.8797 18.0682 12.5814 17.984 11.2342L17.7863 8.07431ZM16.3719 9.48877L9.42503 16.4356L9.75925 16.4757C11.2477 16.6543 12.7523 16.6543 14.2407 16.4757L17.9784 16.0272C18.0659 16.0167 18.1108 15.9168 18.0604 15.8444C17.1326 14.5112 16.5883 12.949 16.4869 11.3278L16.3719 9.48877ZM12 20.25C11.3096 20.25 10.75 19.6904 10.75 19V18.25H13.25V19C13.25 19.6904 12.6904 20.25 12 20.25Z" fill="black"/>
</svg>
