<svg width="24" height="24" viewBox="0 0 24 24" fill="none" xmlns="http://www.w3.org/2000/svg">
<path d="M6.42881 2.41303C6.70117 2.10095 6.66898 1.62717 6.3569 1.35481C6.04483 1.08245 5.57105 1.11464 5.29868 1.42672L4.00688 2.90689C3.27411 3.74649 2.85988 4.81701 2.83665 5.93116L2.77997 8.64882C2.77133 9.06294 3.10004 9.40566 3.51417 9.41429C3.92829 9.42293 4.271 9.09422 4.27964 8.6801L4.33632 5.96244C4.35222 5.20012 4.63564 4.46767 5.137 3.8932L6.42881 2.41303Z" fill="black"/>
<path fill-rule="evenodd" clip-rule="evenodd" d="M6.23701 7.70081C6.37591 5.48007 8.21751 3.75006 10.4426 3.75006H11V3.00006C11 2.44778 11.4477 2.00006 12 2.00006C12.5523 2.00006 13 2.44778 13 3.00006V3.75006H13.5574C15.7825 3.75006 17.6241 5.48007 17.763 7.7008L17.984 11.2343C18.0682 12.5815 18.5205 13.8797 19.2916 14.9876C19.9883 15.9887 19.368 17.3713 18.1571 17.5166L14.75 17.9254V19.0001C14.75 20.5188 13.5188 21.7501 12 21.7501C10.4812 21.7501 9.25 20.5188 9.25 19.0001V17.9254L5.84287 17.5166C4.63194 17.3713 4.01172 15.9887 4.7084 14.9876C5.47946 13.8797 5.93175 12.5815 6.01601 11.2343L6.23701 7.70081ZM10.4426 5.25006C9.00958 5.25006 7.82354 6.36423 7.73409 7.79444L7.51309 11.3279C7.41169 12.949 6.86744 14.5113 5.93959 15.8445C5.88923 15.9168 5.93406 16.0168 6.02159 16.0273L9.75925 16.4758C11.2477 16.6544 12.7522 16.6544 14.2407 16.4758L17.9784 16.0273C18.0659 16.0168 18.1108 15.9168 18.0604 15.8445C17.1325 14.5113 16.5883 12.949 16.4869 11.3279L16.2659 7.79444C16.1764 6.36423 14.9904 5.25006 13.5574 5.25006H10.4426ZM12 20.2501C11.3096 20.2501 10.75 19.6904 10.75 19.0001V18.2501H13.25V19.0001C13.25 19.6904 12.6904 20.2501 12 20.2501Z" fill="black"/>
<path d="M17.6431 1.35481C17.331 1.62717 17.2988 2.10095 17.5712 2.41303L18.863 3.8932C19.3644 4.46767 19.6478 5.20012 19.6637 5.96244L19.7204 8.6801C19.729 9.09422 20.0717 9.42293 20.4858 9.41429C20.9 9.40566 21.2287 9.06294 21.22 8.64882L21.1633 5.93116C21.1401 4.81701 20.7259 3.74649 19.9931 2.90689L18.7013 1.42672C18.4289 1.11464 17.9552 1.08245 17.6431 1.35481Z" fill="black"/>
</svg>
