<svg width="24" height="24" viewBox="0 0 24 24" fill="none" xmlns="http://www.w3.org/2000/svg">
<path d="M11.4697 8.53033C11.6103 8.67098 11.8011 8.75 12 8.75C12.1989 8.75 12.3897 8.67098 12.5303 8.53033L13.5303 7.53033C13.7448 7.31583 13.809 6.99324 13.6929 6.71299C13.5768 6.43273 13.3033 6.25 13 6.25H11C10.6966 6.25 10.4232 6.43273 10.3071 6.71299C10.191 6.99324 10.2552 7.31583 10.4697 7.53033L11.4697 8.53033Z" fill="black"/>
<path d="M11.4697 15.4697C11.6103 15.329 11.8011 15.25 12 15.25C12.1989 15.25 12.3897 15.329 12.5303 15.4697L13.5303 16.4697C13.7448 16.6842 13.809 17.0068 13.6929 17.287C13.5768 17.5673 13.3033 17.75 13 17.75H11C10.6966 17.75 10.4232 17.5673 10.3071 17.287C10.191 17.0068 10.2552 16.6842 10.4697 16.4697L11.4697 15.4697Z" fill="black"/>
<path fill-rule="evenodd" clip-rule="evenodd" d="M13.149 12L13.3363 11.8386C15.3117 10.1366 16.9542 8.08279 18.1802 5.78147C18.6613 4.8784 18.064 3.77732 17.0446 3.6882L15.8711 3.58559C13.2953 3.36038 10.7047 3.36039 8.12888 3.58559L6.95534 3.6882C5.936 3.77732 5.3387 4.8784 5.8198 5.78148C7.04582 8.08279 8.68825 10.1366 10.6637 11.8386L10.851 12L10.6637 12.1614C8.68825 13.8634 7.04582 15.9172 5.8198 18.2185C5.3387 19.1216 5.936 20.2227 6.95534 20.3118L8.12888 20.4144C10.7047 20.6396 13.2953 20.6396 15.8711 20.4144L17.0446 20.3118C18.064 20.2227 18.6613 19.1216 18.1802 18.2185C16.9542 15.9172 15.3117 13.8634 13.3363 12.1614L13.149 12ZM12.0036 11.0063C12.0041 11.0061 12.0049 11.0058 12.0065 11.0044L12.3572 10.7022C14.1643 9.14525 15.6714 7.27129 16.8045 5.17292L15.7405 5.07989C13.2516 4.86229 10.7484 4.86229 8.25953 5.07989L7.19553 5.17292C8.32858 7.27129 9.83567 9.14525 11.6428 10.7022L11.9935 11.0044C11.9945 11.0053 11.9952 11.0057 11.9957 11.006C11.996 11.0061 11.9955 11.0059 11.9957 11.006C11.9965 11.0063 11.9984 11.0068 12 11.0068C12.0016 11.0068 12.0029 11.0065 12.0036 11.0063ZM12.0065 12.9956C12.0049 12.9942 12.0041 12.9939 12.0036 12.9937C12.0033 12.9936 12.0028 12.9935 12.0022 12.9934C12.0016 12.9932 12.0008 12.9932 12 12.9932C11.9984 12.9932 11.9971 12.9935 11.9964 12.9937C11.9959 12.9939 11.9951 12.9942 11.9935 12.9956L11.6428 13.2978C9.83567 14.8547 8.32858 16.7287 7.19553 18.8271L8.25953 18.9201C10.7484 19.1377 13.2516 19.1377 15.7405 18.9201L16.8045 18.8271C15.6714 16.7287 14.1643 14.8547 12.3572 13.2978L12.0065 12.9956Z" fill="black"/>
</svg>
