<svg width="24" height="24" viewBox="0 0 24 24" fill="none" xmlns="http://www.w3.org/2000/svg">
<path fill-rule="evenodd" clip-rule="evenodd" d="M12.6448 5.26375C12.2481 5.02488 11.7519 5.02488 11.3552 5.26375L10.8389 5.57464C9.45765 6.40635 7.90703 6.91671 6.30183 7.06794L5.97655 7.09859C5.84813 7.11069 5.75 7.2185 5.75 7.34749V8.99137C5.75 11.4989 6.76803 13.899 8.57088 15.6419L11.8262 18.7889C11.9231 18.8825 12.0769 18.8825 12.1738 18.7889L15.4291 15.6419C17.232 13.899 18.25 11.4989 18.25 8.99137V7.34749C18.25 7.2185 18.1519 7.11069 18.0235 7.09859L17.6982 7.06794C16.093 6.91671 14.5423 6.40635 13.1611 5.57464L12.6448 5.26375ZM10.5814 3.97873C11.4541 3.45322 12.5459 3.45322 13.4186 3.97873L13.9349 4.28962C15.1234 5.00527 16.4576 5.44443 17.8389 5.57456L18.1641 5.6052C19.0631 5.68989 19.75 6.44458 19.75 7.34749V8.99137C19.75 11.9055 18.5669 14.6948 16.4717 16.7203L13.2163 19.8673C12.538 20.5231 11.462 20.5231 10.7837 19.8673L7.52832 16.7203C5.43311 14.6948 4.25 11.9055 4.25 8.99137V7.34749C4.25 6.44458 4.93693 5.68989 5.83585 5.6052L6.16113 5.57456C7.54235 5.44443 8.87661 5.00528 10.0651 4.28962L10.5814 3.97873Z" fill="black"/>
</svg>
