<svg width="24" height="24" viewBox="0 0 24 24" fill="none" xmlns="http://www.w3.org/2000/svg">
<path d="M8 15.5C6.21517 15.5 4.72218 14.137 4.53599 12.3681C4.51034 12.1245 4.51034 11.8755 4.53599 11.6319C4.72218 9.86302 6.21516 8.5 8 8.5C9.78483 8.5 11.2778 9.86302 11.464 11.6319C11.4896 11.8755 11.4896 12.1245 11.464 12.3681C11.2778 14.137 9.78483 15.5 8 15.5Z" fill="black"/>
<path fill-rule="evenodd" clip-rule="evenodd" d="M8.07434 18.75H15.9257C19.2472 18.75 22.075 16.3336 22.5931 13.0527C22.7032 12.3552 22.7032 11.6448 22.5931 10.9473C22.075 7.6664 19.2472 5.25 15.9257 5.25H8.07434C4.75284 5.25 1.92497 7.6664 1.40694 10.9473C1.29681 11.6448 1.29681 12.3552 1.40694 13.0527C1.92497 16.3336 4.75284 18.75 8.07434 18.75ZM8.07434 17.25C5.49095 17.25 3.2915 15.3706 2.88859 12.8188C2.80293 12.2763 2.80293 11.7237 2.88859 11.1812C3.2915 8.62942 5.49095 6.75 8.07434 6.75L15.9257 6.75C18.5091 6.75 20.7085 8.62942 21.1114 11.1812C21.1971 11.7237 21.1971 12.2763 21.1114 12.8188C20.7085 15.3706 18.5091 17.25 15.9257 17.25H8.07434Z" fill="black"/>
</svg>
